<?xml version="1.0" standalone="no"?>
<!DOCTYPE svg PUBLIC "-//W3C//DTD SVG 1.1//EN" "http://www.w3.org/Graphics/SVG/1.1/DTD/svg11.dtd" >
<svg xmlns="http://www.w3.org/2000/svg" xmlns:xlink="http://www.w3.org/1999/xlink" version="1.1">
<metadata>
Created by FontForge 20170731 at Mon Oct  5 07:27:47 2020
 By Aleksey,,,
Copyright (c) Eland Retail. All Rights Reserved.
</metadata>
<defs>
<font id="ELANDChoiceB" horiz-adv-x="920" >
  <font-face 
    font-family="ELAND Choice Bold"
    font-weight="400"
    font-stretch="normal"
    units-per-em="1000"
    panose-1="2 2 6 3 2 1 1 2 1 1"
    ascent="800"
    descent="-200"
    x-height="462"
    cap-height="674"
    bbox="-44 -279 951 800"
    underline-thickness="25"
    underline-position="-181"
    unicode-range="U+0020-FFE6"
  />
<missing-glyph horiz-adv-x="900" 
d="M50 -150v900h800v-900h-800zM115 -114h670l-335 385zM424 301l-334 384v-768zM783 714h-667l333 -384zM476 300l334 -384v770z" />
    <glyph glyph-name=".notdef" horiz-adv-x="900" 
d="M50 -150v900h800v-900h-800zM115 -114h670l-335 385zM424 301l-334 384v-768zM783 714h-667l333 -384zM476 300l334 -384v770z" />
    <glyph glyph-name="glyph1" horiz-adv-x="0" 
 />
    <glyph glyph-name="glyph2" horiz-adv-x="1024" 
 />
    <glyph glyph-name="space" unicode=" " horiz-adv-x="280" 
 />
    <glyph glyph-name="exclam" unicode="!" horiz-adv-x="308" 
d="M95 135l-7 600h131l-8 -600h-116zM90 -71v132h125v-132h-125z" />
    <glyph glyph-name="quotedbl" unicode="&#x22;" horiz-adv-x="380" 
d="M162 564h-92l-10 220h112zM313 564h-92l-10 220h112z" />
    <glyph glyph-name="numbersign" unicode="#" horiz-adv-x="680" 
d="M480 136l-43 -222h-110l43 222h-131l-43 -222h-110l43 222h-97v92h115l31 156h-120v92h138l43 218h110l-43 -218h131l43 218h110l-43 -218h100v-92h-118l-31 -156h123v-92h-141zM257 228h131l31 156h-131z" />
    <glyph glyph-name="dollar" unicode="$" horiz-adv-x="556" 
d="M243 -65q-51 2 -98 16t-91 43l50 93q28 -19 63 -34.5t76 -19.5v227q-82 44 -124 97t-42 126q0 38 12.5 69.5t34.5 55.5t52.5 40t66.5 22v85h96v-84q38 -5 72 -17.5t73 -32.5l-48 -88q-49 31 -97 41v-248q37 -20 66 -40t49.5 -43t31.5 -50.5t11 -61.5q0 -37 -12 -67.5
t-33.5 -54t-50.5 -40t-62 -25.5v-90h-96v81zM188 483q0 -38 14 -61.5t41 -42.5v191q-26 -10 -40.5 -32t-14.5 -55zM386 127q0 25 -13.5 44t-33.5 35v-158q22 11 34.5 31t12.5 48z" />
    <glyph glyph-name="percent" unicode="%" horiz-adv-x="890" 
d="M572 684h111l-373 -760h-111zM227 349q-34 0 -64.5 11.5t-53 32.5t-36 51.5t-13.5 68.5t13.5 68.5t36 51.5t53 32.5t64.5 11.5t64.5 -11.5t53 -32.5t36 -51.5t13.5 -68.5t-13.5 -68.5t-36 -51.5t-53 -32.5t-64.5 -11.5zM227 445q28 0 45.5 19.5t17.5 48.5t-17.5 48.5
t-45.5 19.5t-45.5 -19.5t-17.5 -48.5t17.5 -48.5t45.5 -19.5zM662 -65q-34 0 -64.5 11.5t-53 32.5t-36 51.5t-13.5 68.5t13.5 68.5t36 51.5t53 32.5t64.5 11.5t64.5 -11.5t53 -32.5t36 -51.5t13.5 -68.5t-13.5 -68.5t-36 -51.5t-53 -32.5t-64.5 -11.5zM662 31
q28 0 45.5 19.5t17.5 48.5t-17.5 48.5t-45.5 19.5t-45.5 -19.5t-17.5 -48.5t17.5 -48.5t45.5 -19.5z" />
    <glyph glyph-name="ampersand" unicode="&#x26;" horiz-adv-x="710" 
d="M508 -18q-38 -32 -87.5 -49.5t-112.5 -17.5q-49 0 -95.5 12t-82.5 36.5t-57.5 63.5t-21.5 93q0 81 42 136t112 93q-22 31 -35 56t-19.5 45.5t-8 36.5t-1.5 30q0 46 17 79.5t45 55.5t62.5 32t70.5 10q39 0 72.5 -11t58.5 -32t39.5 -52t14.5 -71q0 -35 -13.5 -63.5
t-36 -53.5t-51.5 -47t-61 -42l142 -170q13 33 19.5 69.5t8.5 71.5h109q-4 -63 -18.5 -122.5t-43.5 -108.5l102 -123h-135zM306 13q44 0 77 13t58 36l-170 205q-43 -27 -73.5 -60t-30.5 -81q0 -31 12.5 -52.5t32.5 -35t44.5 -19.5t49.5 -6zM255 522q0 -32 13 -65t31 -60
q48 28 79 61.5t31 68.5q0 36 -21 54t-53 18q-35 0 -57.5 -19t-22.5 -58z" />
    <glyph glyph-name="quotesingle" unicode="'" horiz-adv-x="224" 
d="M158 564h-92l-10 220h112z" />
    <glyph glyph-name="parenleft" unicode="(" horiz-adv-x="380" 
d="M202 314q0 -62 9 -118t27.5 -109t46 -106t64.5 -109h-97q-30 40 -59 88.5t-52 104.5t-37 118.5t-14 130.5t14 130.5t37 118.5t52 104.5t59 88.5h97q-37 -56 -64.5 -109t-46 -106t-27.5 -109t-9 -118z" />
    <glyph glyph-name="parenright" unicode=")" horiz-adv-x="380" 
d="M176 314q0 62 -9 118t-27.5 109t-46 106t-64.5 109h97q30 -40 59 -88.5t52 -104.5t37 -118.5t14 -130.5t-14 -130.5t-37 -118.5t-52 -104.5t-59 -88.5h-97q37 56 64.5 109t46 106t27.5 109t9 118z" />
    <glyph glyph-name="asterisk" unicode="*" horiz-adv-x="450" 
d="M273 403h-88l5 100l-84 -56l-44 71l87 47l-86 46l41 73l87 -57l-6 98h88l-4 -96l86 55l41 -73l-86 -46l87 -47l-44 -71l-85 57z" />
    <glyph glyph-name="plus" unicode="+" horiz-adv-x="615" 
d="M362 550v-195h193v-99h-193v-196h-110v196h-193v99h193v195h110z" />
    <glyph glyph-name="comma" unicode="," horiz-adv-x="300" 
d="M218 -45q0 -26 -7 -49t-23.5 -41.5t-43.5 -31t-66 -16.5v69q21 2 39 11t18 29v5h-53v135h136v-111z" />
    <glyph glyph-name="hyphen" unicode="-" horiz-adv-x="480" 
d="M55 355h370v-99h-370v99z" />
    <glyph glyph-name="period" unicode="." horiz-adv-x="300" 
d="M218 -79h-136v135h136v-135z" />
    <glyph glyph-name="slash" unicode="/" horiz-adv-x="475" 
d="M346 714h107l-326 -820h-105z" />
    <glyph glyph-name="zero" unicode="0" horiz-adv-x="610" 
d="M170 304q0 -82 10.5 -138t29 -90t43 -48.5t52.5 -14.5t52.5 14.5t43 48.5t29 90t10.5 138t-10.5 138t-29 90t-43 48.5t-52.5 14.5t-52.5 -14.5t-43 -48.5t-29 -90t-10.5 -138zM45 304q0 101 19 174.5t53.5 121.5t82 71t105.5 23t105.5 -23t82 -71t53.5 -121.5t19 -174.5
t-19 -174.5t-53.5 -121.5t-82 -71t-105.5 -23t-105.5 23t-82 71t-53.5 121.5t-19 174.5z" />
    <glyph glyph-name="one" unicode="1" horiz-adv-x="460" 
d="M79 514v75q25 0 47 4t38.5 14t26 26.5t9.5 41.5v9h119v-760h-119v590h-121z" />
    <glyph glyph-name="two" unicode="2" horiz-adv-x="600" 
d="M54 1q90 87 156 153t109.5 118.5t64.5 94t22 79.5q2 64 -30.5 103t-97.5 39q-38 0 -83.5 -21.5t-83.5 -64.5l-62 88q51 55 113.5 79.5t134.5 24.5q59 0 103 -20t73 -52.5t42.5 -75t12.5 -87.5q-2 -54 -21 -102t-56 -98.5t-91.5 -106t-127.5 -124.5h319v-104h-497v77z" />
    <glyph glyph-name="three" unicode="3" horiz-adv-x="600" 
d="M95 66q31 -20 75.5 -34t95.5 -14q45 0 76 11t50.5 28t28 38.5t8.5 41.5q0 35 -15.5 61.5t-41.5 44t-59.5 26t-70.5 8.5h-58v96h58q28 0 56.5 8t51.5 23t37 37.5t14 51.5q0 41 -29.5 68t-93.5 27q-20 0 -41 -5t-41.5 -12.5t-39.5 -18t-33 -20.5l-53 86q51 38 108 56.5
t119 18.5q59 0 102 -16t71.5 -41.5t42 -59t13.5 -67.5q0 -23 -5.5 -48t-18.5 -49t-34.5 -45.5t-52.5 -37.5q60 -19 99.5 -68t40.5 -126q0 -45 -18.5 -85.5t-55 -70.5t-90.5 -47.5t-123 -17.5q-65 0 -120 13.5t-106 42.5l53 96v0z" />
    <glyph glyph-name="four" unicode="4" horiz-adv-x="600" 
d="M375 62h-345v79l336 543h127v-521h92v-101h-92v-138h-61l-57 58v80zM375 518l-217 -355h217v355z" />
    <glyph glyph-name="five" unicode="5" horiz-adv-x="600" 
d="M205 684h331v-104h-289l-21 -160q7 1 17 1h18q61 0 114.5 -14.5t93.5 -44.5t62.5 -77t22.5 -111q0 -57 -20.5 -105t-58.5 -82.5t-92 -53.5t-122 -19q-63 0 -118.5 13t-87.5 33l32 102q14 -8 34.5 -15.5t44 -13t48 -9t47.5 -3.5q85 0 130 38.5t45 114.5q0 67 -54.5 107
t-166.5 40q-26 0 -54 -2t-64 -6l36 293z" />
    <glyph glyph-name="six" unicode="6" horiz-adv-x="600" 
d="M497 593q-119 2 -199 -47.5t-109 -155.5q26 20 63.5 32t81.5 12q50 0 90.5 -18.5t69.5 -52.5t45 -82t16 -106q0 -54 -16.5 -102t-48.5 -83t-78.5 -55.5t-105.5 -20.5t-107.5 21.5t-82.5 61.5t-52.5 97.5t-18.5 130.5q0 106 28.5 192t84 147t138 94.5t190.5 35.5zM308 13
q53 0 88 39.5t35 114.5q0 36 -7.5 67t-22.5 53.5t-39 35.5t-57 13q-39 0 -75 -23.5t-56 -58.5q-3 -7 -5 -16t-2 -23q0 -42 9.5 -79t27.5 -64.5t44.5 -43t59.5 -15.5z" />
    <glyph glyph-name="seven" unicode="7" horiz-adv-x="580" 
d="M535 606l-313 -682h-128l304 656h-338v104h475v-78z" />
    <glyph glyph-name="eight" unicode="8" horiz-adv-x="600" 
d="M41 128q0 67 33 116t92 80q-30 20 -48.5 42.5t-29 45t-14 44t-3.5 40.5q0 37 15.5 72.5t44.5 63.5t72 45t97 17q55 0 97.5 -17t72 -45t45 -63.5t15.5 -72.5q0 -19 -4 -40.5t-15.5 -44t-30.5 -45t-49 -42.5q56 -28 92.5 -76t36.5 -120q0 -50 -20.5 -90t-56 -68t-83 -42.5
t-100.5 -14.5t-100 14.5t-82.5 42.5t-56 68t-20.5 90zM439 128q0 49 -34.5 83.5t-104.5 61.5q-69 -26 -103.5 -61t-34.5 -84q0 -26 11 -46t30 -34t44 -21.5t53 -7.5t53.5 7.5t44.5 21.5t30 34t11 46zM189 491q0 -23 9.5 -43t25 -36.5t35 -29t39.5 -21.5q55 20 84.5 57
t29.5 73q0 42 -28.5 72t-83.5 30q-54 0 -82.5 -30t-28.5 -72z" />
    <glyph glyph-name="nine" unicode="9" horiz-adv-x="600" 
d="M103 15q119 -2 199 47.5t109 155.5q-26 -20 -63.5 -32t-81.5 -12q-50 0 -90.5 17t-69.5 49.5t-45 78.5t-16 104q0 60 17.5 110t50.5 85.5t80 55.5t106 20t106.5 -21.5t80.5 -61.5t51 -97.5t18 -130.5q0 -106 -28.5 -192t-84 -147t-138 -95t-190.5 -35zM297 595
q-26 0 -49.5 -9.5t-41 -29.5t-27.5 -51t-10 -74q0 -72 30 -115.5t96 -43.5q39 0 75 23.5t56 58.5q3 7 5 16t2 23q0 42 -8.5 79t-26 64.5t-43 43t-58.5 15.5z" />
    <glyph glyph-name="colon" unicode=":" horiz-adv-x="300" 
d="M218 409h-136v135h136v-135zM218 64h-136v135h136v-135z" />
    <glyph glyph-name="semicolon" unicode=";" horiz-adv-x="300" 
d="M218 409h-136v135h136v-135zM218 88q0 -26 -7 -49t-23.5 -41.5t-43.5 -31t-66 -16.5v69q21 2 39 11t18 29v5h-53v135h136v-111z" />
    <glyph glyph-name="less" unicode="&#x3c;" horiz-adv-x="520" 
d="M448 71v-171l-336 406l336 406v-171l-196 -235z" />
    <glyph glyph-name="equal" unicode="=" horiz-adv-x="580" 
d="M59 450h461v-99h-461v99zM59 260h461v-99h-461v99z" />
    <glyph glyph-name="greater" unicode="&#x3e;" horiz-adv-x="520" 
d="M268 306l-196 235v171l336 -406l-336 -406v171z" />
    <glyph glyph-name="question" unicode="?" horiz-adv-x="510" 
d="M178 235q0 48 14.5 95.5t52.5 92.5q35 41 56 73t21 66q0 35 -20.5 57.5t-58.5 22.5q-35 0 -69.5 -21t-66.5 -61l-63 84q89 99 208 99q49 0 86 -14t62 -37.5t37 -54t12 -63.5q0 -27 -8.5 -52.5t-23 -49.5t-33 -47t-37.5 -45q-32 -36 -43 -70.5t-11 -75.5v-99h-115v100z
M172 -70v131h128v-131h-128z" />
    <glyph glyph-name="at" unicode="@" horiz-adv-x="870" 
d="M435 -75q-90 0 -160 25t-117 71.5t-71.5 112.5t-24.5 148q0 81 28 154t81 128t129 87.5t172 32.5q73 0 134.5 -23t106 -64.5t69.5 -98.5t25 -125q0 -67 -16.5 -118t-45.5 -86t-68.5 -53t-84.5 -18q-43 0 -73.5 12.5t-44.5 35.5q-17 -15 -46.5 -32t-65.5 -17
q-29 0 -53.5 10.5t-41.5 31t-24.5 51t-1.5 71.5q7 53 25 98.5t46 79.5t65.5 53t82.5 19q24 0 45.5 -10.5t32.5 -29.5l8 29h107l-92 -287q-3 -12 2 -20.5t16 -8.5q24 0 47 10.5t41 33t29 57.5t11 83q0 111 -62.5 171t-174.5 60q-65 0 -121 -22.5t-97.5 -63.5t-65.5 -99.5
t-24 -130.5q0 -126 67.5 -199t205.5 -73q62 0 113.5 12.5t86.5 24.5l19 -80q-48 -19 -101.5 -31t-117.5 -12zM349 254q-6 -35 5 -51t31 -17q17 -1 36 8t36 26l58 182q-9 9 -20 12.5t-28 5.5q-17 1 -34.5 -7t-33.5 -28t-29.5 -52t-20.5 -79z" />
    <glyph glyph-name="A" unicode="A" horiz-adv-x="680" 
d="M486 104h-204l-40 40v61h209l-113 329l-207 -605h-123l268 755h125l268 -755h-123z" />
    <glyph glyph-name="B" unicode="B" horiz-adv-x="670" 
d="M76 11v673h259q116 0 178.5 -47.5t62.5 -147.5q0 -51 -20.5 -94t-62.5 -72q54 -20 85.5 -66.5t31.5 -111.5q0 -106 -61 -163.5t-178 -57.5h-217zM358 28q58 0 94 29t36 89q0 58 -35 88.5t-105 30.5h-149v-237h159zM324 367q28 0 52 6.5t41 20t27 35.5t10 53q0 28 -9.5 47
t-25.5 30t-38.5 16t-47.5 5h-134v-213h125z" />
    <glyph glyph-name="C" unicode="C" horiz-adv-x="640" 
d="M44 301q0 79 20 150.5t62 125.5t107.5 85.5t155.5 31.5q59 0 111.5 -18t98.5 -53l-63 -88q-32 24 -66.5 40.5t-81.5 16.5q-57 0 -98.5 -23.5t-68.5 -63.5t-40 -93t-13 -111q0 -56 13 -107.5t40 -91t68.5 -63t98.5 -23.5q49 0 91 18t80 58l59 -88q-48 -45 -106.5 -67.5
t-122.5 -22.5q-90 0 -155.5 31.5t-107.5 85t-62 123.5t-20 147z" />
    <glyph glyph-name="D" unicode="D" horiz-adv-x="690" 
d="M283 684q88 0 153.5 -28t108.5 -78.5t64 -120t21 -152.5t-21 -153t-64 -120.5t-108.5 -79t-153.5 -28.5h-129l-78 87v673h207zM290 28q42 0 80.5 14.5t68 47t47 85.5t17.5 130q0 76 -18.5 129t-49 85t-71 46.5t-84.5 14.5h-81v-552h91z" />
    <glyph glyph-name="E" unicode="E" horiz-adv-x="600" 
d="M200 265v-237h376v-104h-422l-78 87v673h482v-104h-358v-213h351v-102h-351z" />
    <glyph glyph-name="F" unicode="F" horiz-adv-x="590" 
d="M548 684v-104h-349v-208h328v-102h-328v-346h-73l-50 50v710h472z" />
    <glyph glyph-name="G" unicode="G" horiz-adv-x="700" 
d="M167 304q0 -57 12.5 -109t39.5 -91.5t69 -63.5t101 -24q41 0 71 8.5t60 25.5v187h-174v103h217l78 -87v-247q-23 -22 -52.5 -39t-62.5 -29t-68 -18.5t-67 -6.5q-91 0 -156.5 32t-108 85.5t-62.5 124.5t-20 149q0 79 20.5 150t63.5 124.5t107.5 84.5t153.5 31
q59 0 111.5 -18t98.5 -53l-63 -88q-32 24 -66.5 40.5t-81.5 16.5q-56 0 -97 -24t-69 -63.5t-41.5 -91.5t-13.5 -109z" />
    <glyph glyph-name="H" unicode="H" horiz-adv-x="670" 
d="M618 -76h-74l-50 50v300h-221l-40 40v61h261v309h124v-760zM200 -76h-74l-50 50v710h124v-760z" />
    <glyph glyph-name="I" unicode="I" horiz-adv-x="380" 
d="M251 587v-566h98v-97h-278l-40 40v57h96v566h-91v97h308v-97h-93z" />
    <glyph glyph-name="J" unicode="J" horiz-adv-x="480" 
d="M378 587v-424q0 -71 -17.5 -119t-48.5 -77t-73 -41t-90 -12q-29 0 -61.5 3.5t-53.5 11.5l17 103q20 -5 44 -9t47 -4q27 0 47.5 5.5t35 21.5t22 43t7.5 71v427h-147v97h367v-97h-96z" />
    <glyph glyph-name="K" unicode="K" horiz-adv-x="620" 
d="M200 414l247 270h149l-294 -321l312 -434h-144l-249 345l-21 -23v-327h-74l-50 50v710h124v-270z" />
    <glyph glyph-name="L" unicode="L" horiz-adv-x="570" 
d="M200 684v-656h345v-104h-392l-77 87v673h124z" />
    <glyph glyph-name="M" unicode="M" horiz-adv-x="830" 
d="M682 -76l-50 50v441l-163 -491h-110l-163 491v-491h-70l-50 50v710h136l202 -614l202 614h136v-760h-70z" />
    <glyph glyph-name="N" unicode="N" horiz-adv-x="690" 
d="M76 -26v710h154l270 -600v600h118v-760h-153l-271 606v-606h-68z" />
    <glyph glyph-name="O" unicode="O" horiz-adv-x="720" 
d="M357 -86q-72 0 -130 26.5t-98.5 76t-62 121t-21.5 160.5q0 92 21.5 165t61.5 124t98 78t131 27t131 -27t98 -78t61.5 -124t21.5 -165q0 -89 -21.5 -160.5t-62 -121t-98.5 -76t-130 -26.5zM357 593q-52 0 -87.5 -23.5t-58 -63.5t-32.5 -94t-10 -114t11 -112t34 -90.5
t58.5 -60t84.5 -21.5t84.5 21.5t58.5 60t34 90.5t11 112t-10 114t-32.5 94t-58 63.5t-87.5 23.5z" />
    <glyph glyph-name="P" unicode="P" horiz-adv-x="620" 
d="M76 -26v710h275q119 0 179 -62t60 -173q0 -109 -60.5 -173t-178.5 -64h-152v-288h-73zM337 315q58 0 95 33t37 99t-37 99.5t-95 33.5h-138v-265h138z" />
    <glyph glyph-name="Q" unicode="Q" horiz-adv-x="720" 
d="M357 -86q-72 0 -130 26.5t-98.5 76t-62 121t-21.5 160.5q0 92 21.5 165t61.5 124t98 78t131 27t131 -27t98 -78t61.5 -124t21.5 -165q0 -97 -25 -170.5t-71 -124.5l68 -66l-75 -76l-81 79q-58 -26 -128 -26zM407 167l85 -84q27 39 40 94t13 121q0 60 -10 114t-32.5 94
t-58 63.5t-87.5 23.5t-87.5 -23.5t-58 -63.5t-32.5 -94t-10 -114t11 -112t34 -90.5t58.5 -60t84.5 -21.5q22 0 45 5l-71 70z" />
    <glyph glyph-name="R" unicode="R" horiz-adv-x="640" 
d="M76 -26v710h275q119 0 179 -62t60 -173q0 -88 -39.5 -147.5t-116.5 -79.5l192 -298h-134l-187 288h-106v-288h-73zM337 315q58 0 95 33t37 99t-37 99.5t-95 33.5h-138v-265h138z" />
    <glyph glyph-name="S" unicode="S" horiz-adv-x="550" 
d="M91 79q48 -34 86 -48.5t83 -14.5q60 0 94 29t34 82q0 22 -6 40.5t-20.5 35t-39 31.5t-62.5 30q-95 37 -150.5 93t-55.5 142q0 48 18 84.5t51 60.5t78 36.5t99 12.5q56 0 105 -17.5t92 -48.5l-57 -90q-40 29 -72.5 41.5t-70.5 12.5q-60 0 -89.5 -26.5t-29.5 -64.5
q0 -26 8.5 -46t26 -36.5t44.5 -30.5t63 -28q98 -38 145 -93t47 -142q0 -44 -15.5 -82t-46.5 -67t-78 -45.5t-111 -16.5q-62 0 -115 16.5t-108 57.5l53 92v0z" />
    <glyph glyph-name="T" unicode="T" horiz-adv-x="590" 
d="M32 580v104h526v-104h-206v-656h-73l-50 50v606h-197z" />
    <glyph glyph-name="U" unicode="U" horiz-adv-x="690" 
d="M347 -86q-57 0 -106.5 16.5t-86 52.5t-57.5 92.5t-21 136.5v472h124v-486q0 -98 40 -139t107 -41t107 41t40 139v486h124v-472q0 -80 -21 -136.5t-57.5 -92.5t-86 -52.5t-106.5 -16.5z" />
    <glyph glyph-name="V" unicode="V" horiz-adv-x="680" 
d="M546 684h123l-268 -755h-125l-268 755h123l207 -605z" />
    <glyph glyph-name="W" unicode="W" horiz-adv-x="890" 
d="M504 684l126 -582l126 582h122l-180 -760h-130l-124 572l-124 -572h-130l-180 760h122l126 -582l126 582h120z" />
    <glyph glyph-name="X" unicode="X" horiz-adv-x="650" 
d="M259 304l-243 380h132l177 -277l178 277h132l-244 -380l244 -380h-131l-179 278l-178 -278h-131z" />
    <glyph glyph-name="Y" unicode="Y" horiz-adv-x="640" 
d="M257 252l-242 432h133l171 -310l175 310h131l-245 -431v-329h-73l-50 50v278z" />
    <glyph glyph-name="Z" unicode="Z" horiz-adv-x="620" 
d="M424 580h-377v104h533v-73l-390 -583h395v-104h-551v71z" />
    <glyph glyph-name="bracketleft" unicode="[" horiz-adv-x="380" 
d="M92 713h236v-98h-117v-621h117v-100h-236v819z" />
    <glyph glyph-name="backslash" unicode="\" horiz-adv-x="950" 
d="M799 268l-74 -318h-117l-76 318h-108l-76 -318h-117l-74 318h-128v102h104l-68 293h109l63 -293h116l70 293h110l69 -293h116l64 293h110l-69 -293h99v-102h-123zM292 115l36 153h-69zM663 116l33 152h-69zM449 370h58l-29 122z" />
    <glyph glyph-name="bracketright" unicode="]" horiz-adv-x="380" 
d="M288 -106h-236v100h117v621h-117v98h236v-819z" />
    <glyph glyph-name="asciicircum" unicode="^" horiz-adv-x="470" 
d="M41 511l141 273h105l142 -273h-117l-77 151l-77 -151h-117z" />
    <glyph glyph-name="underscore" unicode="_" horiz-adv-x="450" 
d="M450 -137h-450v99h450v-99z" />
    <glyph glyph-name="grave" unicode="`" horiz-adv-x="350" 
d="M211 779l67 -210h-104l-102 210h139z" />
    <glyph glyph-name="a" unicode="a" horiz-adv-x="590" 
d="M44 67q0 63 39.5 104t105.5 56q58 14 115 23t108 20v5q0 19 -6.5 36t-21.5 30t-40 20.5t-61 7.5q-39 0 -83.5 -12.5t-79.5 -38.5l-43 91q40 27 95.5 45t121.5 18q71 0 117.5 -19.5t74 -51.5t38.5 -72t11 -81v-324h-83l-40 40v21q-17 -20 -39.5 -33.5t-47 -22t-50 -12
t-47.5 -3.5q-48 0 -83 12.5t-57.5 34t-33 49t-10.5 57.5zM407 87q5 14 5 26v64q-50 -10 -96.5 -19t-78.5 -14q-35 -6 -53 -25t-18 -46q0 -29 21 -47t67 -18q25 0 50.5 6.5t46.5 18t36 25.5t20 29z" />
    <glyph glyph-name="b" unicode="b" horiz-adv-x="630" 
d="M199 684v-265q28 29 70 43.5t78 14.5q52 0 97 -19.5t78 -56t52 -88t19 -114.5q0 -72 -21 -126t-55.5 -89t-79 -52.5t-90.5 -17.5q-37 0 -76.5 14.5t-71.5 50.5v-55h-68l-55 55v705h123zM199 146q0 -27 9.5 -51t27 -42t41 -28.5t52.5 -10.5q67 0 103 50t36 135
q0 37 -7 69.5t-23 56.5t-42.5 38t-64.5 14q-28 0 -52 -12t-42 -32.5t-28 -46.5t-10 -53v-87z" />
    <glyph glyph-name="c" unicode="c" horiz-adv-x="530" 
d="M512 -51q-25 -12 -71.5 -23t-101.5 -11q-62 0 -115.5 19t-93.5 55t-63 87t-23 116q0 64 21.5 116t61 88.5t95 56t122.5 19.5q21 0 45 -2t47 -6.5t42.5 -10.5t31.5 -13l-27 -97q-26 12 -64 20t-75 8q-39 0 -71 -12t-55.5 -34.5t-36.5 -55t-13 -72.5q0 -44 16 -77.5
t42 -56.5t59 -34.5t67 -11.5q38 0 75 9t63 20l22 -97v0z" />
    <glyph glyph-name="d" unicode="d" horiz-adv-x="630" 
d="M562 684v-760h-83l-40 40v15q-32 -36 -71.5 -50.5t-76.5 -14.5q-47 0 -91 17.5t-78.5 52.5t-55.5 89t-21 126q0 63 19 114.5t52 88t78 56t97 19.5q18 0 38 -3.5t39.5 -11t38 -18t32.5 -25.5v265h123zM439 233q0 27 -10 53t-28 46.5t-42 32.5t-52 12q-38 0 -64.5 -14
t-42.5 -38t-23 -56.5t-7 -69.5q0 -85 36 -135t103 -50q28 0 52 10.5t41.5 28.5t27 42t9.5 51v87z" />
    <glyph glyph-name="e" unicode="e" horiz-adv-x="590" 
d="M300 372q-32 0 -54.5 -11t-37.5 -29t-23 -40.5t-11 -45.5h251q-1 23 -9 45.5t-23 40.5t-38.5 29t-54.5 11zM533 -24q-54 -35 -106.5 -48.5t-109.5 -13.5q-53 0 -102 16t-87 50t-61 85.5t-23 123.5q0 69 18.5 122t52 88.5t80.5 54t105 18.5q126 0 189.5 -75.5t63.5 -210.5
v-37h-385q2 -35 16 -60.5t35.5 -42t49 -24.5t56.5 -8q38 0 81.5 12t89.5 41z" />
    <glyph glyph-name="f" unicode="f" horiz-adv-x="390" 
d="M272 588q-17 0 -23.5 -6.5t-6.5 -26.5v-93h123v-96h-123v-441h-72l-49 49v392h-56l-40 40v56h96v93q0 30 5.5 54t19 40.5t36 25.5t56.5 9h123v-96h-89z" />
    <glyph glyph-name="g" unicode="g" horiz-adv-x="610" 
d="M439 233q0 27 -10 53t-28 46.5t-42 32.5t-52 12q-38 0 -64.5 -14t-42.5 -38t-23 -56.5t-7 -69.5q0 -85 36 -135t103 -50q28 0 52 10.5t41.5 28.5t27 42t9.5 51v87zM562 462v-502q0 -44 -12.5 -86.5t-43 -76.5t-82 -55t-130.5 -21q-48 0 -99 10t-92 35l36 97
q40 -20 77 -30.5t81 -10.5q29 0 55 8t45.5 24.5t30.5 41.5t11 58v25q-32 -36 -71.5 -50.5t-76.5 -14.5q-47 0 -91 17.5t-78.5 52.5t-55.5 89t-21 126q0 63 19 114.5t52 88t78 56t97 19.5q18 0 38 -3.5t39.5 -11t38 -18t32.5 -25.5v43h123z" />
    <glyph glyph-name="h" unicode="h" horiz-adv-x="620" 
d="M439 273q0 45 -23 70.5t-69 25.5q-23 0 -46 -9.5t-43 -25t-36 -35.5t-25 -42v-333h-71l-50 50v710h121v-288q34 42 78.5 58.5t81.5 16.5q49 0 86.5 -14.5t63.5 -40t39.5 -61t13.5 -76.5v-355h-71l-50 50v299z" />
    <glyph glyph-name="i" unicode="i" horiz-adv-x="283" 
d="M81 472h121v-548h-71l-50 50v498zM202 545h-121v139h121v-139z" />
    <glyph glyph-name="j" unicode="j" horiz-adv-x="283" 
d="M-44 -160q33 3 58.5 10.5t42 21t25 34t8.5 51.5v515h121v-520q0 -46 -13 -83t-42 -64t-76 -44t-115 -22zM211 545h-121v139h121v-139z" />
    <glyph glyph-name="k" unicode="k" horiz-adv-x="540" 
d="M290 237l245 -313h-141l-185 237l-10 -10v-227h-73l-50 50v710h123v-389l181 170h151z" />
    <glyph glyph-name="l" unicode="l" horiz-adv-x="283" 
d="M202 -76h-71l-50 50v710h121v-760z" />
    <glyph glyph-name="m" unicode="m" horiz-adv-x="850" 
d="M672 295q0 46 -24 64t-55 18q-26 0 -52.5 -17.5t-46.5 -49.5v-386h-70l-50 50v321q0 37 -20 59.5t-60 22.5q-26 0 -53 -15.5t-45 -50.5v-387h-70l-50 50v488h120v-45q26 29 60 42t63 13q49 0 86 -19.5t60 -51.5q32 35 70 53t78 18q86 0 132.5 -47.5t46.5 -128.5v-372h-70
l-50 50v321z" />
    <glyph glyph-name="n" unicode="n" horiz-adv-x="620" 
d="M439 273q0 45 -23 70.5t-69 25.5q-23 0 -46 -9.5t-43 -25t-36 -35.5t-25 -42v-333h-71l-50 50v488h121v-66q34 42 78.5 58.5t81.5 16.5q49 0 86.5 -14.5t63.5 -40t39.5 -61t13.5 -76.5v-355h-71l-50 50v299z" />
    <glyph glyph-name="o" unicode="o" horiz-adv-x="620" 
d="M455 193q0 39 -9 72t-27.5 57t-45.5 37.5t-63 13.5t-63 -13.5t-45.5 -37.5t-27.5 -57t-9 -72t9 -72t27.5 -57t45.5 -37.5t63 -13.5t63 13.5t45.5 37.5t27.5 57t9 72zM577 193q0 -71 -21 -123t-57 -87t-84.5 -52t-104.5 -17t-104.5 17t-84.5 52t-57 87t-21 123
q0 70 21 122.5t57 87.5t84.5 52t104.5 17t104.5 -17t84.5 -52t57 -87.5t21 -122.5z" />
    <glyph glyph-name="p" unicode="p" horiz-adv-x="630" 
d="M199 462v-43q28 29 70 43.5t78 14.5q52 0 97 -19.5t78 -56t52 -88t19 -114.5q0 -72 -21 -126t-55.5 -89t-79 -52.5t-90.5 -17.5q-37 0 -76.5 14.5t-71.5 50.5v-255h-68l-55 55v683h123zM199 146q0 -27 9.5 -51t27 -42t41 -28.5t52.5 -10.5q67 0 103 50t36 135
q0 37 -7 69.5t-23 56.5t-42.5 38t-64.5 14q-28 0 -52 -12t-42 -32.5t-28 -46.5t-10 -53v-87z" />
    <glyph glyph-name="q" unicode="q" horiz-adv-x="630" 
d="M562 462v-738h-83l-40 40v215q-32 -36 -71.5 -50.5t-76.5 -14.5q-47 0 -91 17.5t-78.5 52.5t-55.5 89t-21 126q0 63 19 114.5t52 88t78 56t97 19.5q18 0 38 -3.5t39.5 -11t38 -18t32.5 -25.5v43h123zM439 233q0 27 -10 53t-28 46.5t-42 32.5t-52 12q-38 0 -64.5 -14
t-42.5 -38t-23 -56.5t-7 -69.5q0 -85 36 -135t103 -50q28 0 52 10.5t41.5 28.5t27 42t9.5 51v87z" />
    <glyph glyph-name="r" unicode="r" horiz-adv-x="390" 
d="M183 411q23 35 55.5 48t61.5 13q43 0 88 -17l-26 -99q-17 9 -31 11.5t-29 2.5q-45 0 -76 -33.5t-39 -91.5v-321h-80l-40 40v498h116v-51z" />
    <glyph glyph-name="s" unicode="s" horiz-adv-x="490" 
d="M66 51q37 -17 75.5 -27.5t75.5 -10.5q58 0 83 17t25 41q0 13 -5 24.5t-17.5 22t-34 20.5t-53.5 21q-84 28 -128 67t-44 96q0 39 16 67t45.5 46.5t70.5 27.5t92 9q40 0 82 -9.5t77 -28.5l-31 -92q-26 13 -59 23t-71 10q-51 0 -72 -13.5t-21 -36.5q0 -29 27 -44t86 -35
q36 -12 67 -27.5t53.5 -36t35 -47t12.5 -60.5q0 -77 -63.5 -119t-174.5 -42q-51 0 -101 12t-85 32l37 93v0z" />
    <glyph glyph-name="t" unicode="t" horiz-adv-x="390" 
d="M239 684v-222h118v-96h-118v-284q0 -37 8.5 -54t44.5 -17q28 0 66 7l9 -87q-10 -4 -24.5 -7t-30 -5.5t-30 -3.5t-24.5 -1q-41 1 -68 12t-43 30t-22.5 43.5t-6.5 53.5v313h-56l-40 40v56h96v222h121z" />
    <glyph glyph-name="u" unicode="u" horiz-adv-x="620" 
d="M197 111q0 -45 23 -70.5t69 -25.5q23 0 46 9.5t43 25t36 35.5t25 42v335h121v-538h-81l-40 40v24q-34 -42 -78.5 -58.5t-81.5 -16.5q-49 0 -86.5 14.5t-63.5 40t-39.5 61t-13.5 76.5v357h121v-351z" />
    <glyph glyph-name="v" unicode="v" horiz-adv-x="570" 
d="M216 -76l-200 538h126l143 -411l143 411h126l-200 -538h-138z" />
    <glyph glyph-name="w" unicode="w" horiz-adv-x="770" 
d="M326 462h121l98 -412l101 412h113l-145 -538h-138l-90 379l-90 -379h-139l-145 538h115l101 -412z" />
    <glyph glyph-name="x" unicode="x" horiz-adv-x="530" 
d="M329 193l188 -269h-127l-125 178l-124 -178h-127l188 269l-188 269h127l124 -178l125 178h127z" />
    <glyph glyph-name="y" unicode="y" horiz-adv-x="530" 
d="M225 -31l-209 493h117l142 -350l122 350h118l-213 -612q-21 -61 -61 -90t-106 -29q-23 0 -43.5 4t-46.5 12l16 96q20 -7 36 -10t36 -3q45 0 61 49z" />
    <glyph glyph-name="z" unicode="z" horiz-adv-x="500" 
d="M37 462h425v-84l-298 -359h307v-94h-442v84l298 359h-290v94z" />
    <glyph glyph-name="braceleft" unicode="{" horiz-adv-x="400" 
d="M178 303q24 -14 43.5 -46t19.5 -83v-143q0 -23 6 -31.5t23 -8.5h87v-98h-126q-23 0 -43 6.5t-35 21t-24 36.5t-9 53v189q0 26 -7 38t-28 12h-42v108h42q21 0 28 12t7 38v189q0 31 9 53t24 36.5t35 21t43 6.5h126v-98h-87q-17 0 -23 -8.5t-6 -31.5v-143q0 -51 -19.5 -83
t-43.5 -46z" />
    <glyph glyph-name="bar" unicode="|" horiz-adv-x="270" 
d="M187 -176h-102v961h102v-961z" />
    <glyph glyph-name="braceright" unicode="}" horiz-adv-x="400" 
d="M222 303q-24 14 -43.5 46t-19.5 83v143q0 23 -6 31.5t-23 8.5h-87v98h126q22 0 42.5 -6.5t35.5 -21t24 -36.5t9 -53v-189q0 -26 7 -38t28 -12h42v-108h-42q-21 0 -28 -12t-7 -38v-189q0 -31 -9 -53t-24 -36.5t-35.5 -21t-42.5 -6.5h-126v98h87q17 0 23 8.5t6 31.5v143
q0 51 19.5 83t43.5 46z" />
    <glyph glyph-name="asciitilde" unicode="~" horiz-adv-x="670" 
d="M50 222q0 97 38.5 148.5t113.5 51.5q24 0 44.5 -7t40 -19.5t37.5 -29t37 -35.5q32 -32 51.5 -43t42.5 -11q22 0 37.5 23.5t13.5 73.5h114q0 -54 -13 -92t-34.5 -62.5t-51 -35.5t-62.5 -11q-44 0 -81 20t-75 57q-23 21 -39 34.5t-27.5 21t-19.5 10t-14 2.5
q-11 0 -18.5 -7.5t-11.5 -21t-5.5 -31t-1.5 -36.5h-116z" />
    <glyph glyph-name="exclamdown" unicode="&#xa1;" horiz-adv-x="240" 
d="M177 285l8 -505h-131l7 505h116zM180 493v-128h-125v128h125z" />
    <glyph glyph-name="currency" unicode="&#xa4;" horiz-adv-x="560" 
d="M278 545q35 0 62 -9.5t48 -24.5l73 75l65 -66l-79 -73q28 -45 28 -111q0 -38 -8 -68.5t-22 -50.5l77 -76l-64 -63l-73 77q-23 -17 -51 -26.5t-58 -9.5q-29 0 -57.5 10t-49.5 24l-72 -76l-64 62l76 76q-15 22 -23 50t-8 65q0 38 8.5 68t24.5 52l-77 71l63 65l74 -74
q21 15 48 24t59 9zM277 452q-22 0 -39 -9.5t-29 -26t-18 -38.5t-6 -47q0 -32 8.5 -54.5t21.5 -36.5t29.5 -21t31.5 -7q17 0 33.5 6.5t29 21.5t20.5 38.5t8 56.5q0 22 -5.5 43t-16.5 37.5t-28 26.5t-40 10z" />
    <glyph glyph-name="section" unicode="&#xa7;" horiz-adv-x="450" 
d="M81 70q61 -41 123 -41q40 0 61.5 13.5t21.5 40.5q0 31 -20 51.5t-65 38.5q-75 29 -107 70t-32 89q0 38 18.5 71t49.5 49q-32 23 -50 54t-18 64q0 71 50.5 108.5t131.5 37.5q42 0 73.5 -8.5t57.5 -25.5l-30 -91q-18 12 -44 23t-59 11t-53 -11.5t-20 -37.5q0 -29 23 -47.5
t68 -36.5q70 -28 103.5 -67t33.5 -99q0 -77 -60 -119q28 -23 44.5 -53t16.5 -67q0 -69 -50.5 -109.5t-146.5 -40.5q-89 0 -151 43zM295 322q0 29 -20.5 47t-63.5 35q-20 -11 -32 -28.5t-12 -37.5q0 -28 24 -45t69 -35q17 11 26 29.5t9 34.5z" />
    <glyph glyph-name="dieresis" unicode="&#xa8;" horiz-adv-x="520" 
d="M212 546h-121v121h121v-121zM429 546h-121v121h121v-121z" />
    <glyph glyph-name="ordfeminine" unicode="&#xaa;" horiz-adv-x="380" 
d="M239 445q-16 -13 -39.5 -22.5t-46.5 -9.5q-28 0 -49 9.5t-35.5 25.5t-21.5 36.5t-7 41.5q0 60 50 98t143 43q-2 18 -14 32.5t-39 14.5q-21 0 -43 -7.5t-47 -30.5l-28 81q28 21 61 31.5t66 10.5q44 0 72 -13t43.5 -35t21.5 -49.5t6 -56.5v-223h-93v23zM237 582
q-12 0 -27.5 -1t-29 -6t-24 -14.5t-12.5 -26.5q-2 -11 4 -21t23 -12q10 -1 21.5 2.5t21.5 11t16.5 18t6.5 22.5v27z" />
    <glyph glyph-name="uni00AD" unicode="&#xad;" horiz-adv-x="500" 
d="M89 349h322v-97h-322v97z" />
    <glyph glyph-name="degree" unicode="&#xb0;" horiz-adv-x="420" 
d="M335 621q0 -26 -10 -48.5t-27 -39.5t-40 -27t-48 -10q-26 0 -48.5 10t-40 27t-27.5 39.5t-10 48.5t10 48.5t27.5 39.5t40 27t48.5 10q25 0 48 -10t40 -27t27 -39.5t10 -48.5zM256 621q0 23 -14 36.5t-32 13.5q-19 0 -33 -13.5t-14 -36.5t14 -37t33 -14q18 0 32 14t14 37z
" />
    <glyph glyph-name="plusminus" unicode="&#xb1;" horiz-adv-x="660" 
d="M384 438h186v-97h-186v-190h-108v190h-185v97h185v189h108v-189zM92 -8v94h476v-94h-476z" />
    <glyph glyph-name="uni00B2" unicode="&#xb2;" horiz-adv-x="340" 
d="M45 473q45 43 73.5 73.5t44.5 52.5t22 39t8 34t-6.5 27.5t-25.5 10.5q-14 0 -32 -10t-43 -36l-48 67q35 33 64 47.5t68 14.5q30 0 52.5 -10t37 -26.5t22 -37.5t7.5 -43q0 -23 -5 -43.5t-17 -43t-32 -47.5t-50 -56h115v-78h-255v65z" />
    <glyph glyph-name="uni00B3" unicode="&#xb3;" horiz-adv-x="340" 
d="M77 509q24 -14 41 -20t37 -6q33 0 43 13t10 28q0 23 -18 35t-45 12h-36v75h36q26 0 36.5 9t12.5 27q1 12 -6.5 22t-26.5 10q-17 0 -34.5 -6.5t-35.5 -20.5l-35 64q30 23 56 33t58 10t54 -9t36 -23.5t20.5 -32t6.5 -34.5q0 -20 -10 -43t-30 -39q26 -13 39.5 -37t13.5 -53
q0 -21 -8.5 -42.5t-26 -38.5t-45 -27.5t-64.5 -10.5q-34 0 -60 8.5t-58 26.5l39 70v0z" />
    <glyph glyph-name="acute" unicode="&#xb4;" horiz-adv-x="400" 
d="M186 754h137l-124 -158h-105z" />
    <glyph glyph-name="paragraph" unicode="&#xb6;" horiz-adv-x="560" 
d="M256 252q-33 1 -68.5 14.5t-64 39t-47 64.5t-18.5 92q0 42 12 85t44 77.5t87.5 56t141.5 21.5q42 0 71.5 -3t54.5 -9v-764h-85v689h-41v-689h-87v326z" />
    <glyph glyph-name="periodcentered" unicode="&#xb7;" horiz-adv-x="300" 
d="M215 236h-131v131h131v-131z" />
    <glyph glyph-name="cedilla" unicode="&#xb8;" horiz-adv-x="300" 
d="M201 -11l-15 -36q27 -8 43 -29t16 -47q0 -41 -31.5 -58.5t-76.5 -17.5q-26 0 -45 5t-36 15l21 58q16 -7 27.5 -9.5t20.5 -3.5q7 0 18.5 1t11.5 12q0 26 -70 32l41 95z" />
    <glyph glyph-name="uni00B9" unicode="&#xb9;" horiz-adv-x="340" 
d="M67 744l95 51h70v-382h-92v276l-35 -19z" />
    <glyph glyph-name="ordmasculine" unicode="&#xba;" horiz-adv-x="420" 
d="M212 799q39 0 71 -14t55 -39t35.5 -59.5t12.5 -75.5q0 -51 -15.5 -87.5t-40.5 -60.5t-57.5 -35.5t-65.5 -11.5q-37 0 -68.5 13.5t-55 38t-36.5 59.5t-13 78q0 45 14 80.5t38 61t56.5 39t69.5 13.5zM211 717q-18 0 -31.5 -9t-22.5 -24t-13.5 -35t-4.5 -42q0 -51 19.5 -80
t50.5 -29t51 29.5t20 82.5q0 19 -4 38t-12 34.5t-21 25t-32 9.5z" />
    <glyph glyph-name="onequarter" unicode="&#xbc;" horiz-adv-x="720" 
d="M403 42v58l155 260h77v-240h43v-78h-43v-67h-81v67h-151zM502 120h52v87zM37 601l95 51h70v-382h-92v276l-35 -19zM169 -45h-86l439 702h86z" />
    <glyph glyph-name="onehalf" unicode="&#xbd;" horiz-adv-x="720" 
d="M37 601l95 51h70v-382h-92v276l-35 -19zM424 40q45 43 73.5 73.5t44.5 52.5t22 39t8 34t-6.5 27.5t-25.5 10.5q-14 0 -32 -10t-43 -36l-48 67q35 33 64 47.5t68 14.5q30 0 52.5 -10t37 -26.5t22 -37.5t7.5 -43q0 -23 -5 -43.5t-17 -43t-32 -47.5t-50 -56h115v-78h-255v65
zM144 -45h-86l439 702h86z" />
    <glyph glyph-name="threequarters" unicode="&#xbe;" horiz-adv-x="720" 
d="M403 42v58l155 260h77v-240h43v-78h-43v-67h-81v67h-151zM502 120h52v87zM204 -45h-86l439 702h86zM76 372q24 -14 41 -20t37 -6q33 0 43 13t10 28q0 23 -18 35t-45 12h-36v75h36q26 0 36.5 9t12.5 27q1 12 -6.5 22t-26.5 10q-17 0 -34.5 -6.5t-35.5 -20.5l-35 64
q30 23 56 33t58 10t54 -9t36 -23.5t20.5 -32t6.5 -34.5q0 -20 -10 -43t-30 -39q26 -13 39.5 -37t13.5 -53q0 -21 -8.5 -42.5t-26 -38.5t-45 -27.5t-64.5 -10.5q-34 0 -60 8.5t-58 26.5z" />
    <glyph glyph-name="questiondown" unicode="&#xbf;" horiz-adv-x="440" 
d="M292 267q0 -21 -2 -44t-9 -47t-20 -48.5t-34 -48.5q-35 -39 -50.5 -70.5t-15.5 -63.5q0 -35 15.5 -53t52.5 -18q34 0 62 18t59 56l62 -83q-43 -46 -88.5 -67.5t-103.5 -21.5q-45 0 -79 12.5t-57.5 34t-35.5 50t-12 60.5q0 53 26 99.5t66 89.5q31 37 41.5 73t10.5 73v40
h112v-41zM298 493v-128h-125v128h125z" />
    <glyph glyph-name="AE" unicode="&#xc6;" horiz-adv-x="870" 
d="M514 275v-219h326v-101h-447v177h-179l-81 -177h-124l330 719h485v-101h-310v-198h294v-100h-294zM256 225h137v298z" />
    <glyph glyph-name="Eth" unicode="&#xd0;" horiz-adv-x="650" 
d="M72 266h-78v93h78v315h216q85 0 146.5 -26t100.5 -73t57.5 -113t18.5 -147t-18.5 -147t-57.5 -113.5t-100.5 -73.5t-146.5 -26h-216v311zM192 266v-210h103q41 0 76.5 12.5t61 42.5t40 79.5t14.5 124.5q0 74 -15.5 123.5t-42.5 79.5t-64 42.5t-80 12.5h-93v-214h124v-93
h-124z" />
    <glyph glyph-name="multiply" unicode="&#xd7;" horiz-adv-x="630" 
d="M139 564l175 -190l176 190l79 -66l-185 -199l185 -199l-78 -67l-177 190l-176 -190l-78 67l184 199l-184 199z" />
    <glyph glyph-name="Oslash" unicode="&#xd8;" horiz-adv-x="700" 
d="M536 619q61 -49 92 -128t31 -173q0 -92 -24 -162t-66.5 -117t-100 -71.5t-124.5 -24.5q-22 0 -42 2.5t-39 7.5l-24 -59h-112l43 105q-64 49 -96 129.5t-32 177.5q0 84 22.5 153t63.5 117.5t98 75.5t127 27q48 0 89 -12l16 38h113zM161 308q0 -49 13 -101.5t42 -94.5
l188 461q-27 11 -54 11q-47 0 -82.5 -23t-59 -61.5t-35.5 -88t-12 -103.5zM540 314q0 43 -13 93.5t-40 92.5l-186 -454q11 -3 23 -5t25 -2q46 0 81.5 22t60 59.5t37 87.5t12.5 106z" />
    <glyph glyph-name="Thorn" unicode="&#xde;" horiz-adv-x="537" 
d="M268 533q118 0 175 -55t57 -164q0 -106 -57.5 -163t-174.5 -57h-78v-139h-120v719h120v-141h78zM264 195q53 0 85.5 27t32.5 90t-32.5 91.5t-85.5 28.5h-74v-237h74z" />
    <glyph glyph-name="germandbls" unicode="&#xdf;" horiz-adv-x="610" 
d="M263 81q34 -22 62 -33t60 -11q82 0 82 53q0 31 -18.5 50t-65.5 37q-75 29 -106 70.5t-31 90.5q0 31 8.5 53.5t22 39t31 28t36.5 20.5q23 11 36 24t13 36t-25 33.5t-64 10.5q-29 0 -50 -9t-35 -30.5t-21 -57t-7 -87.5v-445h-121v447q0 143 60.5 212.5t173.5 69.5
q40 0 77 -8t65.5 -25.5t45 -46t15.5 -69.5q-1 -28 -9 -47.5t-21.5 -34t-30.5 -25.5t-35 -20q-24 -13 -37.5 -26.5t-13.5 -36.5q0 -29 18.5 -46t65.5 -35q72 -28 104.5 -68t32.5 -101q0 -75 -53.5 -113t-144.5 -38q-45 0 -82 11t-69 33l31 94v0z" />
    <glyph glyph-name="ae" unicode="&#xe6;" horiz-adv-x="820" 
d="M760 6q-46 -31 -92 -46t-97 -15q-56 0 -103.5 21.5t-82.5 63.5q-35 -42 -85 -64.5t-121 -22.5q-39 0 -67.5 13t-47 34t-27 48.5t-8.5 56.5q0 48 20.5 84.5t58.5 61.5t92 38t121 15q0 13 -4 30t-15 32t-31 25.5t-52 10.5q-27 0 -59.5 -11t-65.5 -36l-32 83q35 26 77.5 41
t93.5 15q60 0 100.5 -17.5t63.5 -48.5q31 32 71 49t92 17q65 0 109 -23t69.5 -63.5t34.5 -95.5t6 -118h-339v-5q0 -36 11.5 -62.5t31 -44.5t44.5 -26.5t52 -8.5q37 0 73 13t81 40zM323 205q-28 0 -58.5 -4.5t-56 -15.5t-42.5 -30t-17 -49q0 -39 14.5 -55t37.5 -16
q43 0 75.5 22.5t43.5 50.5q3 12 3 26v71zM560 392q-31 0 -52 -11.5t-35 -28.5t-21.5 -38t-10.5 -39h224q-2 18 -7.5 39t-17 38t-31 28.5t-49.5 11.5z" />
    <glyph glyph-name="eth" unicode="&#xf0;" horiz-adv-x="560" 
d="M364 603q16 -14 33 -30q54 -55 85.5 -135t31.5 -188q0 -71 -17 -128t-49 -97t-77 -61t-101 -21t-99 21t-72.5 56t-45 81.5t-15.5 97.5q0 54 16 97t44 73t66.5 46.5t83.5 16.5q42 0 76 -11t66 -39q-8 38 -28.5 68.5t-42.5 53.5q-19 18 -38 32l-119 -96l-65 79l72 58
q-17 2 -36 3.5t-39 0.5l10 103q48 -2 88 -8t76 -19l93 75l64 -80zM268 40q65 0 97.5 48.5t32.5 130.5q0 11 -2 19.5t-5 15.5q-16 38 -47 61t-68 23q-63 0 -91.5 -37.5t-28.5 -108.5q0 -73 26.5 -112.5t85.5 -39.5z" />
    <glyph glyph-name="divide" unicode="&#xf7;" horiz-adv-x="600" 
d="M558 349v-97h-506v97h506zM381 481q0 -16 -6 -30t-16.5 -24.5t-24.5 -17t-30 -6.5t-30 6.5t-24.5 17t-16.5 24.5t-6 30q0 32 22.5 54.5t54.5 22.5t54.5 -22.5t22.5 -54.5zM381 120q0 -16 -6 -30t-16.5 -24.5t-24.5 -17t-30 -6.5t-30 6.5t-24.5 17t-16.5 24.5t-6 30
q0 32 22.5 54.5t54.5 22.5t54.5 -22.5t22.5 -54.5z" />
    <glyph glyph-name="oslash" unicode="&#xf8;" horiz-adv-x="580" 
d="M139 -9q-45 35 -69 92t-24 127q0 64 19 115t52 86t78.5 54t98.5 19q25 0 44 -4l22 53h108l-37 -90q51 -35 77 -93.5t26 -131.5q0 -72 -21.5 -124t-56.5 -85.5t-79.5 -49.5t-90.5 -16q-31 0 -58 6l-18 -45h-106zM416 215q0 26 -7 58t-23 60l-122 -297q12 -3 26 -3
q56 0 91 49.5t35 132.5zM164 213q0 -23 5.5 -51t17.5 -54l116 285q-4 1 -11 1q-34 0 -58.5 -15t-40 -40.5t-22.5 -58t-7 -67.5z" />
    <glyph glyph-name="thorn" unicode="&#xfe;" horiz-adv-x="570" 
d="M180 446q28 29 61.5 43.5t84.5 14.5q50 0 90 -18.5t68.5 -53t43.5 -83.5t15 -109q0 -71 -19 -123t-51.5 -86.5t-74 -51t-86.5 -16.5t-75 11.5t-59 39.5v-239h-120v919h122v-248zM178 191q0 -26 7.5 -49.5t22.5 -41.5t36.5 -28.5t49.5 -10.5q65 0 96 47t31 129q0 36 -7 67
t-22.5 54t-39 36t-56.5 13q-26 0 -47.5 -11t-36.5 -30t-24 -43t-10 -50v-82z" />
    <glyph glyph-name="dcroat" unicode="&#x111;" horiz-adv-x="620" 
d="M513 535v-580h-111v43q-29 -29 -62.5 -42t-80.5 -13q-45 0 -87 16.5t-74 51t-51.5 86.5t-19.5 123q0 60 15.5 109t44 83.5t68.5 53t90 18.5q51 0 85.5 -14.5t62.5 -41.5v107h-119v100h119v75h120v-75h89v-100h-89zM393 247q0 27 -8.5 52t-23.5 44.5t-37 31.5t-49 12
q-33 0 -57 -13t-39 -36t-22.5 -54t-7.5 -67q0 -82 31.5 -129t96.5 -47q56 0 86 35t30 88v83z" />
    <glyph glyph-name="Hbar" unicode="&#x126;" horiz-adv-x="720" 
d="M619 455v-500h-121v320h-277v-320h-121v500h-70v100h70v119h121v-119h277v119h121v-119h70v-100h-70zM221 375h277v80h-277v-80z" />
    <glyph glyph-name="hbar" unicode="&#x127;" horiz-adv-x="610" 
d="M222 535v-112q32 32 68.5 46.5t77.5 14.5q47 0 82.5 -14t59 -39t35 -59.5t11.5 -74.5v-342h-118v343q0 44 -18 68.5t-62 24.5q-22 0 -42 -9t-38 -24.5t-32 -36t-24 -42.5v-324h-118v580h-89v100h89v68h118v-68h122v-100h-122z" />
    <glyph glyph-name="dotlessi" unicode="&#x131;" horiz-adv-x="240" 
d="M61 473h118v-518h-118v518z" />
    <glyph glyph-name="IJ" unicode="&#x132;" horiz-adv-x="620" 
d="M191 -44h-121v718h121v-718zM548 674v-487q0 -67 -16 -113.5t-45 -75t-69 -41.5t-87 -13q-26 0 -52 2.5t-49 10.5l16 99q23 -6 40.5 -8t37.5 -2q26 0 45.5 6.5t32 23t19 44.5t6.5 71v483h121z" />
    <glyph glyph-name="ij" unicode="&#x133;" horiz-adv-x="460" 
d="M59 473h118v-518h-118v518zM177 538h-118v135h118v-135zM159 -150q68 7 95 35t27 76v512h118v-512q0 -45 -11 -81t-37.5 -62t-70.5 -42t-110 -21zM399 538h-118v135h118v-135z" />
    <glyph glyph-name="kgreenlandic" unicode="&#x138;" horiz-adv-x="482" 
d="M263 252l211 -297h-127l-155 220l-16 -18v-202h-117v518h117v-165l155 165h136z" />
    <glyph glyph-name="Ldot" unicode="&#x13f;" horiz-adv-x="520" 
d="M191 674v-618h300v-101h-421v719h121zM426 289h-130v131h130v-131z" />
    <glyph glyph-name="ldot" unicode="&#x140;" horiz-adv-x="440" 
d="M177 703v-748h-118v748h118zM385 268h-131v131h131v-131z" />
    <glyph glyph-name="Lslash" unicode="&#x141;" horiz-adv-x="550" 
d="M231 674v-294l170 95v-115l-170 -95v-209h300v-101h-421v242l-105 -59v115l105 59v362h121z" />
    <glyph glyph-name="lslash" unicode="&#x142;" horiz-adv-x="340" 
d="M227 703v-227l35 28l64 -80l-99 -79v-390h-118v295l-32 -25l-65 79l97 77v322h118z" />
    <glyph glyph-name="napostrophe" unicode="&#x149;" horiz-adv-x="690" 
d="M168 471q0 -60 -30 -98.5t-107 -51.5v78q29 4 42 13.5t13 40.5h-50v131h132v-113zM525 -56v347q0 49 -26.5 69t-66.5 20q-29 0 -56 -18t-46 -54v-364h-118v518h118v-37q25 22 57.5 35t64.5 13q41 0 76 -12t60.5 -35.5t39.5 -57t14 -76.5v-348h-117z" />
    <glyph glyph-name="Eng" unicode="&#x14a;" horiz-adv-x="665" 
d="M598 -87q0 -70 -28.5 -98.5t-87.5 -28.5q-25 0 -51.5 16t-52.5 49l55 64q5 -12 13 -24.5t21 -12.5q14 0 14 28v62l-296 553v-573h-115v726h150l263 -496v496h115v-761z" />
    <glyph glyph-name="eng" unicode="&#x14b;" horiz-adv-x="543" 
d="M372 302q0 49 -26.5 69t-66.5 20q-29 0 -56 -18t-46 -54v-371h-118v525h118v-37q25 22 57.5 35t64.5 13q41 0 76 -12t60.5 -35.5t39.5 -57t14 -76.5v-385q0 -64 -23.5 -98t-82.5 -34q-35 0 -60.5 16t-53.5 49l54 63q7 -10 15 -20.5t20 -10.5q14 0 14 28v391z" />
    <glyph glyph-name="OE" unicode="&#x152;" horiz-adv-x="900" 
d="M547 275v-219h326v-101h-519q-70 0 -127.5 22.5t-99 66.5t-64 109.5t-22.5 152.5q0 90 22 158.5t63 115t99 70.5t129 24h503v-101h-310v-198h294v-100h-294zM162 306q0 -58 12 -105t36 -80t60 -50.5t84 -17.5h72v524h-72q-50 0 -86 -20.5t-59.5 -57t-35 -86t-11.5 -107.5
z" />
    <glyph glyph-name="oe" unicode="&#x153;" horiz-adv-x="900" 
d="M855 8q-47 -31 -92.5 -47t-100.5 -16q-58 0 -107.5 23t-83.5 71q-35 -48 -85 -72t-110 -24q-51 0 -95.5 17t-77.5 51t-52 83.5t-19 115.5q0 69 18.5 120t51.5 85.5t77.5 51.5t96.5 17q60 0 109.5 -22t83.5 -70q30 45 75 68.5t105 23.5q63 0 106.5 -23.5t69.5 -64.5
t35.5 -96t6.5 -119h-331q5 -78 41.5 -110.5t92.5 -32.5q35 0 69.5 12t80.5 39zM276 392q-35 0 -59 -14t-39 -38.5t-22 -58t-7 -71.5q0 -87 34 -131t93 -44q60 0 94 44t34 131q0 38 -6.5 71.5t-21.5 58t-39.5 38.5t-60.5 14zM649 391q-32 0 -52.5 -11t-32.5 -28t-18 -37.5
t-9 -38.5h215q-3 18 -8 38.5t-16.5 37.5t-30 28t-48.5 11z" />
    <glyph glyph-name="Tbar" unicode="&#x166;" horiz-adv-x="530" 
d="M322 372v-416h-121v416h-138v100h138v101h-187v101h503v-101h-195v-101h149v-100h-149z" />
    <glyph glyph-name="tbar" unicode="&#x167;" horiz-adv-x="333" 
d="M93 330v56h-74v94h74v128h118v-128h107v-94h-107v-56h107v-94h-107v-131q0 -23 2 -36.5t10 -21.5q6 -6 15.5 -8t22.5 -2q10 0 22.5 0.5t35.5 4.5l9 -86q-22 -8 -51 -11.5t-49 -2.5q-40 1 -66 15.5t-41.5 37t-21.5 51.5t-6 59v131h-74v94h74z" />
    <glyph glyph-name="caron" unicode="&#x2c7;" horiz-adv-x="360" 
d="M226 595h-94l-96 159h108l37 -69l36 69h105z" />
    <glyph glyph-name="uni02D0" unicode="&#x2d0;" horiz-adv-x="300" 
d="M152 247l-111 -188h216zM152 351l-111 188h216z" />
    <glyph glyph-name="breve" unicode="&#x2d8;" horiz-adv-x="375" 
d="M320 754q-13 -128 -131 -128q-60 0 -93 34t-38 94h97q2 -28 9.5 -39t24.5 -11q18 0 25 11t8 39h98v0z" />
    <glyph glyph-name="dotaccent" unicode="&#x2d9;" horiz-adv-x="300" 
d="M93 644v115h114v-115h-114z" />
    <glyph glyph-name="ring" unicode="&#x2da;" horiz-adv-x="300" 
d="M247 676q0 -22 -8.5 -40t-22 -31t-31 -20t-35.5 -7t-36 7t-31.5 20t-22 31t-8.5 40t8.5 39.5t22 30.5t31.5 20t36 7t35.5 -7t31 -20t22 -30.5t8.5 -39.5zM177 676q0 12 -8 20t-19 8q-13 0 -20.5 -8t-7.5 -20t7.5 -20t20.5 -8q11 0 19 8t8 20z" />
    <glyph glyph-name="ogonek" unicode="&#x2db;" horiz-adv-x="300" 
d="M208 -57q-15 -2 -28 -7.5t-22 -13.5t-13 -18t-1 -22q3 -11 9 -13t17 -2q23 0 52 18l21 -54q-22 -14 -46.5 -21.5t-46.5 -7.5q-19 0 -36 4t-30 13t-20.5 24t-7.5 38q0 19 9 39t26 37.5t41 30t54 16.5z" />
    <glyph glyph-name="hungarumlaut" unicode="&#x2dd;" horiz-adv-x="440" 
d="M125 754h122l-124 -158h-90zM271 754h122l-124 -158h-90z" />
    <glyph glyph-name="Alpha" unicode="&#x391;" horiz-adv-x="600" 
d="M414 133h-230l-53 -177h-124l231 717h123l231 -717h-124zM212 226h174l-87 287z" />
    <glyph glyph-name="Beta" unicode="&#x392;" horiz-adv-x="570" 
d="M266 673q113 0 173.5 -43t60.5 -140q0 -52 -20.5 -89t-66.5 -66q56 -17 88 -63.5t32 -106.5q0 -111 -59 -161t-173 -50h-231v719h196zM288 55q28 0 51.5 5t40 17.5t25.5 33.5t9 53q0 57 -38 84t-98 27h-88v-220h98zM255 375q28 0 51 6t39.5 19.5t26 34t9.5 50.5
q0 25 -9 42t-25 27t-37.5 14t-45.5 4h-74v-197h65z" />
    <glyph glyph-name="Gamma" unicode="&#x393;" horiz-adv-x="530" 
d="M501 673v-101h-310v-617h-121v718h431z" />
    <glyph glyph-name="uni0394" unicode="&#x394;" horiz-adv-x="640" 
d="M9 -46l275 719h86l261 -719h-622zM324 487l-161 -433h313z" />
    <glyph glyph-name="Epsilon" unicode="&#x395;" horiz-adv-x="560" 
d="M485 376v-100h-295v-220h327v-101h-448v719h432v-101h-311v-197h295z" />
    <glyph glyph-name="Zeta" unicode="&#x396;" horiz-adv-x="570" 
d="M378 572h-335v101h488v-70l-348 -548h354v-101h-507v68z" />
    <glyph glyph-name="Eta" unicode="&#x397;" horiz-adv-x="660" 
d="M192 375h276v298h121v-719h-121v321h-276v-321h-121v719h121v-298z" />
    <glyph glyph-name="Theta" unicode="&#x398;" horiz-adv-x="700" 
d="M350 -57q-69 0 -125.5 25t-97 72t-63 114.5t-22.5 151.5q0 88 22 157t62.5 117t97 73.5t126.5 25.5t126.5 -25.5t97 -73.5t62.5 -117t22 -157q0 -84 -22.5 -151.5t-63 -114.5t-97 -72t-125.5 -25zM350 584q-49 0 -84.5 -22t-59 -60t-35 -88.5t-11.5 -107.5t12 -106
t36 -84.5t59.5 -56t82.5 -20.5q46 0 81.5 20.5t59.5 56t36.5 84.5t12.5 106t-11.5 107.5t-35 88.5t-59 60t-84.5 22zM196 255v100h308v-100h-308z" />
    <glyph glyph-name="Iota" unicode="&#x399;" horiz-adv-x="241" 
d="M181 -46h-121v719h121v-719z" />
    <glyph glyph-name="Kappa" unicode="&#x39a;" horiz-adv-x="593" 
d="M191 417l245 256h143l-283 -306l300 -411h-141l-237 327l-27 -30v-299h-121v719h121v-256z" />
    <glyph glyph-name="Lambda" unicode="&#x39b;" horiz-adv-x="600" 
d="M131 -44h-124l231 717h123l231 -717h-124l-169 557z" />
    <glyph glyph-name="Mu" unicode="&#x39c;" horiz-adv-x="780" 
d="M456 -47h-132l-138 477v-477h-115v722h149l170 -590l172 590h149v-722h-115v477z" />
    <glyph glyph-name="Nu" unicode="&#x39d;" horiz-adv-x="665" 
d="M597 -46h-148l-264 561v-561h-115v719h149l263 -552v552h115v-719z" />
    <glyph glyph-name="Xi" unicode="&#x39e;" horiz-adv-x="660" 
d="M69 573v101h520v-101h-520zM143 275v100h373v-100h-373zM69 -46v101h520v-101h-520z" />
    <glyph glyph-name="Omicron" unicode="&#x39f;" horiz-adv-x="700" 
d="M350 -57q-68 0 -124.5 25t-97 72.5t-63 114.5t-22.5 151q0 87 22 156.5t62 117.5t97 73.5t126 25.5t126 -25.5t97.5 -73.5t62.5 -117.5t22 -156.5q0 -84 -22.5 -151t-63 -114.5t-97.5 -72.5t-125 -25zM350 585q-48 0 -84 -22.5t-59 -60.5t-34.5 -88.5t-11.5 -107.5
t12 -106t36 -85t59 -56.5t82 -20.5q46 0 81.5 20.5t59.5 56.5t36.5 85t12.5 106t-11.5 107.5t-35 88.5t-59.5 60.5t-84 22.5z" />
    <glyph glyph-name="Pi" unicode="&#x3a0;" horiz-adv-x="660" 
d="M589 -45h-121v619h-277v-619h-121v719h519v-719z" />
    <glyph glyph-name="Rho" unicode="&#x3a1;" horiz-adv-x="557" 
d="M290 673q117 0 174.5 -55.5t57.5 -163.5q0 -106 -58 -163t-174 -57h-100v-280h-120v719h220zM286 335q53 0 85.5 27t32.5 90t-32.5 91.5t-85.5 28.5h-96v-237h96z" />
    <glyph glyph-name="Sigma" unicode="&#x3a3;" horiz-adv-x="570" 
d="M43 -45v51l290 308l-290 286v73h490v-102h-314l263 -250l-253 -263h305v-103h-491z" />
    <glyph glyph-name="Tau" unicode="&#x3a4;" horiz-adv-x="530" 
d="M13 572v101h504v-101h-195v-618h-121v618h-188z" />
    <glyph glyph-name="Upsilon" unicode="&#x3a5;" horiz-adv-x="600" 
d="M238 267l-232 406h135l158 -291l162 291h133l-235 -405v-314h-121v313z" />
    <glyph glyph-name="Phi" unicode="&#x3a6;" horiz-adv-x="640" 
d="M377 566q47 -8 87 -30t68.5 -55.5t44.5 -77.5t16 -97t-16 -97t-44.5 -77.5t-68.5 -55.5t-87 -31v-90h-115v90q-47 8 -87 30t-68.5 56t-44.5 78t-16 97q0 52 16 96.5t44.5 78t68.5 55.5t87 31v106h115v-107zM475 306q0 60 -25.5 101t-72.5 57v-317q47 17 72.5 58t25.5 101
zM164 307q0 -60 26 -101.5t72 -58.5v317q-46 -17 -72 -57.5t-26 -99.5z" />
    <glyph glyph-name="Chi" unicode="&#x3a7;" horiz-adv-x="590" 
d="M295 425l150 248h134l-217 -359l217 -360h-133l-151 249l-151 -249h-133l217 360l-217 359h134z" />
    <glyph glyph-name="Psi" unicode="&#x3a8;" horiz-adv-x="680" 
d="M401 261q48 14 76.5 53.5t28.5 113.5v245h121v-232q0 -68 -17 -118.5t-47.5 -85t-72 -54.5t-89.5 -27v-201h-121v201q-49 7 -90.5 27t-72 54.5t-47.5 85t-17 118.5v232h121v-245q0 -74 29 -114t77 -54v413h121v-412z" />
    <glyph glyph-name="uni03A9" unicode="&#x3a9;" horiz-adv-x="760" 
d="M380 581q-53 0 -91 -18t-62.5 -49.5t-36 -75t-11.5 -95.5t12.5 -99.5t34 -88t51 -72.5t62.5 -51v-78h-295v100h121q-49 51 -78 124t-29 164q0 78 21 140t62 105.5t101 67t138 23.5t138 -23.5t101 -67t62 -105.5t21 -140q0 -91 -29 -164t-78 -124h121v-100h-295v78
q33 19 62.5 51t51 72.5t34 88t12.5 99.5t-11.5 95.5t-36 75t-62.5 49.5t-91 18z" />
    <glyph glyph-name="alpha" unicode="&#x3b1;" horiz-adv-x="623" 
d="M622 55q-18 -61 -47.5 -88t-81.5 -27q-32 0 -61 20t-45 67q-29 -45 -68.5 -64.5t-85.5 -19.5q-55 0 -94.5 20.5t-64 56t-35.5 82.5t-9 100q2 55 15.5 106t41 90t69 62t98.5 23q51 0 94.5 -25t66.5 -83l30 97l105 -33l-95 -286q3 -66 15 -93.5t28 -27.5q12 0 18 12.5
t14 45.5zM345 227q2 34 -2.5 64t-16 52t-29.5 35t-43 13q-32 0 -52.5 -20t-33.5 -49.5t-18.5 -63t-6.5 -60.5q-4 -79 18 -121.5t71 -42.5q29 0 49.5 19t34 47.5t20.5 62.5t9 64z" />
    <glyph glyph-name="beta" unicode="&#x3b2;" horiz-adv-x="540" 
d="M502 168q0 -45 -13 -86t-39 -71.5t-65.5 -49t-91.5 -18.5q-32 0 -58.5 7t-50.5 21v-147h-114v659q0 106 51 150t149 44q49 0 87.5 -14t64.5 -39t39.5 -59.5t13.5 -76.5q0 -41 -11.5 -77.5t-49.5 -66.5q48 -31 68 -79t20 -97zM388 168q0 22 -5.5 45t-17 41t-29 29.5
t-42.5 11.5h-45v86h45q35 0 52 23.5t17 82.5q0 47 -23.5 72.5t-69.5 25.5q-40 0 -63 -23t-23 -84v-403q19 -20 44.5 -30t54.5 -10q54 0 79.5 38t25.5 95z" />
    <glyph glyph-name="gamma" unicode="&#x3b3;" horiz-adv-x="520" 
d="M321 69q18 -27 32.5 -50t24.5 -43q18 -36 17.5 -70t-17.5 -60.5t-48.5 -43t-74.5 -16.5q-40 0 -72 15t-50.5 40.5t-21 60t16.5 73.5q11 21 27 46t39 56l-184 363l103 45l143 -310l152 306l103 -43zM291 -82q0 11 -9.5 32t-24.5 44q-39 -53 -39 -77q0 -21 9.5 -29.5
t27.5 -8.5q17 0 26.5 9t9.5 30z" />
    <glyph glyph-name="delta" unicode="&#x3b4;" horiz-adv-x="560" 
d="M36 188q0 41 14 77t37.5 66.5t54.5 55.5t65 44q-22 19 -35.5 36t-21 33t-10 31.5t-2.5 30.5q0 22 9 43t28 37t48.5 25.5t70.5 9.5q58 0 100.5 -15.5t68.5 -36.5l-52 -84q-19 15 -47.5 29.5t-66.5 14.5q-16 0 -27.5 -7t-11.5 -24q0 -16 6.5 -29.5t17 -25t23.5 -21
t25 -17.5q54 -34 91 -65.5t60.5 -63.5t33.5 -66.5t10 -73.5q0 -54 -18.5 -100t-51 -79.5t-77.5 -52t-98 -18.5q-51 0 -95.5 16t-77.5 47t-52 77t-19 106zM405 185q0 31 -6.5 54.5t-21.5 44.5t-39 41.5t-60 45.5q-25 -12 -47.5 -29.5t-39 -40t-26.5 -50.5t-10 -62
q0 -42 11 -71t29 -47.5t41.5 -27t48.5 -8.5q52 0 86 38t34 112z" />
    <glyph glyph-name="epsilon" unicode="&#x3b5;" horiz-adv-x="470" 
d="M443 77q-25 -68 -79.5 -101t-126.5 -33q-41 0 -78 9t-65.5 27.5t-45.5 47.5t-17 68q0 20 7 42t21.5 41.5t37 34.5t53.5 21q-27 7 -46 20.5t-31 29t-17.5 33t-5.5 32.5q0 38 17 64.5t44 43.5t61 25t69 8q61 0 110.5 -25t81.5 -81l-92 -48q-20 29 -42.5 46t-57.5 17
q-45 0 -59.5 -12.5t-14.5 -35.5q0 -20 12.5 -33.5t33 -22t46.5 -12t52 -2.5v-96q-75 -2 -117.5 -21.5t-42.5 -66.5q0 -34 23.5 -47.5t62.5 -13.5q42 0 66.5 19.5t41.5 62.5z" />
    <glyph glyph-name="zeta" unicode="&#x3b6;" horiz-adv-x="460" 
d="M433 -89q0 -24 -9 -46.5t-27 -40t-44 -27.5t-60 -10q-29 0 -54 5t-60 23l33 89q20 -9 34.5 -14t28.5 -7q18 -3 32 2.5t17 25.5q2 19 -7.5 31.5t-25.5 20t-34 12t-32 8.5q-89 26 -134.5 78.5t-49.5 139.5q-2 46 7.5 90.5t31.5 89.5t55.5 92t78.5 99h-144v101h296v-88
q-47 -41 -86 -86t-67 -93t-42.5 -98.5t-11.5 -103.5q3 -61 30 -92.5t81 -42.5q37 -8 67 -19.5t51.5 -29.5t33 -44t11.5 -65z" />
    <glyph glyph-name="eta" unicode="&#x3b7;" horiz-adv-x="600" 
d="M372 302q0 49 -26.5 69t-66.5 20q-29 0 -56 -18t-46 -54v-365h-118v519h118v-29q29 22 59.5 31t62.5 9q41 0 76 -12t60.5 -35.5t39.5 -57t14 -76.5v-342q0 -27 8 -33t16 -6q10 0 20.5 7.5t26.5 27.5l51 -61q-25 -32 -52 -49t-61 -17q-59 0 -92.5 28.5t-33.5 92.5v351z
" />
    <glyph glyph-name="theta" unicode="&#x3b8;" horiz-adv-x="580" 
d="M290 -57q-62 0 -108 25t-77.5 72.5t-47 114.5t-15.5 151q0 87 15.5 156.5t46 117.5t77 73.5t109.5 25.5t109.5 -25.5t77 -73.5t46 -117.5t15.5 -156.5q0 -84 -15.5 -151t-47 -114.5t-78 -72.5t-107.5 -25zM290 582q-33 0 -57 -17.5t-40 -48t-24 -72t-11 -89.5h264
q-3 48 -11.5 89.5t-24 72t-39.5 48t-57 17.5zM290 41q31 0 54.5 16t39.5 44.5t25 67.5t12 86h-263q3 -47 12.5 -86t25.5 -67.5t39.5 -44.5t54.5 -16z" />
    <glyph glyph-name="iota" unicode="&#x3b9;" horiz-adv-x="280" 
d="M176 473v-399q0 -21 4 -30t12 -9q10 0 20.5 7.5t26.5 27.5l51 -61q-25 -32 -52 -49t-61 -17q-57 0 -87.5 28.5t-30.5 92.5v409h117z" />
    <glyph glyph-name="kappa" unicode="&#x3ba;" horiz-adv-x="482" 
d="M268 260l205 -305h-131l-147 228l-19 -20v-208h-117v518h117v-167l153 167h141z" />
    <glyph glyph-name="lambda" unicode="&#x3bb;" horiz-adv-x="629" 
d="M278 291l-144 -350l-104 39l196 472l-19 61q-10 32 -24 43.5t-31 13.5q-8 1 -19 -0.5t-29 -6.5l-25 107q29 8 45.5 9t36.5 0q51 -3 91.5 -33t60.5 -95l143 -443q8 -26 18.5 -42.5t22.5 -16.5t20.5 8.5t17.5 39.5l99 -39q-12 -31 -24.5 -53t-29 -35.5t-37.5 -19.5t-48 -6
q-56 0 -92.5 35.5t-56.5 99.5z" />
    <glyph glyph-name="uni03BC" unicode="&#x3bc;" horiz-adv-x="540" 
d="M489 473v-348q0 -43 -14 -76.5t-39.5 -57t-60.5 -35.5t-76 -12q-32 0 -62.5 9t-59.5 31v-228h-118v717h118v-364q19 -36 46 -54t56 -18q40 0 66.5 20t26.5 69v347h117z" />
    <glyph glyph-name="nu" unicode="&#x3bd;" horiz-adv-x="500" 
d="M326 -45h-100l-139 387q-6 15 -15.5 23t-21 12t-24 4h-23.5v97q33 2 62.5 -1.5t53.5 -15t42 -32t29 -52.5l87 -250l110 346h114z" />
    <glyph glyph-name="xi" unicode="&#x3be;" horiz-adv-x="460" 
d="M155 470q0 32 12.5 55.5t40.5 46.5h-138v101h296l-2 -89q-37 -20 -64 -45t-27 -66q0 -28 17 -47t42 -31v-89q-31 -7 -57 -23t-44.5 -37.5t-28.5 -46t-10 -47.5q1 -29 19 -51.5t59 -31.5q36 -8 66 -19t51.5 -29t33.5 -44.5t12 -65.5q0 -24 -9 -46.5t-26.5 -40t-43.5 -27.5
t-61 -10q-29 0 -54.5 4.5t-60.5 22.5l33 89q20 -9 35 -13.5t29 -6.5q16 -3 27 2.5t16 25.5q4 18 -4.5 30.5t-24 20.5t-33.5 13t-31 8q-63 17 -101.5 56t-38.5 105q0 68 36.5 119.5t109.5 92.5q-36 20 -56 48.5t-20 65.5z" />
    <glyph glyph-name="omicron" unicode="&#x3bf;" horiz-adv-x="550" 
d="M275 -57q-52 0 -96.5 17.5t-77.5 51.5t-51.5 83.5t-18.5 114.5q0 67 18.5 118.5t51 86t77 52t97.5 17.5t97.5 -17.5t77 -52t51 -86t18.5 -118.5q0 -65 -18.5 -114.5t-51.5 -83.5t-77.5 -51.5t-96.5 -17.5zM275 394q-34 0 -58 -14.5t-39.5 -40t-22.5 -59t-7 -70.5
q0 -85 34.5 -131t92.5 -46t92.5 46t34.5 131q0 37 -7 70.5t-22.5 59t-39.5 40t-58 14.5z" />
    <glyph glyph-name="pi" unicode="&#x3c0;" horiz-adv-x="620" 
d="M468 74q0 -21 4 -30t12 -9q10 0 20.5 7.5t26.5 27.5l51 -61q-25 -32 -52 -49t-61 -17q-57 0 -87.5 28.5t-30.5 92.5v310h-91v-203q0 -63 -8.5 -106t-32.5 -69.5t-66 -37.5t-108 -11v99q32 0 51.5 4.5t30 18.5t13.5 40t3 70v195h-101v98h528v-98h-102v-300v0z" />
    <glyph glyph-name="rho" unicode="&#x3c1;" horiz-adv-x="570" 
d="M59 194q0 89 22.5 145.5t56.5 88.5t75 44t79 12q54 0 100 -17.5t79 -52t51.5 -86.5t18.5 -121q0 -60 -16.5 -109t-45.5 -83.5t-68.5 -53t-85.5 -18.5q-51 0 -85 14.5t-63 42.5v-244h-118v438zM177 173q0 -27 8.5 -51.5t23.5 -43.5t37 -30.5t49 -11.5q34 0 58 14t39 37.5
t22 55t7 67.5q1 82 -29.5 131.5t-98.5 49.5q-56 0 -86 -43.5t-30 -128.5v-46z" />
    <glyph glyph-name="sigma" unicode="&#x3c3;" horiz-adv-x="570" 
d="M559 414q-30 -5 -52 -5.5t-52 -1.5q32 -36 48 -83.5t16 -113.5t-19 -115.5t-52 -83.5t-77.5 -51t-95.5 -17t-95.5 17t-77.5 51t-52 83.5t-19 115.5q0 69 18.5 120t51.5 85.5t77.5 51.5t96.5 17q33 0 64 1.5t63 4.5t67 8t74 13zM275 392q-35 0 -58.5 -14t-38 -38.5
t-21 -58t-6.5 -71.5q0 -87 32.5 -131t91.5 -44t91.5 44t32.5 131q0 38 -6.5 71.5t-21 58t-38 38.5t-58.5 14z" />
    <glyph glyph-name="tau" unicode="&#x3c4;" horiz-adv-x="530" 
d="M320 372v-298q0 -21 4 -30t12 -9q10 0 20.5 7.5t26.5 27.5l51 -61q-25 -32 -52 -49t-61 -17q-57 0 -87.5 28.5t-30.5 92.5v308h-188v101h500v-101h-195z" />
    <glyph glyph-name="upsilon" unicode="&#x3c5;" horiz-adv-x="555" 
d="M435 486q32 -70 52.5 -145.5t20.5 -153.5q0 -51 -12 -95.5t-39.5 -77.5t-71 -52.5t-106.5 -19.5q-48 0 -88 14t-69.5 41.5t-45.5 68.5t-16 94v313h115v-307q0 -61 26 -91t74 -30q37 0 60 10.5t36 29t17.5 44t4.5 55.5q0 35 -7 73.5t-17.5 76t-23 71t-23.5 59.5l113 22v0z
" />
    <glyph glyph-name="phi" unicode="&#x3c6;" horiz-adv-x="550" 
d="M331 478q42 -8 76.5 -29.5t59 -55.5t38.5 -80t14 -103q0 -55 -14 -99.5t-39 -77.5t-59.5 -54t-75.5 -30v-112h-111v112q-41 8 -76 29.5t-60 54.5t-39 77.5t-14 99.5q0 115 52.5 183t136.5 85v112h111v-112zM145 210q0 -63 20 -104.5t55 -60.5v337q-39 -21 -57 -68
t-18 -104zM405 210q0 57 -18 103.5t-56 67.5v-335q34 19 54 60.5t20 103.5z" />
    <glyph glyph-name="chi" unicode="&#x3c7;" horiz-adv-x="550" 
d="M275 228l136 244h128l-200 -359l200 -359h-127l-137 245l-137 -245h-127l200 359l-200 359h128z" />
    <glyph glyph-name="psi" unicode="&#x3c8;" horiz-adv-x="680" 
d="M401 61q48 14 76.5 53.5t28.5 113.5v245h121v-232q0 -68 -17 -118.5t-47.5 -85t-72 -54t-89.5 -26.5v-202h-121v202q-49 7 -90.5 26.5t-72 54t-47.5 85t-17 118.5v232h121v-245q0 -74 29 -114t77 -54v413h121v-412z" />
    <glyph glyph-name="omega" unicode="&#x3c9;" horiz-adv-x="720" 
d="M485 -57q-61 0 -124 51q-29 -26 -61.5 -38.5t-65.5 -12.5q-53 0 -90.5 19t-62 51t-36 74.5t-11.5 89.5q0 95 25.5 167.5t88.5 138.5l91 -58q-48 -49 -66.5 -110t-18.5 -137q0 -24 2.5 -47t11 -41t24.5 -29.5t43 -11.5q13 0 25.5 5.5t22.5 14.5t16 21t6 25v183h109v-183
q0 -13 6 -25t16 -21t22.5 -14.5t25.5 -5.5q27 0 43 11.5t24 29.5t10.5 41t2.5 47q0 76 -18.5 136.5t-66.5 109.5l90 59q63 -66 89 -138.5t26 -167.5q0 -47 -11.5 -89.5t-35.5 -74.5t-62 -51t-90 -19z" />
    <glyph glyph-name="uni0401" unicode="&#x401;" horiz-adv-x="560" 
d="M191 245v-189h325v-101h-446v658h430v-101h-309v-167h293v-100h-293zM241 657h-121v121h121v-121zM449 657h-121v121h121v-121z" />
    <glyph glyph-name="uni0410" unicode="&#x410;" horiz-adv-x="600" 
d="M414 133h-230l-53 -177h-124l231 717h123l231 -717h-124zM212 226h174l-87 287z" />
    <glyph glyph-name="uni0411" unicode="&#x411;" horiz-adv-x="570" 
d="M292 56q28 0 50.5 5t38 18t23.5 34.5t8 53.5q0 56 -35 78.5t-95 22.5h-92v-212h102zM264 368q87 0 139.5 -19t81 -49t37.5 -66t9 -69q0 -110 -58.5 -160t-162.5 -50h-240v719h419v-101h-299v-205h74z" />
    <glyph glyph-name="uni0412" unicode="&#x412;" horiz-adv-x="570" 
d="M266 673q113 0 173.5 -43t60.5 -140q0 -52 -20.5 -89t-66.5 -66q56 -17 88 -63.5t32 -106.5q0 -111 -59 -161t-173 -50h-231v719h196zM288 55q28 0 51.5 5t40 17.5t25.5 33.5t9 53q0 57 -38 84t-98 27h-88v-220h98zM255 375q28 0 51 6t39.5 19.5t26 34t9.5 50.5
q0 25 -9 42t-25 27t-37.5 14t-45.5 4h-74v-197h65z" />
    <glyph glyph-name="uni0413" unicode="&#x413;" horiz-adv-x="530" 
d="M501 674v-101h-310v-618h-121v719h431z" />
    <glyph glyph-name="uni0414" unicode="&#x414;" horiz-adv-x="720" 
d="M553 -148v128h-386v-128h-121v179q100 109 151.5 231.5t51.5 259.5v152h366v-592h59v-230h-121zM495 574h-134v-60q0 -54 -9 -111t-26.5 -113t-42.5 -109t-58 -99h270v492z" />
    <glyph glyph-name="uni0415" unicode="&#x415;" horiz-adv-x="560" 
d="M485 376v-100h-295v-220h327v-101h-448v719h432v-101h-311v-197h295z" />
    <glyph glyph-name="uni0416" unicode="&#x416;" horiz-adv-x="940" 
d="M889 -44h-14q-66 0 -120 20.5t-94 60t-64 96.5t-30 130h-40v-307h-117v307h-39q-6 -73 -30 -130t-64 -96.5t-94 -60t-119 -20.5h-14v98h14q95 0 144 68t49 184q0 58 -11.5 107.5t-35 86t-60 57t-86.5 20.5h-20v97h20q131 0 211.5 -82t94.5 -229h40v311h117v-311h41
q7 73 31.5 131t64 98t93 61t118.5 21h20v-97h-20q-50 0 -86.5 -20.5t-60 -57t-35 -86t-11.5 -107.5q0 -116 49 -184t144 -68h14v-98z" />
    <glyph glyph-name="uni0417" unicode="&#x417;" horiz-adv-x="540" 
d="M498 170q0 -48 -17 -87.5t-47.5 -67t-72.5 -43t-91 -15.5q-50 0 -91.5 14.5t-71.5 42.5t-46.5 69t-16.5 93v18h118q0 -64 26.5 -100t78.5 -36q59 0 84 28.5t25 86.5q0 32 -13.5 59.5t-47.5 38.5q-17 6 -41 9t-65 3v103q49 0 74.5 2.5t44.5 15.5q17 11 24.5 31.5t7.5 49.5
q0 43 -23.5 64.5t-62.5 21.5q-51 0 -73.5 -30.5t-24.5 -94.5h-114q0 107 57.5 167t155.5 60q44 0 81 -12t63.5 -36t41.5 -58.5t15 -79.5q0 -47 -17 -82.5t-53 -62.5q47 -28 69.5 -72.5t22.5 -99.5z" />
    <glyph glyph-name="uni0418" unicode="&#x418;" horiz-adv-x="665" 
d="M597 -46h-115v552l-263 -552h-149v719h115v-561l264 561h148v-719z" />
    <glyph glyph-name="uni0419" unicode="&#x419;" horiz-adv-x="665" 
d="M70 613h115v-494l263 494h150v-657h-115v503l-265 -503h-148v657zM472 774q-3 -36 -15.5 -60.5t-30.5 -39.5t-40 -21.5t-44 -6.5q-26 0 -48.5 7.5t-40 23t-28 39.5t-13.5 58h97q2 -28 10.5 -39t22.5 -11t23 11t10 39h97z" />
    <glyph glyph-name="uni041A" unicode="&#x41a;" horiz-adv-x="593" 
d="M191 408l246 264h143l-283 -306l298 -411h-141l-235 326l-28 -30v-295h-121v717h121v-265z" />
    <glyph glyph-name="uni041B" unicode="&#x41b;" horiz-adv-x="690" 
d="M619 674v-732h-121v631h-241v-423q0 -45 -12.5 -81t-40.5 -62t-73.5 -42t-111.5 -21l-9 93q31 4 55 11t40.5 20t25 33t8.5 49v524h480z" />
    <glyph glyph-name="uni041C" unicode="&#x41c;" horiz-adv-x="780" 
d="M456 -47h-132l-138 477v-477h-115v722h149l170 -590l172 590h149v-722h-115v477z" />
    <glyph glyph-name="uni041D" unicode="&#x41d;" horiz-adv-x="660" 
d="M192 375h276v298h121v-719h-121v321h-276v-321h-121v719h121v-298z" />
    <glyph glyph-name="uni041E" unicode="&#x41e;" horiz-adv-x="700" 
d="M350 -57q-69 0 -125.5 25t-97 72t-63 114.5t-22.5 151.5q0 88 22 157t62.5 117t97 73.5t126.5 25.5t126.5 -25.5t97 -73.5t62.5 -117t22 -157q0 -84 -22.5 -151.5t-63 -114.5t-97 -72t-125.5 -25zM350 584q-49 0 -84.5 -22t-59 -60t-35 -88.5t-11.5 -107.5t12 -106
t36 -84.5t59.5 -56t82.5 -20.5q46 0 81.5 20.5t59.5 56t36.5 84.5t12.5 106t-11.5 107.5t-35 88.5t-59 60t-84.5 22z" />
    <glyph glyph-name="uni041F" unicode="&#x41f;" horiz-adv-x="660" 
d="M70 -45v719h519v-718h-121v617h-280v-618h-118z" />
    <glyph glyph-name="uni0420" unicode="&#x420;" horiz-adv-x="557" 
d="M290 673q117 0 174.5 -55.5t57.5 -163.5q0 -106 -58 -163t-174 -57h-100v-280h-120v719h220zM286 335q53 0 85.5 27t32.5 90t-32.5 91.5t-85.5 28.5h-96v-237h96z" />
    <glyph glyph-name="uni0421" unicode="&#x421;" horiz-adv-x="600" 
d="M37 311q0 73 18.5 140t58 118t102 81t149.5 30q58 0 104 -15t91 -49l-63 -87q-31 24 -60 37.5t-73 13.5q-56 0 -95 -22t-63.5 -59t-36 -86t-11.5 -102q0 -51 11.5 -99t36 -85.5t63.5 -60.5t95 -23q44 0 77.5 14t69.5 46l66 -78q-45 -44 -97 -63t-115 -19q-87 0 -149.5 31
t-102 82t-58 117.5t-18.5 137.5z" />
    <glyph glyph-name="uni0422" unicode="&#x422;" horiz-adv-x="530" 
d="M13 572v101h504v-101h-195v-618h-121v618h-188z" />
    <glyph glyph-name="uni0423" unicode="&#x423;" horiz-adv-x="500" 
d="M485 673l-202 -618q-20 -62 -58.5 -87t-92.5 -25q-22 0 -40.5 2.5t-44.5 11.5l17 91q20 -5 31 -6.5t23 -1.5q23 0 36.5 11t23.5 41l30 92l-192 489h120l124 -331l109 331h116z" />
    <glyph glyph-name="uni0424" unicode="&#x424;" horiz-adv-x="640" 
d="M378 566q46 -9 85.5 -31t68.5 -55.5t45 -77.5t16 -96q0 -53 -16 -97t-45 -77.5t-68.5 -55t-85.5 -30.5v-90h-117v90q-47 9 -86.5 31t-68 55.5t-44.5 77t-16 96.5q0 52 16 96t44.5 77.5t68 55.5t86.5 31v107h117v-107zM476 306q0 58 -26 100t-72 59v-317q46 17 72 58
t26 100zM163 307q0 -60 26 -101t72 -58v317q-46 -17 -72 -59t-26 -99z" />
    <glyph glyph-name="uni0425" unicode="&#x425;" horiz-adv-x="590" 
d="M295 425l150 248h134l-217 -359l217 -360h-133l-151 249l-151 -249h-133l217 360l-217 359h134z" />
    <glyph glyph-name="uni0426" unicode="&#x426;" horiz-adv-x="660" 
d="M589 55h45v-203h-121v103h-443v718h121v-618h277v618h121v-618z" />
    <glyph glyph-name="uni0427" unicode="&#x427;" horiz-adv-x="564" 
d="M178 329q0 -44 17 -68.5t61 -24.5q47 0 81.5 28t54.5 73v336h118v-718h-118v247q-64 -59 -146 -59q-47 0 -82 14t-58 39t-34.5 59t-11.5 75v343h118v-344z" />
    <glyph glyph-name="uni0428" unicode="&#x428;" horiz-adv-x="880" 
d="M808 -45h-737v718h121v-618h187v618h121v-618h187v618h121v-718z" />
    <glyph glyph-name="uni0429" unicode="&#x429;" horiz-adv-x="880" 
d="M808 55h46v-203h-121v103h-662v718h121v-618h187v618h121v-618h187v618h121v-618z" />
    <glyph glyph-name="uni042A" unicode="&#x42a;" horiz-adv-x="620" 
d="M13 674h230v-306h74q87 0 139.5 -19t81 -49t37.5 -66t9 -69q0 -110 -58.5 -160t-162.5 -50h-240v618h-110v101zM345 56q28 0 50.5 5t38 18t23.5 34.5t8 53.5q0 56 -35 78.5t-95 22.5h-92v-212h102z" />
    <glyph glyph-name="uni042B" unicode="&#x42b;" horiz-adv-x="780" 
d="M599 674h121v-718h-121v718zM292 56q28 0 50.5 5t38 18t23.5 34.5t8 53.5q0 56 -35 78.5t-95 22.5h-92v-212h102zM190 368h74q87 0 139.5 -19t81 -49t37.5 -66t9 -69q0 -110 -58.5 -160t-162.5 -50h-240v719h120v-306z" />
    <glyph glyph-name="uni042C" unicode="&#x42c;" horiz-adv-x="570" 
d="M292 56q28 0 50.5 5t38 18t23.5 34.5t8 53.5q0 56 -35 78.5t-95 22.5h-92v-212h102zM190 368h74q87 0 139.5 -19t81 -49t37.5 -66t9 -69q0 -110 -58.5 -160t-162.5 -50h-240v719h120v-306z" />
    <glyph glyph-name="uni042D" unicode="&#x42d;" horiz-adv-x="600" 
d="M578 311q0 -71 -18.5 -137.5t-58 -118t-102 -82.5t-149.5 -31q-63 0 -116 19.5t-98 63.5l66 78q36 -32 70 -46.5t79 -14.5q49 0 85 18t61 49t38.5 71.5t18.5 84.5h-337v100h337q-5 44 -19.5 83t-39 68.5t-60.5 46.5t-84 17q-44 0 -73.5 -13.5t-60.5 -37.5l-63 87
q45 34 91.5 49t104.5 15q87 0 149.5 -30t102 -81t58 -118t18.5 -140z" />
    <glyph glyph-name="uni042E" unicode="&#x42e;" 
d="M191 375h74q8 72 33.5 128.5t65 95.5t92 59.5t114.5 20.5q69 0 126 -25.5t97.5 -73.5t62.5 -117.5t22 -156.5q0 -84 -22.5 -151t-63 -114.5t-97 -72.5t-125.5 -25q-66 0 -120.5 23t-94.5 66t-64 104.5t-28 138.5h-72v-319h-121v717h121v-298zM570 584q-49 0 -84.5 -22
t-59 -60t-35 -88.5t-11.5 -107.5t12 -105.5t36 -84.5t59.5 -56.5t82.5 -20.5q46 0 81.5 20.5t59.5 56.5t36.5 84.5t12.5 105.5t-11.5 107.5t-35 88.5t-59 60t-84.5 22z" />
    <glyph glyph-name="uni042F" unicode="&#x42f;" horiz-adv-x="570" 
d="M502 674v-726h-120v296h-62l-185 -288h-128l189 296q-73 17 -109.5 69t-36.5 138q0 108 56.5 161.5t166.5 53.5h229zM382 345v228h-105q-53 0 -81 -26.5t-28 -89.5t28 -87.5t81 -24.5h105z" />
    <glyph glyph-name="uni0430" unicode="&#x430;" horiz-adv-x="484" 
d="M29 94q0 59 26.5 96.5t67.5 58.5t92 27.5t99 3.5q0 25 -3.5 45.5t-14 35t-28.5 22.5t-47 8q-34 0 -62.5 -11.5t-60.5 -36.5l-39 81q35 29 81.5 44.5t94.5 15.5q61 0 99 -18.5t59.5 -48.5t29 -68.5t7.5 -77.5v-316h-113v37q-26 -20 -60.5 -34.5t-76.5 -14.5
q-39 0 -67.5 13t-47 34t-27.5 48t-9 56zM311 111q3 12 3 25v56q-23 3 -52.5 2t-55 -10t-43 -28t-17.5 -51q0 -36 15.5 -53t40.5 -17q20 0 38 7t32 17.5t24 24t15 27.5z" />
    <glyph glyph-name="uni0431" unicode="&#x431;" horiz-adv-x="550" 
d="M275 -57q-52 0 -96.5 18t-77.5 52.5t-52 84.5t-19 114q0 83 23 160t72.5 136.5t127 96.5t187.5 40l10 -101q-29 1 -58 -1t-56.5 -9t-54.5 -20t-52 -34q15 5 26 6t20 1q53 0 98 -18t77.5 -53.5t51 -87t18.5 -118.5q0 -64 -19 -114t-52 -84t-77.5 -51.5t-96.5 -17.5z
M275 397q-34 0 -58.5 -15t-40 -40t-22.5 -59t-7 -71q0 -85 35.5 -132t92.5 -47t92.5 46t35.5 131q0 37 -7 71t-22.5 60t-40 41t-58.5 15z" />
    <glyph glyph-name="uni0432" unicode="&#x432;" horiz-adv-x="480" 
d="M263 474q85 0 130.5 -32t45.5 -107q0 -31 -10.5 -57.5t-35.5 -46.5q37 -18 53 -48t16 -72q0 -84 -44.5 -120t-130.5 -36h-227v519h203zM278 49q32 0 51.5 15t19.5 49q0 32 -21.5 47t-57.5 15h-97v-126h105zM255 268q38 0 55 13t17 48q0 27 -19.5 39t-47.5 12h-87v-112h82
z" />
    <glyph glyph-name="uni0433" unicode="&#x433;" horiz-adv-x="470" 
d="M441 474v-101h-260v-417h-121v518h381z" />
    <glyph glyph-name="uni0434" unicode="&#x434;" horiz-adv-x="620" 
d="M543 24h44v-196h-121v120h-315v-120h-119v160q89 84 126.5 191.5t37.5 241.5v51h347v-448zM431 370h-128v-14q0 -35 -6.5 -76.5t-18 -83t-27 -80.5t-33.5 -70h213v324z" />
    <glyph glyph-name="uni0435" unicode="&#x435;" horiz-adv-x="510" 
d="M261 392q-32 0 -52 -11t-32 -28.5t-17.5 -38t-8.5 -38.5h214q-3 18 -8.5 38.5t-16.5 38t-30 28.5t-49 11zM466 8q-47 -31 -92 -47t-100 -16q-48 0 -91.5 16.5t-77 50.5t-53 84.5t-19.5 118.5q0 60 14.5 109.5t43 85.5t71.5 55.5t99 19.5q65 0 109 -23.5t69.5 -64.5
t34.5 -96.5t6 -119.5h-330q5 -78 40.5 -110.5t91.5 -32.5q35 0 69.5 11t80.5 38z" />
    <glyph glyph-name="uni0436" unicode="&#x436;" horiz-adv-x="740" 
d="M700 -57q-102 0 -167.5 58.5t-78.5 161.5h-27v-207h-115v207h-27q-13 -103 -78.5 -161.5t-167.5 -58.5v92q68 0 104.5 44t36.5 131q0 38 -7 71.5t-23.5 58t-43.5 39t-67 14.5v92q104 0 168.5 -59t77.5 -167h27v215h115v-215h27q13 108 77.5 167t168.5 59v-92
q-40 0 -67 -14.5t-43.5 -39t-23.5 -58t-7 -71.5q0 -87 36.5 -131t104.5 -44v-92z" />
    <glyph glyph-name="uni0437" unicode="&#x437;" horiz-adv-x="460" 
d="M430 107q0 -44 -18 -75t-47 -50.5t-65 -28.5t-73 -9q-42 0 -79 10t-64.5 31.5t-43.5 56t-16 83.5h114q0 -48 25 -70.5t65 -22.5q34 0 59.5 17.5t25.5 59.5t-29 57.5t-72 15.5h-31v86h32q14 0 29 3.5t27 11t20 20t8 31.5q0 34 -18.5 47.5t-47.5 13.5q-38 0 -57.5 -22.5
t-21.5 -72.5h-109q0 47 15.5 81.5t42 57.5t60.5 34t71 11q35 0 67.5 -8.5t58 -26.5t40.5 -46.5t15 -68.5q0 -62 -54 -101q36 -17 53.5 -50t17.5 -76z" />
    <glyph glyph-name="uni0438" unicode="&#x438;" horiz-adv-x="520" 
d="M59 473h108v-351l160 351h142v-519h-108v353l-160 -353h-142v519z" />
    <glyph glyph-name="uni0439" unicode="&#x439;" horiz-adv-x="520" 
d="M399 651q-5 -57 -37.5 -90.5t-92.5 -33.5t-93 32t-38 92h95q2 -28 10.5 -39t25.5 -11q18 0 27 11t10 39h93zM59 473h108v-351l160 351h142v-519h-108v353l-160 -353h-142v519z" />
    <glyph glyph-name="uni043A" unicode="&#x43a;" horiz-adv-x="480" 
d="M166 320l165 153h148l-230 -217l230 -299h-136l-173 225l-4 -4v-230h-117v532h117v-160z" />
    <glyph glyph-name="uni043B" unicode="&#x43b;" horiz-adv-x="580" 
d="M520 474v-518h-118v417h-144v-223q0 -45 -12.5 -81t-40.5 -62t-73.5 -42t-111.5 -21l-9 93q31 4 55 11t40.5 20t25 33t8.5 49v324h380z" />
    <glyph glyph-name="uni043C" unicode="&#x43c;" horiz-adv-x="580" 
d="M422 -44v261l-83 -261h-94l-82 261v-261h-103v518h120l111 -367l113 367h120v-518h-102z" />
    <glyph glyph-name="uni043D" unicode="&#x43d;" horiz-adv-x="550" 
d="M178 273h200v201h118v-518h-118v217h-200v-217h-118v518h118v-201z" />
    <glyph glyph-name="uni043E" unicode="&#x43e;" horiz-adv-x="550" 
d="M275 -57q-52 0 -96.5 17.5t-77.5 51.5t-51.5 84t-18.5 114q0 67 18.5 118.5t51 86t77 52t97.5 17.5t97.5 -17.5t77 -52t51 -86t18.5 -118.5q0 -64 -18.5 -114t-51.5 -84t-77.5 -51.5t-96.5 -17.5zM275 394q-34 0 -58 -14.5t-39.5 -40t-22.5 -59t-7 -70.5q0 -85 35 -131
t92 -46t92 46t35 131q0 37 -7 70.5t-22.5 59t-39.5 40t-58 14.5z" />
    <glyph glyph-name="uni043F" unicode="&#x43f;" horiz-adv-x="550" 
d="M496 -44h-118v418h-201v-418h-118v518h437v-518z" />
    <glyph glyph-name="uni0440" unicode="&#x440;" horiz-adv-x="570" 
d="M168 473v-57q59 68 148 68q45 0 86 -16.5t71.5 -51t49 -86.5t18.5 -123q0 -60 -15 -109t-43 -83.5t-68 -53t-90 -18.5q-51 0 -85 14.5t-63 42.5v-244h-118v717h109zM177 180q0 -27 8.5 -52.5t23.5 -46t37 -33t49 -12.5q34 0 58 14t39 37.5t22 55t7 67.5q1 82 -29.5 131.5
t-98.5 49.5q-28 0 -49.5 -11.5t-36.5 -30t-22.5 -43t-7.5 -50.5v-76z" />
    <glyph glyph-name="uni0441" unicode="&#x441;" horiz-adv-x="460" 
d="M436 -24q-18 -9 -56 -21t-92 -12q-57 0 -104 19t-80.5 54t-52.5 85t-19 112t19.5 112t55 85.5t86 54.5t112.5 19q42 0 74 -8.5t55 -22.5l-26 -94q-23 12 -45.5 19.5t-57.5 7.5q-78 0 -114.5 -46.5t-36.5 -121.5q0 -85 41 -130.5t110 -45.5q35 0 60 7.5t51 18.5z" />
    <glyph glyph-name="uni0442" unicode="&#x442;" horiz-adv-x="489" 
d="M13 372v101h464v-101h-176v-417h-119v417h-169z" />
    <glyph glyph-name="uni0443" unicode="&#x443;" horiz-adv-x="473" 
d="M470 473l-194 -602q-20 -62 -63.5 -88.5t-97.5 -26.5q-22 0 -39.5 2.5t-43.5 11.5l17 91q12 -4 26 -8t26 -4q29 0 45.5 14.5t27.5 45.5l23 71l-196 492h117l131 -332l108 333h113z" />
    <glyph glyph-name="uni0444" unicode="&#x444;" horiz-adv-x="550" 
d="M332 479q41 -9 75.5 -31t59 -55.5t38.5 -79.5t14 -103q0 -54 -14 -98.5t-39 -77.5t-59.5 -54.5t-74.5 -30.5v-174h-114v174q-41 9 -75 30.5t-59 54.5t-39 77.5t-14 98.5q0 57 13.5 103t38.5 79.5t59.5 55.5t75.5 31v195h114v-195zM403 210q0 56 -17 102.5t-54 68.5v-334
q32 19 51.5 61t19.5 102zM147 210q0 -60 19 -102t52 -61v334q-38 -22 -54.5 -68.5t-16.5 -102.5z" />
    <glyph glyph-name="uni0445" unicode="&#x445;" horiz-adv-x="468" 
d="M235 120l-111 -165h-127l175 259l-175 259h127l111 -165l112 165h127l-175 -259l175 -259h-127z" />
    <glyph glyph-name="uni0446" unicode="&#x446;" horiz-adv-x="570" 
d="M496 31h44v-203h-121v128h-360v518h118v-418h201v418h118v-443z" />
    <glyph glyph-name="uni0447" unicode="&#x447;" horiz-adv-x="564" 
d="M178 129q0 -44 17 -68.5t61 -24.5q47 0 81.5 28t54.5 73v336h118v-718h-118v247q-64 -59 -146 -59q-47 0 -82 14t-58 39t-34.5 59t-11.5 75v343h118v-344z" />
    <glyph glyph-name="uni0448" unicode="&#x448;" horiz-adv-x="655" 
d="M597 -45h-536v519h118v-419h91v419h118v-419h91v419h118v-519z" />
    <glyph glyph-name="uni0449" unicode="&#x449;" horiz-adv-x="670" 
d="M597 31h43v-203h-121v127h-458v519h118v-419h91v419h118v-419h91v419h118v-443z" />
    <glyph glyph-name="uni044A" unicode="&#x44a;" horiz-adv-x="520" 
d="M298 262q100 0 144.5 -35.5t44.5 -115.5q0 -84 -42 -120t-128 -36h-222v419h-81v100h199v-212h85zM306 51q32 0 49 12t17 50q0 32 -19.5 43t-54.5 11h-85v-116h93z" />
    <glyph glyph-name="uni044B" unicode="&#x44b;" horiz-adv-x="640" 
d="M470 474h118v-518h-118v518zM242 262q100 0 144.5 -35.5t44.5 -115.5q0 -84 -42 -120t-128 -36h-202v519h118v-212h65zM250 51q32 0 49 12t17 50q0 32 -19.5 43t-54.5 11h-65v-116h73z" />
    <glyph glyph-name="uni044C" unicode="&#x44c;" horiz-adv-x="480" 
d="M262 262q100 0 144.5 -35.5t44.5 -115.5q0 -84 -42 -120t-128 -36h-222v519h118v-212h85zM270 51q32 0 49 12t17 50q0 32 -19.5 43t-54.5 11h-85v-116h93z" />
    <glyph glyph-name="uni044D" unicode="&#x44d;" horiz-adv-x="460" 
d="M52 68q26 -11 51.5 -19t60.5 -8q57 0 94.5 31.5t49.5 91.5h-197v100h199q-9 57 -44 90.5t-101 33.5q-35 0 -59 -7.5t-47 -19.5l-26 94q23 14 56.5 22.5t75.5 8.5q65 0 115.5 -19.5t85 -55t52.5 -86t18 -112.5t-17.5 -112.5t-50.5 -85.5t-80 -54t-107 -19q-54 0 -90.5 11
t-58.5 22z" />
    <glyph glyph-name="uni044E" unicode="&#x44e;" horiz-adv-x="745" 
d="M465 -57q-48 0 -90 15t-74.5 44.5t-53 72t-25.5 98.5h-45v-218h-118v519h118v-201h47q17 104 82 158t159 54q53 0 97.5 -18t77 -52.5t51 -86t18.5 -118.5q0 -64 -18.5 -114t-51.5 -84t-77.5 -51.5t-96.5 -17.5zM465 395q-34 0 -58 -15t-39.5 -40t-22.5 -59t-7 -71
q0 -85 35 -131t92 -46t91.5 46t34.5 131q0 37 -7 71t-22 59t-39 40t-58 15z" />
    <glyph glyph-name="uni044F" unicode="&#x44f;" horiz-adv-x="430" 
d="M374 474v-519h-112v199h-13l-126 -197h-122l132 208q-45 16 -69.5 53t-24.5 96q0 81 43.5 120.5t124.5 39.5h167zM262 251v127h-52q-30 0 -45 -14t-15 -51t15 -49.5t45 -12.5h52z" />
    <glyph glyph-name="uni0451" unicode="&#x451;" horiz-adv-x="510" 
d="M216 537h-121v121h121v-121zM261 392q-32 0 -52 -11t-32 -28.5t-17.5 -38t-8.5 -38.5h214q-3 18 -8.5 38.5t-16.5 38t-30 28.5t-49 11zM466 8q-47 -31 -92 -47t-100 -16q-48 0 -91.5 16.5t-77 50.5t-53 84.5t-19.5 118.5q0 60 14.5 109.5t43 85.5t71.5 55.5t99 19.5
q65 0 109 -23.5t69.5 -64.5t34.5 -96.5t6 -119.5h-330q5 -78 40.5 -110.5t91.5 -32.5q35 0 69.5 11t80.5 38zM424 537h-121v121h121v-121z" />
    <glyph glyph-name="quoteleft" unicode="&#x2018;" horiz-adv-x="220" 
d="M44 646q0 46 18.5 82.5t64.5 56.5l39 -51q-22 -10 -34 -27t-12 -46h56v-127h-132v112z" />
    <glyph glyph-name="quoteright" unicode="&#x2019;" horiz-adv-x="220" 
d="M176 643q0 -46 -18.5 -82.5t-64.5 -56.5l-39 51q22 10 34 27t12 46h-56v127h132v-112z" />
    <glyph glyph-name="quotedblleft" unicode="&#x201c;" horiz-adv-x="380" 
d="M43 646q0 46 18.5 82.5t64.5 56.5l39 -51q-22 -10 -34 -27t-12 -46h56v-127h-132v112zM205 646q0 46 18.5 82.5t64.5 56.5l39 -51q-22 -10 -34 -27t-12 -46h56v-127h-132v112z" />
    <glyph glyph-name="quotedblright" unicode="&#x201d;" horiz-adv-x="380" 
d="M337 643q0 -46 -18.5 -82.5t-64.5 -56.5l-39 51q22 10 34 27t12 46h-56v127h132v-112zM175 643q0 -46 -18.5 -82.5t-64.5 -56.5l-39 51q22 10 34 27t12 46h-56v127h132v-112z" />
    <glyph glyph-name="dagger" unicode="&#x2020;" horiz-adv-x="640" 
d="M373 347v-424h-107v424h-189v95h189v227h107v-227h189v-95h-189z" />
    <glyph glyph-name="daggerdbl" unicode="&#x2021;" horiz-adv-x="640" 
d="M266 340v101h-188v95h188v134h107v-134h189v-95h-189v-101h189v-95h-189v-323h-107v323h-188v95h188z" />
    <glyph glyph-name="twodotenleader" unicode="&#x2025;" horiz-adv-x="800" 
d="M294 236h-131v131h131v-131zM637 236h-131v131h131v-131z" />
    <glyph glyph-name="ellipsis" unicode="&#x2026;" horiz-adv-x="800" 
d="M197 236h-131v131h131v-131zM464 236h-131v131h131v-131zM732 236h-131v131h131v-131z" />
    <glyph glyph-name="perthousand" unicode="&#x2030;" horiz-adv-x="940" 
d="M158 279q-67 0 -97.5 47t-30.5 138q0 90 30 141.5t98 51.5t98 -51.5t30 -141.5q0 -91 -30.5 -138t-97.5 -47zM158 575q-17 0 -24.5 -29t-7.5 -82q0 -55 7.5 -79t25.5 -24q17 0 24 24t7 79q0 53 -7.5 82t-24.5 29zM416 674h89l-263 -718h-89zM501 -23q-67 0 -97.5 47
t-30.5 138q0 90 30 141.5t98 51.5t98 -51.5t30 -141.5q0 -91 -30.5 -138t-97.5 -47zM501 273q-17 0 -24.5 -29t-7.5 -82q0 -55 7.5 -79t25.5 -24q17 0 24 24t7 79q0 53 -7.5 82t-24.5 29zM781 -23q-67 0 -97.5 47t-30.5 138q0 90 30 141.5t98 51.5t98 -51.5t30 -141.5
q0 -91 -30.5 -138t-97.5 -47zM781 273q-17 0 -24.5 -29t-7.5 -82q0 -55 7.5 -79t25.5 -24q17 0 24 24t7 79q0 53 -7.5 82t-24.5 29z" />
    <glyph glyph-name="minute" unicode="&#x2032;" horiz-adv-x="340" 
d="M150 460h-87l98 254h137z" />
    <glyph glyph-name="second" unicode="&#x2033;" horiz-adv-x="540" 
d="M151 460h-87l97 254h139zM328 460h-92l102 254h139z" />
    <glyph glyph-name="uni203B" unicode="&#x203b;" horiz-adv-x="750" 
d="M176 572l198 -208l198 208l72 -70l-201 -211l201 -210l-71 -71l-199 208l-199 -208l-71 71l200 210l-200 211zM309 533q0 28 19 47.5t48 19.5q28 0 47.5 -19.5t19.5 -47.5t-19.5 -48t-47.5 -20q-29 0 -48 20t-19 48zM537 301q0 28 19 47.5t48 19.5q28 0 47.5 -19.5
t19.5 -47.5t-19.5 -48t-47.5 -20q-29 0 -48 20t-19 48zM78 301q0 28 19 47.5t48 19.5q28 0 47.5 -19.5t19.5 -47.5t-19.5 -48t-47.5 -20q-29 0 -48 20t-19 48zM307 50q0 28 19 47.5t48 19.5q28 0 47.5 -19.5t19.5 -47.5t-19.5 -48t-47.5 -20q-29 0 -48 20t-19 48z" />
    <glyph glyph-name="uni2074" unicode="&#x2074;" horiz-adv-x="340" 
d="M32 476v58l155 260h77v-240h43v-78h-43v-67h-81v67h-151zM131 554h52v87z" />
    <glyph glyph-name="uni207F" unicode="&#x207f;" horiz-adv-x="400" 
d="M255 655q0 34 -14.5 48t-37.5 14t-38 -15t-20 -34v-257h-95v373h90v-26q36 34 78 34q63 0 97 -35t34 -101v-245h-94v244z" />
    <glyph glyph-name="uni2081" unicode="&#x2081;" horiz-adv-x="340" 
d="M67 143l95 51h70v-382h-92v276l-35 -19z" />
    <glyph glyph-name="uni2082" unicode="&#x2082;" horiz-adv-x="340" 
d="M45 -127q45 43 73.5 73.5t44.5 52.5t22 39t8 34t-6.5 27.5t-25.5 10.5q-14 0 -32 -10t-43 -36l-48 67q35 33 64 47.5t68 14.5q30 0 52.5 -10t37 -26.5t22 -37.5t7.5 -43q0 -23 -5 -43.5t-17 -43t-32 -47.5t-50 -56h115v-78h-255v65z" />
    <glyph glyph-name="uni2083" unicode="&#x2083;" horiz-adv-x="340" 
d="M77 -91q24 -14 41 -20t37 -6q33 0 43 13t10 28q0 23 -18 35t-45 12h-36v75h36q26 0 36.5 9t12.5 27q1 12 -6.5 22t-26.5 10q-17 0 -34.5 -6.5t-35.5 -20.5l-35 64q30 23 56 33t58 10t54 -9t36 -23.5t20.5 -32t6.5 -34.5q0 -20 -10 -43t-30 -39q26 -13 39.5 -37t13.5 -53
q0 -21 -8.5 -42.5t-26 -38.5t-45 -27.5t-64.5 -10.5q-34 0 -60 8.5t-58 26.5l39 70v0z" />
    <glyph glyph-name="uni2084" unicode="&#x2084;" horiz-adv-x="340" 
d="M32 -124v58l155 260h77v-240h43v-78h-43v-67h-81v67h-151zM131 -46h52v87z" />
    <glyph glyph-name="uni2103" unicode="&#x2103;" horiz-adv-x="770" 
d="M189 266q0 78 22.5 146t66 118.5t106 79.5t142.5 29q58 0 107.5 -14.5t94.5 -47.5l-47 -92q-31 24 -71 37.5t-85 13.5q-52 0 -91.5 -21t-66.5 -57.5t-40.5 -86t-13.5 -105.5q0 -53 13.5 -101.5t40.5 -85.5t66.5 -59.5t91.5 -22.5q45 0 91 15.5t82 47.5l53 -88
q-45 -40 -103.5 -59t-121.5 -19q-80 0 -142.5 29.5t-106 80.5t-66 118.5t-22.5 143.5zM230 638q0 -44 -29 -69.5t-66 -25.5q-18 0 -35.5 6.5t-31 19t-21.5 30t-8 39.5t8 39.5t21.5 30t31 19t35.5 6.5q37 0 66 -25.5t29 -69.5zM167 638q0 14 -9 23t-22 9q-14 0 -23 -9t-9 -23
t9 -23t23 -9q13 0 22 9t9 23z" />
    <glyph glyph-name="uni2109" unicode="&#x2109;" horiz-adv-x="760" 
d="M230 638q0 -44 -29 -69.5t-66 -25.5q-18 0 -35.5 6.5t-31 19t-21.5 30t-8 39.5t8 39.5t21.5 30t31 19t35.5 6.5q37 0 66 -25.5t29 -69.5zM167 638q0 14 -9 23t-22 9q-14 0 -23 -9t-9 -23t9 -23t23 -9q13 0 22 9t9 23zM732 629v-104h-329v-208h308v-102h-308v-312h-73
l-50 50v676h452z" />
    <glyph glyph-name="uni2113" unicode="&#x2113;" horiz-adv-x="430" 
d="M6 62q21 14 44.5 32t47.5 41q-5 34 -7 65t-2 52q0 97 12 176.5t35 135t57 86t78 30.5q64 0 92.5 -42t28.5 -110q0 -49 -14 -104t-39.5 -111.5t-61.5 -110.5t-80 -102q5 -30 14 -48t23 -18q26 0 53 77l84 -44q-15 -37 -30.5 -61t-33 -37.5t-37.5 -19t-44 -5.5
q-37 0 -61.5 25t-40.5 63q-30 -26 -63 -45zM265 581q-15 0 -28 -31.5t-23 -81.5t-16.5 -111t-7.5 -119q40 56 67 125.5t31 154.5q3 63 -23 63z" />
    <glyph glyph-name="uni2116" unicode="&#x2116;" horiz-adv-x="940" 
d="M399 -45h-123l-140 499v-499h-100v718h126l137 -495v495h100v-718zM610 -56q-50 0 -83.5 22.5t-54 59.5t-29 85.5t-8.5 99.5q0 54 8.5 103.5t28.5 87t54 60t84 22.5q51 0 84.5 -22.5t53.5 -60t28 -87t8 -103.5q0 -51 -8.5 -99.5t-28.5 -85.5t-53.5 -59.5t-83.5 -22.5z
M610 397q-20 0 -32 -16t-19 -42t-9.5 -59.5t-2.5 -68.5q0 -39 4 -72t12 -57t20 -37.5t27 -13.5q16 0 27.5 13.5t19 37.5t11.5 57t4 72q0 35 -2 68.5t-9 59.5t-19 42t-32 16zM911 -50h-121v121h121v-121z" />
    <glyph glyph-name="uni2121" unicode="&#x2121;" horiz-adv-x="940" 
d="M6 572v101h423v-101h-157v-617h-117v617h-149zM536 391q-21 0 -36 -11.5t-24.5 -29t-15 -38t-7.5 -38.5h154q-2 18 -5.5 38.5t-12 38t-21.5 29t-32 11.5zM710 9q-38 -31 -78 -46.5t-85 -15.5q-43 0 -80 17.5t-64.5 51t-43.5 83.5t-16 116q0 58 12.5 107.5t37 85.5
t60.5 56t83 20q62 0 100 -28.5t57.5 -73t24.5 -98t2 -102.5h-268q2 -38 10.5 -65t22 -43.5t31 -24t36.5 -7.5q29 0 58.5 9.5t69.5 38.5zM882 703v-747h-116v747h116z" />
    <glyph glyph-name="trademark" unicode="&#x2122;" horiz-adv-x="800" 
d="M656 361v147l-54 -147h-62l-57 149v-149h-95v361h86l97 -237l92 237h88v-361h-95zM246 632v-271h-103v271h-104v90h313v-90h-106z" />
    <glyph glyph-name="Omega" unicode="&#x2126;" horiz-adv-x="760" 
d="M380 582q-53 0 -91 -18t-62 -50t-35.5 -75.5t-11.5 -95.5t12.5 -99.5t34 -88t51 -72t62.5 -50.5v-78h-295v100h123q-49 51 -79 123.5t-30 163.5q0 78 21 140t61.5 106t100.5 67.5t138 23.5t138 -23.5t100.5 -67.5t61.5 -106t21 -140q0 -91 -30 -163.5t-79 -123.5h123
v-100h-295v78q33 19 62.5 50.5t51 72t34 88t12.5 99.5t-11.5 95.5t-35.5 75.5t-62 50t-91 18z" />
    <glyph glyph-name="uni212B" unicode="&#x212b;" horiz-adv-x="600" 
d="M412 102h-226l-54 -146h-122l228 597h123l228 -598h-122zM394 686q0 -44 -29 -68t-66 -24q-18 0 -35.5 6t-31 18t-21.5 29t-8 39t8 39t21.5 29t31 18t35.5 6q37 0 66 -24t29 -68zM220 195h158l-79 212zM331 686q0 14 -9 21.5t-22 7.5q-14 0 -23 -7.5t-9 -21.5t9 -21.5
t23 -7.5q13 0 22 7.5t9 21.5z" />
    <glyph glyph-name="onethird" unicode="&#x2153;" horiz-adv-x="720" 
d="M456 75q24 -14 41 -20t37 -6q33 0 43 13t10 28q0 23 -18 35t-45 12h-36v75h36q26 0 36.5 9t12.5 27q1 12 -6.5 22t-26.5 10q-17 0 -34.5 -6.5t-35.5 -20.5l-35 64q30 23 56 33t58 10t54 -9t36 -23.5t20.5 -32t6.5 -34.5q0 -20 -10 -43t-30 -39q26 -13 39.5 -37t13.5 -53
q0 -21 -8.5 -42.5t-26 -38.5t-45 -27.5t-64.5 -10.5q-34 0 -60 8.5t-58 26.5zM37 601l95 51h70v-382h-92v276l-35 -19zM144 -45h-86l439 702h86z" />
    <glyph glyph-name="twothirds" unicode="&#x2154;" horiz-adv-x="720" 
d="M462 75q24 -14 41 -20t37 -6q33 0 43 13t10 28q0 23 -18 35t-45 12h-36v75h36q26 0 36.5 9t12.5 27q1 12 -6.5 22t-26.5 10q-33 0 -67 -27l-35 64q30 23 54.5 33t56.5 10t54 -9t36 -23.5t20.5 -32t6.5 -34.5q0 -20 -10 -43t-30 -39q26 -13 39.5 -37t13.5 -53
q0 -21 -8.5 -42.5t-26 -38.5t-45 -27.5t-64.5 -10.5q-34 0 -60 8.5t-58 26.5zM40 335q45 43 73.5 73.5t44.5 52.5t22 39t8 34t-6.5 27.5t-25.5 10.5q-14 0 -32 -10t-43 -36l-48 67q35 33 64 47.5t68 14.5q30 0 52.5 -10t37 -26.5t22 -37.5t7.5 -43q0 -23 -5 -43.5t-17 -43
t-32 -47.5t-50 -56h109v-78h-249v65zM199 -45h-86l439 702h86z" />
    <glyph glyph-name="oneeighth" unicode="&#x215b;" horiz-adv-x="720" 
d="M678 89q0 -28 -10 -50t-28 -37.5t-42.5 -23.5t-52.5 -8q-62 0 -96.5 32t-34.5 79q0 25 12.5 49t41.5 42q-23 17 -32 40t-9 41q0 49 32.5 78t89.5 29q31 0 53 -8.5t36 -22.5t20.5 -32.5t6.5 -37.5q0 -17 -10 -38t-33 -40q29 -18 42.5 -42t13.5 -50zM591 80q0 37 -50 56
q-21 -10 -30.5 -23.5t-9.5 -27.5q0 -18 11.5 -29t33.5 -11q20 0 32.5 9t12.5 26zM509 254q0 -26 41 -42q33 16 33 41q0 34 -36 34q-19 0 -28.5 -9t-9.5 -24zM37 601l95 51h70v-382h-92v276l-35 -19zM144 -45h-86l439 702h86z" />
    <glyph glyph-name="threeeighths" unicode="&#x215c;" horiz-adv-x="720" 
d="M694 89q0 -28 -10 -50t-28 -37.5t-42.5 -23.5t-52.5 -8q-62 0 -96.5 32t-34.5 79q0 25 12.5 49t41.5 42q-23 17 -32 40t-9 41q0 49 32.5 78t89.5 29q31 0 53 -8.5t36 -22.5t20.5 -32.5t6.5 -37.5q0 -17 -10 -38t-33 -40q29 -18 42.5 -42t13.5 -50zM607 80q0 37 -50 56
q-21 -10 -30.5 -23.5t-9.5 -27.5q0 -18 11.5 -29t33.5 -11q20 0 32.5 9t12.5 26zM525 254q0 -26 41 -42q33 16 33 41q0 34 -36 34q-19 0 -28.5 -9t-9.5 -24zM175 -45h-86l439 702h86zM52 372q24 -14 41 -20t37 -6q33 0 43 13t10 28q0 23 -18 35t-45 12h-36v75h36
q26 0 36.5 9t12.5 27q1 12 -6.5 22t-26.5 10q-17 0 -34.5 -6.5t-35.5 -20.5l-35 64q30 23 56 33t58 10t54 -9t36 -23.5t20.5 -32t6.5 -34.5q0 -20 -10 -43t-30 -39q26 -13 39.5 -37t13.5 -53q0 -21 -8.5 -42.5t-26 -38.5t-45 -27.5t-64.5 -10.5q-34 0 -60 8.5t-58 26.5z" />
    <glyph glyph-name="fiveeighths" unicode="&#x215d;" horiz-adv-x="720" 
d="M154 573l-9 -49q27 0 50.5 -8.5t41 -24t27.5 -38t10 -51.5q0 -61 -39.5 -99.5t-105.5 -38.5q-34 0 -59 9t-45 21l24 80q18 -13 39.5 -20.5t40.5 -7.5q52 0 52 50q0 20 -16.5 35.5t-50.5 15.5q-14 0 -31 -0.5t-40 -3.5l28 211h196v-81h-113zM694 89q0 -28 -10 -50
t-28 -37.5t-42.5 -23.5t-52.5 -8q-62 0 -96.5 32t-34.5 79q0 25 12.5 49t41.5 42q-23 17 -32 40t-9 41q0 49 32.5 78t89.5 29q31 0 53 -8.5t36 -22.5t20.5 -32.5t6.5 -37.5q0 -17 -10 -38t-33 -40q29 -18 42.5 -42t13.5 -50zM607 80q0 37 -50 56q-21 -10 -30.5 -23.5
t-9.5 -27.5q0 -18 11.5 -29t33.5 -11q20 0 32.5 9t12.5 26zM525 254q0 -26 41 -42q33 16 33 41q0 34 -36 34q-19 0 -28.5 -9t-9.5 -24zM175 -45h-86l439 702h86z" />
    <glyph glyph-name="seveneighths" unicode="&#x215e;" horiz-adv-x="720" 
d="M304 599l-162 -334h-100l150 307h-139v83h251v-56zM683 89q0 -28 -10 -50t-28 -37.5t-42.5 -23.5t-52.5 -8q-62 0 -96.5 32t-34.5 79q0 25 12.5 49t41.5 42q-23 17 -32 40t-9 41q0 49 32.5 78t89.5 29q31 0 53 -8.5t36 -22.5t20.5 -32.5t6.5 -37.5q0 -17 -10 -38t-33 -40
q29 -18 42.5 -42t13.5 -50zM596 80q0 37 -50 56q-21 -10 -30.5 -23.5t-9.5 -27.5q0 -18 11.5 -29t33.5 -11q20 0 32.5 9t12.5 26zM514 254q0 -26 41 -42q33 16 33 41q0 34 -36 34q-19 0 -28.5 -9t-9.5 -24zM147 -45h-86l439 702h86z" />
    <glyph glyph-name="uni2160" unicode="&#x2160;" horiz-adv-x="940" 
d="M530 -44h-121v717h121v-717z" />
    <glyph glyph-name="uni2161" unicode="&#x2161;" horiz-adv-x="940" 
d="M410 -44h-121v717h121v-717zM650 -44h-121v717h121v-717z" />
    <glyph glyph-name="uni2162" unicode="&#x2162;" horiz-adv-x="940" 
d="M289 -44h-121v717h121v-717zM530 -44h-121v717h121v-717zM770 -44h-121v717h121v-717z" />
    <glyph glyph-name="uni2163" unicode="&#x2163;" horiz-adv-x="940" 
d="M575 115l169 557h124l-231 -717h-123l-231 717h124zM247 -44h-121v717h121v-717z" />
    <glyph glyph-name="uni2164" unicode="&#x2164;" horiz-adv-x="940" 
d="M469 115l169 557h124l-231 -717h-123l-231 717h124z" />
    <glyph glyph-name="uni2165" unicode="&#x2165;" horiz-adv-x="940" 
d="M362 115l169 557h124l-231 -717h-123l-231 717h124zM813 -44h-121v717h121v-717z" />
    <glyph glyph-name="uni2166" unicode="&#x2166;" horiz-adv-x="940" 
d="M288 150l114 522h117l-169 -717h-123l-169 717h117zM679 -44h-121v717h121v-717zM848 -44h-121v717h121v-717z" />
    <glyph glyph-name="uni2167" unicode="&#x2167;" horiz-adv-x="940" 
d="M216 152l70 520h110l-119 -717h-123l-119 717h110zM851 -45h-117v717h117v-717zM695 -45h-117v717h117v-717zM538 -45h-117v717h117v-717z" />
    <glyph glyph-name="uni2168" unicode="&#x2168;" horiz-adv-x="940" 
d="M508 314l-213 359h134l146 -246l146 246h134l-213 -359l213 -359h-133l-147 247l-147 -247h-133zM257 -44h-121v717h121v-717z" />
    <glyph glyph-name="uni2169" unicode="&#x2169;" horiz-adv-x="940" 
d="M469 205l-155 -251h-133l221 360l-221 359h134l154 -251l155 251h134l-222 -359l222 -360h-133z" />
    <glyph glyph-name="uni2170" unicode="&#x2170;" horiz-adv-x="940" 
d="M411 473h118v-518h-118v518zM529 538h-118v135h118v-135z" />
    <glyph glyph-name="uni2171" unicode="&#x2171;" horiz-adv-x="940" 
d="M291 473h118v-518h-118v518zM409 538h-118v135h118v-135zM531 473h118v-518h-118v518zM649 538h-118v135h118v-135z" />
    <glyph glyph-name="uni2172" unicode="&#x2172;" horiz-adv-x="940" 
d="M171 473h118v-518h-118v518zM289 538h-118v135h118v-135zM411 473h118v-518h-118v518zM529 538h-118v135h118v-135zM651 473h118v-518h-118v518zM769 538h-118v135h118v-135z" />
    <glyph glyph-name="uni2173" unicode="&#x2173;" horiz-adv-x="940" 
d="M719 473h119l-189 -518h-128l-187 518h122l130 -382zM157 473h118v-518h-118v518zM275 538h-118v135h118v-135z" />
    <glyph glyph-name="uni2174" unicode="&#x2174;" horiz-adv-x="940" 
d="M603 473h119l-189 -518h-128l-187 518h122l130 -382z" />
    <glyph glyph-name="uni2175" unicode="&#x2175;" horiz-adv-x="940" 
d="M489 473h119l-189 -518h-128l-187 518h122l130 -382zM663 473h118v-518h-118v518zM781 538h-118v135h118v-135z" />
    <glyph glyph-name="uni2176" unicode="&#x2176;" horiz-adv-x="940" 
d="M404 473h119l-169 -518h-128l-167 518h122l110 -382zM560 473h118v-518h-118v518zM678 538h-118v135h118v-135zM730 473h118v-518h-118v518zM848 538h-118v135h118v-135z" />
    <glyph glyph-name="uni2177" unicode="&#x2177;" horiz-adv-x="940" 
d="M292 473h109l-111 -518h-128l-117 518h112l66 -372zM427 473h114v-518h-114v518zM541 538h-114v135h114v-135zM585 473h114v-518h-114v518zM699 538h-114v135h114v-135zM742 473h114v-518h-114v518zM856 538h-114v135h114v-135z" />
    <glyph glyph-name="uni2178" unicode="&#x2178;" horiz-adv-x="940" 
d="M513 214l-182 259h127l118 -169l119 169h127l-182 -259l182 -259h-127l-119 168l-118 -168h-127zM157 473h118v-518h-118v518zM275 538h-118v135h118v-135z" />
    <glyph glyph-name="uni2179" unicode="&#x2179;" horiz-adv-x="940" 
d="M406 214l-182 259h127l118 -169l119 169h127l-182 -259l182 -259h-127l-119 168l-118 -168h-127z" />
    <glyph glyph-name="arrowleft" unicode="&#x2190;" horiz-adv-x="940" 
d="M3 300l286 180v-134h645v-92h-645v-133z" />
    <glyph glyph-name="arrowup" unicode="&#x2191;" horiz-adv-x="800" 
d="M578 475h-133v-629h-92v629h-134l180 286z" />
    <glyph glyph-name="arrowright" unicode="&#x2192;" horiz-adv-x="940" 
d="M648 121v133h-645v92h645v134l286 -180z" />
    <glyph glyph-name="arrowdown" unicode="&#x2193;" horiz-adv-x="800" 
d="M399 -160l-180 286h134v629h92v-629h133z" />
    <glyph glyph-name="arrowboth" unicode="&#x2194;" horiz-adv-x="940" 
d="M303 346h352v129l280 -175l-280 -175v129h-352v-129l-280 175l280 175v-129z" />
    <glyph glyph-name="arrowupdn" unicode="&#x2195;" horiz-adv-x="700" 
d="M524 64l-175 -242l-175 242h121v473h-121l175 240l175 -240h-122v-473h122z" />
    <glyph glyph-name="uni2196" unicode="&#x2196;" horiz-adv-x="940" 
d="M52 490l-16 275l278 -12l-104 -104l703 -772l-69 -58l-695 768z" />
    <glyph glyph-name="uni2197" unicode="&#x2197;" horiz-adv-x="940" 
d="M789 585l-695 -768l-69 58l702 772l-103 104l278 12l-16 -275z" />
    <glyph glyph-name="uni2198" unicode="&#x2198;" horiz-adv-x="940" 
d="M886 103l16 -275l-278 12l103 104l-702 772l69 58l695 -769z" />
    <glyph glyph-name="uni2199" unicode="&#x2199;" horiz-adv-x="940" 
d="M149 5l695 769l69 -58l-703 -772l104 -104l-278 -12l16 275z" />
    <glyph glyph-name="arrowdblright" unicode="&#x21d2;" horiz-adv-x="940" 
d="M654 155h-624v90h712l54 55l-55 56h-711v89h625l-84 86l59 65l289 -296l-288 -295l-59 66z" />
    <glyph glyph-name="arrowdblboth" unicode="&#x21d4;" horiz-adv-x="940" 
d="M654 155h-368l82 -84l-59 -66l-288 295l289 296l59 -65l-84 -86h370l-84 86l59 65l289 -296l-288 -295l-59 66zM198 245h544l54 55l-55 56h-543l-54 -56z" />
    <glyph glyph-name="universal" unicode="&#x2200;" horiz-adv-x="600" 
d="M130 674l54 -178h230l54 178h124l-231 -719h-123l-231 719h123zM386 403h-174l88 -287z" />
    <glyph glyph-name="partialdiff" unicode="&#x2202;" horiz-adv-x="600" 
d="M110 612q45 18 80.5 25t70.5 7q67 0 119.5 -27.5t88.5 -74.5t54.5 -111t18.5 -137q0 -82 -20.5 -150t-57.5 -116.5t-88.5 -75t-112.5 -26.5q-52 0 -90.5 18.5t-64 49t-38.5 71t-13 85.5q0 59 18 108t49.5 84t75 54t93.5 19q40 0 71 -11t62 -37q-14 86 -60.5 132
t-116.5 46q-23 0 -48 -4t-64 -20zM269 21q30 0 56 15t46.5 40.5t33.5 60.5t18 75q2 11 0 19.5t-4 15.5q-14 34 -42.5 55t-63.5 21q-63 0 -97.5 -38.5t-42.5 -107.5q-2 -25 1 -52.5t13.5 -50.5t30 -38t51.5 -15z" />
    <glyph glyph-name="existential" unicode="&#x2203;" horiz-adv-x="560" 
d="M74 275v100h291v198h-307v101h428v-719h-444v101h323v219h-291z" />
    <glyph glyph-name="gradient" unicode="&#x2207;" horiz-adv-x="940" 
d="M103 595h732l-362 -646zM714 531h-425l217 -381z" />
    <glyph glyph-name="element" unicode="&#x2208;" horiz-adv-x="940" 
d="M377 9q-62 0 -110 23t-81 62.5t-50 92.5t-17 113t19.5 111.5t54.5 88.5t83 58t106 21h438v-95h-440q-62 0 -101 -40t-46 -102h587v-96h-587q7 -63 45.5 -102.5t97.5 -39.5h444v-95h-443z" />
    <glyph glyph-name="suchthat" unicode="&#x220b;" horiz-adv-x="940" 
d="M119 9v95h444q59 0 97.5 39.5t45.5 102.5h-587v96h587q-7 62 -46 102t-101 40h-440v95h438q58 0 106 -21t83 -58t54.5 -88.5t19.5 -111.5t-17 -113t-50 -92.5t-81 -62.5t-110 -23h-443z" />
    <glyph glyph-name="product" unicode="&#x220f;" horiz-adv-x="688" 
d="M552 573v-628h-126v628h-175v-628h-123v628h-114v99h652v-99h-114z" />
    <glyph glyph-name="summation" unicode="&#x2211;" horiz-adv-x="700" 
d="M67 -45v51l289 308l-289 286v73h564v-102h-388l262 -250l-252 -263h379v-103h-565z" />
    <glyph glyph-name="radical" unicode="&#x221a;" horiz-adv-x="520" 
d="M379 -186h-44l-200 456l-90 -57l-41 69l181 111l143 -341l124 718h96z" />
    <glyph glyph-name="proportional" unicode="&#x221d;" horiz-adv-x="940" 
d="M832 138q-35 -25 -66 -35t-69 -10q-31 0 -57.5 9.5t-50 25t-42.5 36t-35 43.5q-40 -57 -91 -86t-109 -29q-43 0 -79.5 17t-63.5 45.5t-42 66t-15 79.5q0 44 14.5 82.5t40.5 67t63.5 44.5t82.5 16q61 0 111 -26t89 -87q37 52 80.5 82t103.5 30q39 0 71.5 -10.5t65.5 -33.5
l-46 -83q-28 19 -49.5 26t-43.5 7q-21 0 -39 -9t-33 -24.5t-28 -36t-25 -42.5q10 -19 23 -39.5t29 -37.5t35.5 -28t42.5 -11q9 0 18 1t19 4t22 9.5t28 18.5zM312 185q48 0 79.5 32t60.5 86q-13 23 -27.5 44t-32 36.5t-37 25t-42.5 9.5q-46 0 -70.5 -35t-24.5 -83
q0 -21 7 -42t19.5 -37t29.5 -26t38 -10z" />
    <glyph glyph-name="infinity" unicode="&#x221e;" horiz-adv-x="800" 
d="M737 327q0 -36 -13 -67.5t-36 -55t-54.5 -37t-67.5 -13.5q-23 0 -47.5 7t-46.5 20t-40.5 30.5t-30.5 37.5q-29 -42 -69 -67t-100 -25q-37 0 -68 13.5t-54 37t-36 55t-13 67.5q0 37 13.5 68.5t37.5 54.5t56.5 36t69.5 13q48 0 89 -26.5t72 -68.5q26 43 71 69t95 26
q37 0 69 -13.5t54.5 -37t35.5 -55.5t13 -69zM645 328q0 18 -6 34.5t-16.5 29.5t-25 21t-31.5 8q-38 0 -66.5 -28t-49.5 -66q20 -39 48.5 -65.5t66.5 -26.5t59 27.5t21 65.5zM233 238q39 0 66.5 24.5t50.5 63.5q-20 38 -48 66.5t-66 28.5q-18 0 -33 -7t-26 -19.5t-17 -29
t-6 -34.5q0 -38 21.5 -65.5t57.5 -27.5z" />
    <glyph glyph-name="angle" unicode="&#x2220;" horiz-adv-x="800" 
d="M90 -25v62l475 556l77 -57l-391 -468h463v-93h-624z" />
    <glyph glyph-name="logicaland" unicode="&#x2227;" horiz-adv-x="940" 
d="M812 -25h-114l-227 471l-230 -471h-114l344 681z" />
    <glyph glyph-name="logicalor" unicode="&#x2228;" horiz-adv-x="940" 
d="M471 -52l-344 681h114l230 -471l227 471h114z" />
    <glyph glyph-name="intersection" unicode="&#x2229;" horiz-adv-x="800" 
d="M676 -46h-109v411q0 87 -41 140.5t-126 53.5q-86 0 -127 -52t-41 -140v-413h-109v422q0 61 19 112.5t54.5 88.5t87 57.5t116.5 20.5q60 0 111 -20.5t87.5 -57.5t57 -87.5t20.5 -111.5v-424z" />
    <glyph glyph-name="union" unicode="&#x222a;" horiz-adv-x="800" 
d="M676 231q0 -61 -20.5 -112t-57 -87.5t-87.5 -57t-111 -20.5q-65 0 -116.5 20.5t-87 57.5t-54.5 88.5t-19 112.5v422h109v-413q0 -88 41 -140t127 -52q85 0 126 53.5t41 140.5v411h109v-424z" />
    <glyph glyph-name="integral" unicode="&#x222b;" horiz-adv-x="440" 
d="M289 20q3 -69 -31 -113.5t-110 -44.5q-19 0 -37 2t-48 11v96q29 -9 42.5 -11.5t24.5 -2.5q33 0 41.5 18t6.5 43l-27 561q-4 78 30 118t111 40q19 0 38 -2.5t48 -10.5v-97q-29 8 -44 11.5t-24 3.5q-26 0 -38 -18t-10 -43z" />
    <glyph glyph-name="uni222C" unicode="&#x222c;" horiz-adv-x="680" 
d="M283 20q3 -69 -31 -113.5t-110 -44.5q-19 0 -37 2t-48 11v96q29 -9 42.5 -11.5t24.5 -2.5q33 0 41.5 18t6.5 43l-27 561q-4 78 30 118t111 40q19 0 35.5 -2.5t45.5 -10.5v-97q-29 8 -41.5 11.5t-21.5 3.5q-26 0 -38 -14.5t-10 -46.5zM533 20q3 -69 -31 -113.5t-110 -44.5
q-19 0 -37 2t-48 11v96q29 -9 42.5 -11.5t24.5 -2.5q33 0 41.5 18t6.5 43l-27 561q-4 78 30 118t111 40q19 0 38 -2.5t48 -10.5v-97q-29 8 -44 11.5t-24 3.5q-26 0 -38 -14.5t-10 -46.5z" />
    <glyph glyph-name="uni222E" unicode="&#x222e;" horiz-adv-x="600" 
d="M373 473q57 -17 93 -60t36 -111q0 -78 -46.5 -123.5t-118.5 -55.5l-11 -104q-3 -33 -14 -61.5t-30.5 -49.5t-48.5 -33t-69 -12q-18 0 -35.5 2t-47.5 12l14 93q26 -9 38 -10.5t23 -1.5q27 0 41.5 18t17.5 45l11 111q-56 17 -90.5 60.5t-34.5 109.5q0 38 12 68.5t33.5 53.5
t51 37t64.5 19l11 101q3 33 14 61.5t30.5 49.5t48.5 33t69 12q17 0 34.5 -3t47.5 -11l-12 -95q-26 8 -38.5 11t-23.5 3q-28 0 -42 -18t-17 -45zM398 302q0 50 -35 75l-17 -160q52 22 52 85zM205 303q0 -49 31 -74l16 156q-47 -24 -47 -82z" />
    <glyph glyph-name="therefore" unicode="&#x2234;" horiz-adv-x="940" 
d="M547 516q0 -32 -23 -56t-56 -24t-56 24t-23 56t23 55.5t56 23.5t56 -23.5t23 -55.5zM315 116q0 -32 -23 -56t-56 -24t-56 24t-23 56t23 55.5t56 23.5t56 -23.5t23 -55.5zM782 116q0 -32 -23 -56t-56 -24t-56 24t-23 56t23 55.5t56 23.5t56 -23.5t23 -55.5z" />
    <glyph glyph-name="uni2235" unicode="&#x2235;" horiz-adv-x="940" 
d="M547 116q0 -32 -23 -55.5t-56 -23.5t-56 23.5t-23 55.5t23 56t56 24t56 -24t23 -56zM315 516q0 -32 -23 -55.5t-56 -23.5t-56 23.5t-23 55.5t23 56t56 24t56 -24t23 -56zM782 516q0 -32 -23 -55.5t-56 -23.5t-56 23.5t-23 55.5t23 56t56 24t56 -24t23 -56z" />
    <glyph glyph-name="similar" unicode="&#x223c;" horiz-adv-x="940" 
d="M812 321q-57 -47 -108 -69.5t-110 -22.5q-35 0 -73 12.5t-76 34.5q-27 16 -53 24.5t-52 8.5q-48 0 -88.5 -17.5t-84.5 -49.5l-41 47q60 50 110 75.5t104 25.5q69 0 140 -40q67 -38 114 -38q51 0 94.5 12.5t86.5 38.5l37 -42v0z" />
    <glyph glyph-name="uni223D" unicode="&#x223d;" horiz-adv-x="940" 
d="M873 299q0 -42 -15.5 -80t-42.5 -66.5t-65 -45t-83 -16.5q-26 0 -56 8t-69 35l50 75q45 -26 75 -26q47 0 73 33.5t26 82.5q0 46 -26 77t-73 31q-26 0 -46.5 -9t-37.5 -25.5t-32.5 -40t-31.5 -52.5q-24 -45 -46 -80t-49.5 -59t-63.5 -37t-87 -13q-46 0 -84 14t-65.5 41
t-42.5 65.5t-15 87.5q0 46 17 83.5t45.5 63.5t66 40t78.5 14q31 0 61 -6.5t65 -25.5l-44 -85q-34 19 -52 22t-31 3q-47 0 -73.5 -29.5t-26.5 -78.5q0 -51 26 -83t73 -30q30 1 51.5 10.5t38.5 26t31.5 40.5t30.5 55q22 43 45.5 76.5t52 57t64 35.5t82.5 12t85 -16t65 -43.5
t41.5 -64t14.5 -77.5z" />
    <glyph glyph-name="uni2252" unicode="&#x2252;" horiz-adv-x="740" 
d="M77 342v90h586v-90h-586zM77 169v89h586v-89h-586zM275 552q0 -29 -20.5 -49t-49.5 -20t-49 20t-20 49t20 49.5t49 20.5t49.5 -20.5t20.5 -49.5zM604 48q0 -29 -20.5 -49t-49.5 -20t-49 20t-20 49t20 49.5t49 20.5t49.5 -20.5t20.5 -49.5z" />
    <glyph glyph-name="notequal" unicode="&#x2260;" horiz-adv-x="740" 
d="M441 442h222v-90h-245l-26 -104h271v-89h-293l-34 -135h-104l33 135h-188v89h210l26 104h-236v90h259l31 123h105z" />
    <glyph glyph-name="equivalence" unicode="&#x2261;" horiz-adv-x="840" 
d="M126 416v94h587v-94h-587zM126 255v94h587v-94h-587zM126 94v94h587v-94h-587z" />
    <glyph glyph-name="lessequal" unicode="&#x2264;" horiz-adv-x="700" 
d="M83 359v68l534 220v-101l-370 -153l370 -153v-99zM82 12v94h535v-94h-535z" />
    <glyph glyph-name="greaterequal" unicode="&#x2265;" horiz-adv-x="700" 
d="M82 141v99l370 153l-370 153v101l534 -220v-68zM82 12v94h535v-94h-535z" />
    <glyph glyph-name="uni226A" unicode="&#x226a;" horiz-adv-x="940" 
d="M642 22l-46 -71l-502 349l497 358l49 -63l-397 -295zM853 22l-46 -71l-502 349l497 358l49 -63l-397 -295z" />
    <glyph glyph-name="uni226B" unicode="&#x226b;" horiz-adv-x="940" 
d="M695 300l-397 295l49 63l497 -358l-502 -349l-46 71zM484 300l-397 295l49 63l497 -358l-502 -349l-46 71z" />
    <glyph glyph-name="propersubset" unicode="&#x2282;" horiz-adv-x="940" 
d="M373 9q-62 0 -109.5 23t-79.5 62.5t-48.5 92.5t-16.5 113t19 111.5t53 88.5t81.5 58t105.5 21h442v-95h-444q-64 0 -104.5 -47.5t-40.5 -136.5q0 -100 40 -148t101 -48h448v-95h-447z" />
    <glyph glyph-name="propersuperset" unicode="&#x2283;" horiz-adv-x="940" 
d="M119 9v95h448q61 0 101 48t40 148q0 89 -40.5 136.5t-104.5 47.5h-444v95h442q58 0 105.5 -21t81.5 -58t53 -88.5t19 -111.5t-16.5 -113t-48.5 -92.5t-79.5 -62.5t-109.5 -23h-447z" />
    <glyph glyph-name="reflexsubset" unicode="&#x2286;" horiz-adv-x="940" 
d="M336 141q-53 0 -94.5 16t-69.5 45.5t-42.5 70.5t-14.5 92q0 50 16.5 90t46.5 68t72 43t93 15h471v-96h-473q-58 0 -88 -32t-30 -92q0 -56 29 -90.5t84 -34.5h478v-95h-478zM126 -25v95h688v-95h-688z" />
    <glyph glyph-name="reflexsuperset" unicode="&#x2287;" horiz-adv-x="940" 
d="M115 141v95h478q55 0 84 34.5t29 90.5q0 60 -30 92t-88 32h-473v96h471q51 0 93 -15t72 -43t46.5 -68t16.5 -90q0 -51 -14.5 -92t-42.5 -70.5t-69.5 -45.5t-94.5 -16h-478zM115 -25v95h688v-95h-688z" />
    <glyph glyph-name="uni2299" unicode="&#x2299;" horiz-adv-x="940" 
d="M874 300q0 -84 -31 -158t-85 -128.5t-128 -86t-160 -31.5q-81 0 -154 30t-128 84t-87.5 128t-32.5 162q0 84 30.5 157.5t84.5 127.5t127.5 85.5t159.5 31.5q82 0 155 -30t128.5 -83t88 -127t32.5 -162zM788 300q0 67 -24.5 126.5t-67 103t-101 69t-125.5 25.5
q-64 0 -121.5 -24t-100.5 -67t-68.5 -102.5t-25.5 -130.5q0 -68 24 -127.5t66.5 -103.5t100 -70t125.5 -26q64 0 122 24t101.5 67.5t69 103.5t25.5 132zM607 300q0 -28 -11 -53t-30 -44t-44 -30t-53 -11t-53 11t-44 30t-30 44t-11 53q0 30 11 55t30 43.5t44 29t53 10.5
q27 0 52 -10.5t44 -29t30.5 -43.5t11.5 -55z" />
    <glyph glyph-name="perpendicular" unicode="&#x22a5;" horiz-adv-x="800" 
d="M68 -25v94h275v497h113v-497h275v-94h-663z" />
    <glyph glyph-name="uni2312" unicode="&#x2312;" horiz-adv-x="540" 
d="M270 668q-42 0 -65.5 -20t-37.5 -55h-107q23 83 78.5 122.5t131.5 39.5t131.5 -39.5t78.5 -122.5h-107q-14 35 -37.5 55t-65.5 20z" />
    <glyph glyph-name="uni2460" unicode="&#x2460;" horiz-adv-x="940" 
d="M368 412l-44 85l128 69h83v-526h-112v403zM918 300q0 -95 -34 -176.5t-94 -141.5t-142 -94.5t-178 -34.5q-91 0 -172 33t-142 92t-97 141t-36 181q0 94 34 175.5t93.5 141.5t141.5 94.5t178 34.5q91 0 172.5 -32.5t142.5 -91t97 -141t36 -181.5zM825 300q0 76 -27 142.5
t-74 115.5t-112.5 77t-141.5 28q-73 0 -137.5 -26.5t-112.5 -74.5t-76 -114.5t-28 -147.5q0 -77 26.5 -143t74 -115t112 -77t141.5 -28q73 0 137.5 26.5t113 74t76.5 114.5t28 148z" />
    <glyph glyph-name="uni2461" unicode="&#x2461;" horiz-adv-x="940" 
d="M305 111q66 63 107.5 107t66 77t34 58.5t10.5 51.5q2 32 -10 49t-50 17q-25 0 -50 -18.5t-55 -50.5l-59 84q41 43 81 63.5t95 20.5q44 0 75.5 -14t51 -36.5t28 -51t7.5 -56.5q-1 -36 -10 -67.5t-28 -63.5t-49 -66.5t-73 -76.5h174v-98h-346v71zM918 300q0 -95 -34 -176.5
t-94 -141.5t-142 -94.5t-178 -34.5q-91 0 -172 33t-142 92t-97 141t-36 181q0 94 34 175.5t93.5 141.5t141.5 94.5t178 34.5q91 0 172.5 -32.5t142.5 -91t97 -141t36 -181.5zM825 300q0 76 -27 142.5t-74 115.5t-112.5 77t-141.5 28q-73 0 -137.5 -26.5t-112.5 -74.5
t-76 -114.5t-28 -147.5q0 -77 26.5 -143t74 -115t112 -77t141.5 -28q73 0 137.5 26.5t113 74t76.5 114.5t28 148z" />
    <glyph glyph-name="uni2462" unicode="&#x2462;" horiz-adv-x="940" 
d="M347 164q29 -19 52.5 -27.5t55.5 -8.5q27 0 44 5.5t26 15t12 21.5t3 24q0 40 -28 56.5t-73 16.5h-45v93h45q33 0 57.5 16t24.5 49q0 21 -10 32.5t-47 11.5q-24 0 -49 -12t-48 -29l-48 84q41 31 76.5 43.5t80.5 12.5q41 0 70.5 -11t49 -29.5t29 -42.5t9.5 -50
q0 -29 -14 -60t-48 -56q37 -17 59 -48t22 -79q0 -33 -12.5 -62.5t-37 -51.5t-61.5 -35t-85 -13q-45 0 -81 11t-79 36zM918 300q0 -95 -34 -176.5t-94 -141.5t-142 -94.5t-178 -34.5q-91 0 -172 33t-142 92t-97 141t-36 181q0 94 34 175.5t93.5 141.5t141.5 94.5t178 34.5
q91 0 172.5 -32.5t142.5 -91t97 -141t36 -181.5zM825 300q0 76 -27 142.5t-74 115.5t-112.5 77t-141.5 28q-73 0 -137.5 -26.5t-112.5 -74.5t-76 -114.5t-28 -147.5q0 -77 26.5 -143t74 -115t112 -77t141.5 -28q73 0 137.5 26.5t113 74t76.5 114.5t28 148z" />
    <glyph glyph-name="uni2463" unicode="&#x2463;" horiz-adv-x="940" 
d="M464 134h-208v72l212 363h101v-344h63v-91h-63v-94h-105v94zM464 376l-86 -151h86v151zM918 300q0 -95 -34 -176.5t-94 -141.5t-142 -94.5t-178 -34.5q-91 0 -172 33t-142 92t-97 141t-36 181q0 94 34 175.5t93.5 141.5t141.5 94.5t178 34.5q91 0 172.5 -32.5t142.5 -91
t97 -141t36 -181.5zM825 300q0 76 -27 142.5t-74 115.5t-112.5 77t-141.5 28q-73 0 -137.5 -26.5t-112.5 -74.5t-76 -114.5t-28 -147.5q0 -77 26.5 -143t74 -115t112 -77t141.5 -28q73 0 137.5 26.5t113 74t76.5 114.5t28 148z" />
    <glyph glyph-name="uni2464" unicode="&#x2464;" horiz-adv-x="940" 
d="M465 466l-12 -83h6q40 0 73 -12.5t56 -34.5t36 -53t13 -68q0 -39 -14 -72.5t-39.5 -58.5t-61.5 -39.5t-81 -14.5t-78.5 11t-59.5 28l30 97q23 -13 51 -25.5t57 -12.5q85 0 85 79q0 16 -5 30.5t-16.5 25.5t-30.5 17.5t-47 6.5h-33.5t-34.5 -2l-29 -3l36 282h262v-98h-163z
M918 300q0 -95 -34 -176.5t-94 -141.5t-142 -94.5t-178 -34.5q-91 0 -172 33t-142 92t-97 141t-36 181q0 94 34 175.5t93.5 141.5t141.5 94.5t178 34.5q91 0 172.5 -32.5t142.5 -91t97 -141t36 -181.5zM825 300q0 76 -27 142.5t-74 115.5t-112.5 77t-141.5 28
q-73 0 -137.5 -26.5t-112.5 -74.5t-76 -114.5t-28 -147.5q0 -77 26.5 -143t74 -115t112 -77t141.5 -28q73 0 137.5 26.5t113 74t76.5 114.5t28 148z" />
    <glyph glyph-name="uni2465" unicode="&#x2465;" horiz-adv-x="940" 
d="M605 477q-109 3 -164 -52q-9 -9 -16 -21.5t-12 -25.5q17 8 33.5 13t36.5 5q36 0 65.5 -12.5t50.5 -35.5t32.5 -55.5t11.5 -71.5q0 -37 -11.5 -71.5t-33.5 -60.5t-54.5 -42t-74.5 -16t-76 16.5t-58 46t-36.5 71.5t-12.5 93q0 75 21.5 133.5t59.5 98.5q41 42 98 61.5
t130 21.5zM470 123q32 0 47.5 25t15.5 68q0 42 -16.5 66t-51.5 24q-21 0 -38.5 -12.5t-28.5 -33.5q-2 -3 -2.5 -6.5t-0.5 -11.5q0 -25 4.5 -46.5t14 -37.5t23.5 -25.5t33 -9.5zM918 300q0 -95 -34 -176.5t-94 -141.5t-142 -94.5t-178 -34.5q-91 0 -172 33t-142 92t-97 141
t-36 181q0 94 34 175.5t93.5 141.5t141.5 94.5t178 34.5q91 0 172.5 -32.5t142.5 -91t97 -141t36 -181.5zM825 300q0 76 -27 142.5t-74 115.5t-112.5 77t-141.5 28q-73 0 -137.5 -26.5t-112.5 -74.5t-76 -114.5t-28 -147.5q0 -77 26.5 -143t74 -115t112 -77t141.5 -28
q73 0 137.5 26.5t113 74t76.5 114.5t28 148z" />
    <glyph glyph-name="uni2466" unicode="&#x2466;" horiz-adv-x="940" 
d="M647 482l-221 -457h-120l209 428h-203v98h335v-69zM918 300q0 -95 -34 -176.5t-94 -141.5t-142 -94.5t-178 -34.5q-91 0 -172 33t-142 92t-97 141t-36 181q0 94 34 175.5t93.5 141.5t141.5 94.5t178 34.5q91 0 172.5 -32.5t142.5 -91t97 -141t36 -181.5zM825 300
q0 76 -27 142.5t-74 115.5t-112.5 77t-141.5 28q-73 0 -137.5 -26.5t-112.5 -74.5t-76 -114.5t-28 -147.5q0 -77 26.5 -143t74 -115t112 -77t141.5 -28q73 0 137.5 26.5t113 74t76.5 114.5t28 148z" />
    <glyph glyph-name="uni2467" unicode="&#x2467;" horiz-adv-x="940" 
d="M649 189q0 -37 -15 -66t-39.5 -49.5t-57 -31.5t-67.5 -11q-39 0 -71.5 11.5t-56.5 31.5t-37 46.5t-13 57.5q0 36 17 71.5t59 61.5q-17 12 -28.5 26t-18 29t-9 30t-2.5 28q0 69 45 107t120 38q40 0 70 -11.5t49.5 -30t29 -43t9.5 -51.5q0 -24 -12.5 -56.5t-47.5 -58.5
q42 -25 59 -58t17 -71zM544 181q0 31 -20.5 52t-60.5 36q-36 -14 -50.5 -37t-14.5 -44q0 -29 19 -47.5t54 -18.5q33 0 53 16.5t20 42.5zM411 429q0 -26 15.5 -43.5t52.5 -29.5q28 11 39.5 30.5t11.5 39.5q0 23 -14 39.5t-44 16.5t-45.5 -15t-15.5 -38zM918 300
q0 -95 -34 -176.5t-94 -141.5t-142 -94.5t-178 -34.5q-91 0 -172 33t-142 92t-97 141t-36 181q0 94 34 175.5t93.5 141.5t141.5 94.5t178 34.5q91 0 172.5 -32.5t142.5 -91t97 -141t36 -181.5zM825 300q0 76 -27 142.5t-74 115.5t-112.5 77t-141.5 28q-73 0 -137.5 -26.5
t-112.5 -74.5t-76 -114.5t-28 -147.5q0 -77 26.5 -143t74 -115t112 -77t141.5 -28q73 0 137.5 26.5t113 74t76.5 114.5t28 148z" />
    <glyph glyph-name="uni2468" unicode="&#x2468;" horiz-adv-x="940" 
d="M349 126q34 -1 61.5 3t49 15.5t38.5 32.5t31 54q-17 -8 -33.5 -13t-36.5 -5q-32 0 -61 12t-51 34t-35.5 54t-14.5 72q-2 39 9 72.5t33.5 58t55 38.5t74.5 14q40 0 73 -15.5t57 -45t37 -70.5t13 -92q0 -146 -74.5 -230t-225.5 -85v96zM468 476q-66 0 -66 -86
q0 -42 20 -64.5t55 -22.5q11 0 23 3.5t22 11t16.5 17.5t6.5 24q0 50 -19.5 83.5t-57.5 33.5zM918 300q0 -95 -34 -176.5t-94 -141.5t-142 -94.5t-178 -34.5q-91 0 -172 33t-142 92t-97 141t-36 181q0 94 34 175.5t93.5 141.5t141.5 94.5t178 34.5q91 0 172.5 -32.5
t142.5 -91t97 -141t36 -181.5zM825 300q0 76 -27 142.5t-74 115.5t-112.5 77t-141.5 28q-73 0 -137.5 -26.5t-112.5 -74.5t-76 -114.5t-28 -147.5q0 -77 26.5 -143t74 -115t112 -77t141.5 -28q73 0 137.5 26.5t113 74t76.5 114.5t28 148z" />
    <glyph glyph-name="uni2469" unicode="&#x2469;" horiz-adv-x="940" 
d="M527 304q0 -92 14 -132.5t39 -40.5t39 40.5t14 132.5t-14 132t-39 40t-39 -40t-14 -132zM419 304q0 130 41.5 199.5t119.5 69.5t119.5 -69.5t41.5 -199.5t-41.5 -199.5t-119.5 -69.5t-119.5 69.5t-41.5 199.5zM233 425l-44 81l109 60h82v-526h-110v407zM918 300
q0 -95 -34 -176.5t-94 -141.5t-142 -94.5t-178 -34.5q-91 0 -172 33t-142 92t-97 141t-36 181q0 94 34 175.5t93.5 141.5t141.5 94.5t178 34.5q91 0 172.5 -32.5t142.5 -91t97 -141t36 -181.5zM825 300q0 76 -27 142.5t-74 115.5t-112.5 77t-141.5 28q-73 0 -137.5 -26.5
t-112.5 -74.5t-76 -114.5t-28 -147.5q0 -77 26.5 -143t74 -115t112 -77t141.5 -28q73 0 137.5 26.5t113 74t76.5 114.5t28 148z" />
    <glyph glyph-name="uni246A" unicode="&#x246a;" horiz-adv-x="940" 
d="M266 425l-44 81l109 60h82v-526h-110v407zM526 425l-44 81l109 60h82v-526h-110v407zM918 300q0 -95 -34 -176.5t-94 -141.5t-142 -94.5t-178 -34.5q-91 0 -172 33t-142 92t-97 141t-36 181q0 94 34 175.5t93.5 141.5t141.5 94.5t178 34.5q91 0 172.5 -32.5t142.5 -91
t97 -141t36 -181.5zM825 300q0 76 -27 142.5t-74 115.5t-112.5 77t-141.5 28q-73 0 -137.5 -26.5t-112.5 -74.5t-76 -114.5t-28 -147.5q0 -77 26.5 -143t74 -115t112 -77t141.5 -28q73 0 137.5 26.5t113 74t76.5 114.5t28 148z" />
    <glyph glyph-name="uni246B" unicode="&#x246b;" horiz-adv-x="940" 
d="M419 110q55 63 90 107t54.5 77t27 58.5t8.5 51.5q2 32 -9 49.5t-37 17.5q-20 0 -41.5 -19t-47.5 -55l-51 88q34 44 69.5 64.5t80.5 20.5q39 0 67.5 -13.5t46.5 -35.5t26 -50.5t7 -58.5q-1 -36 -8.5 -67t-23 -63t-41.5 -66.5t-63 -77.5h138v-98h-293v70zM233 425l-44 81
l109 60h82v-526h-110v407zM918 300q0 -95 -34 -176.5t-94 -141.5t-142 -94.5t-178 -34.5q-91 0 -172 33t-142 92t-97 141t-36 181q0 94 34 175.5t93.5 141.5t141.5 94.5t178 34.5q91 0 172.5 -32.5t142.5 -91t97 -141t36 -181.5zM825 300q0 76 -27 142.5t-74 115.5
t-112.5 77t-141.5 28q-73 0 -137.5 -26.5t-112.5 -74.5t-76 -114.5t-28 -147.5q0 -77 26.5 -143t74 -115t112 -77t141.5 -28q73 0 137.5 26.5t113 74t76.5 114.5t28 148z" />
    <glyph glyph-name="uni246C" unicode="&#x246c;" horiz-adv-x="940" 
d="M442 160q29 -19 50 -27t50 -8q25 0 41 6.5t25 16t12.5 22t3.5 24.5q0 39 -27.5 56.5t-68.5 17.5h-44v91h44q30 0 54 17t24 49q0 21 -10.5 34t-44.5 13q-23 0 -48 -11t-46 -28l-45 81q38 31 73 43t77 12q40 0 69 -11.5t48 -30.5t28 -43t9 -49q0 -28 -14 -60t-46 -56
q37 -20 57.5 -51.5t20.5 -75.5q0 -33 -11 -62.5t-34 -52t-59.5 -35.5t-85.5 -13q-41 0 -74 10.5t-72 34.5zM233 425l-44 81l109 60h82v-526h-110v407zM918 300q0 -95 -34 -176.5t-94 -141.5t-142 -94.5t-178 -34.5q-91 0 -172 33t-142 92t-97 141t-36 181q0 94 34 175.5
t93.5 141.5t141.5 94.5t178 34.5q91 0 172.5 -32.5t142.5 -91t97 -141t36 -181.5zM825 300q0 76 -27 142.5t-74 115.5t-112.5 77t-141.5 28q-73 0 -137.5 -26.5t-112.5 -74.5t-76 -114.5t-28 -147.5q0 -77 26.5 -143t74 -115t112 -77t141.5 -28q73 0 137.5 26.5t113 74
t76.5 114.5t28 148z" />
    <glyph glyph-name="uni246D" unicode="&#x246d;" horiz-adv-x="940" 
d="M587 134h-177v80l181 356h101v-345h53v-91h-53v-94h-105v94zM587 364l-64 -139h64v139zM233 425l-44 81l109 60h82v-526h-110v407zM918 300q0 -95 -34 -176.5t-94 -141.5t-142 -94.5t-178 -34.5q-91 0 -172 33t-142 92t-97 141t-36 181q0 94 34 175.5t93.5 141.5
t141.5 94.5t178 34.5q91 0 172.5 -32.5t142.5 -91t97 -141t36 -181.5zM825 300q0 76 -27 142.5t-74 115.5t-112.5 77t-141.5 28q-73 0 -137.5 -26.5t-112.5 -74.5t-76 -114.5t-28 -147.5q0 -77 26.5 -143t74 -115t112 -77t141.5 -28q73 0 137.5 26.5t113 74t76.5 114.5
t28 148z" />
    <glyph glyph-name="uni246E" unicode="&#x246e;" horiz-adv-x="940" 
d="M554 466l-12 -83h8q40 0 73 -11.5t57 -33t37.5 -53t13.5 -70.5q0 -38 -13.5 -72t-39 -59.5t-62.5 -40t-85 -14.5q-43 0 -73.5 10.5t-56.5 27.5l44 89q23 -14 43 -21.5t43 -7.5q44 0 65.5 21t21.5 59q0 20 -5 35.5t-18 26t-35.5 16t-56.5 5.5q-17 0 -36 -2.5t-42 -4.5
l34 281h257v-98h-162zM233 425l-44 81l109 60h82v-526h-110v407zM918 300q0 -95 -34 -176.5t-94 -141.5t-142 -94.5t-178 -34.5q-91 0 -172 33t-142 92t-97 141t-36 181q0 94 34 175.5t93.5 141.5t141.5 94.5t178 34.5q91 0 172.5 -32.5t142.5 -91t97 -141t36 -181.5z
M825 300q0 76 -27 142.5t-74 115.5t-112.5 77t-141.5 28q-73 0 -137.5 -26.5t-112.5 -74.5t-76 -114.5t-28 -147.5q0 -77 26.5 -143t74 -115t112 -77t141.5 -28q73 0 137.5 26.5t113 74t76.5 114.5t28 148z" />
    <glyph glyph-name="uni2474" unicode="&#x2474;" horiz-adv-x="940" 
d="M368 412l-44 85l128 69h83v-526h-112v403zM767 723q81 -91 116.5 -199.5t35.5 -223.5q0 -57 -8.5 -115t-26.5 -114.5t-46.5 -108t-68.5 -94.5h-95q40 46 68.5 98.5t47 108t27 112.5t8.5 113q0 112 -35.5 222t-116.5 201h94zM268 723q-81 -91 -116.5 -201t-35.5 -222
q0 -56 8.5 -113t27 -112.5t47 -108t68.5 -98.5h-95q-40 43 -68.5 94.5t-46.5 108t-26.5 114.5t-8.5 115q0 115 35.5 223.5t116.5 199.5h94z" />
    <glyph glyph-name="uni2475" unicode="&#x2475;" horiz-adv-x="940" 
d="M305 111q66 63 107.5 107t66 77t34 58.5t10.5 51.5q2 32 -10 49t-50 17q-25 0 -50 -18.5t-55 -50.5l-59 84q41 43 81 63.5t95 20.5q44 0 75.5 -14t51 -36.5t28 -51t7.5 -56.5q-1 -36 -10 -67.5t-28 -63.5t-49 -66.5t-73 -76.5h174v-98h-346v71zM767 723
q81 -91 116.5 -199.5t35.5 -223.5q0 -57 -8.5 -115t-26.5 -114.5t-46.5 -108t-68.5 -94.5h-95q40 46 68.5 98.5t47 108t27 112.5t8.5 113q0 112 -35.5 222t-116.5 201h94zM268 723q-81 -91 -116.5 -201t-35.5 -222q0 -56 8.5 -113t27 -112.5t47 -108t68.5 -98.5h-95
q-40 43 -68.5 94.5t-46.5 108t-26.5 114.5t-8.5 115q0 115 35.5 223.5t116.5 199.5h94z" />
    <glyph glyph-name="uni2476" unicode="&#x2476;" horiz-adv-x="940" 
d="M347 164q29 -19 52.5 -27.5t55.5 -8.5q27 0 44 5.5t26 15t12 21.5t3 24q0 40 -28 56.5t-73 16.5h-45v93h45q33 0 57.5 16t24.5 49q0 21 -10 32.5t-47 11.5q-24 0 -49 -12t-48 -29l-48 84q41 31 76.5 43.5t80.5 12.5q41 0 70.5 -11t49 -29.5t29 -42.5t9.5 -50
q0 -29 -14 -60t-48 -56q37 -17 59 -48t22 -79q0 -33 -12.5 -62.5t-37 -51.5t-61.5 -35t-85 -13q-45 0 -81 11t-79 36zM767 723q81 -91 116.5 -199.5t35.5 -223.5q0 -57 -8.5 -115t-26.5 -114.5t-46.5 -108t-68.5 -94.5h-95q40 46 68.5 98.5t47 108t27 112.5t8.5 113
q0 112 -35.5 222t-116.5 201h94zM268 723q-81 -91 -116.5 -201t-35.5 -222q0 -56 8.5 -113t27 -112.5t47 -108t68.5 -98.5h-95q-40 43 -68.5 94.5t-46.5 108t-26.5 114.5t-8.5 115q0 115 35.5 223.5t116.5 199.5h94z" />
    <glyph glyph-name="uni2477" unicode="&#x2477;" horiz-adv-x="940" 
d="M464 134h-208v72l212 363h101v-344h63v-91h-63v-94h-105v94zM464 376l-86 -151h86v151zM767 723q81 -91 116.5 -199.5t35.5 -223.5q0 -57 -8.5 -115t-26.5 -114.5t-46.5 -108t-68.5 -94.5h-95q40 46 68.5 98.5t47 108t27 112.5t8.5 113q0 112 -35.5 222t-116.5 201h94z
M268 723q-81 -91 -116.5 -201t-35.5 -222q0 -56 8.5 -113t27 -112.5t47 -108t68.5 -98.5h-95q-40 43 -68.5 94.5t-46.5 108t-26.5 114.5t-8.5 115q0 115 35.5 223.5t116.5 199.5h94z" />
    <glyph glyph-name="uni2478" unicode="&#x2478;" horiz-adv-x="940" 
d="M465 466l-12 -83h6q40 0 73 -12.5t56 -34.5t36 -53t13 -68q0 -39 -14 -72.5t-39.5 -58.5t-61.5 -39.5t-81 -14.5t-78.5 11t-59.5 28l30 97q23 -13 51 -25.5t57 -12.5q85 0 85 79q0 16 -5 30.5t-16.5 25.5t-30.5 17.5t-47 6.5h-33.5t-34.5 -2l-29 -3l36 282h262v-98h-163z
M767 723q81 -91 116.5 -199.5t35.5 -223.5q0 -57 -8.5 -115t-26.5 -114.5t-46.5 -108t-68.5 -94.5h-95q40 46 68.5 98.5t47 108t27 112.5t8.5 113q0 112 -35.5 222t-116.5 201h94zM268 723q-81 -91 -116.5 -201t-35.5 -222q0 -56 8.5 -113t27 -112.5t47 -108t68.5 -98.5h-95
q-40 43 -68.5 94.5t-46.5 108t-26.5 114.5t-8.5 115q0 115 35.5 223.5t116.5 199.5h94z" />
    <glyph glyph-name="uni2479" unicode="&#x2479;" horiz-adv-x="940" 
d="M605 477q-109 3 -164 -52q-9 -9 -16 -21.5t-12 -25.5q17 8 33.5 13t36.5 5q36 0 65.5 -12.5t50.5 -35.5t32.5 -55.5t11.5 -71.5q0 -37 -11.5 -71.5t-33.5 -60.5t-54.5 -42t-74.5 -16t-76 16.5t-58 46t-36.5 71.5t-12.5 93q0 75 21.5 133.5t59.5 98.5q41 42 98 61.5
t130 21.5zM470 123q32 0 47.5 25t15.5 68q0 42 -16.5 66t-51.5 24q-21 0 -38.5 -12.5t-28.5 -33.5q-2 -3 -2.5 -6.5t-0.5 -11.5q0 -25 4.5 -46.5t14 -37.5t23.5 -25.5t33 -9.5zM767 723q81 -91 116.5 -199.5t35.5 -223.5q0 -57 -8.5 -115t-26.5 -114.5t-46.5 -108
t-68.5 -94.5h-95q40 46 68.5 98.5t47 108t27 112.5t8.5 113q0 112 -35.5 222t-116.5 201h94zM268 723q-81 -91 -116.5 -201t-35.5 -222q0 -56 8.5 -113t27 -112.5t47 -108t68.5 -98.5h-95q-40 43 -68.5 94.5t-46.5 108t-26.5 114.5t-8.5 115q0 115 35.5 223.5t116.5 199.5
h94z" />
    <glyph glyph-name="uni247A" unicode="&#x247a;" horiz-adv-x="940" 
d="M647 482l-221 -457h-120l209 428h-203v98h335v-69zM767 723q81 -91 116.5 -199.5t35.5 -223.5q0 -57 -8.5 -115t-26.5 -114.5t-46.5 -108t-68.5 -94.5h-95q40 46 68.5 98.5t47 108t27 112.5t8.5 113q0 112 -35.5 222t-116.5 201h94zM268 723q-81 -91 -116.5 -201
t-35.5 -222q0 -56 8.5 -113t27 -112.5t47 -108t68.5 -98.5h-95q-40 43 -68.5 94.5t-46.5 108t-26.5 114.5t-8.5 115q0 115 35.5 223.5t116.5 199.5h94z" />
    <glyph glyph-name="uni247B" unicode="&#x247b;" horiz-adv-x="940" 
d="M649 189q0 -37 -15 -66t-39.5 -49.5t-57 -31.5t-67.5 -11q-39 0 -71.5 11.5t-56.5 31.5t-37 46.5t-13 57.5q0 36 17 71.5t59 61.5q-17 12 -28.5 26t-18 29t-9 30t-2.5 28q0 69 45 107t120 38q40 0 70 -11.5t49.5 -30t29 -43t9.5 -51.5q0 -24 -12.5 -56.5t-47.5 -58.5
q42 -25 59 -58t17 -71zM544 181q0 31 -20.5 52t-60.5 36q-36 -14 -50.5 -37t-14.5 -44q0 -29 19 -47.5t54 -18.5q33 0 53 16.5t20 42.5zM411 429q0 -26 15.5 -43.5t52.5 -29.5q28 11 39.5 30.5t11.5 39.5q0 23 -14 39.5t-44 16.5t-45.5 -15t-15.5 -38zM767 723
q81 -91 116.5 -199.5t35.5 -223.5q0 -57 -8.5 -115t-26.5 -114.5t-46.5 -108t-68.5 -94.5h-95q40 46 68.5 98.5t47 108t27 112.5t8.5 113q0 112 -35.5 222t-116.5 201h94zM268 723q-81 -91 -116.5 -201t-35.5 -222q0 -56 8.5 -113t27 -112.5t47 -108t68.5 -98.5h-95
q-40 43 -68.5 94.5t-46.5 108t-26.5 114.5t-8.5 115q0 115 35.5 223.5t116.5 199.5h94z" />
    <glyph glyph-name="uni247C" unicode="&#x247c;" horiz-adv-x="940" 
d="M349 126q34 -1 61.5 3t49 15.5t38.5 32.5t31 54q-17 -8 -33.5 -13t-36.5 -5q-32 0 -61 12t-51 34t-35.5 54t-14.5 72q-2 39 9 72.5t33.5 58t55 38.5t74.5 14q40 0 73 -15.5t57 -45t37 -70.5t13 -92q0 -146 -74.5 -230t-225.5 -85v96zM468 476q-66 0 -66 -86
q0 -42 20 -64.5t55 -22.5q11 0 23 3.5t22 11t16.5 17.5t6.5 24q0 50 -19.5 83.5t-57.5 33.5zM767 723q81 -91 116.5 -199.5t35.5 -223.5q0 -57 -8.5 -115t-26.5 -114.5t-46.5 -108t-68.5 -94.5h-95q40 46 68.5 98.5t47 108t27 112.5t8.5 113q0 112 -35.5 222t-116.5 201h94z
M268 723q-81 -91 -116.5 -201t-35.5 -222q0 -56 8.5 -113t27 -112.5t47 -108t68.5 -98.5h-95q-40 43 -68.5 94.5t-46.5 108t-26.5 114.5t-8.5 115q0 115 35.5 223.5t116.5 199.5h94z" />
    <glyph glyph-name="uni247D" unicode="&#x247d;" horiz-adv-x="940" 
d="M527 304q0 -92 14 -132.5t39 -40.5t39 40.5t14 132.5t-14 132t-39 40t-39 -40t-14 -132zM419 304q0 130 41.5 199.5t119.5 69.5t119.5 -69.5t41.5 -199.5t-41.5 -199.5t-119.5 -69.5t-119.5 69.5t-41.5 199.5zM233 425l-44 81l109 60h82v-526h-110v407zM767 723
q81 -91 116.5 -199.5t35.5 -223.5q0 -57 -8.5 -115t-26.5 -114.5t-46.5 -108t-68.5 -94.5h-95q40 46 68.5 98.5t47 108t27 112.5t8.5 113q0 112 -35.5 222t-116.5 201h94zM268 723q-81 -91 -116.5 -201t-35.5 -222q0 -56 8.5 -113t27 -112.5t47 -108t68.5 -98.5h-95
q-40 43 -68.5 94.5t-46.5 108t-26.5 114.5t-8.5 115q0 115 35.5 223.5t116.5 199.5h94z" />
    <glyph glyph-name="uni247E" unicode="&#x247e;" horiz-adv-x="940" 
d="M266 425l-44 81l109 60h82v-526h-110v407zM526 425l-44 81l109 60h82v-526h-110v407zM767 723q81 -91 116.5 -199.5t35.5 -223.5q0 -57 -8.5 -115t-26.5 -114.5t-46.5 -108t-68.5 -94.5h-95q40 46 68.5 98.5t47 108t27 112.5t8.5 113q0 112 -35.5 222t-116.5 201h94z
M268 723q-81 -91 -116.5 -201t-35.5 -222q0 -56 8.5 -113t27 -112.5t47 -108t68.5 -98.5h-95q-40 43 -68.5 94.5t-46.5 108t-26.5 114.5t-8.5 115q0 115 35.5 223.5t116.5 199.5h94z" />
    <glyph glyph-name="uni247F" unicode="&#x247f;" horiz-adv-x="940" 
d="M419 110q55 63 90 107t54.5 77t27 58.5t8.5 51.5q2 32 -9 49.5t-37 17.5q-20 0 -41.5 -19t-47.5 -55l-51 88q34 44 69.5 64.5t80.5 20.5q39 0 67.5 -13.5t46.5 -35.5t26 -50.5t7 -58.5q-1 -36 -8.5 -67t-23 -63t-41.5 -66.5t-63 -77.5h138v-98h-293v70zM233 425l-44 81
l109 60h82v-526h-110v407zM767 723q81 -91 116.5 -199.5t35.5 -223.5q0 -57 -8.5 -115t-26.5 -114.5t-46.5 -108t-68.5 -94.5h-95q40 46 68.5 98.5t47 108t27 112.5t8.5 113q0 112 -35.5 222t-116.5 201h94zM268 723q-81 -91 -116.5 -201t-35.5 -222q0 -56 8.5 -113
t27 -112.5t47 -108t68.5 -98.5h-95q-40 43 -68.5 94.5t-46.5 108t-26.5 114.5t-8.5 115q0 115 35.5 223.5t116.5 199.5h94z" />
    <glyph glyph-name="uni2480" unicode="&#x2480;" horiz-adv-x="940" 
d="M442 160q29 -19 50 -27t50 -8q25 0 41 6.5t25 16t12.5 22t3.5 24.5q0 39 -27.5 56.5t-68.5 17.5h-44v91h44q30 0 54 17t24 49q0 21 -10.5 34t-44.5 13q-23 0 -48 -11t-46 -28l-45 81q38 31 73 43t77 12q40 0 69 -11.5t48 -30.5t28 -43t9 -49q0 -28 -14 -60t-46 -56
q37 -20 57.5 -51.5t20.5 -75.5q0 -33 -11 -62.5t-34 -52t-59.5 -35.5t-85.5 -13q-41 0 -74 10.5t-72 34.5zM233 425l-44 81l109 60h82v-526h-110v407zM767 723q81 -91 116.5 -199.5t35.5 -223.5q0 -57 -8.5 -115t-26.5 -114.5t-46.5 -108t-68.5 -94.5h-95q40 46 68.5 98.5
t47 108t27 112.5t8.5 113q0 112 -35.5 222t-116.5 201h94zM268 723q-81 -91 -116.5 -201t-35.5 -222q0 -56 8.5 -113t27 -112.5t47 -108t68.5 -98.5h-95q-40 43 -68.5 94.5t-46.5 108t-26.5 114.5t-8.5 115q0 115 35.5 223.5t116.5 199.5h94z" />
    <glyph glyph-name="uni2481" unicode="&#x2481;" horiz-adv-x="940" 
d="M587 134h-177v80l181 356h101v-345h53v-91h-53v-94h-105v94zM587 364l-64 -139h64v139zM233 425l-44 81l109 60h82v-526h-110v407zM767 723q81 -91 116.5 -199.5t35.5 -223.5q0 -57 -8.5 -115t-26.5 -114.5t-46.5 -108t-68.5 -94.5h-95q40 46 68.5 98.5t47 108t27 112.5
t8.5 113q0 112 -35.5 222t-116.5 201h94zM268 723q-81 -91 -116.5 -201t-35.5 -222q0 -56 8.5 -113t27 -112.5t47 -108t68.5 -98.5h-95q-40 43 -68.5 94.5t-46.5 108t-26.5 114.5t-8.5 115q0 115 35.5 223.5t116.5 199.5h94z" />
    <glyph glyph-name="uni2482" unicode="&#x2482;" horiz-adv-x="940" 
d="M554 466l-12 -83h8q40 0 73 -11.5t57 -33t37.5 -53t13.5 -70.5q0 -38 -13.5 -72t-39 -59.5t-62.5 -40t-85 -14.5q-43 0 -73.5 10.5t-56.5 27.5l44 89q23 -14 43 -21.5t43 -7.5q44 0 65.5 21t21.5 59q0 20 -5 35.5t-18 26t-35.5 16t-56.5 5.5q-17 0 -36 -2.5t-42 -4.5
l34 281h257v-98h-162zM233 425l-44 81l109 60h82v-526h-110v407zM767 723q81 -91 116.5 -199.5t35.5 -223.5q0 -57 -8.5 -115t-26.5 -114.5t-46.5 -108t-68.5 -94.5h-95q40 46 68.5 98.5t47 108t27 112.5t8.5 113q0 112 -35.5 222t-116.5 201h94zM268 723
q-81 -91 -116.5 -201t-35.5 -222q0 -56 8.5 -113t27 -112.5t47 -108t68.5 -98.5h-95q-40 43 -68.5 94.5t-46.5 108t-26.5 114.5t-8.5 115q0 115 35.5 223.5t116.5 199.5h94z" />
    <glyph glyph-name="uni249C" unicode="&#x249c;" horiz-adv-x="940" 
d="M506 374q0 17 -15 28.5t-41 11.5q-17 0 -41 -8.5t-51 -31.5l-36 78q29 24 63.5 37.5t74.5 13.5q45 0 73.5 -14t45 -37t23 -51.5t6.5 -58.5v-232h-102v20q-16 -11 -38.5 -19.5t-46.5 -8.5q-32 0 -54 10t-36 26.5t-20.5 37.5t-6.5 44q0 66 54.5 105.5t147.5 36.5v12z
M437 191q23 0 42 10.5t24 27.5q2 6 2.5 11.5t0.5 7.5v33q-5 1 -12 1q-34 0 -59.5 -14t-25.5 -40q0 -21 7.5 -29t20.5 -8zM767 723q81 -91 116.5 -199.5t35.5 -223.5q0 -57 -8.5 -115t-26.5 -114.5t-46.5 -108t-68.5 -94.5h-95q40 46 68.5 98.5t47 108t27 112.5t8.5 113
q0 112 -35.5 222t-116.5 201h94zM268 723q-81 -91 -116.5 -201t-35.5 -222q0 -56 8.5 -113t27 -112.5t47 -108t68.5 -98.5h-95q-40 43 -68.5 94.5t-46.5 108t-26.5 114.5t-8.5 115q0 115 35.5 223.5t116.5 199.5h94z" />
    <glyph glyph-name="uni249D" unicode="&#x249d;" horiz-adv-x="940" 
d="M437 593v-184q18 14 37 22t47 8q38 0 68.5 -15t51.5 -41.5t32 -62t11 -77.5q0 -50 -14 -88t-38 -64t-55.5 -39.5t-65.5 -13.5q-25 0 -47 10t-35 25v-27h-107v547h115zM435 211q0 -32 15.5 -55t48.5 -23q38 0 54 28.5t16 79.5q0 45 -15 74t-54 29q-16 0 -28 -7t-20.5 -19
t-12.5 -27t-4 -31v-49zM767 723q81 -91 116.5 -199.5t35.5 -223.5q0 -57 -8.5 -115t-26.5 -114.5t-46.5 -108t-68.5 -94.5h-95q40 46 68.5 98.5t47 108t27 112.5t8.5 113q0 112 -35.5 222t-116.5 201h94zM268 723q-81 -91 -116.5 -201t-35.5 -222q0 -56 8.5 -113t27 -112.5
t47 -108t68.5 -98.5h-95q-40 43 -68.5 94.5t-46.5 108t-26.5 114.5t-8.5 115q0 115 35.5 223.5t116.5 199.5h94z" />
    <glyph glyph-name="uni249E" unicode="&#x249e;" horiz-adv-x="940" 
d="M594 126q-19 -11 -47.5 -19.5t-69.5 -8.5q-42 0 -77 14t-60.5 40t-39.5 63t-14 84q0 46 14.5 83.5t41 64t64 40.5t82.5 14q62 0 105 -26l-26 -93q-21 11 -39.5 17t-39.5 6q-48 0 -67.5 -27.5t-19.5 -74.5q0 -54 23 -81.5t65 -27.5q21 0 41 6t44 16zM767 723
q81 -91 116.5 -199.5t35.5 -223.5q0 -57 -8.5 -115t-26.5 -114.5t-46.5 -108t-68.5 -94.5h-95q40 46 68.5 98.5t47 108t27 112.5t8.5 113q0 112 -35.5 222t-116.5 201h94zM268 723q-81 -91 -116.5 -201t-35.5 -222q0 -56 8.5 -113t27 -112.5t47 -108t68.5 -98.5h-95
q-40 43 -68.5 94.5t-46.5 108t-26.5 114.5t-8.5 115q0 115 35.5 223.5t116.5 199.5h94z" />
    <glyph glyph-name="uni249F" unicode="&#x249f;" horiz-adv-x="940" 
d="M624 593v-547h-107v27q-13 -15 -35 -25t-47 -10q-34 0 -65.5 13.5t-55.5 39.5t-38 64t-14 88q0 42 11 77.5t32 62t51.5 41.5t68.5 15q28 0 47 -8t37 -22v184h115zM511 211v49q0 32 -17 58t-48 26q-39 0 -54 -29t-15 -74q0 -51 16 -79.5t54 -28.5q33 0 48.5 23t15.5 55z
M767 723q81 -91 116.5 -199.5t35.5 -223.5q0 -57 -8.5 -115t-26.5 -114.5t-46.5 -108t-68.5 -94.5h-95q40 46 68.5 98.5t47 108t27 112.5t8.5 113q0 112 -35.5 222t-116.5 201h94zM268 723q-81 -91 -116.5 -201t-35.5 -222q0 -56 8.5 -113t27 -112.5t47 -108t68.5 -98.5h-95
q-40 43 -68.5 94.5t-46.5 108t-26.5 114.5t-8.5 115q0 115 35.5 223.5t116.5 199.5h94z" />
    <glyph glyph-name="uni24A0" unicode="&#x24a0;" horiz-adv-x="940" 
d="M470 409q-28 0 -44.5 -17.5t-21.5 -38.5h128q-5 26 -21.5 41t-40.5 15zM629 151q-39 -26 -74 -38.5t-76 -12.5q-35 0 -67.5 12.5t-58 37.5t-40.5 63t-15 89q0 45 12 81.5t34.5 63t54.5 40.5t71 14q46 0 78.5 -17t53 -48.5t28.5 -75t5 -96.5h-234q5 -43 28 -57.5t55 -14.5
q23 0 48.5 7t63.5 30zM767 723q81 -91 116.5 -199.5t35.5 -223.5q0 -57 -8.5 -115t-26.5 -114.5t-46.5 -108t-68.5 -94.5h-95q40 46 68.5 98.5t47 108t27 112.5t8.5 113q0 112 -35.5 222t-116.5 201h94zM268 723q-81 -91 -116.5 -201t-35.5 -222q0 -56 8.5 -113t27 -112.5
t47 -108t68.5 -98.5h-95q-40 43 -68.5 94.5t-46.5 108t-26.5 114.5t-8.5 115q0 115 35.5 223.5t116.5 199.5h94z" />
    <glyph glyph-name="uni24A1" unicode="&#x24a1;" horiz-adv-x="940" 
d="M525 479q-15 0 -20.5 -8.5t-5.5 -27.5v-43h76v-93h-76v-293h-112v293h-49v93h49v43q0 57 29.5 93t92.5 36h63v-93h-47zM767 723q81 -91 116.5 -199.5t35.5 -223.5q0 -57 -8.5 -115t-26.5 -114.5t-46.5 -108t-68.5 -94.5h-95q40 46 68.5 98.5t47 108t27 112.5t8.5 113
q0 112 -35.5 222t-116.5 201h94zM268 723q-81 -91 -116.5 -201t-35.5 -222q0 -56 8.5 -113t27 -112.5t47 -108t68.5 -98.5h-95q-40 43 -68.5 94.5t-46.5 108t-26.5 114.5t-8.5 115q0 115 35.5 223.5t116.5 199.5h94z" />
    <glyph glyph-name="uni24A2" unicode="&#x24a2;" horiz-adv-x="940" 
d="M640 233q0 -51 -9.5 -92t-31.5 -69.5t-58 -44t-90 -15.5q-34 0 -66 8.5t-68 31.5l31 75q34 -18 55.5 -23t49.5 -5q34 0 55.5 20t25.5 58q-36 -30 -92 -30q-35 0 -65 13.5t-52 38.5t-34.5 61t-12.5 82q0 54 15.5 92t40.5 63t56 36.5t62 11.5q27 0 51 -8t41 -27v27h96v-304
zM533 372q0 31 -18 56t-51 25q-77 0 -77 -109q0 -48 18 -76.5t58 -28.5q16 0 29 7.5t22 20t14 28t5 31.5v46zM767 723q81 -91 116.5 -199.5t35.5 -223.5q0 -57 -8.5 -115t-26.5 -114.5t-46.5 -108t-68.5 -94.5h-95q40 46 68.5 98.5t47 108t27 112.5t8.5 113q0 112 -35.5 222
t-116.5 201h94zM268 723q-81 -91 -116.5 -201t-35.5 -222q0 -56 8.5 -113t27 -112.5t47 -108t68.5 -98.5h-95q-40 43 -68.5 94.5t-46.5 108t-26.5 114.5t-8.5 115q0 115 35.5 223.5t116.5 199.5h94z" />
    <glyph glyph-name="uni24A3" unicode="&#x24a3;" horiz-adv-x="940" 
d="M539 295q0 24 -7.5 37.5t-30.5 13.5q-30 0 -48 -18t-29 -48v-235h-112v547h112v-181q21 13 41 20t43 7q73 0 108 -41t35 -103v-249h-112v250zM767 723q81 -91 116.5 -199.5t35.5 -223.5q0 -57 -8.5 -115t-26.5 -114.5t-46.5 -108t-68.5 -94.5h-95q40 46 68.5 98.5t47 108
t27 112.5t8.5 113q0 112 -35.5 222t-116.5 201h94zM268 723q-81 -91 -116.5 -201t-35.5 -222q0 -56 8.5 -113t27 -112.5t47 -108t68.5 -98.5h-95q-40 43 -68.5 94.5t-46.5 108t-26.5 114.5t-8.5 115q0 115 35.5 223.5t116.5 199.5h94z" />
    <glyph glyph-name="uni24A4" unicode="&#x24a4;" horiz-adv-x="940" 
d="M413 421h112v-376h-112v376zM525 459h-112v112h112v-112zM767 723q81 -91 116.5 -199.5t35.5 -223.5q0 -57 -8.5 -115t-26.5 -114.5t-46.5 -108t-68.5 -94.5h-95q40 46 68.5 98.5t47 108t27 112.5t8.5 113q0 112 -35.5 222t-116.5 201h94zM268 723q-81 -91 -116.5 -201
t-35.5 -222q0 -56 8.5 -113t27 -112.5t47 -108t68.5 -98.5h-95q-40 43 -68.5 94.5t-46.5 108t-26.5 114.5t-8.5 115q0 115 35.5 223.5t116.5 199.5h94z" />
    <glyph glyph-name="uni24A5" unicode="&#x24a5;" horiz-adv-x="940" 
d="M351 73q40 4 61 18t21 48v308h112v-308q0 -35 -8.5 -62.5t-30 -47.5t-57 -32t-89.5 -16zM545 485h-112v112h112v-112zM767 723q81 -91 116.5 -199.5t35.5 -223.5q0 -57 -8.5 -115t-26.5 -114.5t-46.5 -108t-68.5 -94.5h-95q40 46 68.5 98.5t47 108t27 112.5t8.5 113
q0 112 -35.5 222t-116.5 201h94zM268 723q-81 -91 -116.5 -201t-35.5 -222q0 -56 8.5 -113t27 -112.5t47 -108t68.5 -98.5h-95q-40 43 -68.5 94.5t-46.5 108t-26.5 114.5t-8.5 115q0 115 35.5 223.5t116.5 199.5h94z" />
    <glyph glyph-name="uni24A6" unicode="&#x24a6;" horiz-adv-x="940" 
d="M448 345l87 96h134l-151 -166l146 -220h-122l-94 142v-142h-111v547h111v-257zM767 723q81 -91 116.5 -199.5t35.5 -223.5q0 -57 -8.5 -115t-26.5 -114.5t-46.5 -108t-68.5 -94.5h-95q40 46 68.5 98.5t47 108t27 112.5t8.5 113q0 112 -35.5 222t-116.5 201h94zM268 723
q-81 -91 -116.5 -201t-35.5 -222q0 -56 8.5 -113t27 -112.5t47 -108t68.5 -98.5h-95q-40 43 -68.5 94.5t-46.5 108t-26.5 114.5t-8.5 115q0 115 35.5 223.5t116.5 199.5h94z" />
    <glyph glyph-name="uni24A7" unicode="&#x24a7;" horiz-adv-x="940" 
d="M413 572h112v-527h-112v527zM767 723q81 -91 116.5 -199.5t35.5 -223.5q0 -57 -8.5 -115t-26.5 -114.5t-46.5 -108t-68.5 -94.5h-95q40 46 68.5 98.5t47 108t27 112.5t8.5 113q0 112 -35.5 222t-116.5 201h94zM268 723q-81 -91 -116.5 -201t-35.5 -222q0 -56 8.5 -113
t27 -112.5t47 -108t68.5 -98.5h-95q-40 43 -68.5 94.5t-46.5 108t-26.5 114.5t-8.5 115q0 115 35.5 223.5t116.5 199.5h94z" />
    <glyph glyph-name="uni24A8" unicode="&#x24a8;" horiz-adv-x="940" 
d="M620 370q0 23 -5.5 32.5t-25.5 9.5q-13 0 -27.5 -10t-26.5 -28v-264h-112v260q0 23 -10.5 32.5t-30.5 9.5q-14 0 -23 -8.5t-20 -25.5v-268h-112v387h102v-22q20 17 36.5 22.5t44.5 5.5q27 0 51 -12.5t40 -35.5q23 26 50.5 37.5t51.5 11.5q66 0 97.5 -36t31.5 -97v-261
h-112v260zM767 723q81 -91 116.5 -199.5t35.5 -223.5q0 -57 -8.5 -115t-26.5 -114.5t-46.5 -108t-68.5 -94.5h-95q40 46 68.5 98.5t47 108t27 112.5t8.5 113q0 112 -35.5 222t-116.5 201h94zM268 723q-81 -91 -116.5 -201t-35.5 -222q0 -56 8.5 -113t27 -112.5t47 -108
t68.5 -98.5h-95q-40 43 -68.5 94.5t-46.5 108t-26.5 114.5t-8.5 115q0 115 35.5 223.5t116.5 199.5h94z" />
    <glyph glyph-name="uni24A9" unicode="&#x24a9;" horiz-adv-x="940" 
d="M526 362q0 25 -12.5 37t-35.5 12q-33 0 -53 -39v-262h-112v386h102v-30q10 14 32.5 25.5t49.5 11.5q65 0 102.5 -36.5t37.5 -103.5v-253h-111v252zM767 723q81 -91 116.5 -199.5t35.5 -223.5q0 -57 -8.5 -115t-26.5 -114.5t-46.5 -108t-68.5 -94.5h-95q40 46 68.5 98.5
t47 108t27 112.5t8.5 113q0 112 -35.5 222t-116.5 201h94zM268 723q-81 -91 -116.5 -201t-35.5 -222q0 -56 8.5 -113t27 -112.5t47 -108t68.5 -98.5h-95q-40 43 -68.5 94.5t-46.5 108t-26.5 114.5t-8.5 115q0 115 35.5 223.5t116.5 199.5h94z" />
    <glyph glyph-name="uni24AA" unicode="&#x24aa;" horiz-adv-x="940" 
d="M470 102q-39 0 -72.5 13t-58 38.5t-38.5 62t-14 84.5q0 49 13.5 87t38 63.5t58 39t73.5 13.5q39 0 72.5 -13.5t58 -39t38 -63.5t13.5 -87q0 -48 -14 -84.5t-38.5 -62t-57.5 -38.5t-72 -13zM470 415q-20 0 -33.5 -9.5t-22 -25t-12.5 -36.5t-4 -44q0 -53 19.5 -81.5
t52.5 -28.5q32 0 52 28.5t20 81.5q0 23 -4 44t-12.5 36.5t-22.5 25t-33 9.5zM767 723q81 -91 116.5 -199.5t35.5 -223.5q0 -57 -8.5 -115t-26.5 -114.5t-46.5 -108t-68.5 -94.5h-95q40 46 68.5 98.5t47 108t27 112.5t8.5 113q0 112 -35.5 222t-116.5 201h94zM268 723
q-81 -91 -116.5 -201t-35.5 -222q0 -56 8.5 -113t27 -112.5t47 -108t68.5 -98.5h-95q-40 43 -68.5 94.5t-46.5 108t-26.5 114.5t-8.5 115q0 115 35.5 223.5t116.5 199.5h94z" />
    <glyph glyph-name="uni24AB" unicode="&#x24ab;" horiz-adv-x="940" 
d="M320 19v525h107v-28q13 15 35 25t47 10q34 0 65.5 -13.5t55.5 -39.5t38 -64.5t14 -87.5q0 -42 -11 -77.5t-32 -62t-51.5 -41.5t-68.5 -15q-28 0 -47 8t-37 22v-161h-115zM433 378v-49q0 -16 4 -31t12.5 -27t20.5 -19t28 -7q39 0 54 29t15 74q0 51 -16 79.5t-54 28.5
q-33 0 -48.5 -23t-15.5 -55zM767 723q81 -91 116.5 -199.5t35.5 -223.5q0 -57 -8.5 -115t-26.5 -114.5t-46.5 -108t-68.5 -94.5h-95q40 46 68.5 98.5t47 108t27 112.5t8.5 113q0 112 -35.5 222t-116.5 201h94zM268 723q-81 -91 -116.5 -201t-35.5 -222q0 -56 8.5 -113
t27 -112.5t47 -108t68.5 -98.5h-95q-40 43 -68.5 94.5t-46.5 108t-26.5 114.5t-8.5 115q0 115 35.5 223.5t116.5 199.5h94z" />
    <glyph glyph-name="uni24AC" unicode="&#x24ac;" horiz-adv-x="940" 
d="M518 19v161q-18 -14 -37 -22t-47 -8q-38 0 -68.5 15t-51.5 41.5t-32 62t-11 77.5q0 49 14 87.5t38 64.5t55.5 39.5t65.5 13.5q25 0 47 -10t35 -25v28h107v-525h-115zM520 378q0 32 -15.5 55t-48.5 23q-38 0 -54 -28.5t-16 -79.5q0 -45 15 -74t54 -29q31 0 48 26t17 58v49
zM767 723q81 -91 116.5 -199.5t35.5 -223.5q0 -57 -8.5 -115t-26.5 -114.5t-46.5 -108t-68.5 -94.5h-95q40 46 68.5 98.5t47 108t27 112.5t8.5 113q0 112 -35.5 222t-116.5 201h94zM268 723q-81 -91 -116.5 -201t-35.5 -222q0 -56 8.5 -113t27 -112.5t47 -108t68.5 -98.5
h-95q-40 43 -68.5 94.5t-46.5 108t-26.5 114.5t-8.5 115q0 115 35.5 223.5t116.5 199.5h94z" />
    <glyph glyph-name="uni24AD" unicode="&#x24ad;" horiz-adv-x="940" 
d="M475 460q10 14 28 23.5t37 9.5q14 0 27 -2t37 -11v-101q-21 10 -34.5 13.5t-23.5 3.5q-28 0 -41.5 -23t-16.5 -53v-220h-112v386h99v-26zM767 723q81 -91 116.5 -199.5t35.5 -223.5q0 -57 -8.5 -115t-26.5 -114.5t-46.5 -108t-68.5 -94.5h-95q40 46 68.5 98.5t47 108
t27 112.5t8.5 113q0 112 -35.5 222t-116.5 201h94zM268 723q-81 -91 -116.5 -201t-35.5 -222q0 -56 8.5 -113t27 -112.5t47 -108t68.5 -98.5h-95q-40 43 -68.5 94.5t-46.5 108t-26.5 114.5t-8.5 115q0 115 35.5 223.5t116.5 199.5h94z" />
    <glyph glyph-name="uni24AE" unicode="&#x24ae;" horiz-adv-x="940" 
d="M363 221q17 -9 29 -14t22 -8t19 -4t20 -1q20 0 33 6t13 20q0 17 -14 27.5t-40 20.5q-52 20 -77 51.5t-25 71.5q0 28 11.5 49t31 35.5t44.5 21.5t53 7q29 0 51.5 -6.5t52.5 -24.5l-29 -84q-11 11 -30.5 18t-38.5 9q-17 2 -29.5 -4.5t-12.5 -17.5q0 -16 12 -26t41 -21
q54 -20 78 -52.5t24 -75.5q0 -57 -40 -87.5t-111 -30.5q-34 0 -60.5 9.5t-55.5 26.5zM767 723q81 -91 116.5 -199.5t35.5 -223.5q0 -57 -8.5 -115t-26.5 -114.5t-46.5 -108t-68.5 -94.5h-95q40 46 68.5 98.5t47 108t27 112.5t8.5 113q0 112 -35.5 222t-116.5 201h94z
M268 723q-81 -91 -116.5 -201t-35.5 -222q0 -56 8.5 -113t27 -112.5t47 -108t68.5 -98.5h-95q-40 43 -68.5 94.5t-46.5 108t-26.5 114.5t-8.5 115q0 115 35.5 223.5t116.5 199.5h94z" />
    <glyph glyph-name="uni24AF" unicode="&#x24af;" horiz-adv-x="940" 
d="M498 533v-93h72v-93h-72v-174q0 -17 3.5 -25.5t17.5 -8.5h19.5t32.5 4l6 -84q-21 -8 -44 -11t-37 -2q-33 1 -54 12t-33.5 28.5t-17.5 40t-5 46.5v174h-49v93h49v93h112zM767 723q81 -91 116.5 -199.5t35.5 -223.5q0 -57 -8.5 -115t-26.5 -114.5t-46.5 -108t-68.5 -94.5
h-95q40 46 68.5 98.5t47 108t27 112.5t8.5 113q0 112 -35.5 222t-116.5 201h94zM268 723q-81 -91 -116.5 -201t-35.5 -222q0 -56 8.5 -113t27 -112.5t47 -108t68.5 -98.5h-95q-40 43 -68.5 94.5t-46.5 108t-26.5 114.5t-8.5 115q0 115 35.5 223.5t116.5 199.5h94z" />
    <glyph glyph-name="uni24B0" unicode="&#x24b0;" horiz-adv-x="940" 
d="M414 239q0 -25 12.5 -37t35.5 -12q33 0 53 39v262h112v-386h-102v30q-10 -14 -32.5 -25.5t-49.5 -11.5q-65 0 -102.5 36.5t-37.5 103.5v253h111v-252zM767 723q81 -91 116.5 -199.5t35.5 -223.5q0 -57 -8.5 -115t-26.5 -114.5t-46.5 -108t-68.5 -94.5h-95
q40 46 68.5 98.5t47 108t27 112.5t8.5 113q0 112 -35.5 222t-116.5 201h94zM268 723q-81 -91 -116.5 -201t-35.5 -222q0 -56 8.5 -113t27 -112.5t47 -108t68.5 -98.5h-95q-40 43 -68.5 94.5t-46.5 108t-26.5 114.5t-8.5 115q0 115 35.5 223.5t116.5 199.5h94z" />
    <glyph glyph-name="uni24B1" unicode="&#x24b1;" horiz-adv-x="940" 
d="M546 474h114l-136 -385h-109l-135 385h117l73 -246zM767 723q81 -91 116.5 -199.5t35.5 -223.5q0 -57 -8.5 -115t-26.5 -114.5t-46.5 -108t-68.5 -94.5h-95q40 46 68.5 98.5t47 108t27 112.5t8.5 113q0 112 -35.5 222t-116.5 201h94zM268 723q-81 -91 -116.5 -201
t-35.5 -222q0 -56 8.5 -113t27 -112.5t47 -108t68.5 -98.5h-95q-40 43 -68.5 94.5t-46.5 108t-26.5 114.5t-8.5 115q0 115 35.5 223.5t116.5 199.5h94z" />
    <glyph glyph-name="uni24B2" unicode="&#x24b2;" horiz-adv-x="940" 
d="M426 496h87l59 -239l50 239h103l-93 -386h-110l-52 214l-56 -214h-111l-90 386h105l47 -239zM767 723q81 -91 116.5 -199.5t35.5 -223.5q0 -57 -8.5 -115t-26.5 -114.5t-46.5 -108t-68.5 -94.5h-95q40 46 68.5 98.5t47 108t27 112.5t8.5 113q0 112 -35.5 222t-116.5 201
h94zM268 723q-81 -91 -116.5 -201t-35.5 -222q0 -56 8.5 -113t27 -112.5t47 -108t68.5 -98.5h-95q-40 43 -68.5 94.5t-46.5 108t-26.5 114.5t-8.5 115q0 115 35.5 223.5t116.5 199.5h94z" />
    <glyph glyph-name="uni24B3" unicode="&#x24b3;" horiz-adv-x="940" 
d="M529 300l128 -193h-119l-69 103l-69 -103h-119l128 193l-128 193h120l68 -103l68 103h120zM767 723q81 -91 116.5 -199.5t35.5 -223.5q0 -57 -8.5 -115t-26.5 -114.5t-46.5 -108t-68.5 -94.5h-95q40 46 68.5 98.5t47 108t27 112.5t8.5 113q0 112 -35.5 222t-116.5 201h94
zM268 723q-81 -91 -116.5 -201t-35.5 -222q0 -56 8.5 -113t27 -112.5t47 -108t68.5 -98.5h-95q-40 43 -68.5 94.5t-46.5 108t-26.5 114.5t-8.5 115q0 115 35.5 223.5t116.5 199.5h94z" />
    <glyph glyph-name="uni24B4" unicode="&#x24b4;" horiz-adv-x="940" 
d="M652 527l-147 -442q-15 -44 -43.5 -63.5t-72.5 -19.5q-17 0 -31.5 1.5t-39.5 12.5l13 85q23 -11 48 -10q11 1 16.5 11t13.5 34l18 54l-138 337h114l73 -191l64 191h112zM767 723q81 -91 116.5 -199.5t35.5 -223.5q0 -57 -8.5 -115t-26.5 -114.5t-46.5 -108t-68.5 -94.5
h-95q40 46 68.5 98.5t47 108t27 112.5t8.5 113q0 112 -35.5 222t-116.5 201h94zM268 723q-81 -91 -116.5 -201t-35.5 -222q0 -56 8.5 -113t27 -112.5t47 -108t68.5 -98.5h-95q-40 43 -68.5 94.5t-46.5 108t-26.5 114.5t-8.5 115q0 115 35.5 223.5t116.5 199.5h94z" />
    <glyph glyph-name="uni24B5" unicode="&#x24b5;" horiz-adv-x="940" 
d="M320 496h293v-76l-160 -218h166v-92h-305v76l160 218h-154v92zM767 723q81 -91 116.5 -199.5t35.5 -223.5q0 -57 -8.5 -115t-26.5 -114.5t-46.5 -108t-68.5 -94.5h-95q40 46 68.5 98.5t47 108t27 112.5t8.5 113q0 112 -35.5 222t-116.5 201h94zM268 723
q-81 -91 -116.5 -201t-35.5 -222q0 -56 8.5 -113t27 -112.5t47 -108t68.5 -98.5h-95q-40 43 -68.5 94.5t-46.5 108t-26.5 114.5t-8.5 115q0 115 35.5 223.5t116.5 199.5h94z" />
    <glyph glyph-name="uni24D0" unicode="&#x24d0;" horiz-adv-x="940" 
d="M506 374q0 17 -15 28.5t-41 11.5q-17 0 -41 -8.5t-51 -31.5l-36 78q29 24 63.5 37.5t74.5 13.5q45 0 73.5 -14t45 -37t23 -51.5t6.5 -58.5v-232h-102v20q-16 -11 -38.5 -19.5t-46.5 -8.5q-32 0 -54 10t-36 26.5t-20.5 37.5t-6.5 44q0 66 54.5 105.5t147.5 36.5v12z
M437 191q23 0 42 10.5t24 27.5q2 6 2.5 11.5t0.5 7.5v33q-5 1 -12 1q-34 0 -59.5 -14t-25.5 -40q0 -21 7.5 -29t20.5 -8zM918 300q0 -95 -34 -176.5t-94 -141.5t-142 -94.5t-178 -34.5q-91 0 -172 33t-142 92t-97 141t-36 181q0 94 34 175.5t93.5 141.5t141.5 94.5t178 34.5
q91 0 172.5 -32.5t142.5 -91t97 -141t36 -181.5zM825 300q0 76 -27 142.5t-74 115.5t-112.5 77t-141.5 28q-73 0 -137.5 -26.5t-112.5 -74.5t-76 -114.5t-28 -147.5q0 -77 26.5 -143t74 -115t112 -77t141.5 -28q73 0 137.5 26.5t113 74t76.5 114.5t28 148z" />
    <glyph glyph-name="uni24D1" unicode="&#x24d1;" horiz-adv-x="940" 
d="M437 593v-184q18 14 37 22t47 8q38 0 68.5 -15t51.5 -41.5t32 -62t11 -77.5q0 -50 -14 -88t-38 -64t-55.5 -39.5t-65.5 -13.5q-25 0 -47 10t-35 25v-27h-107v547h115zM435 211q0 -32 15.5 -55t48.5 -23q38 0 54 28.5t16 79.5q0 45 -15 74t-54 29q-16 0 -28 -7t-20.5 -19
t-12.5 -27t-4 -31v-49zM918 300q0 -95 -34 -176.5t-94 -141.5t-142 -94.5t-178 -34.5q-91 0 -172 33t-142 92t-97 141t-36 181q0 94 34 175.5t93.5 141.5t141.5 94.5t178 34.5q91 0 172.5 -32.5t142.5 -91t97 -141t36 -181.5zM825 300q0 76 -27 142.5t-74 115.5t-112.5 77
t-141.5 28q-73 0 -137.5 -26.5t-112.5 -74.5t-76 -114.5t-28 -147.5q0 -77 26.5 -143t74 -115t112 -77t141.5 -28q73 0 137.5 26.5t113 74t76.5 114.5t28 148z" />
    <glyph glyph-name="uni24D2" unicode="&#x24d2;" horiz-adv-x="940" 
d="M594 126q-19 -11 -47.5 -19.5t-69.5 -8.5q-42 0 -77 14t-60.5 40t-39.5 63t-14 84q0 46 14.5 83.5t41 64t64 40.5t82.5 14q62 0 105 -26l-26 -93q-21 11 -39.5 17t-39.5 6q-48 0 -67.5 -27.5t-19.5 -74.5q0 -54 23 -81.5t65 -27.5q21 0 41 6t44 16zM918 300
q0 -95 -34 -176.5t-94 -141.5t-142 -94.5t-178 -34.5q-91 0 -172 33t-142 92t-97 141t-36 181q0 94 34 175.5t93.5 141.5t141.5 94.5t178 34.5q91 0 172.5 -32.5t142.5 -91t97 -141t36 -181.5zM825 300q0 76 -27 142.5t-74 115.5t-112.5 77t-141.5 28q-73 0 -137.5 -26.5
t-112.5 -74.5t-76 -114.5t-28 -147.5q0 -77 26.5 -143t74 -115t112 -77t141.5 -28q73 0 137.5 26.5t113 74t76.5 114.5t28 148z" />
    <glyph glyph-name="uni24D3" unicode="&#x24d3;" horiz-adv-x="940" 
d="M624 593v-547h-107v27q-13 -15 -35 -25t-47 -10q-34 0 -65.5 13.5t-55.5 39.5t-38 64t-14 88q0 42 11 77.5t32 62t51.5 41.5t68.5 15q28 0 47 -8t37 -22v184h115zM511 211v49q0 32 -17 58t-48 26q-39 0 -54 -29t-15 -74q0 -51 16 -79.5t54 -28.5q33 0 48.5 23t15.5 55z
M918 300q0 -95 -34 -176.5t-94 -141.5t-142 -94.5t-178 -34.5q-91 0 -172 33t-142 92t-97 141t-36 181q0 94 34 175.5t93.5 141.5t141.5 94.5t178 34.5q91 0 172.5 -32.5t142.5 -91t97 -141t36 -181.5zM825 300q0 76 -27 142.5t-74 115.5t-112.5 77t-141.5 28
q-73 0 -137.5 -26.5t-112.5 -74.5t-76 -114.5t-28 -147.5q0 -77 26.5 -143t74 -115t112 -77t141.5 -28q73 0 137.5 26.5t113 74t76.5 114.5t28 148z" />
    <glyph glyph-name="uni24D4" unicode="&#x24d4;" horiz-adv-x="940" 
d="M470 409q-28 0 -44.5 -17.5t-21.5 -38.5h128q-5 26 -21.5 41t-40.5 15zM629 151q-39 -26 -74 -38.5t-76 -12.5q-35 0 -67.5 12.5t-58 37.5t-40.5 63t-15 89q0 45 12 81.5t34.5 63t54.5 40.5t71 14q46 0 78.5 -17t53 -48.5t28.5 -75t5 -96.5h-234q5 -43 28 -57.5t55 -14.5
q23 0 48.5 7t63.5 30zM918 300q0 -95 -34 -176.5t-94 -141.5t-142 -94.5t-178 -34.5q-91 0 -172 33t-142 92t-97 141t-36 181q0 94 34 175.5t93.5 141.5t141.5 94.5t178 34.5q91 0 172.5 -32.5t142.5 -91t97 -141t36 -181.5zM825 300q0 76 -27 142.5t-74 115.5t-112.5 77
t-141.5 28q-73 0 -137.5 -26.5t-112.5 -74.5t-76 -114.5t-28 -147.5q0 -77 26.5 -143t74 -115t112 -77t141.5 -28q73 0 137.5 26.5t113 74t76.5 114.5t28 148z" />
    <glyph glyph-name="uni24D5" unicode="&#x24d5;" horiz-adv-x="940" 
d="M525 479q-15 0 -20.5 -8.5t-5.5 -27.5v-43h76v-93h-76v-293h-112v293h-49v93h49v43q0 57 29.5 93t92.5 36h63v-93h-47zM918 300q0 -95 -34 -176.5t-94 -141.5t-142 -94.5t-178 -34.5q-91 0 -172 33t-142 92t-97 141t-36 181q0 94 34 175.5t93.5 141.5t141.5 94.5
t178 34.5q91 0 172.5 -32.5t142.5 -91t97 -141t36 -181.5zM825 300q0 76 -27 142.5t-74 115.5t-112.5 77t-141.5 28q-73 0 -137.5 -26.5t-112.5 -74.5t-76 -114.5t-28 -147.5q0 -77 26.5 -143t74 -115t112 -77t141.5 -28q73 0 137.5 26.5t113 74t76.5 114.5t28 148z" />
    <glyph glyph-name="uni24D6" unicode="&#x24d6;" horiz-adv-x="940" 
d="M640 233q0 -51 -9.5 -92t-31.5 -69.5t-58 -44t-90 -15.5q-34 0 -66 8.5t-68 31.5l31 75q34 -18 55.5 -23t49.5 -5q34 0 55.5 20t25.5 58q-36 -30 -92 -30q-35 0 -65 13.5t-52 38.5t-34.5 61t-12.5 82q0 54 15.5 92t40.5 63t56 36.5t62 11.5q27 0 51 -8t41 -27v27h96v-304
zM533 372q0 31 -18 56t-51 25q-77 0 -77 -109q0 -48 18 -76.5t58 -28.5q16 0 29 7.5t22 20t14 28t5 31.5v46zM918 300q0 -95 -34 -176.5t-94 -141.5t-142 -94.5t-178 -34.5q-91 0 -172 33t-142 92t-97 141t-36 181q0 94 34 175.5t93.5 141.5t141.5 94.5t178 34.5
q91 0 172.5 -32.5t142.5 -91t97 -141t36 -181.5zM825 300q0 76 -27 142.5t-74 115.5t-112.5 77t-141.5 28q-73 0 -137.5 -26.5t-112.5 -74.5t-76 -114.5t-28 -147.5q0 -77 26.5 -143t74 -115t112 -77t141.5 -28q73 0 137.5 26.5t113 74t76.5 114.5t28 148z" />
    <glyph glyph-name="uni24D7" unicode="&#x24d7;" horiz-adv-x="940" 
d="M539 295q0 24 -7.5 37.5t-30.5 13.5q-30 0 -48 -18t-29 -48v-235h-112v547h112v-181q21 13 41 20t43 7q73 0 108 -41t35 -103v-249h-112v250zM918 300q0 -95 -34 -176.5t-94 -141.5t-142 -94.5t-178 -34.5q-91 0 -172 33t-142 92t-97 141t-36 181q0 94 34 175.5
t93.5 141.5t141.5 94.5t178 34.5q91 0 172.5 -32.5t142.5 -91t97 -141t36 -181.5zM825 300q0 76 -27 142.5t-74 115.5t-112.5 77t-141.5 28q-73 0 -137.5 -26.5t-112.5 -74.5t-76 -114.5t-28 -147.5q0 -77 26.5 -143t74 -115t112 -77t141.5 -28q73 0 137.5 26.5t113 74
t76.5 114.5t28 148z" />
    <glyph glyph-name="uni24D8" unicode="&#x24d8;" horiz-adv-x="940" 
d="M413 421h112v-376h-112v376zM525 459h-112v112h112v-112zM918 300q0 -95 -34 -176.5t-94 -141.5t-142 -94.5t-178 -34.5q-91 0 -172 33t-142 92t-97 141t-36 181q0 94 34 175.5t93.5 141.5t141.5 94.5t178 34.5q91 0 172.5 -32.5t142.5 -91t97 -141t36 -181.5zM825 300
q0 76 -27 142.5t-74 115.5t-112.5 77t-141.5 28q-73 0 -137.5 -26.5t-112.5 -74.5t-76 -114.5t-28 -147.5q0 -77 26.5 -143t74 -115t112 -77t141.5 -28q73 0 137.5 26.5t113 74t76.5 114.5t28 148z" />
    <glyph glyph-name="uni24D9" unicode="&#x24d9;" horiz-adv-x="940" 
d="M351 73q40 4 61 18t21 48v308h112v-308q0 -35 -8.5 -62.5t-30 -47.5t-57 -32t-89.5 -16zM545 485h-112v112h112v-112zM918 300q0 -95 -34 -176.5t-94 -141.5t-142 -94.5t-178 -34.5q-91 0 -172 33t-142 92t-97 141t-36 181q0 94 34 175.5t93.5 141.5t141.5 94.5t178 34.5
q91 0 172.5 -32.5t142.5 -91t97 -141t36 -181.5zM825 300q0 76 -27 142.5t-74 115.5t-112.5 77t-141.5 28q-73 0 -137.5 -26.5t-112.5 -74.5t-76 -114.5t-28 -147.5q0 -77 26.5 -143t74 -115t112 -77t141.5 -28q73 0 137.5 26.5t113 74t76.5 114.5t28 148z" />
    <glyph glyph-name="uni24DA" unicode="&#x24da;" horiz-adv-x="940" 
d="M448 345l87 96h134l-151 -166l146 -220h-122l-94 142v-142h-111v547h111v-257zM918 300q0 -95 -34 -176.5t-94 -141.5t-142 -94.5t-178 -34.5q-91 0 -172 33t-142 92t-97 141t-36 181q0 94 34 175.5t93.5 141.5t141.5 94.5t178 34.5q91 0 172.5 -32.5t142.5 -91t97 -141
t36 -181.5zM825 300q0 76 -27 142.5t-74 115.5t-112.5 77t-141.5 28q-73 0 -137.5 -26.5t-112.5 -74.5t-76 -114.5t-28 -147.5q0 -77 26.5 -143t74 -115t112 -77t141.5 -28q73 0 137.5 26.5t113 74t76.5 114.5t28 148z" />
    <glyph glyph-name="uni24DB" unicode="&#x24db;" horiz-adv-x="940" 
d="M413 572h112v-527h-112v527zM918 300q0 -95 -34 -176.5t-94 -141.5t-142 -94.5t-178 -34.5q-91 0 -172 33t-142 92t-97 141t-36 181q0 94 34 175.5t93.5 141.5t141.5 94.5t178 34.5q91 0 172.5 -32.5t142.5 -91t97 -141t36 -181.5zM825 300q0 76 -27 142.5t-74 115.5
t-112.5 77t-141.5 28q-73 0 -137.5 -26.5t-112.5 -74.5t-76 -114.5t-28 -147.5q0 -77 26.5 -143t74 -115t112 -77t141.5 -28q73 0 137.5 26.5t113 74t76.5 114.5t28 148z" />
    <glyph glyph-name="uni24DC" unicode="&#x24dc;" horiz-adv-x="940" 
d="M620 370q0 23 -5.5 32.5t-25.5 9.5q-13 0 -27.5 -10t-26.5 -28v-264h-112v260q0 23 -10.5 32.5t-30.5 9.5q-14 0 -23 -8.5t-20 -25.5v-268h-112v387h102v-22q20 17 36.5 22.5t44.5 5.5q27 0 51 -12.5t40 -35.5q23 26 50.5 37.5t51.5 11.5q66 0 97.5 -36t31.5 -97v-261
h-112v260zM918 300q0 -95 -34 -176.5t-94 -141.5t-142 -94.5t-178 -34.5q-91 0 -172 33t-142 92t-97 141t-36 181q0 94 34 175.5t93.5 141.5t141.5 94.5t178 34.5q91 0 172.5 -32.5t142.5 -91t97 -141t36 -181.5zM825 300q0 76 -27 142.5t-74 115.5t-112.5 77t-141.5 28
q-73 0 -137.5 -26.5t-112.5 -74.5t-76 -114.5t-28 -147.5q0 -77 26.5 -143t74 -115t112 -77t141.5 -28q73 0 137.5 26.5t113 74t76.5 114.5t28 148z" />
    <glyph glyph-name="uni24DD" unicode="&#x24dd;" horiz-adv-x="940" 
d="M526 362q0 25 -12.5 37t-35.5 12q-33 0 -53 -39v-262h-112v386h102v-30q10 14 32.5 25.5t49.5 11.5q65 0 102.5 -36.5t37.5 -103.5v-253h-111v252zM918 300q0 -95 -34 -176.5t-94 -141.5t-142 -94.5t-178 -34.5q-91 0 -172 33t-142 92t-97 141t-36 181q0 94 34 175.5
t93.5 141.5t141.5 94.5t178 34.5q91 0 172.5 -32.5t142.5 -91t97 -141t36 -181.5zM825 300q0 76 -27 142.5t-74 115.5t-112.5 77t-141.5 28q-73 0 -137.5 -26.5t-112.5 -74.5t-76 -114.5t-28 -147.5q0 -77 26.5 -143t74 -115t112 -77t141.5 -28q73 0 137.5 26.5t113 74
t76.5 114.5t28 148z" />
    <glyph glyph-name="uni24DE" unicode="&#x24de;" horiz-adv-x="940" 
d="M470 102q-39 0 -72.5 13t-58 38.5t-38.5 62t-14 84.5q0 49 13.5 87t38 63.5t58 39t73.5 13.5q39 0 72.5 -13.5t58 -39t38 -63.5t13.5 -87q0 -48 -14 -84.5t-38.5 -62t-57.5 -38.5t-72 -13zM470 415q-20 0 -33.5 -9.5t-22 -25t-12.5 -36.5t-4 -44q0 -53 19.5 -81.5
t52.5 -28.5q32 0 52 28.5t20 81.5q0 23 -4 44t-12.5 36.5t-22.5 25t-33 9.5zM918 300q0 -95 -34 -176.5t-94 -141.5t-142 -94.5t-178 -34.5q-91 0 -172 33t-142 92t-97 141t-36 181q0 94 34 175.5t93.5 141.5t141.5 94.5t178 34.5q91 0 172.5 -32.5t142.5 -91t97 -141
t36 -181.5zM825 300q0 76 -27 142.5t-74 115.5t-112.5 77t-141.5 28q-73 0 -137.5 -26.5t-112.5 -74.5t-76 -114.5t-28 -147.5q0 -77 26.5 -143t74 -115t112 -77t141.5 -28q73 0 137.5 26.5t113 74t76.5 114.5t28 148z" />
    <glyph glyph-name="uni24DF" unicode="&#x24df;" horiz-adv-x="940" 
d="M320 19v525h107v-28q13 15 35 25t47 10q34 0 65.5 -13.5t55.5 -39.5t38 -64.5t14 -87.5q0 -42 -11 -77.5t-32 -62t-51.5 -41.5t-68.5 -15q-28 0 -47 8t-37 22v-161h-115zM433 378v-49q0 -16 4 -31t12.5 -27t20.5 -19t28 -7q39 0 54 29t15 74q0 51 -16 79.5t-54 28.5
q-33 0 -48.5 -23t-15.5 -55zM918 300q0 -95 -34 -176.5t-94 -141.5t-142 -94.5t-178 -34.5q-91 0 -172 33t-142 92t-97 141t-36 181q0 94 34 175.5t93.5 141.5t141.5 94.5t178 34.5q91 0 172.5 -32.5t142.5 -91t97 -141t36 -181.5zM825 300q0 76 -27 142.5t-74 115.5
t-112.5 77t-141.5 28q-73 0 -137.5 -26.5t-112.5 -74.5t-76 -114.5t-28 -147.5q0 -77 26.5 -143t74 -115t112 -77t141.5 -28q73 0 137.5 26.5t113 74t76.5 114.5t28 148z" />
    <glyph glyph-name="uni24E0" unicode="&#x24e0;" horiz-adv-x="940" 
d="M518 19v161q-18 -14 -37 -22t-47 -8q-38 0 -68.5 15t-51.5 41.5t-32 62t-11 77.5q0 49 14 87.5t38 64.5t55.5 39.5t65.5 13.5q25 0 47 -10t35 -25v28h107v-525h-115zM520 378q0 32 -15.5 55t-48.5 23q-38 0 -54 -28.5t-16 -79.5q0 -45 15 -74t54 -29q31 0 48 26t17 58v49
zM918 300q0 -95 -34 -176.5t-94 -141.5t-142 -94.5t-178 -34.5q-91 0 -172 33t-142 92t-97 141t-36 181q0 94 34 175.5t93.5 141.5t141.5 94.5t178 34.5q91 0 172.5 -32.5t142.5 -91t97 -141t36 -181.5zM825 300q0 76 -27 142.5t-74 115.5t-112.5 77t-141.5 28
q-73 0 -137.5 -26.5t-112.5 -74.5t-76 -114.5t-28 -147.5q0 -77 26.5 -143t74 -115t112 -77t141.5 -28q73 0 137.5 26.5t113 74t76.5 114.5t28 148z" />
    <glyph glyph-name="uni24E1" unicode="&#x24e1;" horiz-adv-x="940" 
d="M475 460q10 14 28 23.5t37 9.5q14 0 27 -2t37 -11v-101q-21 10 -34.5 13.5t-23.5 3.5q-28 0 -41.5 -23t-16.5 -53v-220h-112v386h99v-26zM918 300q0 -95 -34 -176.5t-94 -141.5t-142 -94.5t-178 -34.5q-91 0 -172 33t-142 92t-97 141t-36 181q0 94 34 175.5t93.5 141.5
t141.5 94.5t178 34.5q91 0 172.5 -32.5t142.5 -91t97 -141t36 -181.5zM825 300q0 76 -27 142.5t-74 115.5t-112.5 77t-141.5 28q-73 0 -137.5 -26.5t-112.5 -74.5t-76 -114.5t-28 -147.5q0 -77 26.5 -143t74 -115t112 -77t141.5 -28q73 0 137.5 26.5t113 74t76.5 114.5
t28 148z" />
    <glyph glyph-name="uni24E2" unicode="&#x24e2;" horiz-adv-x="940" 
d="M363 221q17 -9 29 -14t22 -8t19 -4t20 -1q20 0 33 6t13 20q0 17 -14 27.5t-40 20.5q-52 20 -77 51.5t-25 71.5q0 28 11.5 49t31 35.5t44.5 21.5t53 7q29 0 51.5 -6.5t52.5 -24.5l-29 -84q-11 11 -30.5 18t-38.5 9q-17 2 -29.5 -4.5t-12.5 -17.5q0 -16 12 -26t41 -21
q54 -20 78 -52.5t24 -75.5q0 -57 -40 -87.5t-111 -30.5q-34 0 -60.5 9.5t-55.5 26.5zM918 300q0 -95 -34 -176.5t-94 -141.5t-142 -94.5t-178 -34.5q-91 0 -172 33t-142 92t-97 141t-36 181q0 94 34 175.5t93.5 141.5t141.5 94.5t178 34.5q91 0 172.5 -32.5t142.5 -91
t97 -141t36 -181.5zM825 300q0 76 -27 142.5t-74 115.5t-112.5 77t-141.5 28q-73 0 -137.5 -26.5t-112.5 -74.5t-76 -114.5t-28 -147.5q0 -77 26.5 -143t74 -115t112 -77t141.5 -28q73 0 137.5 26.5t113 74t76.5 114.5t28 148z" />
    <glyph glyph-name="uni24E3" unicode="&#x24e3;" horiz-adv-x="940" 
d="M498 533v-93h72v-93h-72v-174q0 -17 3.5 -25.5t17.5 -8.5h19.5t32.5 4l6 -84q-21 -8 -44 -11t-37 -2q-33 1 -54 12t-33.5 28.5t-17.5 40t-5 46.5v174h-49v93h49v93h112zM918 300q0 -95 -34 -176.5t-94 -141.5t-142 -94.5t-178 -34.5q-91 0 -172 33t-142 92t-97 141
t-36 181q0 94 34 175.5t93.5 141.5t141.5 94.5t178 34.5q91 0 172.5 -32.5t142.5 -91t97 -141t36 -181.5zM825 300q0 76 -27 142.5t-74 115.5t-112.5 77t-141.5 28q-73 0 -137.5 -26.5t-112.5 -74.5t-76 -114.5t-28 -147.5q0 -77 26.5 -143t74 -115t112 -77t141.5 -28
q73 0 137.5 26.5t113 74t76.5 114.5t28 148z" />
    <glyph glyph-name="uni24E4" unicode="&#x24e4;" horiz-adv-x="940" 
d="M414 239q0 -25 12.5 -37t35.5 -12q33 0 53 39v262h112v-386h-102v30q-10 -14 -32.5 -25.5t-49.5 -11.5q-65 0 -102.5 36.5t-37.5 103.5v253h111v-252zM918 300q0 -95 -34 -176.5t-94 -141.5t-142 -94.5t-178 -34.5q-91 0 -172 33t-142 92t-97 141t-36 181q0 94 34 175.5
t93.5 141.5t141.5 94.5t178 34.5q91 0 172.5 -32.5t142.5 -91t97 -141t36 -181.5zM825 300q0 76 -27 142.5t-74 115.5t-112.5 77t-141.5 28q-73 0 -137.5 -26.5t-112.5 -74.5t-76 -114.5t-28 -147.5q0 -77 26.5 -143t74 -115t112 -77t141.5 -28q73 0 137.5 26.5t113 74
t76.5 114.5t28 148z" />
    <glyph glyph-name="uni24E5" unicode="&#x24e5;" horiz-adv-x="940" 
d="M546 474h114l-136 -385h-109l-135 385h117l73 -246zM918 300q0 -95 -34 -176.5t-94 -141.5t-142 -94.5t-178 -34.5q-91 0 -172 33t-142 92t-97 141t-36 181q0 94 34 175.5t93.5 141.5t141.5 94.5t178 34.5q91 0 172.5 -32.5t142.5 -91t97 -141t36 -181.5zM825 300
q0 76 -27 142.5t-74 115.5t-112.5 77t-141.5 28q-73 0 -137.5 -26.5t-112.5 -74.5t-76 -114.5t-28 -147.5q0 -77 26.5 -143t74 -115t112 -77t141.5 -28q73 0 137.5 26.5t113 74t76.5 114.5t28 148z" />
    <glyph glyph-name="uni24E6" unicode="&#x24e6;" horiz-adv-x="940" 
d="M426 496h87l59 -239l50 239h103l-93 -386h-110l-52 214l-56 -214h-111l-90 386h105l47 -239zM918 300q0 -95 -34 -176.5t-94 -141.5t-142 -94.5t-178 -34.5q-91 0 -172 33t-142 92t-97 141t-36 181q0 94 34 175.5t93.5 141.5t141.5 94.5t178 34.5q91 0 172.5 -32.5
t142.5 -91t97 -141t36 -181.5zM825 300q0 76 -27 142.5t-74 115.5t-112.5 77t-141.5 28q-73 0 -137.5 -26.5t-112.5 -74.5t-76 -114.5t-28 -147.5q0 -77 26.5 -143t74 -115t112 -77t141.5 -28q73 0 137.5 26.5t113 74t76.5 114.5t28 148z" />
    <glyph glyph-name="uni24E7" unicode="&#x24e7;" horiz-adv-x="940" 
d="M918 300q0 -95 -34 -176.5t-94 -141.5t-142 -94.5t-178 -34.5q-91 0 -172 33t-142 92t-97 141t-36 181q0 94 34 175.5t93.5 141.5t141.5 94.5t178 34.5q91 0 172.5 -32.5t142.5 -91t97 -141t36 -181.5zM825 300q0 76 -27 142.5t-74 115.5t-112.5 77t-141.5 28
q-73 0 -137.5 -26.5t-112.5 -74.5t-76 -114.5t-28 -147.5q0 -77 26.5 -143t74 -115t112 -77t141.5 -28q73 0 137.5 26.5t113 74t76.5 114.5t28 148zM529 300l128 -193h-119l-69 103l-69 -103h-119l128 193l-128 193h120l68 -103l68 103h120z" />
    <glyph glyph-name="uni24E8" unicode="&#x24e8;" horiz-adv-x="940" 
d="M918 300q0 -95 -34 -176.5t-94 -141.5t-142 -94.5t-178 -34.5q-91 0 -172 33t-142 92t-97 141t-36 181q0 94 34 175.5t93.5 141.5t141.5 94.5t178 34.5q91 0 172.5 -32.5t142.5 -91t97 -141t36 -181.5zM825 300q0 76 -27 142.5t-74 115.5t-112.5 77t-141.5 28
q-73 0 -137.5 -26.5t-112.5 -74.5t-76 -114.5t-28 -147.5q0 -77 26.5 -143t74 -115t112 -77t141.5 -28q73 0 137.5 26.5t113 74t76.5 114.5t28 148zM652 527l-147 -442q-15 -44 -43.5 -63.5t-72.5 -19.5q-17 0 -31.5 1.5t-39.5 12.5l13 85q23 -11 48 -10q11 1 16.5 11
t13.5 34l18 54l-138 337h114l73 -191l64 191h112z" />
    <glyph glyph-name="uni24E9" unicode="&#x24e9;" horiz-adv-x="940" 
d="M320 496h293v-76l-160 -218h166v-92h-305v76l160 218h-154v92zM918 300q0 -95 -34 -176.5t-94 -141.5t-142 -94.5t-178 -34.5q-91 0 -172 33t-142 92t-97 141t-36 181q0 94 34 175.5t93.5 141.5t141.5 94.5t178 34.5q91 0 172.5 -32.5t142.5 -91t97 -141t36 -181.5z
M825 300q0 76 -27 142.5t-74 115.5t-112.5 77t-141.5 28q-73 0 -137.5 -26.5t-112.5 -74.5t-76 -114.5t-28 -147.5q0 -77 26.5 -143t74 -115t112 -77t141.5 -28q73 0 137.5 26.5t113 74t76.5 114.5t28 148z" />
    <glyph glyph-name="SF100000" unicode="&#x2500;" horiz-adv-x="940" 
d="M0 286v29h940v-29h-940z" />
    <glyph glyph-name="uni2501" unicode="&#x2501;" horiz-adv-x="940" 
d="M0 271v54h920v-54h-920z" />
    <glyph glyph-name="SF110000" unicode="&#x2502;" horiz-adv-x="940" 
d="M455 -200v1000h29v-1000h-29z" />
    <glyph glyph-name="uni2503" unicode="&#x2503;" horiz-adv-x="940" 
d="M442 -200v1000h54v-1000h-54z" />
    <glyph glyph-name="SF010000" unicode="&#x250c;" horiz-adv-x="940" 
d="M484 286v-486h-29v515h485v-29h-456z" />
    <glyph glyph-name="uni250D" unicode="&#x250d;" horiz-adv-x="940" 
d="M488 264v-464h-38v536h490v-72h-452z" />
    <glyph glyph-name="uni250E" unicode="&#x250e;" horiz-adv-x="940" 
d="M507 282v-482h-76v518h509v-36h-433z" />
    <glyph glyph-name="uni250F" unicode="&#x250f;" horiz-adv-x="940" 
d="M496 271v-471h-54v525h498v-54h-444z" />
    <glyph glyph-name="SF030000" unicode="&#x2510;" horiz-adv-x="940" 
d="M455 -200v486h-455v29h484v-515h-29z" />
    <glyph glyph-name="uni2511" unicode="&#x2511;" horiz-adv-x="940" 
d="M450 -200v464h-450v72h488v-536h-38z" />
    <glyph glyph-name="uni2512" unicode="&#x2512;" horiz-adv-x="940" 
d="M431 -200v482h-431v36h507v-518h-76z" />
    <glyph glyph-name="uni2513" unicode="&#x2513;" horiz-adv-x="940" 
d="M442 -200v471h-442v54h496v-525h-54z" />
    <glyph glyph-name="SF020000" unicode="&#x2514;" horiz-adv-x="940" 
d="M455 286v514h29v-485h426v-29h-455z" />
    <glyph glyph-name="uni2515" unicode="&#x2515;" horiz-adv-x="940" 
d="M450 264v536h38v-464h452v-72h-490z" />
    <glyph glyph-name="uni2516" unicode="&#x2516;" horiz-adv-x="940" 
d="M431 282v518h76v-482h433v-36h-509z" />
    <glyph glyph-name="uni2517" unicode="&#x2517;" horiz-adv-x="940" 
d="M442 271v529h54v-475h444v-54h-498z" />
    <glyph glyph-name="SF040000" unicode="&#x2518;" horiz-adv-x="940" 
d="M0 286v29h455v485h29v-514h-484z" />
    <glyph glyph-name="uni2519" unicode="&#x2519;" horiz-adv-x="940" 
d="M0 264v72h450v464h38v-536h-488z" />
    <glyph glyph-name="uni251A" unicode="&#x251a;" horiz-adv-x="940" 
d="M0 282v36h431v482h76v-518h-507z" />
    <glyph glyph-name="uni251B" unicode="&#x251b;" horiz-adv-x="940" 
d="M0 271v54h442v475h54v-529h-496z" />
    <glyph glyph-name="SF080000" unicode="&#x251c;" horiz-adv-x="940" 
d="M484 286v-486h-29v1000h29v-485h436v-29h-436z" />
    <glyph glyph-name="uni251D" unicode="&#x251d;" horiz-adv-x="940" 
d="M488 264v-464h-38v1000h38v-464h452v-72h-452z" />
    <glyph glyph-name="uni251E" unicode="&#x251e;" horiz-adv-x="940" 
d="M487 282v-482h-37v500h-19v500h76v-482h433v-36h-453z" />
    <glyph glyph-name="uni251F" unicode="&#x251f;" horiz-adv-x="940" 
d="M507 282v-482h-76v500h19v500h38v-482h452v-36h-433z" />
    <glyph glyph-name="uni2520" unicode="&#x2520;" horiz-adv-x="940" 
d="M507 282v-482h-76v1000h76v-482h433v-36h-433z" />
    <glyph glyph-name="uni2521" unicode="&#x2521;" horiz-adv-x="940" 
d="M488 264v-464h-38v500h-19v500h76v-464h433v-72h-452z" />
    <glyph glyph-name="uni2522" unicode="&#x2522;" horiz-adv-x="940" 
d="M507 264v-464h-76v500h19v500h38v-464h452v-72h-433z" />
    <glyph glyph-name="uni2523" unicode="&#x2523;" horiz-adv-x="940" 
d="M496 271v-471h-54v1000h54v-475h444v-54h-444z" />
    <glyph glyph-name="SF090000" unicode="&#x2524;" horiz-adv-x="940" 
d="M455 -200v486h-455v29h455v485h29v-1000h-29z" />
    <glyph glyph-name="uni2525" unicode="&#x2525;" horiz-adv-x="940" 
d="M450 -200v464h-450v72h450v464h38v-1000h-38z" />
    <glyph glyph-name="uni2526" unicode="&#x2526;" horiz-adv-x="940" 
d="M488 300v-500h-38v482h-450v36h431v482h76v-500h-19z" />
    <glyph glyph-name="uni2527" unicode="&#x2527;" horiz-adv-x="940" 
d="M431 -200v482h-431v36h450v482h38v-500h19v-500h-76z" />
    <glyph glyph-name="uni2528" unicode="&#x2528;" horiz-adv-x="940" 
d="M431 -200v482h-431v36h431v482h76v-1000h-76z" />
    <glyph glyph-name="uni2529" unicode="&#x2529;" horiz-adv-x="940" 
d="M488 300v-500h-38v464h-450v72h431v464h76v-500h-19z" />
    <glyph glyph-name="uni252A" unicode="&#x252a;" horiz-adv-x="940" 
d="M431 -200v464h-431v72h450v464h38v-500h19v-500h-76z" />
    <glyph glyph-name="uni252B" unicode="&#x252b;" horiz-adv-x="940" 
d="M442 -200v471h-442v54h442v475h54v-1000h-54z" />
    <glyph glyph-name="SF060000" unicode="&#x252c;" horiz-adv-x="940" 
d="M484 286v-486h-29v486h-455v29h940v-29h-456z" />
    <glyph glyph-name="uni252D" unicode="&#x252d;" horiz-adv-x="940" 
d="M488 282v-482h-38v464h-450v72h469v-18h471v-36h-452z" />
    <glyph glyph-name="uni252E" unicode="&#x252e;" horiz-adv-x="940" 
d="M488 264v-464h-38v482h-450v36h469v18h471v-72h-452z" />
    <glyph glyph-name="uni252F" unicode="&#x252f;" horiz-adv-x="940" 
d="M488 264v-464h-38v464h-450v72h940v-72h-452z" />
    <glyph glyph-name="uni2530" unicode="&#x2530;" horiz-adv-x="940" 
d="M507 282v-482h-76v482h-431v36h940v-36h-433z" />
    <glyph glyph-name="uni2531" unicode="&#x2531;" horiz-adv-x="940" 
d="M507 282v-482h-76v464h-431v72h469v-18h471v-36h-433z" />
    <glyph glyph-name="uni2532" unicode="&#x2532;" horiz-adv-x="940" 
d="M507 264v-464h-76v482h-431v36h469v18h471v-72h-433z" />
    <glyph glyph-name="uni2533" unicode="&#x2533;" horiz-adv-x="940" 
d="M496 271v-471h-54v471h-442v54h920v-54h-424z" />
    <glyph glyph-name="SF070000" unicode="&#x2534;" horiz-adv-x="940" 
d="M0 286v29h455v485h29v-485h436v-29h-920z" />
    <glyph glyph-name="uni2535" unicode="&#x2535;" horiz-adv-x="940" 
d="M469 282v-18h-469v72h450v464h38v-482h452v-36h-471z" />
    <glyph glyph-name="uni2536" unicode="&#x2536;" horiz-adv-x="940" 
d="M469 264v18h-469v36h450v482h38v-464h452v-72h-471z" />
    <glyph glyph-name="uni2537" unicode="&#x2537;" horiz-adv-x="940" 
d="M0 264v72h450v464h38v-464h452v-72h-940z" />
    <glyph glyph-name="uni2538" unicode="&#x2538;" horiz-adv-x="940" 
d="M0 282v36h431v482h76v-482h433v-36h-940z" />
    <glyph glyph-name="uni2539" unicode="&#x2539;" horiz-adv-x="940" 
d="M469 282v-18h-469v72h431v464h76v-482h433v-36h-471z" />
    <glyph glyph-name="uni253A" unicode="&#x253a;" horiz-adv-x="940" 
d="M469 264v18h-469v36h431v482h76v-464h433v-72h-471z" />
    <glyph glyph-name="uni253B" unicode="&#x253b;" horiz-adv-x="940" 
d="M0 271v54h442v475h54v-475h444v-54h-940z" />
    <glyph glyph-name="SF050000" unicode="&#x253c;" horiz-adv-x="940" 
d="M484 285v-485h-29v485h-455v29h455v486h29v-486h436v-29h-436z" />
    <glyph glyph-name="uni253D" unicode="&#x253d;" horiz-adv-x="940" 
d="M488 282v-482h-38v464h-450v76h450v460h38v-482h452v-36h-452z" />
    <glyph glyph-name="uni253E" unicode="&#x253e;" horiz-adv-x="940" 
d="M488 264v-464h-38v482h-450v36h450v482h38v-464h452v-72h-452z" />
    <glyph glyph-name="uni253F" unicode="&#x253f;" horiz-adv-x="940" 
d="M488 264v-464h-38v464h-450v72h450v464h38v-464h452v-72h-452z" />
    <glyph glyph-name="uni2540" unicode="&#x2540;" horiz-adv-x="940" 
d="M488 282v-482h-38v482h-450v36h431v482h76v-482h433v-36h-452z" />
    <glyph glyph-name="uni2541" unicode="&#x2541;" horiz-adv-x="940" 
d="M507 282v-482h-76v482h-431v36h450v482h38v-482h452v-36h-433z" />
    <glyph glyph-name="uni2542" unicode="&#x2542;" horiz-adv-x="940" 
d="M507 282v-482h-76v482h-431v36h431v482h76v-482h433v-36h-433z" />
    <glyph glyph-name="uni2543" unicode="&#x2543;" horiz-adv-x="940" 
d="M488 282v-482h-38v464h-450v72h431v464h76v-482h433v-36h-452z" />
    <glyph glyph-name="uni2544" unicode="&#x2544;" horiz-adv-x="940" 
d="M488 264v-464h-38v482h-450v36h431v482h76v-464h433v-72h-452z" />
    <glyph glyph-name="uni2545" unicode="&#x2545;" horiz-adv-x="940" 
d="M507 282v-482h-76v464h-431v72h450v464h38v-482h452v-36h-433z" />
    <glyph glyph-name="uni2546" unicode="&#x2546;" horiz-adv-x="940" 
d="M507 264v-464h-76v482h-431v36h450v482h38v-464h452v-72h-433z" />
    <glyph glyph-name="uni2547" unicode="&#x2547;" horiz-adv-x="940" 
d="M488 264v-464h-38v464h-450v72h431v464h76v-464h433v-72h-452z" />
    <glyph glyph-name="uni2548" unicode="&#x2548;" horiz-adv-x="940" 
d="M507 264v-464h-76v464h-431v72h450v464h38v-464h452v-72h-433z" />
    <glyph glyph-name="uni2549" unicode="&#x2549;" horiz-adv-x="940" 
d="M507 282v-482h-76v464h-431v72h431v464h76v-482h433v-36h-433z" />
    <glyph glyph-name="uni254A" unicode="&#x254a;" horiz-adv-x="940" 
d="M507 264v-464h-76v482h-431v36h431v482h76v-464h433v-72h-433z" />
    <glyph glyph-name="uni254B" unicode="&#x254b;" horiz-adv-x="940" 
d="M496 271v-471h-54v471h-442v54h442v475h54v-475h444v-54h-444z" />
    <glyph glyph-name="shade" unicode="&#x2592;" horiz-adv-x="940" 
d="M886 680q0 -15 -10 -24t-23 -9q-15 0 -25.5 9t-10.5 24t10.5 24.5t25.5 9.5q13 0 23 -9.5t10 -24.5zM759 680q0 -15 -10 -24t-25 -9t-25 9t-10 24t10 25t25 10t25 -10t10 -25zM886 553q0 -15 -10 -25t-23 -10q-15 0 -25.5 9.5t-10.5 25.5q0 15 10.5 24.5t25.5 9.5
q13 0 23 -9.5t10 -24.5zM632 680q0 -15 -9.5 -24t-24.5 -9t-25 9t-10 24t10 25t25 10t24.5 -10t9.5 -25zM759 554q0 -16 -10 -26t-25 -10t-25 10t-10 26q0 15 10 24.5t25 9.5t25 -9.5t10 -24.5zM886 425q0 -15 -10 -24.5t-23 -9.5q-15 0 -25.5 9.5t-10.5 24.5t10.5 25
t25.5 10q13 0 23 -10t10 -25zM632 554q0 -16 -9.5 -26t-24.5 -10t-25 10t-10 26q0 15 10 24.5t25 9.5t24.5 -9.5t9.5 -24.5zM504 680q0 -15 -9.5 -24t-25.5 -9q-14 0 -23.5 9t-9.5 24t9.5 24.5t23.5 9.5q16 0 25.5 -9.5t9.5 -24.5zM759 426q0 -16 -10 -25.5t-25 -9.5t-25 10
t-10 25t10 24.5t25 9.5t25 -9.5t10 -24.5zM886 297q0 -13 -10 -23t-23 -10q-15 0 -25.5 10t-10.5 23q0 15 10.5 25t25.5 10q13 0 23 -10t10 -25zM632 426q0 -15 -9.5 -25t-24.5 -10t-25 10t-10 25t10 24.5t25 9.5t24.5 -9.5t9.5 -24.5zM504 553q0 -16 -9.5 -25.5t-25.5 -9.5
q-14 0 -23.5 10t-9.5 25t9.5 24.5t23.5 9.5q16 0 25.5 -9.5t9.5 -24.5zM886 171q0 -14 -10 -24.5t-23 -10.5q-15 0 -25.5 10.5t-10.5 24.5t10.5 24t25.5 10q13 0 23 -10t10 -24zM376 680q0 -15 -9.5 -24t-25.5 -9q-15 0 -24.5 9t-9.5 24t9.5 24.5t24.5 9.5q16 0 25.5 -9.5
t9.5 -24.5zM758 297q0 -13 -9.5 -23t-24.5 -10t-25 10t-10 23q0 15 10 25t25 10t24.5 -10t9.5 -25zM504 425q0 -15 -9.5 -24.5t-25.5 -9.5q-14 0 -23.5 9.5t-9.5 24.5t9.5 25t23.5 10q16 0 25.5 -10t9.5 -25zM631 297q0 -13 -9 -23t-24 -10t-25 10t-10 23q0 15 10 25t25 10
t24 -10t9 -25zM887 43q0 -14 -10 -24.5t-23 -10.5q-17 0 -27 10.5t-10 24.5q0 16 10 26t27 10q13 0 23 -10.5t10 -25.5zM250 680q0 -15 -10.5 -24t-25.5 -9t-25 9t-10 24t10 25t25 10t25.5 -10t10.5 -25zM376 553q0 -16 -9.5 -25.5t-25.5 -9.5q-15 0 -24.5 10t-9.5 25
t9.5 24.5t24.5 9.5q16 0 25.5 -9.5t9.5 -24.5zM758 171q0 -14 -9.5 -24.5t-24.5 -10.5t-25 10.5t-10 24.5t10 24t25 10t24.5 -10t9.5 -24zM504 297q0 -13 -9.5 -23t-25.5 -10q-14 0 -23.5 10t-9.5 23q0 15 9.5 25t23.5 10q16 0 25.5 -10t9.5 -25zM631 171q0 -14 -9 -24.5
t-24 -10.5t-25 10.5t-10 24.5t10 24t25 10t24 -10t9 -24zM887 -84q0 -15 -10 -25t-23 -10q-17 0 -27 10t-10 25q0 14 10 24t27 10q13 0 23 -10t10 -24zM250 554q0 -16 -10.5 -26t-25.5 -10t-25 10t-10 26q0 15 10 24.5t25 9.5t25.5 -9.5t10.5 -24.5zM376 425
q0 -15 -9.5 -24.5t-25.5 -9.5q-15 0 -24.5 9.5t-9.5 24.5t9.5 25t24.5 10q16 0 25.5 -10t9.5 -25zM759 43q0 -14 -10 -24.5t-25 -10.5q-14 0 -24.5 10.5t-10.5 24.5q0 15 10 25.5t25 10.5t25 -10.5t10 -25.5zM121 680q0 -15 -10.5 -24t-25.5 -9q-13 0 -23 9t-10 24t10 24.5
t23 9.5q15 0 25.5 -9.5t10.5 -24.5zM504 171q0 -14 -9.5 -24.5t-25.5 -10.5q-14 0 -23.5 10.5t-9.5 24.5t9.5 24t23.5 10q16 0 25.5 -10t9.5 -24zM632 43q0 -14 -9.5 -24.5t-24.5 -10.5t-25 10.5t-10 24.5q0 15 10 25.5t25 10.5t24.5 -10.5t9.5 -25.5zM250 426
q0 -15 -10.5 -25t-25.5 -10t-25 9.5t-10 25.5q0 15 10 24.5t25 9.5t25.5 -9.5t10.5 -24.5zM376 297q0 -13 -9.5 -23t-25.5 -10q-15 0 -24.5 10t-9.5 23q0 15 9.5 25t24.5 10q16 0 25.5 -10t9.5 -25zM759 -84q0 -15 -10 -25t-25 -10q-14 0 -24.5 10.5t-10.5 24.5t10 24t25 10
t25 -10t10 -24zM121 553q0 -15 -10.5 -25t-25.5 -10q-13 0 -23 10t-10 25t10 24.5t23 9.5q15 0 25.5 -9.5t10.5 -24.5zM505 43q0 -14 -9.5 -24.5t-26.5 -10.5q-14 0 -23.5 10.5t-9.5 24.5q0 15 9.5 25.5t23.5 10.5q17 0 26.5 -10t9.5 -26zM632 -84q0 -14 -9.5 -24.5
t-24.5 -10.5t-25 10.5t-10 24.5t10 24t25 10t24.5 -10t9.5 -24zM376 171q0 -14 -9.5 -24.5t-25.5 -10.5q-15 0 -24.5 10.5t-9.5 24.5t9.5 24t24.5 10q16 0 25.5 -10t9.5 -24zM121 424q0 -14 -10.5 -23.5t-25.5 -9.5q-13 0 -23 9.5t-10 23.5q0 17 10 26.5t23 9.5
q15 0 25.5 -9.5t10.5 -26.5zM249 297q0 -13 -10.5 -23t-24.5 -10q-15 0 -25 10t-10 23q0 15 10 25t25 10t25 -10t10 -25zM505 -84q0 -15 -9.5 -25t-26.5 -10q-14 0 -23.5 10t-9.5 25q0 14 9.5 24t23.5 10q17 0 26.5 -10t9.5 -24zM377 43q0 -14 -9.5 -24.5t-25.5 -10.5
q-15 0 -25 10.5t-10 24.5q0 15 10 25.5t25 10.5q16 0 25.5 -10.5t9.5 -25.5zM249 171q0 -14 -10.5 -24.5t-24.5 -10.5q-15 0 -25 10.5t-10 24.5t10 24t25 10t25 -10t10 -24zM121 296q0 -14 -10.5 -23.5t-25.5 -9.5q-13 0 -23 9.5t-10 23.5q0 15 10 24.5t23 9.5
q15 0 25.5 -9.5t10.5 -24.5zM377 -84q0 -15 -9.5 -25t-25.5 -10q-15 0 -25 10t-10 25q0 14 10 24t25 10q16 0 25.5 -10t9.5 -24zM250 43q0 -14 -10.5 -24.5t-25.5 -10.5t-25 10.5t-10 24.5q0 15 10 25.5t25 10.5t25.5 -10.5t10.5 -25.5zM121 171q0 -14 -10.5 -24.5
t-25.5 -10.5q-13 0 -23 10.5t-10 24.5t10 23.5t23 9.5q36 0 36 -33zM250 -84q0 -14 -10.5 -24.5t-25.5 -10.5t-25 10t-10 25q0 14 10 24t25 10t25.5 -10t10.5 -24zM121 43q0 -14 -10.5 -24.5t-25.5 -10.5q-13 0 -23 10.5t-10 24.5t10 24t23 10q15 0 25.5 -10t10.5 -24z
M121 -84q0 -15 -10.5 -25t-25.5 -10q-13 0 -23 10t-10 25q0 14 10 24t23 10q15 0 25.5 -10t10.5 -24z" />
    <glyph glyph-name="filledbox" unicode="&#x25a0;" horiz-adv-x="940" 
d="M88 -78v760h763v-760h-763z" />
    <glyph glyph-name="H22073" unicode="&#x25a1;" horiz-adv-x="940" 
d="M88 -78v760h763v-760h-763zM772 611h-606v-618h606v618z" />
    <glyph glyph-name="uni25A3" unicode="&#x25a3;" horiz-adv-x="940" 
d="M89 -78v760h762v-760h-762zM772 611h-605v-618h605v618zM667 105h-395v394h395v-394z" />
    <glyph glyph-name="uni25A4" unicode="&#x25a4;" horiz-adv-x="940" 
d="M52 -118v829h835v-829h-835zM851 676h-764v-78h764v78zM851 562h-764v-83h764v83zM851 445h-764v-74h764v74zM851 334h-764v-79h764v79zM851 219h-764v-81h764v81zM851 103h-764v-75h764v75zM851 -8h-764v-74h764v74z" />
    <glyph glyph-name="uni25A5" unicode="&#x25a5;" horiz-adv-x="940" 
d="M52 -118v828h835v-828h-835zM852 674h-77v-756h77v756zM740 674h-74v-756h74v756zM629 674h-80v-756h80v756zM513 674h-80v-756h80v756zM396 674h-76v-756h76v756zM285 674h-83v-756h83v756zM166 674h-79v-756h79v756z" />
    <glyph glyph-name="uni25A6" unicode="&#x25a6;" horiz-adv-x="940" 
d="M52 -118v829h835v-829h-835zM851 676h-81v-79h81v79zM737 676h-78v-79h78v79zM851 564h-81v-86h81v86zM626 676h-83v-79h83v79zM737 564h-78v-86h78v86zM851 446h-81v-78h81v78zM626 564h-83v-86h83v86zM511 676h-86v-79h86v79zM737 446h-78v-78h78v78zM851 335h-81v-81
h81v81zM737 335h-78v-81h78v81zM393 676h-76v-79h76v79zM626 446h-83v-78h83v78zM511 564h-86v-86h86v86zM851 221h-81v-84h81v84zM285 676h-85v-79h85v79zM626 335h-83v-81h83v81zM737 221h-78v-84h78v84zM851 105h-81v-78h81v78zM393 564h-76v-86h76v86zM511 446h-86v-78
h86v78zM851 -5h-81v-77h81v77zM737 105h-78v-78h78v78zM167 676h-80v-79h80v79zM626 221h-83v-84h83v84zM285 564h-85v-86h85v86zM511 335h-86v-81h86v81zM393 446h-76v-78h76v78zM737 -5h-78v-77h78v77zM626 105h-83v-78h83v78zM393 335h-76v-81h76v81zM285 446h-85v-78h85
v78zM167 564h-80v-86h80v86zM511 221h-86v-84h86v84zM626 -5h-83v-77h83v77zM285 335h-85v-81h85v81zM511 105h-86v-78h86v78zM393 221h-76v-84h76v84zM167 446h-80v-78h80v78zM511 -5h-86v-77h86v77zM167 335h-80v-81h80v81zM285 221h-85v-84h85v84zM393 105h-76v-78h76v78
zM393 -5h-76v-77h76v77zM285 105h-85v-78h85v78zM167 221h-80v-84h80v84zM285 -5h-85v-77h85v77zM167 105h-80v-78h80v78zM167 -5h-80v-77h80v77z" />
    <glyph glyph-name="uni25A7" unicode="&#x25a7;" horiz-adv-x="940" 
d="M52 -119v830h835v-830h-835zM664 675q48 -48 92.5 -92t91.5 -91v183h-184zM478 675q94 -94 185 -185.5t185 -185.5v142q-57 57 -114 114.5t-114 114.5h-142zM289 675q141 -140 279 -278.5t280 -279.5v142q-106 104 -209.5 207.5t-210.5 208.5h-139zM112 675
q186 -186 368 -366.5t368 -365.5v125q-154 153 -304.5 303.5t-305.5 303.5h-126zM822 -82q-186 185 -368 366.5t-368 367.5v-125q155 -154 306 -305t306 -304h124zM650 -82q-141 142 -281.5 282t-282.5 281v-143q107 -107 211 -210.5t210 -209.5h143zM456 -82
q-94 94 -185 185.5t-185 185.5v-146q59 -57 115.5 -113t113.5 -112h141zM264 -82q-45 46 -89 90.5t-89 91.5v-182h178z" />
    <glyph glyph-name="uni25A8" unicode="&#x25a8;" horiz-adv-x="940" 
d="M52 710h835v-828h-835v828zM478 -82h142l228 227v141zM289 -82h139l420 415v142zM664 -82h184v181zM112 -82h126l610 604v127zM86 64v-123l736 733h-124zM86 254v-144l564 564h-143zM86 448v-146l370 372h-141zM86 491l178 183h-178v-183z" />
    <glyph glyph-name="uni25A9" unicode="&#x25a9;" horiz-adv-x="940" 
d="M53 -119v829h834v-829h-834zM360 208q-18 19 -36.5 37.5l-36.5 36.5q-18 -18 -36 -36.5t-37 -36.5q19 -18 37.5 -36.5l36.5 -36.5zM554 408q18 18 36 35t36 35l-72 72l-72 -72q18 -18 36 -35t36 -35zM650 503q18 18 35 36t35 36l-70 71q-18 -18 -36 -35.5t-36 -35.5z
M189 42q18 18 35.5 36t35.5 37l-69 69l-71 -72zM382 42l35.5 35.5t36.5 35.5l-70 70l-71 -71q18 -18 34.5 -35t34.5 -35zM816 478l-69 70q-18 -18 -36 -35.5t-36 -35.5l71 -69zM286 -52q18 18 36 35l36 34l-70 70l-72 -72q18 -18 35 -33.5t35 -33.5zM456 505q18 18 35.5 36
t35.5 36q-17 18 -32.5 34t-32.5 33l-36 -36t-37 -36l34 -34zM652 314q18 18 34 34.5t34 33.5q-18 18 -34 35t-34 35q-18 -18 -34 -34.5t-34 -33.5zM473 -50q19 18 37 35.5t36 35.5l-66 65l-70 -71q15 -16 31 -32t32 -33zM258 308q-17 16 -32.5 32t-32.5 33
q-18 -18 -35.5 -35t-35.5 -35q16 -16 32 -32.5t33 -33.5zM744 219q17 18 35 35t36 35l-33 33t-34 32l-69 -69l33 -33t32 -33zM269 646q-17 -16 -32.5 -31.5l-31.5 -31.5q18 -18 36 -35.5t36 -35.5l62 63zM189 425q16 16 32 31.5t32 31.5q-18 17 -36.5 34.5t-36.5 35.5
l-62 -62zM564 224q30 32 62 62q-18 18 -35 36t-35 36q-15 -17 -31 -32.5t-32 -32.5zM468 322q16 16 30.5 31.5t30.5 31.5l-69 69q-16 -16 -31.5 -31t-30.5 -31zM380 234q15 16 30.5 31t30.5 31q-18 18 -35 35.5t-35 35.5l-60 -63q18 -17 34.5 -34.5t34.5 -35.5zM537 199
q-17 18 -33.5 35t-33.5 35q-17 -16 -32.5 -31t-30.5 -31q17 -18 34.5 -34.5t35.5 -34.5zM750 38q17 16 32 32t31 32q-17 17 -32.5 33t-33.5 33q-16 -16 -31.5 -31t-31.5 -32l33 -33t33 -34zM433 481l-33 33t-33 32q-33 -32 -63 -63q16 -16 32 -31.5t34 -32.5zM281 330
q16 17 31 32.5t31 31.5q-16 17 -32 33l-32 32q-16 -15 -31.5 -31t-31.5 -32q17 -17 32.5 -33t32.5 -33zM657 132q16 17 31 32l31 31l-65 66q-16 -16 -31.5 -32t-30.5 -32zM725 13l-66 66l-62 -62q18 -17 34 -32.5t32 -33.5zM570 47q16 14 30.5 29.5t29.5 30.5
q-16 17 -31.5 33t-31.5 33q-16 -15 -31.5 -30.5t-30.5 -32.5q17 -16 32.5 -32t32.5 -31zM849 647q-22 -20 -40.5 -39t-38.5 -39l79 -78v156zM87 -60l39 39t40 39q-21 20 -40 40t-39 40v-158zM87 322l39 39t40 39l-79 78v-156zM652 -82q-21 19 -39.5 38t-39.5 38
q-20 -19 -39 -38t-39 -38h157zM849 269q-20 -19 -39 -38l-38 -38l77 -77v153zM87 136q19 20 38 39l39 39q-20 19 -39 37t-38 37v-152zM740 599q20 19 39 38t38 37h-154q20 -18 39 -37zM774 380q18 -20 37 -38.5t38 -37.5v150q-19 -19 -38 -37t-37 -37zM364 600l37.5 37.5
t37.5 36.5h-150zM192 -10q-19 -18 -37 -36t-37 -36h149zM458 -82q-19 18 -37.5 35.5t-36.5 35.5l-72 -71h146zM551 602q18 18 35.5 36t35.5 36h-143zM849 80l-70 -69l70 -69v138zM753 -15q-18 -18 -34.5 -33.5t-34.5 -33.5h136zM153 585l-66 66v-132zM176 609
q18 17 33.5 32.5l32.5 32.5h-131z" />
    <glyph glyph-name="triagup" unicode="&#x25b2;" horiz-adv-x="940" 
d="M473 638l404 -643h-815z" />
    <glyph glyph-name="uni25B3" unicode="&#x25b3;" horiz-adv-x="940" 
d="M473 638l404 -643h-815zM472 497l-284 -438h560z" />
    <glyph glyph-name="uni25B6" unicode="&#x25b6;" horiz-adv-x="940" 
d="M156 -87v784l632 -394z" />
    <glyph glyph-name="uni25B7" unicode="&#x25b7;" horiz-adv-x="940" 
d="M156 -87v784l632 -394zM231 568v-528l430 262z" />
    <glyph glyph-name="triagdn" unicode="&#x25bc;" horiz-adv-x="940" 
d="M62 595h815l-404 -643z" />
    <glyph glyph-name="uni25BD" unicode="&#x25bd;" horiz-adv-x="940" 
d="M62 595h815l-404 -643zM748 531h-560l284 -438z" />
    <glyph glyph-name="uni25C0" unicode="&#x25c0;" horiz-adv-x="940" 
d="M151 302l632 394v-784z" />
    <glyph glyph-name="uni25C1" unicode="&#x25c1;" horiz-adv-x="940" 
d="M151 302l632 394v-784zM278 301l430 -262v528z" />
    <glyph glyph-name="uni25C6" unicode="&#x25c6;" horiz-adv-x="940" 
d="M469 -146l-452 450l452 450l454 -450z" />
    <glyph glyph-name="uni25C7" unicode="&#x25c7;" horiz-adv-x="940" 
d="M469 -146l-452 450l452 450l454 -450zM819 304l-350 350l-349 -350l349 -349z" />
    <glyph glyph-name="uni25C8" unicode="&#x25c8;" horiz-adv-x="940" 
d="M469 -146l-452 450l452 450l454 -450zM819 304l-350 350l-349 -350l349 -349zM469 52l-252 252l252 252l252 -252z" />
    <glyph glyph-name="circle" unicode="&#x25cb;" horiz-adv-x="940" 
d="M874 300q0 -84 -31 -158t-85 -128.5t-128 -86t-160 -31.5q-81 0 -154 30t-128 84t-87.5 128t-32.5 162q0 84 30.5 157.5t84.5 127.5t127.5 85.5t159.5 31.5q82 0 155 -30t128.5 -83t88 -127t32.5 -162zM788 300q0 67 -24.5 126.5t-67 103t-101 69t-125.5 25.5
q-64 0 -121.5 -24t-100.5 -67t-68.5 -102.5t-25.5 -130.5q0 -68 24 -127.5t66.5 -103.5t100 -70t125.5 -26q64 0 122 24t101.5 67.5t69 103.5t25.5 132z" />
    <glyph glyph-name="uni25CE" unicode="&#x25ce;" horiz-adv-x="940" 
d="M727 300q0 -54 -19.5 -100.5t-54 -81t-81.5 -54.5t-102 -20q-52 0 -98 19t-81 53t-55.5 81t-20.5 103q0 53 19.5 99.5t53.5 81t81 54.5t101 20q52 0 98.5 -19t82 -52.5t56 -80.5t20.5 -103zM647 300q0 38 -13.5 71.5t-37 59t-56 40t-70.5 14.5q-36 0 -67.5 -14
t-55.5 -38.5t-38 -58.5t-14 -74q0 -38 13 -72t36.5 -59t55.5 -39.5t70 -14.5q36 0 68 13.5t56.5 38.5t38.5 58.5t14 74.5zM874 300q0 -84 -31 -158t-85 -128.5t-128 -86t-160 -31.5q-81 0 -154 30t-128 84t-87.5 128t-32.5 162q0 84 30.5 157.5t84.5 127.5t127.5 85.5
t159.5 31.5q82 0 155 -30t128.5 -83t88 -127t32.5 -162zM788 300q0 67 -24.5 126.5t-67 103t-101 69t-125.5 25.5q-64 0 -121.5 -24t-100.5 -67t-68.5 -102.5t-25.5 -130.5q0 -68 24 -127.5t66.5 -103.5t100 -70t125.5 -26q64 0 122 24t101.5 67.5t69 103.5t25.5 132z" />
    <glyph glyph-name="H18533" unicode="&#x25cf;" horiz-adv-x="940" 
d="M874 300q0 -84 -31 -158t-85 -128.5t-128 -86t-160 -31.5q-81 0 -154 30t-128 84t-87.5 128t-32.5 162q0 84 30.5 157.5t84.5 127.5t127.5 85.5t159.5 31.5q82 0 155 -30t128.5 -83t88 -127t32.5 -162z" />
    <glyph glyph-name="uni25D0" unicode="&#x25d0;" horiz-adv-x="940" 
d="M872 302q0 -86 -31.5 -159.5t-86 -128t-129 -85.5t-160.5 -31q-84 0 -156.5 31t-126.5 85t-85 128t-31 160q0 85 31 158.5t85 127.5t127 84.5t156 30.5q86 0 160.5 -30.5t129 -84.5t86 -127.5t31.5 -158.5zM803 301q0 67 -24.5 127t-67 105.5t-100.5 74t-124 31.5v-677
q66 3 123.5 31t100 74t67.5 106t25 128z" />
    <glyph glyph-name="uni25D1" unicode="&#x25d1;" horiz-adv-x="940" 
d="M66 302q0 85 31.5 158.5t86 127.5t129 84.5t160.5 30.5q83 0 156 -30.5t127 -84.5t85 -127.5t31 -158.5q0 -86 -31 -160t-85 -128t-126.5 -85t-156.5 -31q-86 0 -160.5 31t-129 85.5t-86 128t-31.5 159.5zM135 301q0 -68 25 -128t67.5 -106t100 -74t123.5 -31v677
q-66 -3 -124 -31.5t-100.5 -74t-67 -105.5t-24.5 -127z" />
    <glyph glyph-name="uni2605" unicode="&#x2605;" horiz-adv-x="940" 
d="M633 253l107 -316l-273 201l-269 -195l103 314l-251 189h315l103 295l105 -295h316z" />
    <glyph glyph-name="uni2606" unicode="&#x2606;" horiz-adv-x="940" 
d="M633 253l107 -316l-273 201l-269 -195l103 314l-251 189h315l103 295l105 -295h316zM522 391l-54 157l-53 -157h-190l152 -118l-61 -171l149 111l153 -112l-62 171l157 119h-191z" />
    <glyph glyph-name="uni260E" unicode="&#x260e;" horiz-adv-x="940" 
d="M913 391q0 -64 -50 -64q-45 0 -103 19q-74 23 -74 55q0 13 9 36q10 21 10 33q0 11 -16.5 20t-33.5 9q-13 0 -13 -14v-29q0 -68 30 -119q7 -12 23 -31.5t41 -46.5q22 -23 36.5 -45.5t22.5 -43.5q8 -17 12 -46q3 -17 5.5 -29t4.5 -17q1 -7 12 -25q8 -14 8 -25
q0 -23 -20.5 -38t-51.5 -15h-632q-39 0 -39 45q0 17 9 32q5 8 8.5 15t4.5 12q2 14 5 27t6 27q5 19 10.5 34t12.5 26q12 19 60 70q22 22 37 41t23 35q28 49 28 115v42q0 9 -8 9q-16 0 -33 -13t-17 -29q0 -8 7.5 -26.5t7.5 -33.5q0 -37 -75 -62q-60 -21 -106 -21q-47 0 -47 61
q0 134 167 191q112 39 276 39q152 0 271 -38q172 -57 172 -182zM587 523q-34 -4 -62.5 -6t-53.5 -2q-26 0 -55.5 2.5t-63.5 7.5v-87q0 -39 58 -39h110q67 0 67 41v83zM633 203q0 35 -12.5 65.5t-35 52.5t-52.5 34.5t-66 12.5q-35 0 -65.5 -12.5t-53 -34.5t-35 -52.5
t-12.5 -65.5t13 -65t35.5 -51.5t52.5 -34t65 -12.5t65 12t52.5 34t35.5 52t13 65z" />
    <glyph glyph-name="uni260F" unicode="&#x260f;" horiz-adv-x="940" 
d="M918 391q0 -32 -15 -50.5t-40 -18.5q-45 0 -103 19q-37 11 -58 26t-21 34q0 13 9 36q5 11 7.5 17t2.5 11q0 11 -11.5 18t-28.5 9q-13 1 -13 -14v-22q0 -68 30 -119q7 -12 23 -31.5t41 -46.5q22 -23 36.5 -45.5t22.5 -43.5q8 -17 12 -46q3 -17 5.5 -29t4.5 -17
q1 -7 12 -25q8 -14 8 -25q0 -23 -19.5 -40.5t-57.5 -17.5h-632q-25 0 -34.5 13.5t-9.5 36.5q0 17 9 32q5 8 8.5 15t4.5 12q2 14 5 27t6 27q5 19 10.5 34t12.5 26q12 19 60 70q22 22 37 41t23 35q28 49 28 115v37q0 9 -8 9q-16 0 -28 -10.5t-12 -26.5q0 -8 7.5 -26.5
t7.5 -33.5q0 -19 -21 -36.5t-59 -30.5q-60 -21 -106 -21q-23 0 -37.5 17.5t-14.5 48.5q0 67 44 117t128 79q112 39 276 39q152 0 271 -38q87 -29 132 -76.5t45 -110.5zM885 386q0 114 -161 168q-107 37 -253 37q-142 0 -258 -38q-162 -54 -162 -170q0 -43 29 -43q30 0 86 18
q66 21 66 45q0 5 -9 25q-9 21 -9 36q0 25 28 44q29 20 58 20q24 0 24 -47q0 -57 -12.5 -104t-41.5 -83q-23 -29 -47.5 -54.5t-47.5 -53.5q-16 -18 -25 -56q-3 -14 -6 -29t-6 -29q-2 -9 -12 -28q-7 -13 -7 -26q0 -21 23 -21h616q52 0 52 32q0 14 -8 30q-6 13 -9.5 20.5
t-4.5 9.5q-2 14 -5.5 35t-13.5 48q-8 22 -24.5 43.5t-38.5 44.5q-49 54 -62 78q-28 52 -28 134q0 50 28 50q27 0 54 -12q34 -15 34 -39q0 -16 -10 -36t-10 -33q0 -21 61 -39q52 -15 81 -15q31 0 31 38zM587 440q0 -41 -67 -41h-110q-58 0 -58 39v87q34 -5 63.5 -7.5
t55.5 -2.5q25 0 53.5 2t62.5 6v-83zM633 203q0 -35 -13 -65t-35.5 -52t-52.5 -34t-65 -12t-65 12.5t-52.5 34t-35.5 51.5t-13 65t12.5 65.5t35 52.5t53 34.5t65.5 12.5q36 0 66 -12.5t52.5 -34.5t35 -52.5t12.5 -65.5zM557 497q-32 -7 -87 -7q-27 0 -48 2t-41 7v-52
q0 -22 37 -22h101q38 0 38 23v49zM599 204q0 27 -9.5 51.5t-26.5 43.5t-41 30t-54 11t-55 -10.5t-42.5 -29t-27 -43.5t-9.5 -53q0 -29 9 -53.5t26 -42.5t41 -28.5t55 -10.5q30 0 54.5 10.5t42 29t27.5 43t10 52.5z" />
    <glyph glyph-name="uni261C" unicode="&#x261c;" horiz-adv-x="940" 
d="M780 187v21h-26q-13 -6 -25.5 -12t-25.5 -11q-26 -11 -54.5 -19t-60.5 -13q-31 -4 -112 -3q-74 2 -77 3q-20 0 -36 9q-19 10 -19 29q0 20 16 26q-22 0 -32 16q-6 9 -6 18q0 14 11 28q-12 0 -23.5 10t-12.5 22q0 36 81 39l-3 8q-23 1 -65 3t-103 5q-74 3 -75 4
q-49 7 -46 40q2 27 50 32q17 2 33 2t32 1q46 2 115.5 3.5t166.5 1.5q89 0 116 -3q75 -11 124 -55q2 -3 59 -5v31h73v-231h-75zM782 370q-1 0 -6.5 0.5l-16.5 1.5q-6 1 -11 1h-10q4 -9 4 -16q0 -3 -2 -3t-20 19q-22 21 -44 35q-43 28 -159 28q-18 0 -21 -1q-42 -9 -65 -24
q-11 -6 -21 -25q-11 -20 -20 -26q-1 -1 2.5 -4t10.5 -3t18 3q9 4 25 18q16 15 19 15q2 0 3 -1q3 -6 -4 -15q0 -2 17 -4q16 -2 24 0q5 2 11.5 4t13.5 6q13 7 14 7q2 0 2 -1q2 -10 -14 -23q5 -5 10.5 -10t11.5 -10q24 -21 55 -31q25 -7 65 -12q26 -5 26 -9q0 -6 -31 -5
q-30 2 -55 9q-41 12 -72 39l-26 26q-17 -3 -22 -3q-24 0 -42 7l-14 -13q8 -2 15.5 -3.5t14.5 -3.5q31 -9 33 -17q3 -8 3 -13q0 -14 -14 -28q9 0 20.5 -11.5t11.5 -20.5q0 -14 -16 -26q11 -3 16 -7q15 -9 16 -22q1 -18 -13 -32h4t8 -1h12t10 1q36 2 72 11.5t73 25.5
q55 22 58 27v-11q1 -1 20 0v151zM445 435q-61 0 -121.5 -1t-121.5 -3q-28 -1 -46.5 -2t-26.5 -3q-26 -5 -27 -19q0 -15 23 -21q17 -3 77 -6q39 -2 84.5 -3.5t99.5 -3.5q3 4 8 11.5t12 18.5q10 18 39 32zM839 401h-43v-198h43v198zM480 293q9 7 9 17q0 19 -28 23q-36 7 -87 3
q-34 1 -53 -12q-6 -5 -6 -12q0 -20 23 -20q2 -2 56 -2q78 0 86 3zM506 253q0 23 -44 23h-96q-10 0 -18.5 -7.5t-8.5 -15.5q0 -12 14 -20q2 -1 15.5 -2t36.5 -2q43 -2 48 0q17 0 30 4q22 6 23 16v4zM522 197q-3 17 -31 17h-48h-26.5t-35.5 -1q-19 -1 -19 -20q0 -16 13 -20
q16 -5 63 -6q45 0 47 2q11 0 23 6q17 9 14 22z" />
    <glyph glyph-name="uni261E" unicode="&#x261e;" horiz-adv-x="940" 
d="M158 418v-31q55 1 59 5q49 44 124 55q27 3 116 3q97 0 166.5 -1.5t115.5 -3.5q16 -1 32 -1t33 -2q48 -5 50 -32q3 -33 -46 -40q-1 -1 -75 -4q-61 -3 -103 -5t-65 -3l-3 -8q81 -3 81 -39q-1 -12 -12.5 -22t-23.5 -10q11 -14 11 -28q0 -9 -6 -18q-10 -16 -32 -16
q16 -6 16 -26q0 -19 -19 -29q-17 -9 -36 -9q-3 -1 -77 -3q-81 -1 -112 3q-59 9 -115 32q-13 5 -25.5 11t-25.5 12h-26v-21h-75v231h73zM158 219q19 -1 20 0v11q2 -5 58 -27q37 -16 73 -25.5t72 -11.5q5 -1 10 -1h12q5 1 8 1h4q-14 14 -13 32q1 13 16 22q5 4 16 7
q-16 12 -16 26q0 9 11.5 20.5t20.5 11.5q-14 14 -14 28q0 5 3 13q2 8 33 17q7 2 14.5 3.5t15.5 3.5l-14 13q-18 -7 -42 -7q-6 0 -22 3l-26 -26q-32 -27 -72 -39q-25 -7 -55 -9q-31 -1 -31 5q0 4 26 9q40 5 65 12q31 10 55 31q6 5 11.5 10t10.5 10q-16 13 -14 23q0 1 2 1
q1 0 14 -7q7 -4 13.5 -6t11.5 -4q7 -2 24 0t17 4q-7 9 -4 15q1 1 3 1t19 -15q16 -14 25 -18q10 -3 18 -3q7 0 10.5 3t2.5 4q-9 6 -20 26q-10 19 -21 25q-23 15 -65 24q-3 1 -21 1q-116 0 -159 -28q-23 -14 -44 -35q-18 -19 -20 -19t-2 3q0 7 4 16h-10t-11 -1l-16.5 -1.5
t-6.5 -0.5v-151zM495 435q29 -14 39 -32q7 -11 12 -18.5t8 -11.5q54 2 99.5 3.5t84.5 3.5q60 3 77 6q23 6 23 21q-1 14 -27 19q-8 2 -26.5 3t-46.5 2q-61 2 -121.5 3t-121.5 1zM144 401h-43v-198h43v198zM460 293q7 -3 86 -3q54 0 56 2q23 0 23 20q0 7 -6 12q-19 13 -53 12
q-51 4 -87 -3q-28 -4 -28 -23q0 -10 9 -17zM434 249q1 -10 23 -16q13 -4 30 -4q4 -2 48 0q23 1 36.5 2t15.5 2q14 8 14 20q0 8 -8.5 15.5t-18.5 7.5h-96q-44 0 -44 -23v-4zM418 197q-3 -13 14 -22q12 -6 23 -6q2 -2 47 -2q46 1 63 6q13 4 13 20q0 19 -19 20q-20 1 -35.5 1
h-26.5h-48q-28 0 -31 -17z" />
    <glyph glyph-name="female" unicode="&#x2640;" horiz-adv-x="630" 
d="M544 496q0 -40 -14 -76.5t-38 -65.5t-56.5 -50t-69.5 -30v-110h174v-96h-174v-192h-102v192h-173v96h173v110q-39 8 -71.5 28.5t-56.5 49.5t-37.5 66t-13.5 78q0 49 17.5 90.5t48 72.5t72.5 48.5t91 17.5t91 -18t73 -48.5t48.5 -72.5t17.5 -90zM443 496q0 28 -10 53
t-27.5 43.5t-41 29t-50.5 10.5t-50.5 -10t-41 -28t-27.5 -43t-10 -55q0 -31 10 -56.5t27.5 -43.5t41 -27.5t50.5 -9.5t51 10.5t41 28.5t27 43t10 55z" />
    <glyph glyph-name="male" unicode="&#x2642;" horiz-adv-x="630" 
d="M363 325q43 -9 77 -30.5t57.5 -51.5t35.5 -66t12 -75q0 -50 -18.5 -92t-50.5 -72.5t-74 -47.5t-88 -17t-87.5 17t-73 47.5t-50 72.5t-18.5 92q0 37 11.5 73t33.5 66.5t54.5 52t75.5 30.5v208l-108 -118l-70 62l232 259l213 -261l-70 -69l-94 117v-197zM448 103
q0 28 -9.5 53t-27 43t-42 28.5t-54.5 10.5q-29 0 -53.5 -10.5t-42 -28.5t-27.5 -42.5t-10 -53.5q0 -30 10 -55t27.5 -43t42 -28t53.5 -10q30 0 54.5 10.5t42 28.5t27 43t9.5 54z" />
    <glyph glyph-name="spade" unicode="&#x2660;" horiz-adv-x="940" 
d="M603 -126h-266v49q7 13 14 31t13.5 38t11.5 40t8 37q-29 -18 -60 -27.5t-50 -9.5q-69 0 -107 44.5t-38 115.5q0 84 87.5 223t253.5 317q166 -178 253.5 -317t87.5 -223q0 -71 -38 -115.5t-107 -44.5q-20 0 -49.5 9.5t-60.5 27.5q5 -35 18.5 -76.5t28.5 -69.5v-49z" />
    <glyph glyph-name="uni2661" unicode="&#x2661;" horiz-adv-x="940" 
d="M467 -80q-91 55 -163 125t-121.5 144.5t-76 148.5t-26.5 137q0 46 12.5 85t37 66.5t61 43t84.5 15.5q66 0 115.5 -33t76.5 -99q27 66 76.5 99t115.5 33q48 0 84.5 -15.5t60.5 -43t36.5 -66.5t12.5 -85q0 -63 -25 -135.5t-73.5 -146t-121 -144.5t-166.5 -129zM169 471
q0 -44 13.5 -90.5t36 -91.5t52.5 -87.5t63 -79t67.5 -65t65.5 -46.5q46 27 98.5 77.5t96.5 113.5t73 133t29 136q0 67 -27 104.5t-82 37.5q-44 0 -76 -33.5t-48 -80.5q-9 -23 -22.5 -40t-40.5 -17q-29 0 -42.5 17t-22.5 40q-16 47 -48 80.5t-76 33.5q-55 0 -82.5 -37.5
t-27.5 -104.5z" />
    <glyph glyph-name="club" unicode="&#x2663;" horiz-adv-x="940" 
d="M337 -76q15 29 29 59t22 63q3 13 2.5 17.5t-3.5 5.5q-6 2 -15.5 -6t-17.5 -14q-14 -11 -27.5 -19t-27.5 -13t-30 -7.5t-35 -2.5q-41 0 -74.5 15.5t-57 42t-36.5 62t-13 74.5q0 40 13.5 74.5t37 60.5t55.5 41t70 15q27 0 58.5 -9t63.5 -27q5 -3 12.5 -5t11.5 5t0 11.5
t-9 9.5q-23 21 -39.5 39t-27.5 38t-16.5 43t-5.5 54q0 39 16 71t43 55t61.5 35.5t72.5 12.5q37 0 72 -12.5t62 -35.5t43 -55t16 -71q0 -31 -6 -54.5t-17 -43.5t-28.5 -38t-39.5 -39q-5 -5 -8 -9t1 -11t11.5 -5t12.5 5q32 18 63.5 27t58.5 9q37 0 69.5 -15t56 -41t37 -60.5
t13.5 -74.5q0 -39 -13 -74.5t-36.5 -62t-57 -42t-74.5 -15.5q-39 0 -65.5 9.5t-54.5 32.5q-8 6 -17.5 13.5t-15.5 6.5q-5 -1 -4.5 -5.5t3.5 -17.5q8 -33 22 -63t29 -59v-41h-266v41z" />
    <glyph glyph-name="uni2664" unicode="&#x2664;" horiz-adv-x="940" 
d="M724 193q0 26 -12.5 60.5t-32.5 73t-46.5 79t-55 78.5t-56.5 71.5t-51 59.5q-23 -25 -51 -59t-56.5 -72t-55 -78.5t-46.5 -79t-32.5 -73t-12.5 -60.5q0 -35 12 -60.5t46 -25.5q19 0 38.5 8t56.5 31q11 6 22 10.5t24 4.5q20 0 31 -12t11 -42q0 -34 -8.5 -77.5t-20.5 -78.5
v-6h84v6q-13 35 -21.5 78t-8.5 78q0 30 11.5 42t31.5 12q13 0 24 -4.5t22 -10.5q37 -23 59 -31t36 -8q34 0 46 25.5t12 60.5zM603 -126h-266v49q7 13 14 31t13.5 38t11.5 40t8 37q-29 -18 -60 -27.5t-50 -9.5q-69 0 -107 44.5t-38 115.5q0 84 87.5 223t253.5 317
q166 -178 253.5 -317t87.5 -223q0 -71 -38 -115.5t-107 -44.5q-20 0 -49.5 9.5t-60.5 27.5q5 -35 18.5 -76.5t28.5 -69.5v-49z" />
    <glyph glyph-name="heart" unicode="&#x2665;" horiz-adv-x="940" 
d="M467 -80q-91 55 -163 125t-121.5 144.5t-76 148.5t-26.5 137q0 46 12.5 85t37 66.5t61 43t84.5 15.5q66 0 115.5 -33t76.5 -99q27 66 76.5 99t115.5 33q48 0 84.5 -15.5t60.5 -43t36.5 -66.5t12.5 -85q0 -63 -25 -135.5t-73.5 -146t-121 -144.5t-166.5 -129z" />
    <glyph glyph-name="uni2667" unicode="&#x2667;" horiz-adv-x="940" 
d="M509 -42q-15 35 -22.5 78.5t-7.5 78.5q0 27 12.5 40.5t32.5 13.5q26 0 47 -19q29 -27 58.5 -46.5t68.5 -19.5q25 0 45 9.5t34 26t22 38.5t8 47q0 23 -8 44t-21.5 37.5t-33 26.5t-41.5 10q-36 0 -80 -22q-14 -8 -31.5 -14t-35 -7t-33.5 5t-27 21q-19 26 -13.5 53t27.5 49
q19 19 33 34.5t23 31t13 32.5t4 41q0 48 -31.5 77t-81.5 29t-81 -29t-31 -77q0 -24 4 -41t12.5 -32.5t22 -31t33.5 -34.5q20 -20 26 -50t-12 -54q-11 -14 -26.5 -19.5t-33 -5t-35 6.5t-32.5 15q-44 22 -80 22q-23 0 -42 -10t-32.5 -26.5t-21.5 -37.5t-8 -44q0 -25 7.5 -47
t22 -38.5t34.5 -26t45 -9.5q39 0 68.5 19.5t58.5 46.5q21 19 47 19q20 0 32.5 -13.5t12.5 -40.5q0 -17 -2 -37t-6 -41t-9.5 -41t-12.5 -38v-2h78v2zM337 -76q15 29 29 59t22 63q3 13 2.5 17.5t-3.5 5.5q-6 2 -15.5 -6t-17.5 -14q-14 -11 -27.5 -19t-27.5 -13t-30 -7.5
t-35 -2.5q-41 0 -74.5 15.5t-57 42t-36.5 62t-13 74.5q0 40 13.5 74.5t37 60.5t55.5 41t70 15q27 0 58.5 -9t63.5 -27q5 -3 12.5 -5t11.5 5t0 11.5t-9 9.5q-23 21 -39.5 39t-27.5 38t-16.5 43t-5.5 54q0 39 16 71t43 55t61.5 35.5t72.5 12.5q37 0 72 -12.5t62 -35.5t43 -55
t16 -71q0 -31 -6 -54.5t-17 -43.5t-28.5 -38t-39.5 -39q-5 -5 -8 -9t1 -11t11.5 -5t12.5 5q32 18 63.5 27t58.5 9q37 0 69.5 -15t56 -41t37 -60.5t13.5 -74.5q0 -39 -13 -74.5t-36.5 -62t-57 -42t-74.5 -15.5q-39 0 -65.5 9.5t-54.5 32.5q-8 6 -17.5 13.5t-15.5 6.5
q-5 -1 -4.5 -5.5t3.5 -17.5q8 -33 22 -63t29 -59v-41h-266v41z" />
    <glyph glyph-name="uni2668" unicode="&#x2668;" horiz-adv-x="940" 
d="M665 248q0 -45 -36 -114q-20 -39 -32 -67t-14 -45h-13q-8 32 -8 55q0 17 3 40t10 51q7 31 10.5 53.5t3.5 38.5q0 43 -22 109t-22 106q0 22 33 91q17 38 27.5 63t13.5 37h11q7 -14 7 -47q0 -12 -2 -30t-6 -42q-4 -23 -6 -41t-2 -31q0 -48 22 -115t22 -112zM538 260
q0 -51 -38 -125q-25 -48 -39.5 -77.5t-18.5 -43.5h-15q-2 10 -3.5 21.5t-1.5 25.5q0 38 19 95q19 58 19 97t-24 113q-24 73 -24 111q0 48 33 119q36 73 39 116h13q18 -38 18 -75q0 -27 -15 -79q-15 -51 -15 -76q0 -29 26 -109q27 -74 27 -113zM397 248q0 -44 -36 -113
q-20 -38 -32 -66.5t-14 -45.5h-12q-9 19 -9 56q0 39 13 90q7 28 10 51t3 41q0 38 -21 109q-20 78 -20 107q0 21 32 90q17 35 27.5 60t12.5 40h11q6 -20 6 -47q0 -13 -2 -31.5t-6 -43.5t-6 -43t-2 -31q0 -46 22 -113q23 -80 23 -110zM872 90q0 -42 -20.5 -73t-54.5 -54
t-77 -37.5t-89 -23.5t-90.5 -12.5t-80.5 -3.5q-33 0 -74.5 3.5t-85 12t-85.5 22.5t-74.5 35.5t-52.5 50.5t-20 68q0 34 22 62.5t54 50.5t69.5 36.5t69.5 20.5l4 -13q-19 -6 -44.5 -20t-49 -32.5t-39.5 -39.5t-16 -41q0 -27 17.5 -46.5t45 -33t63 -21.5t71 -12t68.5 -5.5
t57 -1.5q25 0 60.5 1.5t74 6t76.5 13t68.5 23t49.5 35.5t19 51q0 28 -29 58.5t-92 56.5l7 12q26 -5 57 -18.5t58 -33t45 -44.5t18 -53z" />
    <glyph glyph-name="uni2669" unicode="&#x2669;" horiz-adv-x="400" 
d="M294 70q0 -29 -13 -57.5t-34.5 -51t-49 -37t-57.5 -14.5q-76 0 -76 66q0 20 11 39t30 34t43 24.5t50 9.5q9 0 12.5 -0.5t5.5 -0.5q5 0 8.5 2.5t3.5 13.5v618h66v-646z" />
    <glyph glyph-name="musicalnote" unicode="&#x266a;" horiz-adv-x="600" 
d="M283 70q0 -29 -13 -57.5t-34.5 -51t-49 -37t-57.5 -14.5q-76 0 -76 66q0 20 11 39t30 34t43 24.5t50 9.5q9 0 12.5 -0.5t5.5 -0.5q5 0 8.5 2.5t3.5 13.5v615h38q29 -50 70 -88.5t95 -76.5q32 -23 55.5 -45.5t39.5 -48t23.5 -56t7.5 -67.5q0 -38 -11.5 -71.5t-32 -64
t-48.5 -57.5t-60 -51l-20 21q55 62 74 111.5t19 87.5q0 20 -7 39.5t-25 36.5q-21 21 -40.5 34.5t-38 26.5t-36.5 26.5t-37 34.5v-435v0z" />
    <glyph glyph-name="uni266C" unicode="&#x266c;" horiz-adv-x="840" 
d="M736 178q0 -29 -13 -57.5t-34.5 -51t-49 -37t-57.5 -14.5q-76 0 -76 66q0 20 11 39t30 34t43 24.5t50 9.5q9 0 12.5 -0.5t5.5 -0.5q5 0 8.5 2.5t3.5 13.5v230l-381 -82v-284q0 -29 -13 -57.5t-34.5 -51t-49 -37t-57.5 -14.5q-76 0 -76 66q0 20 11 39t30 34t43 24.5
t50 9.5q9 0 12.5 -0.5t5.5 -0.5q5 0 8.5 2.5t3.5 13.5v531l513 109v-560zM670 603l-381 -85v-45l381 89v41z" />
    <glyph glyph-name="uni266D" unicode="&#x266d;" horiz-adv-x="580" 
d="M482 302q0 -77 -31.5 -139t-84.5 -105.5t-123 -68t-147 -26.5v728h116v-297q27 26 56.5 39t68.5 13q74 0 109.5 -39t35.5 -105zM360 271q0 33 -9.5 52.5t-37.5 19.5q-18 0 -33.5 -9t-29 -23t-23 -31.5t-15.5 -34.5v-168q69 23 108.5 73.5t39.5 120.5z" />
    <glyph glyph-name="uni3001" unicode="&#x3001;" horiz-adv-x="940" 
d="M61 25v101l238 -97v-155z" />
    <glyph glyph-name="uni3002" unicode="&#x3002;" horiz-adv-x="940" 
d="M311 0q0 -25 -9 -46.5t-24.5 -37t-37.5 -24.5t-47 -9q-24 0 -45.5 9t-37.5 24.5t-25.5 37t-9.5 46.5q0 26 9.5 47.5t25.5 37.5t37.5 24.5t45.5 8.5t45.5 -9t37.5 -24.5t25.5 -37.5t9.5 -47zM255 0q0 31 -18 49t-44 18t-44 -18t-18 -49t18 -48.5t44 -17.5t44 17.5t18 48.5
z" />
    <glyph glyph-name="uni3003" unicode="&#x3003;" horiz-adv-x="940" 
d="M521 124h-71l90 332h128zM347 124h-71l90 332h128z" />
    <glyph glyph-name="uni3008" unicode="&#x3008;" horiz-adv-x="550" 
d="M197 300l302 -368l-69 -54l-347 422l347 421l68 -55z" />
    <glyph glyph-name="uni3009" unicode="&#x3009;" horiz-adv-x="550" 
d="M49 666l68 55l347 -421l-347 -422l-69 54l302 368z" />
    <glyph glyph-name="uni300A" unicode="&#x300a;" horiz-adv-x="600" 
d="M172 300l249 -382l-70 -40l-276 422l276 422l70 -40zM310 300l251 -381l-70 -40l-278 421l276 421l70 -40z" />
    <glyph glyph-name="uni300B" unicode="&#x300b;" horiz-adv-x="600" 
d="M189 682l70 40l276 -422l-276 -422l-70 40l249 382zM51 681l70 40l276 -421l-278 -421l-70 40l251 381z" />
    <glyph glyph-name="uni300C" unicode="&#x300c;" horiz-adv-x="450" 
d="M406 654h-201v-344h-111v436h312v-92z" />
    <glyph glyph-name="uni300D" unicode="&#x300d;" horiz-adv-x="450" 
d="M44 -53h201v354h111v-446h-312v92z" />
    <glyph glyph-name="uni300E" unicode="&#x300e;" horiz-adv-x="450" 
d="M406 606h-158v-296h-154v434h312v-138zM343 662v22h-186v-315h27v293h159z" />
    <glyph glyph-name="uni300F" unicode="&#x300f;" horiz-adv-x="450" 
d="M43 -3h158v304h154v-445h-312v141zM106 -62v-23h186v327h-27v-304h-159z" />
    <glyph glyph-name="uni3010" unicode="&#x3010;" horiz-adv-x="460" 
d="M105 -129v859h326q-45 -37 -78.5 -85.5t-55 -104t-32.5 -116.5t-11 -122q0 -62 10.5 -123t32 -117t55 -105t79.5 -86h-326z" />
    <glyph glyph-name="uni3011" unicode="&#x3011;" horiz-adv-x="460" 
d="M30 -129q46 37 79.5 86t55 105t32 117t10.5 123q0 61 -11 122t-32.5 116.5t-55 104t-78.5 85.5h326v-859h-326z" />
    <glyph glyph-name="uni3013" unicode="&#x3013;" horiz-adv-x="940" 
d="M46 368v90h849v-90h-849zM46 129v90h849v-90h-849z" />
    <glyph glyph-name="uni3014" unicode="&#x3014;" horiz-adv-x="500" 
d="M399 -90l-34 -77l-236 102v731l237 104l33 -77l-171 -78v-629z" />
    <glyph glyph-name="uni3015" unicode="&#x3015;" horiz-adv-x="500" 
d="M282 -14v629l-171 78l33 77l237 -104v-731l-236 -102l-34 77z" />
    <glyph glyph-name="uni3041" unicode="&#x3041;" horiz-adv-x="760" 
d="M87 455q36 -2 72.5 -2.5t73.5 0.5q3 55 9 111h102q-4 -27 -6 -53.5t-4 -53.5q57 4 117.5 9.5t126.5 13.5v-95q-63 -8 -124.5 -13.5t-123.5 -8.5v-34t1 -34q28 6 55.5 9.5t54.5 3.5q54 0 103 -10.5t87 -35.5t60.5 -65t22.5 -99q0 -53 -21 -92t-56 -65.5t-80.5 -43
t-94.5 -24.5l-20 88q27 5 58.5 14.5t58 25.5t44 39.5t17.5 57.5t-17 62t-51 45q-36 -69 -81.5 -125t-94.5 -96q4 -14 7.5 -27.5t8.5 -27.5l-90 -39l-12 39q-23 -11 -48.5 -17t-48.5 -6q-25 0 -48.5 7t-41.5 23t-29 42.5t-11 65.5q0 38 13 71t36.5 60.5t54.5 49.5t67 38
q-3 48 -3 97q-36 -1 -72 -1t-72 2v94zM197 -1q32 0 70 22q-15 73 -24 147q-35 -22 -57.5 -52.5t-22.5 -68.5q0 -26 10 -37t24 -11zM353 91q31 32 57 67.5t45 67.5h-2q-54 0 -116 -17q3 -30 7 -59.5t9 -58.5z" />
    <glyph glyph-name="uni3042" unicode="&#x3042;" 
d="M113 579q39 -2 81 -2.5t87 0.5q3 73 12 146h110q-5 -36 -8 -72t-5 -72q77 2 153 8t147 15v-95q-153 -18 -304 -24q-1 -22 -0.5 -43t0.5 -43q70 15 139 15q58 0 118 -13t109 -42.5t79.5 -78t30.5 -119.5q0 -62 -22.5 -108.5t-61.5 -79.5t-92 -53.5t-114 -31.5l-29 101
q37 7 74 18.5t67 31t48.5 49t18.5 73.5q0 29 -9.5 52t-25 40.5t-36.5 29.5t-44 20q-16 -38 -37.5 -77.5t-48 -77.5t-56.5 -73t-63 -63q5 -25 10.5 -49.5t12.5 -49.5l-104 -27q-4 16 -7.5 31t-7.5 30q-56 -28 -111 -28q-79 0 -121 50.5t-42 131.5q0 47 17 87.5t46.5 73.5
t69.5 59t86 45q-2 29 -2.5 58.5t0.5 58.5q-42 -1 -82.5 -0.5t-82.5 2.5v96zM229 19q20 0 41.5 7t43.5 20q-10 53 -16.5 106.5t-11.5 107.5q-52 -28 -85 -68t-33 -92q0 -32 14.5 -56.5t46.5 -24.5zM410 128q36 41 66.5 89.5t53.5 100.5q-70 0 -139 -18q3 -44 7.5 -86.5
t11.5 -85.5z" />
    <glyph glyph-name="uni3043" unicode="&#x3043;" horiz-adv-x="720" 
d="M403 103q-24 -53 -45.5 -88.5t-42.5 -56.5t-42 -29.5t-43 -8.5q-50 0 -81 26t-48.5 68.5t-24 96.5t-6.5 110q0 67 7 125.5t13 93.5l109 -9q-3 -17 -6.5 -43t-6.5 -56t-5 -63t-2 -64q0 -35 2 -66.5t7 -55.5t15 -38.5t27 -14.5q21 0 38 27t45 90zM558 -6q-6 40 -14 85
t-21 92t-31 94.5t-44 92.5l101 47q57 -94 82 -188t33 -185z" />
    <glyph glyph-name="uni3044" unicode="&#x3044;" horiz-adv-x="800" 
d="M442 173q-39 -125 -87.5 -185.5t-103.5 -60.5q-58 0 -93 36.5t-54 95t-25.5 133t-6.5 149.5q0 73 4.5 142t11.5 143l121 -9q-2 -13 -4.5 -41.5t-5.5 -68t-5 -86t-2 -95.5q0 -53 1.5 -103.5t7.5 -90t17.5 -64t31.5 -24.5t42.5 43t45.5 121zM630 42q-8 124 -36.5 247.5
t-90.5 245.5l106 40q73 -125 103 -251t35 -252z" />
    <glyph glyph-name="uni3045" unicode="&#x3045;" horiz-adv-x="600" 
d="M183 -26q45 12 88.5 25.5t77 34t54.5 51t21 77.5q0 57 -27.5 79.5t-75.5 22.5q-29 0 -61 -6t-63 -16t-60 -21.5t-53 -22.5l-29 103q56 28 125 47t140 19q46 0 86.5 -10.5t69.5 -34.5t46 -63.5t17 -96.5q0 -65 -27.5 -111.5t-72.5 -80t-103.5 -55.5t-120.5 -37zM438 420
q-36 4 -75.5 9t-80.5 12t-81 15.5t-77 19.5l28 98q32 -11 70 -19.5t77.5 -15.5t78.5 -12t73 -9z" />
    <glyph glyph-name="uni3046" unicode="&#x3046;" horiz-adv-x="700" 
d="M210 -31q54 9 109.5 24.5t100.5 43t73.5 72t28.5 112.5q0 72 -40.5 102.5t-106.5 30.5q-36 0 -74.5 -6.5t-75.5 -16t-72 -21.5t-63 -24l-32 110q68 27 148.5 46.5t161.5 19.5q60 0 110 -12.5t86 -41t56.5 -74.5t20.5 -113q0 -84 -31.5 -145.5t-86 -104t-128.5 -68.5
t-158 -39zM520 531q-42 4 -88 10.5t-93.5 14.5t-93.5 18.5t-88 23.5l32 104q37 -12 81 -22t90 -18t91.5 -13.5t85.5 -9.5z" />
    <glyph glyph-name="uni3047" unicode="&#x3047;" horiz-adv-x="670" 
d="M47 -19q89 73 162.5 139t140.5 144q-55 -7 -112.5 -9.5t-128.5 -3.5l-4 100q82 1 167 5t182 15l59 -70q-35 -44 -70 -84t-72 -78q4 0 7.5 0.5t7.5 0.5q33 0 56 -20t28 -69q1 -17 4 -27.5t8 -16t13.5 -7t21.5 -1.5q32 0 63 1.5t68 6.5v-101q-36 -4 -68 -5t-65 -1
q-45 0 -72 9.5t-42 26.5t-21.5 40.5t-10.5 51.5q-2 11 -6.5 19t-18.5 8q-11 0 -29 -3.5t-46 -15.5q-35 -33 -71.5 -66.5t-74.5 -68.5zM465 421q-36 4 -75.5 9t-80.5 12t-81 15.5t-77 19.5l28 98q32 -11 70 -19.5t77.5 -15.5t78.5 -12t73 -9z" />
    <glyph glyph-name="uni3048" unicode="&#x3048;" horiz-adv-x="820" 
d="M620 408q-42 -57 -85.5 -109.5t-89.5 -103.5q3 1 6.5 1h6.5q42 0 72 -26.5t38 -89.5q3 -23 6 -39t9.5 -25.5t18.5 -14t33 -4.5q43 0 83.5 3.5t86.5 9.5v-107q-80 -9 -176 -9q-58 0 -92 11.5t-52.5 33t-26 52t-13.5 68.5q-2 15 -8.5 31.5t-29.5 16.5q-11 0 -24.5 -3
t-33.5 -11q-51 -53 -104.5 -104.5t-110.5 -105.5l-78 80q117 100 212.5 199t178.5 208q-84 -11 -161 -14.5t-162 -3.5v108q52 0 103.5 1.5t104.5 5.5t108.5 9.5t116.5 13.5zM547 533q-42 4 -88 10.5t-93.5 14.5t-93.5 18.5t-88 23.5l32 104q37 -12 81 -22t90 -18t91.5 -13.5
t85.5 -9.5z" />
    <glyph glyph-name="uni3049" unicode="&#x3049;" horiz-adv-x="760" 
d="M61 30q0 34 13.5 65.5t38 58.5t58 49.5t74.5 38.5v91q-76 0 -155 3v93q40 -2 78.5 -2.5t76.5 0.5v129h104v-125q61 3 131 9v-95q-69 -6 -131 -9v-65q23 4 47 6t49 2q47 0 90.5 -12t77.5 -36.5t54 -62.5t20 -89q0 -39 -10 -71.5t-31 -56t-52 -37t-73 -13.5
q-32 0 -62.5 7.5t-62.5 27.5l35 83q29 -11 50 -16t43 -5q29 0 44 23.5t15 58.5q0 27 -11 47.5t-30 34t-44 20.5t-53 7q-20 0 -45 -3t-51 -10v-163q0 -32 -11.5 -56t-31.5 -40t-47.5 -24.5t-58.5 -8.5q-32 0 -57.5 11t-43.5 30.5t-28 46t-10 58.5zM635 253q-10 24 -23 49.5
t-27 50.5t-28.5 48t-28.5 41l82 50q16 -18 32 -41.5t31 -48.5t28 -49t22 -45zM200 -21q21 0 33 13.5t12 38.5v107q-35 -20 -57.5 -46t-22.5 -60q0 -25 7.5 -39t27.5 -14z" />
    <glyph glyph-name="uni304A" unicode="&#x304a;" horiz-adv-x="880" 
d="M561 459q-90 -9 -180 -12v-103q40 9 79 13.5t75 4.5q54 0 104.5 -13.5t89.5 -41t62.5 -70.5t23.5 -102q0 -49 -15 -90.5t-44 -72t-72 -47.5t-100 -17q-32 0 -64 5t-67 19l22 98q35 -14 59.5 -17t47.5 -3q54 0 88 32t34 93q0 34 -15 58t-39 39.5t-54 23t-61 7.5
q-32 0 -72 -4t-82 -14v-213q0 -38 -13 -64.5t-35 -43.5t-50.5 -24.5t-59.5 -7.5q-80 0 -120.5 43t-40.5 123q0 46 16.5 85t45 70.5t67 55.5t82.5 42v134q-83 0 -165 3v97q42 -2 82.5 -2.5t82.5 0.5v163h108v-160q44 2 88 5t92 7v-99zM721 386q-10 24 -24 51.5t-29 54.5
t-30.5 51t-28.5 41l91 48q15 -18 32 -43t33 -51.5t30 -52.5t23 -47zM224 -10q20 0 34.5 9.5t14.5 38.5v168q-46 -23 -75.5 -59t-29.5 -87q0 -29 11.5 -49.5t44.5 -20.5z" />
    <glyph glyph-name="uni304B" unicode="&#x304b;" horiz-adv-x="870" 
d="M381 695q-5 -46 -11 -90t-14 -89q70 3 117 -7.5t75.5 -39t41 -77.5t12.5 -122q0 -28 -1 -66t-6.5 -78.5t-17.5 -79.5t-34.5 -70t-57 -50t-85.5 -19q-31 0 -65 4t-66 15l17 103q33 -9 58.5 -12t52.5 -3q33 0 51.5 28.5t27.5 68.5t11 84t2 75q0 41 -3.5 69t-17 45
t-39.5 23.5t-71 4.5q-5 -1 -11 -1h-11q-27 -128 -68 -251.5t-101 -246.5l-105 45q55 109 93 218t64 224q-41 -5 -81.5 -12t-81.5 -14l-11 105q44 8 94.5 15t101.5 13q8 48 14.5 96.5t11.5 99.5zM712 151q-5 40 -12 85.5t-19 92.5t-29.5 95t-43.5 93l98 45q57 -94 82 -188
t33 -185z" />
    <glyph glyph-name="uni304C" unicode="&#x304c;" horiz-adv-x="940" 
d="M381 695q-5 -46 -11 -90t-14 -89q70 3 117 -7.5t75.5 -39t41 -77.5t12.5 -122q0 -28 -1 -66t-6.5 -78.5t-17.5 -79.5t-34.5 -70t-57 -50t-85.5 -19q-31 0 -65 4t-66 15l17 103q33 -9 58.5 -12t52.5 -3q33 0 51.5 28.5t27.5 68.5t11 84t2 75q0 41 -3.5 69t-17 45
t-39.5 23.5t-71 4.5q-5 -1 -11 -1h-11q-27 -128 -68 -251.5t-101 -246.5l-105 45q55 109 93 218t64 224q-41 -5 -81.5 -12t-81.5 -14l-11 105q44 8 94.5 15t101.5 13q8 48 14.5 96.5t11.5 99.5zM692 151q-5 40 -12 85.5t-19 92.5t-29.5 95t-43.5 93l98 45q57 -94 82 -188
t33 -185zM853 532q-5 19 -12 42.5t-16 47t-18 45.5t-17 37l71 22q9 -16 19.5 -38.5t20 -46t17 -46t12.5 -39.5zM739 532q-5 19 -12 42.5t-16 47t-18 45.5t-17 37l71 22q9 -16 19.5 -38.5t20 -46t17 -46t12.5 -39.5z" />
    <glyph glyph-name="uni304D" unicode="&#x304d;" horiz-adv-x="750" 
d="M61 564q57 1 120 4.5t129 8.5q-12 30 -24 62t-25 67l107 30q23 -73 54 -148q115 14 213 32l14 -94q-42 -8 -90 -14.5t-99 -13.5l18 -40l18 -40q59 7 111.5 14.5t94.5 15.5l14 -94q-73 -14 -176 -26q22 -45 45.5 -89t47.5 -87l-69 -58q-46 18 -92 27.5t-94 14.5l8 96
q28 -3 49 -5.5t42 -7.5q-14 23 -26.5 47t-25.5 49q-50 -5 -100.5 -9.5t-98.5 -8.5t-91.5 -6t-79.5 -3l-4 96q65 1 152 6.5t179 14.5q-8 20 -17 40t-18 41q-74 -7 -146.5 -11.5t-135.5 -6.5zM212 198q-12 -23 -22.5 -54.5t-10.5 -63.5q0 -26 8 -43.5t27.5 -28.5t53 -16
t84.5 -5q43 0 91 2.5t111 12.5l13 -100q-56 -8 -108.5 -11.5t-108.5 -3.5q-78 0 -133 11t-89.5 34.5t-50 59t-15.5 84.5q0 35 9.5 69t30.5 73z" />
    <glyph glyph-name="uni304E" unicode="&#x304e;" horiz-adv-x="900" 
d="M61 564q57 1 120 4.5t129 8.5q-12 30 -24 62t-25 67l107 30q23 -73 54 -148q115 14 213 32l14 -94q-42 -8 -90 -14.5t-99 -13.5l18 -40l18 -40q59 7 111.5 14.5t94.5 15.5l14 -94q-73 -14 -176 -26q22 -45 45.5 -89t47.5 -87l-69 -58q-46 18 -92 27.5t-94 14.5l8 96
q28 -3 49 -5.5t42 -7.5q-14 23 -26.5 47t-25.5 49q-50 -5 -100.5 -9.5t-98.5 -8.5t-91.5 -6t-79.5 -3l-4 96q65 1 152 6.5t179 14.5q-8 20 -17 40t-18 41q-74 -7 -146.5 -11.5t-135.5 -6.5zM212 198q-12 -23 -22.5 -54.5t-10.5 -63.5q0 -26 8 -43.5t27.5 -28.5t53 -16
t84.5 -5q43 0 91 2.5t111 12.5l13 -100q-56 -8 -108.5 -11.5t-108.5 -3.5q-78 0 -133 11t-89.5 34.5t-50 59t-15.5 84.5q0 35 9.5 69t30.5 73zM813 532q-5 19 -12 42.5t-16 47t-18 45.5t-17 37l71 22q9 -16 19.5 -38.5t20 -46t17 -46t12.5 -39.5zM699 532q-5 19 -12 42.5
t-16 47t-18 45.5t-17 37l71 22q9 -16 19.5 -38.5t20 -46t17 -46t12.5 -39.5z" />
    <glyph glyph-name="uni304F" unicode="&#x304f;" horiz-adv-x="620" 
d="M548 622q-74 -76 -157 -148.5t-158 -128.5q-17 -13 -24 -22t-7 -18q0 -8 7.5 -16.5t24.5 -22.5q32 -25 80 -63.5t99.5 -81.5t99.5 -85t80 -73l-91 -92q-44 47 -89.5 89t-92.5 82.5t-95.5 80t-99.5 82.5q-32 27 -46.5 51t-15.5 47q-1 26 16 49.5t53 53.5q44 36 86 70
t83 70t81 75t81 84z" />
    <glyph glyph-name="uni3050" unicode="&#x3050;" horiz-adv-x="740" 
d="M629 304q-5 20 -12 43t-15.5 46t-17.5 44t-18 38l84 25q10 -17 20 -39t19 -45t16.5 -46t12.5 -42zM548 622q-74 -76 -157 -148.5t-158 -128.5q-17 -13 -24 -22t-7 -18q0 -8 7.5 -16.5t24.5 -22.5q32 -25 80 -63.5t99.5 -81.5t99.5 -85t80 -73l-91 -92q-44 47 -89.5 89
t-92.5 82.5t-95.5 80t-99.5 82.5q-32 27 -46.5 51t-15.5 47q-1 26 16 49.5t53 53.5q44 36 86 70t83 70t81 75t81 84zM499 303q-5 20 -12 43.5t-15.5 46.5t-17.5 44.5t-18 38.5l85 24q10 -17 20 -39t19 -45t16.5 -46t12.5 -42z" />
    <glyph glyph-name="uni3051" unicode="&#x3051;" horiz-adv-x="860" 
d="M269 489q66 -3 130 -3t128 2q-1 69 -2 120t-2 93h117q1 -39 2 -89t2 -117q48 4 95 8.5t98 11.5v-102q-50 -6 -97 -11t-95 -8q0 -74 -7 -149t-34.5 -143t-83 -126t-153.5 -97l-53 98q73 26 115.5 69t64 97.5t27.5 117t6 126.5q-63 -3 -127 -2.5t-131 2.5v102zM77 -61
q-11 180 -7.5 361t28.5 378l119 -8q-14 -91 -21.5 -180t-9.5 -179.5t1 -182.5t9 -189h-119z" />
    <glyph glyph-name="uni3052" unicode="&#x3052;" 
d="M269 489q65 -3 127.5 -3t125.5 2q-1 69 -2 120t-2 93h117q1 -39 2 -89.5t2 -116.5q48 4 97 8.5t101 11.5v-102q-51 -7 -100 -11.5t-97 -8.5q0 -74 -6.5 -148.5t-33.5 -142.5t-82 -126t-152 -97l-53 98q73 26 115 69t62.5 97.5t26 117t5.5 126.5q-124 -4 -253 0v102z
M77 -61q-11 180 -7.5 361t28.5 378l119 -8q-14 -91 -21.5 -180t-9.5 -179.5t1 -182.5t9 -189h-119zM823 572q-5 19 -12 42.5t-16 47t-18 45.5t-17 37l71 22q9 -16 19.5 -38.5t20 -46t17 -46t12.5 -39.5zM709 572q-5 19 -12 42.5t-16 47t-18 45.5t-17 37l71 22
q9 -16 19.5 -38.5t20 -46t17 -46t12.5 -39.5z" />
    </font>
</defs>
</svg>
