<?xml version="1.0" standalone="no"?>
<!DOCTYPE svg PUBLIC "-//W3C//DTD SVG 1.1//EN" "http://www.w3.org/Graphics/SVG/1.1/DTD/svg11.dtd" >
<svg xmlns="http://www.w3.org/2000/svg" xmlns:xlink="http://www.w3.org/1999/xlink" version="1.1">
<metadata>
Created by FontForge 20170731 at Mon Oct  5 07:29:50 2020
 By Aleksey,,,
Copyright (c) Eland Retail. All Rights Reserved.
</metadata>
<defs>
<font id="ELANDChoiceL" horiz-adv-x="920" >
  <font-face 
    font-family="ELAND Choice Light"
    font-weight="400"
    font-stretch="normal"
    units-per-em="1000"
    panose-1="2 2 6 3 2 1 1 2 1 1"
    ascent="800"
    descent="-200"
    x-height="446"
    cap-height="660"
    bbox="-43 -264 940 800"
    underline-thickness="25"
    underline-position="-181"
    unicode-range="U+0020-FFE6"
  />
<missing-glyph horiz-adv-x="900" 
d="M50 -150v900h800v-900h-800zM115 -114h670l-335 385zM424 301l-334 384v-768zM783 714h-667l333 -384zM476 300l334 -384v770z" />
    <glyph glyph-name=".notdef" horiz-adv-x="900" 
d="M50 -150v900h800v-900h-800zM115 -114h670l-335 385zM424 301l-334 384v-768zM783 714h-667l333 -384zM476 300l334 -384v770z" />
    <glyph glyph-name="glyph1" horiz-adv-x="0" 
 />
    <glyph glyph-name="glyph2" horiz-adv-x="1024" 
 />
    <glyph glyph-name="space" unicode=" " horiz-adv-x="280" 
 />
    <glyph glyph-name="exclam" unicode="!" horiz-adv-x="250" 
d="M100 139l-7 578h65l-8 -578h-50zM95 -56v80h59v-80h-59z" />
    <glyph glyph-name="quotedbl" unicode="&#x22;" horiz-adv-x="290" 
d="M113 579h-40l-8 190h57zM223 579h-40l-8 190h57z" />
    <glyph glyph-name="numbersign" unicode="#" horiz-adv-x="610" 
d="M246 454h177l45 224h49l-45 -224h105v-44h-114l-41 -206h129v-44h-137l-46 -231h-49l46 231h-177l-46 -231h-49l46 231h-102v44h110l41 206h-125v44h134l45 224h49zM196 204h177l41 206h-177z" />
    <glyph glyph-name="dollar" unicode="$" horiz-adv-x="495" 
d="M236 -51q-48 1 -91 13t-81 35l23 43q27 -18 65.5 -30.5t83.5 -13.5v296q-72 38 -113 83.5t-41 108.5q0 33 11.5 62t32 52t49 38t61.5 20v83h43v-80q47 -2 79.5 -11.5t65.5 -24.5l-19 -41q-26 13 -55.5 20.5t-70.5 9.5v-293q42 -23 72 -44.5t49 -45t28 -50t9 -59.5
q0 -38 -12.5 -67t-34 -50t-50 -33.5t-61.5 -17.5v-73h-43v70zM388 116q0 30 -8.5 52.5t-23 41t-34.5 33t-43 27.5v-270q22 3 41.5 11.5t34.5 22.5t24 34.5t9 47.5zM131 484q0 -41 24 -75.5t81 -66.5v266q-44 -9 -74.5 -41.5t-30.5 -82.5z" />
    <glyph glyph-name="percent" unicode="%" horiz-adv-x="840" 
d="M571 669h50l-363 -730h-50zM222 364q-31 0 -58.5 10.5t-48.5 29.5t-33 46.5t-12 62.5q0 34 12 62t33 47t48.5 29.5t58.5 10.5t58.5 -10.5t48.5 -29.5t33 -47t12 -62q0 -35 -12 -62.5t-33 -46.5t-48.5 -29.5t-58.5 -10.5zM222 402q45 0 74 31.5t29 79.5t-29 79.5t-74 31.5
t-74 -31.5t-29 -79.5t29 -79.5t74 -31.5zM622 -50q-31 0 -58.5 10.5t-48.5 29.5t-33 46.5t-12 62.5q0 34 12 62t33 47t48.5 29.5t58.5 10.5t58.5 -10.5t48.5 -29.5t33 -47t12 -62q0 -35 -12 -62.5t-33 -46.5t-48.5 -29.5t-58.5 -10.5zM622 -12q45 0 74 31.5t29 79.5
t-29 79.5t-74 31.5t-74 -31.5t-29 -79.5t29 -79.5t74 -31.5z" />
    <glyph glyph-name="ampersand" unicode="&#x26;" horiz-adv-x="640" 
d="M57 119q0 40 13.5 72t37 58t53.5 46.5t63 37.5q-31 39 -54 84t-23 99q0 42 14.5 72.5t37.5 50.5t52 29.5t58 9.5q32 0 59.5 -10.5t48 -30t32 -47.5t11.5 -62q0 -36 -15 -66t-39 -55.5t-54 -47t-61 -38.5l186 -224q23 40 37 86.5t20 94.5h48q-6 -57 -24 -113.5t-50 -104.5
l98 -117h-55l-69 82q-37 -42 -88 -68t-117 -26q-50 0 -90.5 13.5t-69.5 38t-44.5 59t-15.5 77.5zM275 -23q59 0 102 23t75 61l-201 239q-27 -15 -52.5 -32t-46 -38.5t-33 -47.5t-12.5 -57q0 -66 41.5 -107t126.5 -41zM193 518q0 -44 22 -86t50 -78q27 14 53.5 32.5
t48.5 40.5t35.5 47t13.5 53q0 23 -8 43.5t-22 35.5t-34 23.5t-44 8.5q-48 0 -81.5 -31.5t-33.5 -88.5z" />
    <glyph glyph-name="quotesingle" unicode="'" horiz-adv-x="180" 
d="M113 579h-40l-8 190h57z" />
    <glyph glyph-name="parenleft" unicode="(" horiz-adv-x="330" 
d="M147 314q0 -65 10.5 -122t29 -109t45 -100.5t58.5 -94.5h-44q-29 35 -56.5 81t-48.5 101t-33.5 116.5t-12.5 127.5t12.5 127.5t33.5 116.5t48.5 101t56.5 81h44q-32 -47 -58.5 -95t-45 -100t-29 -109.5t-10.5 -121.5z" />
    <glyph glyph-name="parenright" unicode=")" horiz-adv-x="330" 
d="M193 314q0 64 -10.5 121.5t-29 109.5t-45 100t-58.5 95h44q29 -35 56.5 -81t48.5 -101t33.5 -116.5t12.5 -127.5t-12.5 -127.5t-33.5 -116.5t-48.5 -101t-56.5 -81h-44q32 46 58.5 94.5t45 100.5t29 109t10.5 122z" />
    <glyph glyph-name="asterisk" unicode="*" horiz-adv-x="410" 
d="M235 416h-44l6 127l-107 -72l-23 35l109 58l-109 59l21 35l109 -71l-7 125h44l-6 -125l109 70l21 -34l-109 -59l109 -58l-22 -34l-108 71z" />
    <glyph glyph-name="plus" unicode="+" horiz-adv-x="560" 
d="M254 331v204h55v-204h191v-52h-191v-204h-55v204h-189v52h189z" />
    <glyph glyph-name="comma" unicode="," horiz-adv-x="260" 
d="M178 -43q0 -54 -23 -84.5t-82 -40.5v41q26 5 42 18t16 50v15h-49v95h96v-94z" />
    <glyph glyph-name="hyphen" unicode="-" horiz-adv-x="440" 
d="M385 331v-52h-325v52h325z" />
    <glyph glyph-name="period" unicode="." horiz-adv-x="260" 
d="M178 -54h-96v95h96v-95z" />
    <glyph glyph-name="slash" unicode="/" horiz-adv-x="430" 
d="M345 699h52l-313 -790h-52z" />
    <glyph glyph-name="zero" unicode="0" horiz-adv-x="545" 
d="M107 304q0 -85 13.5 -147t36 -102t53 -59.5t65.5 -19.5q34 0 65 19.5t53.5 59.5t36 102t13.5 147t-13.5 147t-36 102t-53.5 59.5t-65 19.5q-35 0 -65.5 -19.5t-53 -59.5t-36 -102t-13.5 -147zM50 304q0 187 58.5 281t166.5 94t166.5 -94t58.5 -281t-58.5 -281t-166.5 -94
t-166.5 94t-58.5 281z" />
    <glyph glyph-name="one" unicode="1" horiz-adv-x="400" 
d="M84 549v40h9q23 0 44 4t36.5 12t25 21.5t9.5 32.5v10h51v-730h-53v610h-122z" />
    <glyph glyph-name="two" unicode="2" horiz-adv-x="540" 
d="M59 -18q96 91 163 161.5t109 127.5t62 104.5t22 93.5q1 33 -7 62.5t-27 51t-49 34.5t-73 13q-52 0 -97.5 -23.5t-80.5 -57.5l-28 39q43 42 98.5 66.5t116.5 24.5q53 0 91.5 -17t63.5 -45t36.5 -65t10.5 -77q-2 -57 -25.5 -112.5t-66.5 -113.5t-104.5 -121.5
t-139.5 -136.5h358v-52h-433v43z" />
    <glyph glyph-name="three" unicode="3" horiz-adv-x="550" 
d="M243 -66q-59 0 -105.5 12t-89.5 34l22 46q27 -16 73.5 -29.5t97.5 -13.5q58 0 98 12.5t64.5 33.5t35 49t10.5 59q0 42 -19 73t-50 51.5t-70.5 30.5t-80.5 10h-40v46h41q30 0 64 9t62 27.5t46.5 47t18.5 67.5q0 27 -8 51t-25.5 42t-46 28.5t-69.5 10.5q-52 0 -94 -17.5
t-78 -40.5l-23 40q44 29 94 47t103 18t91 -14.5t63 -38t36.5 -52.5t11.5 -59q0 -64 -31.5 -113t-104.5 -76q74 -13 119 -63t46 -127q0 -42 -16 -78.5t-49 -63.5t-82.5 -43t-114.5 -16z" />
    <glyph glyph-name="four" unicode="4" horiz-adv-x="550" 
d="M392 -36v108h-358v47l337 550h71v-548h94v-49h-94v-133h-25zM392 614l-301 -493h301v493z" />
    <glyph glyph-name="five" unicode="5" horiz-adv-x="550" 
d="M192 618l-30 -224q58 8 118.5 2.5t110 -30.5t81.5 -71t32 -119q0 -63 -20.5 -109.5t-56 -77t-83.5 -45.5t-103 -15q-26 0 -52.5 3t-50.5 8t-44 11.5t-33 14.5l15 46q13 -6 32 -12t41 -10.5t45.5 -7.5t46.5 -3q43 0 82 11t68 34.5t46 60.5t17 89q0 46 -15.5 78t-41.5 52.5
t-61 31.5t-73.5 14.5t-79 0.5t-77.5 -9l37 289l35 39h308v-52h-294z" />
    <glyph glyph-name="six" unicode="6" horiz-adv-x="550" 
d="M442 632q-65 -3 -122 -27t-101.5 -65.5t-73.5 -99.5t-37 -129q14 22 35 41.5t45.5 34.5t52 23.5t54.5 8.5q47 0 86 -16.5t66.5 -48t42.5 -76.5t15 -103q0 -57 -16.5 -103t-46.5 -77.5t-72 -48.5t-93 -17q-50 0 -91.5 21t-71.5 60t-47 94t-17 124q0 90 26 170t75.5 141
t121 98t163.5 42zM279 -24q39 0 70.5 13.5t54.5 38.5t35.5 60t12.5 79q0 106 -45 153.5t-123 47.5q-27 0 -52.5 -10.5t-47.5 -27.5t-40 -38t-29 -43q-4 -10 -7 -21.5t-3 -27.5q0 -48 13 -89t36.5 -71t55 -47t69.5 -17z" />
    <glyph glyph-name="seven" unicode="7" horiz-adv-x="520" 
d="M475 621l-303 -682h-57l300 678h-350v52h410v-48z" />
    <glyph glyph-name="eight" unicode="8" horiz-adv-x="550" 
d="M46 125q0 70 44 120t122 79q-39 19 -65.5 39t-42 42.5t-22 47.5t-6.5 52q0 33 14 64.5t40 56t64 39t86 14.5t86 -14.5t64 -39t40 -56t14 -64.5q0 -27 -7 -52.5t-23.5 -49t-44.5 -44t-71 -38.5q35 -11 67 -28.5t56 -41.5t38.5 -55.5t14.5 -70.5q0 -44 -18.5 -80t-50.5 -62
t-74.5 -40t-90.5 -14t-90.5 14t-74.5 40t-50.5 62t-18.5 80zM459 125q0 64 -45 105.5t-135 69.5q-84 -26 -131 -69t-47 -106q0 -34 14.5 -61.5t39 -47t57 -30.5t68.5 -11t68.5 11t57 30.5t39 47t14.5 61.5zM133 500q0 -35 12 -60.5t32 -44.5t45.5 -32t52.5 -23
q152 47 152 160q0 28 -9.5 53t-28.5 43.5t-46 29t-63 10.5t-63 -10.5t-46 -29t-28.5 -43.5t-9.5 -53z" />
    <glyph glyph-name="nine" unicode="9" horiz-adv-x="550" 
d="M113 -24q65 3 122 23t101.5 58t73.5 94t37 132q-29 -43 -80.5 -68.5t-106.5 -25.5q-47 0 -86 16.5t-66.5 46.5t-42.5 73.5t-15 97.5q0 57 16.5 104.5t46.5 81t72 52t93 18.5q49 0 91 -21t72 -60t47 -94t17 -124q0 -110 -26 -192t-76 -137.5t-122 -85.5t-163 -36zM276 632
q-39 0 -70.5 -15t-54.5 -42t-35.5 -64t-12.5 -80q0 -99 45 -145t123 -46q27 0 52.5 8t47.5 22t40 33t29 41q4 10 7 21.5t3 27.5q0 48 -13 91t-36.5 76t-55.5 52.5t-69 19.5z" />
    <glyph glyph-name="colon" unicode=":" horiz-adv-x="260" 
d="M178 79h-96v95h96v-95zM178 434h-96v95h96v-95z" />
    <glyph glyph-name="semicolon" unicode=";" horiz-adv-x="260" 
d="M178 434h-96v95h96v-95zM178 80q0 -54 -23 -84.5t-82 -40.5v41q26 5 42 18t16 50v15h-49v95h96v-94z" />
    <glyph glyph-name="less" unicode="&#x3c;" horiz-adv-x="470" 
d="M181 305l216 -310v-82l-280 392l280 392v-82z" />
    <glyph glyph-name="equal" unicode="=" horiz-adv-x="565" 
d="M505 428v-52h-440v52h440zM505 237v-52h-440v52h440z" />
    <glyph glyph-name="greater" unicode="&#x3e;" horiz-adv-x="470" 
d="M77 615v82l280 -392l-280 -392v82l216 310z" />
    <glyph glyph-name="question" unicode="?" horiz-adv-x="450" 
d="M183 241q0 21 1.5 43t7.5 44.5t17.5 44.5t31.5 44q42 46 66.5 81.5t24.5 75.5q0 54 -31 79.5t-80 25.5q-27 0 -48 -5t-38.5 -14t-32.5 -21t-29 -26l-28 35q36 40 79.5 60t98.5 20q43 0 74 -12t51.5 -31.5t30 -46t9.5 -54.5q0 -52 -27.5 -93t-67.5 -84
q-21 -23 -33.5 -44.5t-19 -41.5t-8.5 -40.5t-2 -41.5v-86h-47v88zM177 -56v80h59v-80h-59z" />
    <glyph glyph-name="at" unicode="@" horiz-adv-x="800" 
d="M391 -60q-78 0 -139 25.5t-103 71t-64 108.5t-22 139q0 79 27 149.5t75.5 122.5t115.5 82.5t147 30.5q65 0 121.5 -21t98.5 -60t66 -94.5t24 -123.5q0 -64 -15 -112.5t-41 -80.5t-61.5 -48.5t-76.5 -16.5q-32 0 -53 10t-30 39q-26 -23 -59 -36t-65 -13q-63 0 -88.5 41
t-16.5 107q9 65 30.5 110t49 73t59.5 40.5t62 12.5q29 0 54.5 -12.5t47.5 -32.5l12 36h46l-83 -275q-10 -31 3.5 -45.5t45.5 -14.5q22 0 46 13.5t43 40t31.5 66.5t12.5 93q0 54 -17 102t-50.5 83.5t-83.5 56.5t-115 21q-69 0 -126.5 -28t-99.5 -75.5t-65 -109.5t-23 -130
q0 -64 17.5 -119.5t52.5 -96t87 -63.5t122 -23q60 0 106.5 10t86.5 23l9 -39q-20 -8 -45.5 -14.5t-53 -11.5t-54.5 -8t-49 -3zM350 153q36 0 64.5 15.5t48.5 34.5l61 209q-14 17 -36.5 31t-54.5 14q-59 0 -98.5 -51t-56.5 -145q-11 -57 10 -82.5t62 -25.5z" />
    <glyph glyph-name="A" unicode="A" horiz-adv-x="600" 
d="M64 -61h-56l254 731h73l254 -731h-56l-73 211h-258l-20 20v29h261l-144 416z" />
    <glyph glyph-name="B" unicode="B" horiz-adv-x="600" 
d="M299 669q102 0 154.5 -42.5t52.5 -129.5q0 -26 -5.5 -52t-19 -50t-36.5 -44t-59 -33q43 -6 72.5 -22t47.5 -39t26 -51.5t8 -58.5q0 -101 -55.5 -154.5t-159.5 -53.5h-204l-45 50v680h223zM322 -9q78 0 120.5 38.5t42.5 119.5q0 71 -48.5 106t-124.5 35h-181v-299h191z
M288 340q36 0 65.5 10.5t51.5 30t34 48.5t12 66q0 66 -41 94t-113 28h-166v-277h157z" />
    <glyph glyph-name="C" unicode="C" horiz-adv-x="570" 
d="M44 302q0 71 19 138.5t57.5 120.5t97.5 85.5t140 32.5q99 0 171 -48l-26 -42q-27 18 -63.5 29t-82.5 11q-68 0 -116.5 -28.5t-79.5 -75t-46 -105t-15 -118.5q0 -57 15.5 -114.5t47 -104t80 -75.5t114.5 -29q51 0 93 11.5t77 37.5l23 -40q-40 -30 -89 -44.5t-103 -14.5
q-81 0 -140.5 32.5t-98 85.5t-57 120t-18.5 135z" />
    <glyph glyph-name="D" unicode="D" horiz-adv-x="620" 
d="M76 -11v680h147q79 0 141.5 -28t106 -77t66.5 -116t23 -144t-23 -144t-66.5 -116t-106 -77t-141.5 -28h-102zM230 -9q49 0 98.5 17.5t88.5 55t63.5 97t24.5 143.5q0 83 -25.5 142.5t-66 97.5t-91.5 55.5t-102 17.5h-89v-626h99z" />
    <glyph glyph-name="E" unicode="E" horiz-adv-x="530" 
d="M76 -11v681h412v-52h-357v-277h351v-50h-351v-300h374v-52h-384z" />
    <glyph glyph-name="F" unicode="F" horiz-adv-x="520" 
d="M478 669v-52h-347v-268h326v-50h-326v-360h-30l-25 25v705h402z" />
    <glyph glyph-name="G" unicode="G" horiz-adv-x="630" 
d="M571 284v-288q-40 -32 -96 -50t-113 -18q-82 0 -142 31.5t-99 84t-58 120t-19 138.5t19 139t57.5 121t97.5 85t140 32q99 0 171 -48l-26 -42q-27 18 -63.5 29t-82.5 11q-68 0 -116.5 -28.5t-80 -75t-46.5 -105t-15 -118.5t15.5 -117.5t47.5 -103.5t81 -74t117 -28
q46 0 82.5 10t75.5 32v252h-182v51h195z" />
    <glyph glyph-name="H" unicode="H" horiz-adv-x="620" 
d="M493 300h-301l-20 20v29h321v320h55v-730h-30l-25 25v336zM131 669v-730h-30l-25 25v705h55z" />
    <glyph glyph-name="I" unicode="I" horiz-adv-x="320" 
d="M285 621h-98v-633h103v-48h-239l-20 20v28h101v633h-96v48h249v-48z" />
    <glyph glyph-name="J" unicode="J" horiz-adv-x="420" 
d="M414 620h-100v-459q0 -67 -15.5 -111.5t-42.5 -71.5t-63.5 -38t-78.5 -11q-20 0 -42 2.5t-38 6.5l9 48q13 -3 29.5 -4.5t34.5 -1.5q35 0 63 7t48 27.5t30.5 56.5t10.5 94v455h-151v49h306v-49z" />
    <glyph glyph-name="K" unicode="K" horiz-adv-x="550" 
d="M131 669v-354l329 355h65l-286 -309l306 -422h-64l-278 383l-72 -79v-304h-30l-25 25v705h55z" />
    <glyph glyph-name="L" unicode="L" horiz-adv-x="510" 
d="M76 -11v681h55v-679h354v-52h-364z" />
    <glyph glyph-name="M" unicode="M" horiz-adv-x="760" 
d="M146 670l233 -687l233 687h70v-731h-29l-25 25v602l-214 -627h-70l-214 627v-627h-29l-25 25v706h70z" />
    <glyph glyph-name="N" unicode="N" horiz-adv-x="620" 
d="M143 669l350 -646v646h55v-730h-65l-352 654v-654h-30l-25 25v705h67z" />
    <glyph glyph-name="O" unicode="O" horiz-adv-x="650" 
d="M542 303q0 66 -12.5 125t-39.5 104t-69 71.5t-100 26.5t-100 -26.5t-69 -71.5t-39.5 -104t-12.5 -125t12.5 -125.5t39.5 -104.5t69 -71.5t100 -26.5t100 26.5t69 71.5t39.5 104.5t12.5 125.5zM598 303q0 -86 -19 -155.5t-54.5 -118.5t-87 -75t-116.5 -26t-116.5 26
t-87 75t-54.5 118t-19 155t19 155.5t54.5 118t87 75t116.5 26.5t116.5 -26t87 -75t54.5 -118t19 -155z" />
    <glyph glyph-name="P" unicode="P" horiz-adv-x="550" 
d="M269 669q51 0 96.5 -12.5t80 -39t54.5 -68.5t20 -101t-20 -101t-54.5 -68.5t-80 -39t-96.5 -12.5h-138v-288h-30l-25 25v705h193zM131 618v-340h134q37 0 73 7.5t64.5 27t46 52t17.5 83.5t-17.5 83.5t-46 52t-64.5 27t-73 7.5h-134z" />
    <glyph glyph-name="Q" unicode="Q" horiz-adv-x="650" 
d="M598 303q0 -107 -28.5 -186.5t-81.5 -127.5l82 -81l-31 -32l-88 86q-57 -34 -130 -34q-65 0 -116.5 26t-87 75t-54.5 118t-19 155t19 155.5t54.5 118t87 75t116.5 26.5t116.5 -26t87 -75t54.5 -118t19 -155zM352 123l99 -98q48 45 69.5 118t21.5 160q0 66 -12.5 125
t-39.5 104t-69 71.5t-100 26.5t-100 -26.5t-69 -71.5t-39.5 -104t-12.5 -125t12.5 -125.5t39.5 -104.5t69 -71.5t100 -26.5q52 0 93 23l-96 92z" />
    <glyph glyph-name="R" unicode="R" horiz-adv-x="570" 
d="M269 669q51 0 96.5 -12.5t80 -39t54.5 -68.5t20 -101q0 -45 -12 -80t-33 -60.5t-49.5 -42.5t-62.5 -26l192 -300h-59l-188 290q-10 -1 -19.5 -1.5t-19.5 -0.5h-138v-288h-30l-25 25v705h193zM131 618v-340h134q37 0 73 7.5t64.5 27t46 52t17.5 83.5t-17.5 83.5t-46 52
t-64.5 27t-73 7.5h-134z" />
    <glyph glyph-name="S" unicode="S" horiz-adv-x="480" 
d="M234 -71q-50 0 -100.5 16.5t-93.5 45.5l28 46q36 -25 78.5 -41.5t86.5 -16.5q76 0 114.5 40t38.5 109q0 58 -37.5 96t-115.5 73q-41 18 -74 36.5t-56.5 42t-36.5 54t-13 72.5q0 40 14.5 72.5t41.5 56t65 36t85 12.5q51 0 92.5 -14t76.5 -36l-25 -41q-32 20 -68 31.5
t-79 11.5q-40 0 -68.5 -10.5t-46.5 -28.5t-26 -41t-8 -48q0 -31 9.5 -53.5t29 -41.5t50 -35.5t71.5 -34.5q90 -40 132 -90.5t42 -122.5q0 -39 -11.5 -74.5t-36.5 -62.5t-64.5 -43t-94.5 -16z" />
    <glyph glyph-name="T" unicode="T" horiz-adv-x="520" 
d="M32 621v48h456v-48h-203v-682h-30l-25 25v657h-198z" />
    <glyph glyph-name="U" unicode="U" horiz-adv-x="620" 
d="M312 -71q-50 0 -93.5 14.5t-75 46.5t-49.5 83t-18 125v471h56v-477q0 -56 12.5 -96t36 -65.5t57 -37.5t74.5 -12t74.5 12t57 37.5t36 65.5t12.5 96v477h56v-471q0 -74 -18 -125t-49.5 -83t-75 -46.5t-93.5 -14.5z" />
    <glyph glyph-name="V" unicode="V" horiz-adv-x="600" 
d="M299 -6l234 676h56l-254 -731h-73l-254 731h56z" />
    <glyph glyph-name="W" unicode="W" horiz-adv-x="820" 
d="M189 -61l-178 731h55l156 -654l161 654h52l161 -654l156 654h55l-178 -731h-61l-159 636l-159 -636h-61z" />
    <glyph glyph-name="X" unicode="X" horiz-adv-x="570" 
d="M315 304l238 -366h-61l-208 318l-207 -318h-61l237 366l-237 365h62l206 -318l207 318h62z" />
    <glyph glyph-name="Y" unicode="Y" horiz-adv-x="570" 
d="M255 261l-240 408h62l206 -360l210 360h61l-244 -409v-321h-30l-25 25v297z" />
    <glyph glyph-name="Z" unicode="Z" horiz-adv-x="550" 
d="M444 621h-397v48h463v-41l-409 -641h414v-48h-481v39z" />
    <glyph glyph-name="bracketleft" unicode="[" horiz-adv-x="320" 
d="M92 699h176v-46h-121v-696h121v-48h-176v790z" />
    <glyph glyph-name="backslash" unicode="\" horiz-adv-x="890" 
d="M516 295h-138l-87 -331h-59l-80 331h-123v50h111l-73 303h52l71 -303h154l78 303h51l78 -303h153l72 303h52l-73 -303h106v-50h-118l-80 -331h-59zM264 36l67 259h-129zM631 36l61 259h-128zM391 345h112l-56 213z" />
    <glyph glyph-name="bracketright" unicode="]" horiz-adv-x="320" 
d="M228 -91h-176v48h121v696h-121v46h176v-790z" />
    <glyph glyph-name="asciicircum" unicode="^" horiz-adv-x="400" 
d="M200 748l-112 -202h-47l137 243h44l137 -243h-47z" />
    <glyph glyph-name="underscore" unicode="_" horiz-adv-x="420" 
d="M420 -132h-420v47h420v-47z" />
    <glyph glyph-name="grave" unicode="`" horiz-adv-x="280" 
d="M133 769l75 -190h-34l-102 190h61z" />
    <glyph glyph-name="a" unicode="a" horiz-adv-x="520" 
d="M415 -36v51q-20 -26 -43.5 -42.5t-48.5 -26.5t-51.5 -13.5t-51.5 -3.5q-38 0 -70 8t-55.5 25t-37 43t-13.5 62q0 28 10 51.5t27.5 41.5t40 30t47.5 17q36 7 65.5 12.5t58 11t57 12t63.5 15.5q0 41 -11.5 70t-32.5 48t-49.5 27.5t-61.5 8.5q-43 0 -85.5 -16t-74.5 -38
l-21 41q34 21 82 39.5t102 18.5q60 0 99.5 -18t62.5 -47t32.5 -65.5t9.5 -72.5v-315h-25zM407 76q6 18 6 34v103q-54 -13 -103.5 -22.5t-106.5 -20.5q-102 -18 -102 -104q0 -48 33 -69.5t80 -21.5q76 0 126 27.5t67 73.5z" />
    <glyph glyph-name="b" unicode="b" horiz-adv-x="560" 
d="M128 669v-300q28 38 72 63t106 25q47 0 86.5 -19t68.5 -53.5t45.5 -82t16.5 -104.5q0 -67 -18 -117.5t-48.5 -84t-70.5 -50.5t-85 -17q-24 0 -48 4.5t-47 15.5t-43 28t-35 43v-81h-27l-25 25v705h52zM131 135q0 -32 11.5 -61t33 -51t51.5 -34.5t66 -12.5q42 0 74.5 16
t55 45t34 69t11.5 89q0 43 -10.5 82t-32 68.5t-54 47t-76.5 17.5q-39 0 -69.5 -15t-51.5 -39t-32 -53.5t-11 -57.5v-110z" />
    <glyph glyph-name="c" unicode="c" horiz-adv-x="460" 
d="M311 -23q35 0 68.5 7t52.5 15l10 -43q-20 -10 -56.5 -18t-74.5 -8q-56 0 -105 19.5t-85 54t-56.5 83t-20.5 107.5q0 58 19.5 106.5t54.5 83.5t84 54t108 19q37 0 74 -7t56 -17l-13 -43q-17 6 -49.5 13t-67.5 7q-46 0 -85 -15.5t-67 -43t-44 -66.5t-16 -86q0 -52 17 -93.5
t46.5 -70t68 -43.5t81.5 -15z" />
    <glyph glyph-name="d" unicode="d" horiz-adv-x="560" 
d="M440 -36v56q-31 -51 -78 -71t-95 -20q-45 0 -85 17t-70.5 50.5t-48.5 84t-18 117.5q0 57 16.5 104.5t45.5 82t68.5 53.5t86.5 19q61 0 105 -25t73 -63v300h52v-730h-27zM437 245q0 28 -11 57.5t-32 53.5t-51.5 39t-69.5 15q-44 0 -76.5 -17.5t-54 -47t-32 -68.5
t-10.5 -82q0 -49 11.5 -89t34 -69t55 -45t74.5 -16q36 0 66 12.5t51.5 34.5t33 51t11.5 61v110z" />
    <glyph glyph-name="e" unicode="e" horiz-adv-x="520" 
d="M428 226q-2 29 -11 61.5t-28 60t-49 45.5t-74 18q-45 0 -76 -19.5t-50.5 -48t-29.5 -60.5t-12 -57h330zM288 -25q75 0 149 44l16 -41q-42 -26 -84 -37.5t-89 -11.5t-89.5 16.5t-75 49t-52 81.5t-19.5 114q0 58 16 107t45 84.5t70 55.5t91 20q54 0 94.5 -20.5t67.5 -56
t40.5 -83.5t13.5 -102v-14h-384q1 -55 17 -94t42 -64t59.5 -36.5t71.5 -11.5z" />
    <glyph glyph-name="f" unicode="f" horiz-adv-x="330" 
d="M45 399l-20 20v28h96v99q0 64 27.5 93.5t84.5 29.5h68v-44h-45q-24 0 -39.5 -3t-25 -11.5t-13.5 -24t-4 -40.5v-99h131v-48h-131v-460h-28l-25 25v435h-76z" />
    <glyph glyph-name="g" unicode="g" horiz-adv-x="560" 
d="M437 245q0 28 -11 57.5t-32 53.5t-51.5 39t-69.5 15q-44 0 -76.5 -17.5t-54 -47t-32 -68.5t-10.5 -82q0 -49 11.5 -89t34 -69t55 -45t74.5 -16q36 0 66 12.5t51.5 34.5t33 51t11.5 61v110zM492 -37q0 -50 -10 -91.5t-35.5 -71.5t-69.5 -47t-111 -17q-39 0 -83.5 9.5
t-76.5 26.5l17 44q30 -15 67 -24t79 -9t74 8.5t53.5 29t32.5 55t11 86.5v58q-31 -51 -78 -71t-95 -20q-45 0 -85 17t-70.5 50.5t-48.5 84t-18 117.5q0 57 16.5 104.5t45.5 82t68.5 53.5t86.5 19q61 0 105 -25t73 -63v78h52v-484z" />
    <glyph glyph-name="h" unicode="h" horiz-adv-x="550" 
d="M129 669v-326q18 30 40 51.5t45 35t46.5 20t44.5 6.5q45 0 79.5 -13t57.5 -36t35 -54.5t12 -68.5v-345h-28l-25 25v317q0 60 -35 94.5t-95 34.5q-32 0 -59 -12.5t-49.5 -33t-40 -46.5t-28.5 -53v-326h-28l-25 25v705h53z" />
    <glyph glyph-name="i" unicode="i" horiz-adv-x="215" 
d="M134 574h-53v95h53v-95zM134 457v-518h-28l-25 25v493h53z" />
    <glyph glyph-name="j" unicode="j" horiz-adv-x="215" 
d="M-43 -198q33 4 57.5 11t41.5 20.5t25.5 35.5t8.5 56v532h53v-532q0 -77 -40 -118.5t-139 -52.5zM143 574h-53v95h53v-95z" />
    <glyph glyph-name="k" unicode="k" horiz-adv-x="470" 
d="M230 239l234 -300h-60l-210 269l-65 -59v-210h-28l-25 25v705h53v-456l264 234h67z" />
    <glyph glyph-name="l" unicode="l" horiz-adv-x="215" 
d="M134 -61h-28l-25 25v705h53v-730z" />
    <glyph glyph-name="m" unicode="m" horiz-adv-x="785" 
d="M128 445v-58q29 34 65 51.5t76 17.5q50 0 86.5 -18.5t59.5 -62.5q33 44 74.5 62.5t78.5 18.5q38 0 67.5 -12t49.5 -33.5t30.5 -51t10.5 -63.5v-357h-27l-25 25v318q0 68 -29.5 98t-76.5 30q-48 0 -84 -26.5t-57 -61.5v-383h-27l-25 25v338q0 60 -30.5 84t-86.5 24
q-37 0 -71.5 -22t-58.5 -62v-387h-27l-25 25v481h52z" />
    <glyph glyph-name="n" unicode="n" horiz-adv-x="550" 
d="M129 445v-102q18 30 40 51.5t45 35t46.5 20t44.5 6.5q45 0 79.5 -13t57.5 -36t35 -54.5t12 -68.5v-345h-28l-25 25v317q0 60 -35 94.5t-95 34.5q-32 0 -59 -12.5t-49.5 -33t-40 -46.5t-28.5 -53v-326h-28l-25 25v481h53z" />
    <glyph glyph-name="o" unicode="o" horiz-adv-x="600" 
d="M453 192q0 46 -11 86t-33.5 69.5t-55.5 46t-78 16.5t-78 -16.5t-55.5 -46t-33.5 -69.5t-11 -86q0 -47 11 -86.5t33.5 -69t55.5 -46t78 -16.5t78 16.5t55.5 46t33.5 69t11 86.5zM505 192q0 -66 -18 -115.5t-49 -82.5t-73 -49.5t-90 -16.5t-90.5 16.5t-73.5 49.5t-49 82.5
t-18 115.5t18 115.5t49.5 82.5t73.5 49.5t90 16.5t90 -16.5t73 -49.5t49 -82.5t18 -115.5z" />
    <glyph glyph-name="p" unicode="p" horiz-adv-x="560" 
d="M128 447v-78q28 38 72 63t106 25q47 0 86.5 -19t68.5 -53.5t45.5 -82t16.5 -104.5q0 -67 -18 -117.5t-48.5 -84t-70.5 -50.5t-85 -17q-24 0 -48 4.5t-47 15.5t-43 28t-35 43v-281h-27l-25 25v683h52zM131 135q0 -32 11.5 -61t33 -51t51.5 -34.5t66 -12.5q42 0 74.5 16
t55 45t34 69t11.5 89q0 43 -10.5 82t-32 68.5t-54 47t-76.5 17.5q-39 0 -69.5 -15t-51.5 -39t-32 -53.5t-11 -57.5v-110z" />
    <glyph glyph-name="q" unicode="q" horiz-adv-x="560" 
d="M440 -236v256q-31 -51 -78 -71t-95 -20q-45 0 -85 17t-70.5 50.5t-48.5 84t-18 117.5q0 57 16.5 104.5t45.5 82t68.5 53.5t86.5 19q61 0 105 -25t73 -63v88h52v-718h-27zM437 245q0 28 -11 57.5t-32 53.5t-51.5 39t-69.5 15q-44 0 -76.5 -17.5t-54 -47t-32 -68.5
t-10.5 -82q0 -49 11.5 -89t34 -69t55 -45t74.5 -16q36 0 66 12.5t51.5 34.5t33 51t11.5 61v110z" />
    <glyph glyph-name="r" unicode="r" horiz-adv-x="330" 
d="M119 370q13 24 31 41t37.5 27t39.5 14.5t39 4.5q20 0 33.5 -2t26.5 -6l-12 -44q-10 2 -21.5 4t-29.5 2q-29 0 -54 -13t-43.5 -35t-31 -50.5t-15.5 -59.5v-314h-27l-25 25v483h52v-77z" />
    <glyph glyph-name="s" unicode="s" horiz-adv-x="420" 
d="M197 -71q-46 0 -91 11.5t-77 27.5l16 43q15 -6 34 -12.5t39.5 -12t41.5 -8.5t40 -3q70 0 100 24.5t30 65.5q0 21 -6.5 36.5t-22.5 28.5t-43 25.5t-69 28.5q-77 29 -111 62.5t-34 84.5q0 58 43.5 92t134.5 34q76 0 134 -25l-14 -42q-23 9 -52.5 16t-69.5 7
q-57 0 -90 -19.5t-33 -61.5q0 -25 15 -44t36.5 -33t46 -24t43.5 -17q73 -27 109 -58.5t36 -86.5q0 -29 -10 -54.5t-32.5 -44.5t-58 -30t-85.5 -11z" />
    <glyph glyph-name="t" unicode="t" horiz-adv-x="320" 
d="M167 669v-222h120v-48h-120v-338q0 -50 13.5 -70t51.5 -20q15 0 28.5 1.5t31.5 4.5l5 -40q-17 -4 -37.5 -6t-38.5 -2q-30 0 -50 9t-33 25.5t-18.5 39t-5.5 49.5v347h-72l-20 20v28h92v222h53z" />
    <glyph glyph-name="u" unicode="u" horiz-adv-x="550" 
d="M436 -36v77q-18 -30 -40 -51.5t-45 -35t-46.5 -20t-44.5 -6.5q-45 0 -79.5 13t-57.5 36t-35 54.5t-12 68.5v347h53v-344q0 -60 35 -94.5t95 -34.5q31 0 58.5 12.5t50 33t40 46.5t28.5 53v328h53v-508h-28z" />
    <glyph glyph-name="v" unicode="v" horiz-adv-x="500" 
d="M69 447l181 -464l181 464h52l-202 -508h-62l-202 508h52z" />
    <glyph glyph-name="w" unicode="w" horiz-adv-x="700" 
d="M507 4l129 443h51l-152 -508h-54l-132 438l-132 -438h-54l-152 508h51l128 -443l135 443h48z" />
    <glyph glyph-name="x" unicode="x" horiz-adv-x="460" 
d="M257 192l188 -253h-56l-160 215l-159 -215h-56l187 253l-187 254h56l159 -216l160 216h56z" />
    <glyph glyph-name="y" unicode="y" horiz-adv-x="460" 
d="M100 -264q-32 0 -65 11l7 44q11 -4 24 -6t32 -2q31 0 53.5 14.5t38.5 62.5l31 82l-205 505h51l178 -441l144 441h51l-206 -610q-18 -54 -53.5 -77.5t-80.5 -23.5z" />
    <glyph glyph-name="z" unicode="z" horiz-adv-x="430" 
d="M37 447h355v-48l-308 -414h317v-45h-372v48l308 414h-300v45z" />
    <glyph glyph-name="braceleft" unicode="{" horiz-adv-x="340" 
d="M184 422q0 -49 -18 -77t-43 -42q25 -14 43 -42t18 -76v-154q0 -37 12 -56.5t51 -19.5h50v-46h-79q-16 0 -31.5 6t-28 18.5t-20 31.5t-7.5 45v195q0 34 -14 55t-55 21h-19v45h19q41 0 55 20.5t14 55.5v195q0 26 7.5 45t20 31.5t28 18.5t31.5 6h79v-46h-50q-39 0 -51 -19.5
t-12 -56.5v-154v0z" />
    <glyph glyph-name="bar" unicode="|" horiz-adv-x="220" 
d="M137 -161h-52v932h52v-932z" />
    <glyph glyph-name="braceright" unicode="}" horiz-adv-x="340" 
d="M156 576q0 37 -12 56.5t-51 19.5h-50v46h79q16 0 31.5 -6t28 -18.5t20 -31.5t7.5 -45v-195q0 -35 14 -55.5t55 -20.5h19v-45h-19q-41 0 -55 -21t-14 -55v-195q0 -26 -7.5 -45t-20 -31.5t-28 -18.5t-31.5 -6h-79v46h50q39 0 51 19.5t12 56.5v154q0 48 17.5 76t42.5 42
q-25 14 -42.5 42t-17.5 77v154z" />
    <glyph glyph-name="asciitilde" unicode="~" horiz-adv-x="620" 
d="M50 236q2 84 38 126.5t95 44.5q26 0 49 -12.5t43 -31.5t39.5 -41.5t38.5 -41.5t39.5 -32t44.5 -13q37 0 59 32t24 92h50q-2 -42 -13.5 -74t-30.5 -53.5t-42 -32.5t-47 -11q-28 0 -52.5 12.5t-46.5 32t-42.5 41.5t-39.5 41.5t-37.5 32t-36.5 12.5q-36 0 -60 -31.5
t-24 -92.5h-48z" />
    <glyph glyph-name="exclamdown" unicode="&#xa1;" horiz-adv-x="240" 
d="M148 277l8 -485h-73l7 485h58zM151 482v-95h-67v95h67z" />
    <glyph glyph-name="currency" unicode="&#xa4;" horiz-adv-x="560" 
d="M278 531q35 0 64.5 -12t52.5 -31l72 75l35 -37l-77 -73q15 -21 24.5 -51t9.5 -66q0 -42 -10 -73t-24 -51l74 -75l-35 -34l-70 76q-26 -23 -57.5 -34.5t-60.5 -11.5q-32 0 -62.5 11t-52.5 31l-70 -73l-33 34l72 73q-14 21 -25 52t-11 69q0 40 11.5 71t26.5 53l-74 72
l35 37l70 -75q23 20 52.5 31.5t62.5 11.5zM277 477q-57 0 -92 -40t-35 -106q0 -40 12.5 -67.5t31 -44.5t40.5 -24.5t42 -7.5q21 0 43.5 7t41 24.5t30.5 46t12 70.5q0 29 -8.5 55t-25 45.5t-40 30.5t-52.5 11z" />
    <glyph glyph-name="section" unicode="&#xa7;" horiz-adv-x="450" 
d="M385 326q0 -34 -18.5 -63t-59.5 -58q35 -19 56.5 -45.5t21.5 -71.5q0 -67 -50.5 -102.5t-133.5 -35.5q-37 0 -74 10.5t-62 25.5l15 43q23 -13 57 -23t66 -10q56 0 92.5 25t36.5 63q0 40 -31 64t-88 48q-31 13 -56 26.5t-42.5 29.5t-27 35.5t-9.5 44.5q0 38 20.5 68
t60.5 50q-42 29 -61.5 58t-19.5 62t12.5 57.5t35 41.5t53 25.5t67.5 8.5q32 0 64.5 -8t52.5 -20l-15 -43q-17 8 -45.5 17t-58.5 9q-50 0 -81.5 -22t-31.5 -60t31 -61.5t88 -46.5q62 -25 98.5 -57t36.5 -85zM257 229q2 -2 5 -2.5t6 -2.5q28 23 47.5 49t19.5 49q0 39 -32.5 62
t-91.5 47q-35 -14 -59 -39.5t-24 -53.5q0 -18 12 -33.5t31 -29.5t42 -25.5t44 -20.5z" />
    <glyph glyph-name="dieresis" unicode="&#xa8;" horiz-adv-x="520" 
d="M195 563h-87v87h87v-87zM412 563h-87v87h87v-87z" />
    <glyph glyph-name="ordfeminine" unicode="&#xaa;" horiz-adv-x="380" 
d="M275 478q-29 -26 -58.5 -40.5t-64.5 -14.5q-29 0 -48.5 9.5t-31.5 24.5t-17 33t-5 36q0 60 52 96t168 39q0 15 -4 30.5t-14 28.5t-27.5 21t-44.5 8q-22 0 -48 -10.5t-46 -22.5l-14 37q22 15 52 26t65 11q37 0 62 -11.5t40.5 -31t22.5 -45.5t7 -56v-214h-46v46zM167 465
q16 0 34.5 7.5t34.5 19.5t26.5 28t10.5 33v67q-30 1 -60.5 -3.5t-55 -15t-39.5 -27t-15 -40.5q0 -40 19 -54.5t45 -14.5z" />
    <glyph glyph-name="uni00AD" unicode="&#xad;" horiz-adv-x="500" 
d="M105 325h290v-49h-290v49z" />
    <glyph glyph-name="degree" unicode="&#xb0;" horiz-adv-x="420" 
d="M325 621q0 -24 -9.5 -44.5t-25 -36.5t-36.5 -25t-44 -9t-44 9t-36.5 25t-25 36.5t-9.5 44.5t9.5 44.5t25 36.5t36.5 25t44 9t44 -9t36.5 -25t25 -36.5t9.5 -44.5zM281 621q0 30 -20.5 50t-50.5 20q-31 0 -51 -20t-20 -50t20 -50.5t51 -20.5q30 0 50.5 20.5t20.5 50.5z
" />
    <glyph glyph-name="plusminus" unicode="&#xb1;" horiz-adv-x="660" 
d="M109 4v46h442v-46h-442zM353 614v-199h198v-51h-198v-200h-46v200h-200v51h200v199h46z" />
    <glyph glyph-name="uni00B2" unicode="&#xb2;" horiz-adv-x="340" 
d="M55 419v27q49 43 82.5 76t54.5 59.5t31 47.5t12 41q3 30 -15 51t-60 21q-23 0 -43.5 -13.5t-40.5 -33.5l-24 35q25 26 56 40t61 14q26 0 46.5 -9t34.5 -24t21 -34t7 -39q-1 -51 -40 -102t-114 -119h164v-38h-233z" />
    <glyph glyph-name="uni00B3" unicode="&#xb3;" horiz-adv-x="340" 
d="M157 413q-28 0 -54 8.5t-48 20.5l17 32q16 -7 39.5 -15.5t44.5 -8.5q26 0 43.5 7t28.5 18t16 24t5 24q0 18 -9 31t-23.5 21t-33 11.5t-38.5 3.5h-27v36h27q36 0 62 14t26 47q0 22 -15 39.5t-56 17.5q-18 0 -41 -9t-37 -19l-17 31q22 16 47 26t57 10q25 0 44.5 -8t33 -21
t21 -29t7.5 -31q0 -21 -9 -43.5t-35 -39.5q32 -14 44.5 -37t12.5 -52q0 -20 -9 -39.5t-26 -35t-41.5 -25t-56.5 -9.5z" />
    <glyph glyph-name="acute" unicode="&#xb4;" horiz-adv-x="400" 
d="M202 744h86l-107 -140h-62z" />
    <glyph glyph-name="paragraph" unicode="&#xb6;" horiz-adv-x="560" 
d="M271 267h-15q-29 0 -61.5 12.5t-59.5 37t-45 61t-18 85.5q0 40 12 80.5t42.5 72.5t83.5 52.5t134 20.5q38 0 65 -2t46 -6v-742h-46v700h-90v-700h-48v328z" />
    <glyph glyph-name="periodcentered" unicode="&#xb7;" horiz-adv-x="300" 
d="M198 253h-97v97h97v-97z" />
    <glyph glyph-name="cedilla" unicode="&#xb8;" horiz-adv-x="300" 
d="M182 -13l-16 -38q33 -5 51 -24.5t18 -47.5q0 -20 -7.5 -34t-21 -22t-31.5 -11.5t-38 -3.5q-21 0 -40 4t-32 12l13 34q14 -8 29.5 -10t26.5 -2q20 0 32.5 8.5t12.5 26.5q0 22 -17.5 33.5t-58.5 16.5l30 70z" />
    <glyph glyph-name="uni00B9" unicode="&#xb9;" horiz-adv-x="340" 
d="M87 740l88 44h35v-362h-43v315l-63 -31z" />
    <glyph glyph-name="ordmasculine" unicode="&#xba;" horiz-adv-x="420" 
d="M212 793q34 0 64 -12.5t52 -35.5t35 -56.5t13 -75.5q0 -51 -15.5 -86.5t-40 -58t-54.5 -32.5t-59 -10q-32 0 -61.5 12t-52 35t-36 56.5t-13.5 77.5q0 45 14.5 80t38 58.5t53.5 35.5t62 12zM211 751q-56 0 -84.5 -41t-28.5 -101q0 -67 32.5 -104t78.5 -37t79 36.5
t33 107.5q0 27 -6.5 52t-20 44.5t-34.5 31t-49 11.5z" />
    <glyph glyph-name="onequarter" unicode="&#xbc;" horiz-adv-x="720" 
d="M414 52v33l159 265h50v-262h45v-36h-45v-67h-40v67h-169zM459 88h124v206zM54 598l88 44h35v-362h-43v315l-63 -31zM152 -36h-43l429 683h43z" />
    <glyph glyph-name="onehalf" unicode="&#xbd;" horiz-adv-x="720" 
d="M54 598l88 44h35v-362h-43v315l-63 -31zM435 -15v27q49 43 82.5 76t54.5 59.5t31 47.5t12 41q3 30 -15 51t-60 21q-23 0 -43.5 -13.5t-40.5 -33.5l-24 35q25 26 56 40t61 14q26 0 46.5 -9t34.5 -24t21 -34t7 -39q-1 -51 -40 -102t-114 -119h164v-38h-233zM128 -36h-43
l429 683h43z" />
    <glyph glyph-name="threequarters" unicode="&#xbe;" horiz-adv-x="720" 
d="M156 276q-28 0 -54 8.5t-48 20.5l17 32q16 -7 39.5 -15.5t44.5 -8.5q26 0 43.5 7t28.5 18t16 24t5 24q0 18 -9 31t-23.5 21t-33 11.5t-38.5 3.5h-27v36h27q36 0 62 14t26 47q0 22 -15 39.5t-56 17.5q-18 0 -41 -9t-37 -19l-17 31q22 16 47 26t57 10q25 0 44.5 -8t33 -21
t21 -29t7.5 -31q0 -21 -9 -43.5t-35 -39.5q32 -14 44.5 -37t12.5 -52q0 -20 -9 -39.5t-26 -35t-41.5 -25t-56.5 -9.5zM188 -36h-43l429 683h43zM414 52v33l159 265h50v-262h45v-36h-45v-67h-40v67h-169zM459 88h124v206z" />
    <glyph glyph-name="questiondown" unicode="&#xbf;" horiz-adv-x="440" 
d="M265 267q0 -21 -1.5 -42.5t-7.5 -43.5t-17.5 -45t-32.5 -45q-39 -43 -62 -76t-23 -70q0 -54 30 -76.5t78 -22.5q38 0 73.5 16.5t61.5 45.5l34 -42q-37 -40 -82.5 -59.5t-95.5 -19.5q-42 0 -74 12t-53.5 32t-32 46.5t-10.5 55.5q0 51 27.5 92t68.5 85q39 43 49.5 80
t10.5 78v32h59v-33zM271 482v-95h-69v95h69z" />
    <glyph glyph-name="AE" unicode="&#xc6;" horiz-adv-x="870" 
d="M472 298v-277h351v-53h-408v186h-235l-91 -186h-63l340 692h441v-53h-335v-257h319v-52h-319zM415 205v426l-210 -426h210z" />
    <glyph glyph-name="Eth" unicode="&#xd0;" horiz-adv-x="650" 
d="M88 338v322h210q77 0 133 -25.5t92 -71.5t53.5 -109.5t17.5 -138.5t-17.5 -139t-53.5 -110t-92 -72t-133 -26h-210v319h-77v51h77zM305 20q48 0 90 15.5t73 50.5t49 91.5t18 137.5t-19 136.5t-51.5 90.5t-76 50.5t-93.5 15.5h-148v-270h157v-51h-157v-267h158z" />
    <glyph glyph-name="multiply" unicode="&#xd7;" horiz-adv-x="560" 
d="M90 544l190 -215l190 215l31 -31l-191 -218l191 -216l-33 -32l-188 214l-188 -214l-33 32l191 216l-191 218z" />
    <glyph glyph-name="Oslash" unicode="&#xd8;" horiz-adv-x="700" 
d="M509 621q67 -47 103 -128t36 -175q0 -87 -24.5 -155t-66 -114.5t-97 -71t-116.5 -24.5q-29 0 -54 5t-48 15l-27 -68h-56l38 92q-36 24 -63 58.5t-45.5 75t-27.5 85.5t-9 90q0 80 23 147t63.5 115t95.5 74.5t119 26.5q60 0 111 -23l20 49h55zM114 308q0 -85 27.5 -152.5
t76.5 -106.5l226 549q-20 10 -43.5 15.5t-50.5 5.5q-58 0 -102 -26.5t-74 -70t-45 -99.5t-15 -115zM586 314q0 31 -5.5 66.5t-17 69.5t-30.5 65t-46 54l-224 -547q39 -18 86 -18q56 0 100 25t74.5 67.5t46.5 98.5t16 119z" />
    <glyph glyph-name="Thorn" unicode="&#xde;" horiz-adv-x="537" 
d="M284 516q101 0 150.5 -52.5t49.5 -149.5q0 -95 -50 -149t-150 -54h-141v-143h-56v692h56v-144h141zM280 164q68 0 109 36.5t41 111.5t-41 113t-109 38h-137v-299h137z" />
    <glyph glyph-name="germandbls" unicode="&#xdf;" horiz-adv-x="610" 
d="M383 -44q-37 0 -73 10t-61 25l15 45q23 -13 56 -22.5t65 -9.5q57 0 91 24t34 62q0 40 -29 62t-86 47q-65 28 -100.5 60t-35.5 79q0 32 13.5 53.5t33.5 37t43.5 26.5t43.5 23t33.5 26t13.5 35q0 20 -11.5 34.5t-31 24.5t-44 14.5t-49.5 4.5q-36 0 -65.5 -12t-50.5 -38
t-32.5 -67.5t-11.5 -100.5v-431h-57v433q0 70 15.5 121t44 84t68.5 48.5t89 15.5q34 0 68.5 -7.5t61.5 -24t43.5 -42t15.5 -62.5q-1 -28 -14.5 -47.5t-33 -33.5t-42.5 -24.5t-42 -22.5t-32 -26.5t-13 -35.5q0 -38 29.5 -60.5t86.5 -44.5q62 -25 97 -58.5t35 -86.5
q0 -63 -49 -100.5t-132 -37.5z" />
    <glyph glyph-name="ae" unicode="&#xe6;" horiz-adv-x="820" 
d="M581 3q25 0 46 4t39.5 10t35.5 14.5t34 17.5l13 -39q-38 -30 -81.5 -42.5t-94.5 -12.5q-53 0 -101.5 21.5t-85.5 72.5q-40 -51 -89.5 -73.5t-117.5 -22.5q-33 0 -59 12.5t-44 33t-27 45.5t-9 50q0 43 21.5 77.5t62 58t98 36t130.5 12.5v16q0 16 -4 39.5t-18 44.5t-40 36
t-69 15q-29 0 -64 -10.5t-67 -32.5l-14 39q33 23 74 36t85 13q29 0 54.5 -7.5t46 -20.5t35 -30.5t22.5 -36.5q11 18 27.5 35.5t38 30.5t47 21t54.5 8q56 0 96.5 -21t66 -57t36.5 -84.5t9 -103.5h-360v-31q0 -44 14 -76.5t38 -54.5t55 -32.5t66 -10.5zM352 229
q-36 3 -80.5 -1.5t-83 -18.5t-65 -39t-26.5 -65q0 -26 8.5 -46t23 -33.5t33.5 -20.5t39 -7q29 0 53.5 8t43 21.5t31 30.5t18.5 36q3 10 4 21.5t1 17.5v96zM715 253q0 29 -8.5 60t-27 57t-48 42.5t-71.5 16.5t-71 -16t-47 -39.5t-26 -50.5t-8 -49v-21h307z" />
    <glyph glyph-name="eth" unicode="&#xf0;" horiz-adv-x="560" 
d="M332 611q15 -9 28.5 -20t26.5 -24q51 -52 83 -132.5t32 -184.5q0 -66 -17.5 -120.5t-48.5 -94t-73.5 -61t-92.5 -21.5t-91 19.5t-70 52.5t-44.5 78t-15.5 96q0 48 15.5 89t42.5 71t63 46.5t78 16.5q62 0 110 -24t80 -69q-5 64 -30 116t-59 85q-28 26 -61 46l-120 -98
l-31 39q26 21 51 41.5t50 40.5q-29 11 -61 15.5t-67 4.5l6 54q45 -2 87.5 -11t80.5 -26q17 14 34.5 28t35.5 28l32 -37zM268 2q40 0 72 17.5t54.5 48t35 71.5t12.5 87q0 14 -3 25t-8 21q-11 21 -27.5 40t-37 33t-43.5 22.5t-47 8.5q-40 0 -71.5 -13.5t-53.5 -38t-33.5 -58.5
t-11.5 -74q0 -42 11.5 -76.5t32.5 -60t51 -39.5t67 -14z" />
    <glyph glyph-name="divide" unicode="&#xf7;" horiz-adv-x="550" 
d="M337 486q0 -26 -16 -42t-41 -16t-41 16t-16 42q0 25 16 41t41 16t41 -16t16 -41zM508 327v-52h-456v52h456zM337 115q0 -26 -16 -42t-41 -16t-41 16t-16 42q0 25 16 41t41 16t41 -16t16 -41z" />
    <glyph glyph-name="oslash" unicode="&#xf8;" horiz-adv-x="580" 
d="M406 446q54 -30 86 -88.5t32 -139.5q0 -68 -22 -118t-56.5 -82.5t-76.5 -48.5t-83 -16q-38 0 -75 14l-20 -50h-52l29 71q-48 30 -80 85.5t-32 136.5q0 60 19.5 109t52.5 83.5t76 53t90 18.5q38 0 68 -10l23 56h52zM465 215q0 57 -20.5 105t-58.5 76l-156 -383
q28 -12 60 -12q35 0 67 15.5t56 44t38 68t14 86.5zM115 213q0 -62 20.5 -106t52.5 -70l155 381q-26 8 -51 8q-43 0 -76 -18t-55.5 -48t-34 -68.5t-11.5 -78.5z" />
    <glyph glyph-name="thorn" unicode="&#xfe;" horiz-adv-x="570" 
d="M131 380q38 60 88.5 85.5t106.5 25.5q43 0 79.5 -18.5t63.5 -52t42 -79.5t15 -101q0 -65 -19 -114.5t-49 -82.5t-68.5 -50t-77.5 -17q-23 0 -46.5 3.5t-46 14t-45 29t-43.5 49.5v-283h-56v891h56v-300zM131 184q0 -31 12.5 -59.5t34.5 -50.5t51.5 -35t64.5 -13
q40 0 72 15.5t54.5 43.5t35 67t12.5 85q0 40 -11.5 77.5t-34 65.5t-54.5 45t-72 17q-33 0 -62.5 -14t-52 -36.5t-36 -52t-14.5 -59.5v-96z" />
    <glyph glyph-name="dcroat" unicode="&#x111;" horiz-adv-x="620" 
d="M493 559v-591h-58v78q-17 -28 -37 -45.5t-43 -27.5t-47.5 -13.5t-48.5 -3.5q-39 0 -78 17t-69.5 50t-50 82.5t-19.5 114.5q0 55 15.5 101t43 79.5t64.5 52t80 18.5q31 0 57 -4.5t48.5 -16t43 -30t41.5 -45.5v184h-144v52h144v79h58v-79h92v-52h-92zM435 254
q0 31 -12.5 61t-34 54t-50.5 38.5t-63 14.5q-41 0 -72.5 -16t-54 -44t-34 -65.5t-11.5 -79.5q0 -48 12.5 -87t35 -66.5t54.5 -42.5t72 -15q34 0 63 13t50 35t33 50.5t12 59.5v90z" />
    <glyph glyph-name="Hbar" unicode="&#x126;" horiz-adv-x="720" 
d="M121 533v127h59v-127h358v127h59v-127h75v-54h-75v-511h-59v331h-358v-331h-59v511h-74v54h74zM180 353h358v126h-358v-126z" />
    <glyph glyph-name="hbar" unicode="&#x127;" horiz-adv-x="610" 
d="M121 559h-89v52h89v79h59v-79h146v-52h-146v-189q15 20 36.5 38.5t46 32.5t51.5 22t54 8q40 0 71.5 -13t53.5 -35.5t33.5 -53t11.5 -65.5v-336h-59v337q0 54 -30.5 84.5t-90.5 30.5q-27 0 -52 -9.5t-47.5 -26t-42.5 -38t-36 -45.5v-333h-59v591z" />
    <glyph glyph-name="dotlessi" unicode="&#x131;" horiz-adv-x="240" 
d="M91 460h59v-492h-59v492z" />
    <glyph glyph-name="IJ" unicode="&#x132;" horiz-adv-x="620" 
d="M528 660v-477q0 -68 -15.5 -111.5t-41.5 -69.5t-62 -36t-76 -10q-20 0 -44.5 2t-45.5 8l9 51q13 -2 34 -5t40 -3q33 0 59.5 7.5t45 27.5t28.5 54.5t10 88.5v473h59zM150 -32h-59v692h59v-692z" />
    <glyph glyph-name="ij" unicode="&#x133;" horiz-adv-x="460" 
d="M145 569h-59v91h59v-91zM86 460h59v-492h-59v492zM370 569h-59v91h59v-91zM178 -187q30 4 55 12t42 23t26.5 39t9.5 61v512h59v-512q0 -85 -45 -128t-142 -54z" />
    <glyph glyph-name="kgreenlandic" unicode="&#x138;" horiz-adv-x="482" 
d="M223 254l236 -285h-64l-210 251l-54 -49v-202h-55v491h55v-222l252 222h70z" />
    <glyph glyph-name="Ldot" unicode="&#x13f;" horiz-adv-x="520" 
d="M88 -32v692h60v-639h327v-53h-387zM406 309h-91v91h91v-91z" />
    <glyph glyph-name="ldot" unicode="&#x140;" horiz-adv-x="440" 
d="M145 686v-714h-54v714h54zM359 290h-79v87h79v-87z" />
    <glyph glyph-name="Lslash" unicode="&#x141;" horiz-adv-x="550" 
d="M127 -32v265l-105 -60v57l105 60v370h60v-335l197 113v-57l-197 -113v-247h327v-53h-387z" />
    <glyph glyph-name="lslash" unicode="&#x142;" horiz-adv-x="340" 
d="M194 686v-274l76 62l30 -38l-106 -87v-377h-54v333l-68 -55l-31 39l99 80v317h54z" />
    <glyph glyph-name="napostrophe" unicode="&#x149;" horiz-adv-x="690" 
d="M228 449h59v-72q33 36 71.5 59.5t92.5 23.5q40 0 72 -12.5t54.5 -35t34.5 -53t12 -65.5v-336h-59v337q0 54 -32 84t-92 30q-45 0 -84 -25.5t-70 -63.5v-362h-59v491zM148 475q0 -57 -21.5 -92t-79.5 -46v39q30 5 45.5 25.5t15.5 61.5v15h-52v91h92v-94z" />
    <glyph glyph-name="Eng" unicode="&#x14a;" horiz-adv-x="665" 
d="M581 -94q0 -57 -23.5 -82t-65.5 -25q-23 0 -47 10.5t-51 42.5l23 27q12 -12 29 -24t31 -12q26 0 36.5 12t10.5 44v67l-382 649v-647h-55v692h87l352 -595v595h55v-754z" />
    <glyph glyph-name="eng" unicode="&#x14b;" horiz-adv-x="543" 
d="M77 459h59v-72q33 36 71.5 59.5t92.5 23.5q40 0 72 -12.5t54.5 -35t34.5 -53t12 -65.5v-398q0 -52 -24 -79.5t-66 -27.5q-23 0 -48 11.5t-50 43.5l24 28q12 -15 28.5 -27t30.5 -12q26 0 36 15t10 41v406q0 54 -32 84t-92 30q-45 0 -84 -25.5t-70 -63.5v-362h-59v491z" />
    <glyph glyph-name="OE" unicode="&#x152;" horiz-adv-x="900" 
d="M496 300v-279h360v-53h-506q-63 0 -116.5 22.5t-92.5 66t-61 106t-22 143.5q0 84 21 149.5t59 111t90.5 69.5t116.5 24h495v-53h-344v-255h328v-52h-328zM118 306q0 -63 15.5 -115.5t45.5 -90t73 -58.5t98 -21h89v587h-94q-58 0 -101 -23.5t-71 -64t-41.5 -96
t-13.5 -118.5z" />
    <glyph glyph-name="oe" unicode="&#x153;" horiz-adv-x="900" 
d="M276 -47q-46 0 -88.5 16.5t-74.5 48.5t-51.5 80.5t-19.5 111.5q0 66 19 115.5t51 82.5t74.5 49.5t89.5 16.5q61 0 111 -27t81 -76q28 49 77.5 76t101.5 27q56 0 96.5 -21t66 -57t36.5 -84.5t9 -103.5h-360v-31q0 -44 14 -76.5t38 -54.5t55 -32.5t66 -10.5q25 0 46 4
t39.5 10t35.5 14.5t34 17.5l13 -39q-38 -30 -81.5 -42.5t-94.5 -12.5q-48 0 -100.5 26.5t-91.5 79.5q-15 -24 -36 -44t-46 -34.5t-53.5 -22t-56.5 -7.5zM276 428q-43 0 -76 -18t-55.5 -48t-34 -69.5t-11.5 -82.5q0 -49 14 -88t38.5 -66.5t56.5 -42t68 -14.5q37 0 68.5 14.5
t54.5 42t36 66.5t13 88q0 46 -10.5 86t-31.5 69.5t-53.5 46t-76.5 16.5zM802 253q0 29 -8.5 60t-27 57t-48 42.5t-71.5 16.5t-71 -16t-47 -39.5t-26 -50.5t-8 -49v-21h307z" />
    <glyph glyph-name="Tbar" unicode="&#x166;" horiz-adv-x="530" 
d="M291 404v-436h-59v436h-152v51h152v154h-202v51h470v-51h-209v-154h163v-51h-163z" />
    <glyph glyph-name="tbar" unicode="&#x167;" horiz-adv-x="333" 
d="M125 306v105h-89v46h89v137h54v-137h122v-46h-122v-105h122v-46h-122v-165q0 -26 4 -43t18 -31q18 -18 47.5 -17.5t59.5 4.5l5 -42q-8 -2 -19.5 -4t-23 -3.5t-22.5 -2t-18 -0.5q-31 1 -51.5 13t-32.5 31.5t-16.5 44t-4.5 50.5v165h-89v46h89z" />
    <glyph glyph-name="caron" unicode="&#x2c7;" horiz-adv-x="360" 
d="M216 602h-74l-94 145h68l64 -106l65 106h66z" />
    <glyph glyph-name="uni02D0" unicode="&#x2d0;" horiz-adv-x="300" 
d="M152 380l-85 146h166zM234 73h-167l85 146z" />
    <glyph glyph-name="breve" unicode="&#x2d8;" horiz-adv-x="375" 
d="M189 635q-48 0 -81.5 28t-38.5 83h60q3 -32 19 -49t41 -17t41 17t19 49h60q-5 -55 -38.5 -83t-81.5 -28z" />
    <glyph glyph-name="dotaccent" unicode="&#x2d9;" horiz-adv-x="300" 
d="M110 661v81h80v-81h-80z" />
    <glyph glyph-name="ring" unicode="&#x2da;" horiz-adv-x="300" 
d="M238 676q0 -20 -7 -36.5t-19 -28t-28 -18t-34 -6.5q-36 0 -62.5 24.5t-26.5 64.5t27 64t62 24q17 0 33 -6.5t28 -18t19.5 -28t7.5 -35.5zM192 675q0 18 -12.5 30.5t-29.5 12.5q-18 0 -30.5 -12.5t-12.5 -30.5t12.5 -30t30.5 -12q17 0 29.5 12t12.5 30z" />
    <glyph glyph-name="ogonek" unicode="&#x2db;" horiz-adv-x="300" 
d="M192 -37q-30 -8 -52 -29t-22 -52q0 -22 17 -31t37 -9q12 0 28.5 3.5t26.5 9.5l9 -25q-17 -11 -38.5 -18t-47.5 -7q-16 0 -31.5 4t-27.5 13t-19.5 23.5t-7.5 35.5q0 20 9 38.5t24.5 34t36.5 27t46 16.5z" />
    <glyph glyph-name="hungarumlaut" unicode="&#x2dd;" horiz-adv-x="440" 
d="M137 744h86l-109 -140h-60zM284 744h86l-109 -140h-60z" />
    <glyph glyph-name="Alpha" unicode="&#x391;" horiz-adv-x="600" 
d="M37 -28l225 681h75l225 -681h-58l-58 179h-293l-57 -179h-59zM299 604l-131 -406h262z" />
    <glyph glyph-name="Beta" unicode="&#x392;" horiz-adv-x="570" 
d="M281 660q98 0 150 -42.5t52 -127.5q0 -25 -4.5 -47t-16 -42.5t-32 -38.5t-52.5 -34q76 -18 107 -60.5t31 -102.5q0 -99 -50.5 -148t-149.5 -49h-229v692h194zM303 17q72 0 115 36t43 114q0 34 -12.5 59t-35 41t-53 24t-67.5 8h-150v-282h160zM270 351q69 0 113.5 33
t44.5 104q0 32 -11.5 55t-32 38t-47.5 22.5t-58 7.5h-136v-260h127z" />
    <glyph glyph-name="Gamma" unicode="&#x393;" horiz-adv-x="530" 
d="M87 -32v692h397v-52h-338v-640h-59z" />
    <glyph glyph-name="uni0394" unicode="&#x394;" horiz-adv-x="640" 
d="M29 -34l269 696h56l256 -696h-581zM325 581l-214 -565h418z" />
    <glyph glyph-name="Epsilon" unicode="&#x395;" horiz-adv-x="560" 
d="M144 299v-278h356v-53h-413v692h397v-53h-340v-256h324v-52h-324z" />
    <glyph glyph-name="Zeta" unicode="&#x396;" horiz-adv-x="570" 
d="M447 607h-388v53h457v-42l-400 -593h405v-53h-475v39z" />
    <glyph glyph-name="Eta" unicode="&#x397;" horiz-adv-x="660" 
d="M144 351h371v309h57v-692h-57v331h-371v-331h-57v692h57v-309z" />
    <glyph glyph-name="Theta" unicode="&#x398;" horiz-adv-x="700" 
d="M350 -44q-63 0 -117 24.5t-93.5 69.5t-62 110t-22.5 146q0 84 22 150.5t61.5 113t93.5 71.5t118 25t118 -25t93.5 -71.5t61.5 -113t22 -150.5q0 -81 -22.5 -146t-62 -110t-93.5 -69.5t-117 -24.5zM350 617q-58 0 -102.5 -25t-74.5 -67.5t-45.5 -99t-15.5 -119.5
t16.5 -118t47.5 -95.5t75 -63.5t99 -23t99 23t75 63.5t47.5 95.5t16.5 118t-15.5 119.5t-45.5 99t-74.5 67.5t-102.5 25zM196 279v52h308v-52h-308z" />
    <glyph glyph-name="Iota" unicode="&#x399;" horiz-adv-x="241" 
d="M149 -26h-57v680h57v-680z" />
    <glyph glyph-name="Kappa" unicode="&#x39a;" horiz-adv-x="593" 
d="M144 301l339 353h67l-278 -292l300 -388h-66l-272 349l-90 -95v-254h-57v680h57v-353z" />
    <glyph glyph-name="Lambda" unicode="&#x39b;" horiz-adv-x="600" 
d="M299 604l-203 -632h-59l225 681h75l225 -681h-58z" />
    <glyph glyph-name="Mu" unicode="&#x39c;" horiz-adv-x="780" 
d="M642 -32v642l-210 -642h-84l-210 643v-643h-51v692h88l215 -661l215 661h88v-692h-51z" />
    <glyph glyph-name="Nu" unicode="&#x39d;" horiz-adv-x="665" 
d="M580 -32h-75l-367 634v-634h-51v692h76l366 -632v632h51v-692z" />
    <glyph glyph-name="Xi" unicode="&#x39e;" horiz-adv-x="660" 
d="M86 607v53h485v-53h-485zM160 299v52h338v-52h-338zM86 -31v53h485v-53h-485z" />
    <glyph glyph-name="Omicron" unicode="&#x39f;" horiz-adv-x="700" 
d="M350 -44q-63 0 -117 24.5t-93.5 69.5t-62 110t-22.5 146q0 84 22 150.5t61.5 113t93.5 71.5t118 25t118 -25t93.5 -71.5t61.5 -113t22 -150.5q0 -81 -22.5 -146t-62 -110t-93.5 -69.5t-117 -24.5zM350 617q-58 0 -102.5 -25t-74.5 -67.5t-45.5 -99t-15.5 -119.5
t16.5 -118t47.5 -95.5t75 -63.5t99 -23t99 23t75 63.5t47.5 95.5t16.5 118t-15.5 119.5t-45.5 99t-74.5 67.5t-102.5 25z" />
    <glyph glyph-name="Pi" unicode="&#x3a0;" horiz-adv-x="660" 
d="M514 -32v640h-368v-640h-59v692h486v-692h-59z" />
    <glyph glyph-name="Rho" unicode="&#x3a1;" horiz-adv-x="557" 
d="M305 660q100 0 150 -55t50 -151q0 -95 -50 -151t-150 -56h-162v-279h-56v692h218zM301 300q68 0 109 38.5t41 113.5t-41 115t-109 40h-158v-307h158z" />
    <glyph glyph-name="Sigma" unicode="&#x3a3;" horiz-adv-x="570" 
d="M60 -28v24l316 320l-316 298v46h456v-52h-371l306 -288l-289 -293h355v-55h-457z" />
    <glyph glyph-name="Tau" unicode="&#x3a4;" horiz-adv-x="530" 
d="M30 607v53h470v-53h-210v-639h-57v639h-203z" />
    <glyph glyph-name="Upsilon" unicode="&#x3a5;" horiz-adv-x="600" 
d="M270 264l-242 396h65l206 -345l211 345h61l-244 -395v-297h-57v296z" />
    <glyph glyph-name="Phi" unicode="&#x3a6;" horiz-adv-x="640" 
d="M61 306q0 54 17.5 98.5t48.5 77t73 52t91 24.5v102h57v-102q49 -5 91 -24.5t73 -52t48.5 -77t17.5 -98.5t-17.5 -98.5t-48.5 -77t-73 -52.5t-91 -24v-85h-57v85q-49 4 -91 24t-73 52.5t-48.5 77t-17.5 98.5zM519 306q0 40 -12 74.5t-34.5 60.5t-54 42t-70.5 21v-396
q39 4 70.5 20.5t54 42.5t34.5 60t12 75zM120 307q0 -41 12.5 -75t35.5 -60.5t54 -43t69 -20.5v396q-38 -5 -69 -21.5t-54 -42t-35.5 -59.5t-12.5 -74z" />
    <glyph glyph-name="Chi" unicode="&#x3a7;" horiz-adv-x="590" 
d="M295 267l-195 -299h-61l225 347l-225 345h63l193 -298l194 298h63l-226 -345l226 -347h-61z" />
    <glyph glyph-name="Psi" unicode="&#x3a8;" horiz-adv-x="680" 
d="M367 219q39 3 72.5 15.5t59 36.5t40 60t14.5 86v243h57v-230q0 -67 -19.5 -115.5t-53 -80.5t-77.5 -48.5t-93 -19.5v-197h-57v197q-48 4 -91.5 20.5t-76.5 48.5t-52 80t-19 115v230h57v-243q0 -50 14 -85.5t38.5 -59.5t58 -37t71.5 -16v441h57v-441z" />
    <glyph glyph-name="uni03A9" unicode="&#x3a9;" horiz-adv-x="760" 
d="M380 616q-61 0 -108 -21.5t-78.5 -58t-48 -86.5t-16.5 -107q0 -51 12 -100t36 -91.5t58.5 -78.5t79.5 -61v-44h-257v52h170q-78 54 -117 138t-39 184q0 72 21.5 131.5t62 102t97 66t127.5 23.5q70 0 127 -23.5t97.5 -66t62 -102t21.5 -131.5q0 -100 -39 -184t-117 -138
h170v-52h-257v44q45 25 79.5 61t58.5 78.5t36 91.5t12 100q0 57 -16.5 107t-48 86.5t-78.5 58t-108 21.5z" />
    <glyph glyph-name="alpha" unicode="&#x3b1;" horiz-adv-x="623" 
d="M498 -3q25 0 44.5 18t27.5 46l36 -14q-16 -47 -43 -70.5t-70 -23.5q-14 0 -28 4t-27.5 16t-25.5 34t-22 58q-19 -37 -38 -58.5t-38.5 -33t-39.5 -14.5t-41 -3q-49 0 -85 17.5t-60 50t-35 77.5t-9 101t16 105t40 85.5t64.5 57.5t89.5 21q27 0 53.5 -9.5t49.5 -29.5
t40.5 -51.5t25.5 -75.5l47 146l49 -15l-96 -281q1 -34 7.5 -63t17 -50t23.5 -33t27 -12zM380 225q2 39 -5 75.5t-23 64.5t-40.5 45t-57.5 17q-41 0 -70 -21.5t-47.5 -54.5t-27.5 -73.5t-10 -77.5q-2 -103 34 -152t99 -49q38 0 65 23t45 57t27 73.5t11 72.5z" />
    <glyph glyph-name="beta" unicode="&#x3b2;" horiz-adv-x="540" 
d="M489 168q0 -41 -14 -79t-39.5 -67.5t-61.5 -47.5t-81 -18q-34 0 -74.5 11.5t-75.5 40.5v-171h-56v650q0 47 13 80.5t37 55t58 31.5t75 10q45 0 80 -14t60 -38t38 -56t13 -68q0 -40 -16.5 -76.5t-63.5 -69.5q57 -29 82.5 -76.5t25.5 -97.5zM432 168q0 28 -10 54.5
t-28.5 47.5t-45 34t-59.5 13h-32v42h32q50 0 83.5 29.5t33.5 98.5q0 57 -36.5 94t-99.5 37q-27 0 -50.5 -7t-40.5 -23.5t-26.5 -42.5t-9.5 -63v-417q24 -29 63 -45t77 -16q34 0 62 13t47 35.5t29.5 52t10.5 63.5z" />
    <glyph glyph-name="gamma" unicode="&#x3b3;" horiz-adv-x="520" 
d="M287 75q16 -23 36.5 -50.5t35.5 -60.5q14 -31 12.5 -60.5t-15.5 -53t-40 -37.5t-61 -14q-31 0 -58 13.5t-43.5 36t-19.5 53t14 63.5q15 29 34.5 57t41.5 56l-200 359l47 21l184 -329l192 328l47 -21zM320 -82q0 13 -6 28t-15.5 30.5t-21 30.5t-21.5 28q-11 -12 -23 -26.5
t-21.5 -29.5t-16 -30.5t-6.5 -30.5q0 -33 15.5 -52t50.5 -19q34 0 49.5 19t15.5 52z" />
    <glyph glyph-name="delta" unicode="&#x3b4;" horiz-adv-x="560" 
d="M49 188q0 45 16 83t42.5 68.5t60.5 53.5t70 39q-48 37 -67.5 66t-19.5 64q0 18 8.5 36t26 32.5t44.5 24t64 9.5q22 0 45 -4t43.5 -10.5t37.5 -14.5t28 -15l-25 -38q-20 12 -54 25t-72 13q-26 0 -43 -6t-27.5 -15.5t-15 -21.5t-4.5 -23q0 -18 9.5 -33t24.5 -29t33.5 -26.5
t37.5 -24.5q92 -59 145.5 -119.5t53.5 -129.5q0 -57 -18.5 -101t-50.5 -74t-74 -46t-88 -16q-44 0 -86 13t-74 41.5t-51.5 72.5t-19.5 106zM455 185q0 36 -12.5 64t-36 53t-56.5 49.5t-75 53.5q-30 -14 -60.5 -35.5t-54.5 -48.5t-39 -60.5t-15 -71.5q0 -51 16.5 -87
t42 -58.5t57.5 -33t63 -10.5q32 0 62.5 11.5t54.5 35t38.5 58t14.5 80.5z" />
    <glyph glyph-name="epsilon" unicode="&#x3b5;" horiz-adv-x="470" 
d="M429 72q-23 -54 -73 -85t-119 -31q-35 0 -69 7t-61 23.5t-44 43t-17 65.5q0 21 8.5 43t25.5 41.5t44 33.5t64 19q-39 10 -63.5 24.5t-38 30t-18 31.5t-4.5 31q0 36 15.5 60.5t41 39.5t57 21.5t63.5 6.5q63 0 106 -25t71 -64l-42 -22q-21 25 -52.5 45.5t-82.5 20.5
q-62 0 -93 -24.5t-31 -56.5q0 -24 17.5 -42t44.5 -29.5t59 -17.5t60 -6v-48q-37 -2 -72.5 -9t-63 -20.5t-44 -33.5t-16.5 -48q0 -26 11 -44t30 -29.5t43.5 -17t50.5 -5.5q57 0 92.5 25t58.5 64z" />
    <glyph glyph-name="zeta" unicode="&#x3b6;" horiz-adv-x="460" 
d="M419 -89q0 -22 -9 -42t-25.5 -35t-39.5 -24t-52 -9q-22 0 -49.5 7t-50.5 18l17 42q17 -8 40 -14t43 -6q59 0 71 59q5 25 -7.5 42t-33.5 27.5t-45.5 16.5t-44.5 11q-170 40 -178 199q-5 91 52 191.5t171 212.5h-194v53h268v-54q-47 -41 -91.5 -89t-78 -100t-53.5 -106.5
t-17 -108.5q2 -37 14 -63t32 -44.5t47 -29.5t59 -18q31 -7 59.5 -16t49.5 -24t33.5 -38.5t12.5 -57.5z" />
    <glyph glyph-name="eta" unicode="&#x3b7;" horiz-adv-x="600" 
d="M415 310q0 31 -11.5 52.5t-30.5 34.5t-43.5 18.5t-50.5 5.5q-18 0 -39 -7t-41 -20t-37 -32t-29 -43v-350h-57v491h57v-67q19 27 41.5 42.5t44.5 23.5t42.5 10.5t37.5 2.5q34 0 65.5 -11t55.5 -32t38 -51t14 -67v-364q0 -26 7.5 -41t33.5 -15q13 0 29.5 10.5t28.5 27.5
l27 -31q-20 -25 -46.5 -39.5t-53.5 -14.5q-42 0 -62.5 27.5t-20.5 79.5v359v0z" />
    <glyph glyph-name="theta" unicode="&#x3b8;" horiz-adv-x="580" 
d="M290 -44q-56 0 -99.5 24.5t-73.5 69.5t-46 110t-16 146q0 84 16 150.5t46 113t73.5 71.5t99.5 25t99.5 -25t73.5 -71.5t46 -113t16 -150.5q0 -81 -16 -146t-46 -110t-74 -69.5t-99 -24.5zM290 617q-45 0 -77.5 -22.5t-54.5 -61.5t-33 -91t-13 -111h355q-2 59 -13 111
t-32.5 91t-54 61.5t-77.5 22.5zM290 6q42 0 74 20.5t54 57.5t34.5 86.5t14.5 108.5h-355q2 -59 14.5 -108.5t35 -86.5t54.5 -57.5t74 -20.5z" />
    <glyph glyph-name="iota" unicode="&#x3b9;" horiz-adv-x="280" 
d="M144 456v-400q0 -56 46 -56q16 0 31.5 10.5t28.5 27.5l24 -28q-20 -25 -45 -39.5t-54 -14.5q-84 0 -84 107v393h53z" />
    <glyph glyph-name="kappa" unicode="&#x3ba;" horiz-adv-x="482" 
d="M135 237l244 223h69l-217 -202l224 -290h-65l-196 255l-59 -55v-200h-59v492h59v-223z" />
    <glyph glyph-name="lambda" unicode="&#x3bb;" horiz-adv-x="629" 
d="M277 404l-182 -439l-49 19l208 499l-17 56q-13 42 -34 55t-49 15q-8 1 -19.5 -1t-25.5 -7l-15 58q16 4 33 6.5t32 0.5q42 -3 74 -24.5t50 -79.5l143 -469q11 -33 27 -55t42 -24q32 -2 50 13t29 41l45 -18q-18 -44 -46.5 -68.5t-77.5 -24.5q-44 0 -73 33t-46 89z" />
    <glyph glyph-name="uni03BC" unicode="&#x3bc;" horiz-adv-x="540" 
d="M416 460h57v-342q0 -37 -14.5 -67t-38.5 -51t-55.5 -32t-65.5 -11q-17 0 -37.5 2.5t-42.5 10.5t-44.5 23.5t-41.5 42.5v-267h-57v691h57v-350q12 -24 29 -43t37 -32t41 -20t39 -7q26 0 50.5 5.5t44 18.5t31 34.5t11.5 52.5v341z" />
    <glyph glyph-name="nu" unicode="&#x3bd;" horiz-adv-x="500" 
d="M302 -32h-52l-151 392q-14 36 -37 46t-46 10v50q39 0 74 -17.5t54 -69.5l133 -346l153 427h54z" />
    <glyph glyph-name="xi" unicode="&#x3be;" horiz-adv-x="460" 
d="M233 4q-25 6 -49 17.5t-43 29t-30.5 40.5t-11.5 53q0 66 45 120t131 92q-45 21 -75.5 47t-30.5 67q0 45 30 79.5t75 57.5h-190v53h268v-54q-14 -9 -36 -22t-42.5 -30t-35.5 -37.5t-15 -43.5q0 -18 10 -32.5t24.5 -25.5t31 -19t29.5 -15v-61q-77 -30 -118.5 -74.5
t-41.5 -101.5q0 -23 8.5 -39.5t23.5 -28t34 -18.5t40 -11q31 -7 59.5 -16t49.5 -24t33.5 -38.5t12.5 -57.5q0 -22 -9 -42t-25.5 -35t-39.5 -24t-52 -9q-22 0 -49.5 7t-50.5 18l17 42q17 -8 40 -14t43 -6q59 0 71 59q5 25 -7.5 41.5t-33.5 27t-45.5 17t-44.5 11.5z" />
    <glyph glyph-name="omicron" unicode="&#x3bf;" horiz-adv-x="550" 
d="M275 -44q-47 0 -88.5 17t-73.5 50t-50.5 80t-18.5 107q0 63 18 111.5t49.5 82t73.5 50.5t90 17t90 -17t73.5 -50.5t49.5 -82t18 -111.5q0 -60 -18.5 -107t-50.5 -80t-74 -50t-88 -17zM275 425q-44 0 -76 -17.5t-53 -47t-31 -68.5t-10 -82q0 -50 13 -88.5t35.5 -65
t54 -40.5t67.5 -14t67.5 14t54 40.5t35.5 65t13 88.5q0 43 -10.5 82t-31.5 68.5t-53 47t-75 17.5z" />
    <glyph glyph-name="pi" unicode="&#x3c0;" horiz-adv-x="620" 
d="M230 408v-250q0 -54 -9 -91.5t-29 -61t-52 -35t-79 -12.5v51q31 1 52.5 8t34.5 24t18.5 47t5.5 78v242h-114v52h496v-52h-116v-356q0 -26 11 -37t33 -11q13 0 28 10t28 26l26 -31q-20 -25 -45 -39t-52 -14q-42 0 -64.5 25.5t-22.5 77.5v349h-150z" />
    <glyph glyph-name="rho" unicode="&#x3c1;" horiz-adv-x="570" 
d="M76 194q0 84 21.5 138t54 85t70.5 42.5t70 11.5q48 0 90.5 -17t75 -50t51.5 -82.5t19 -114.5q0 -55 -15.5 -101t-43 -79.5t-64.5 -52t-80 -18.5q-63 0 -112 23t-83 84v-294h-54v425zM135 173q0 -31 14 -61t36.5 -54t51 -38.5t58.5 -14.5q43 0 75.5 17t55 45.5t34.5 65.5
t12 77q0 46 -12 85t-35.5 67t-56.5 43.5t-75 15.5q-35 0 -64 -14t-50 -40t-32.5 -63.5t-11.5 -84.5v-46z" />
    <glyph glyph-name="sigma" unicode="&#x3c3;" horiz-adv-x="570" 
d="M275 471q64 0 131.5 9t128.5 20l8 -48q-26 -3 -65.5 -7t-80.5 -6q53 -42 81 -100t28 -129q0 -60 -19 -107t-50.5 -79.5t-73.5 -50t-88 -17.5t-88 17.5t-73.5 50t-50.5 79.5t-19 107q0 63 18.5 111.5t50 81.5t73.5 50.5t89 17.5zM275 423q-43 0 -75 -17.5t-53.5 -46.5
t-32 -67.5t-10.5 -81.5q0 -49 13 -87.5t36.5 -64.5t54.5 -40t67 -14t67 14t54.5 40t36.5 64.5t13 87.5q0 43 -10.5 81.5t-32 67.5t-53.5 46.5t-75 17.5z" />
    <glyph glyph-name="tau" unicode="&#x3c4;" horiz-adv-x="530" 
d="M287 407v-351q0 -56 46 -56q16 0 31.5 10.5t28.5 27.5l24 -28q-20 -25 -45 -39.5t-54 -14.5q-84 0 -84 107v344h-205v53h472v-53h-214z" />
    <glyph glyph-name="upsilon" unicode="&#x3c5;" horiz-adv-x="555" 
d="M440 184q0 34 -6.5 72.5t-16.5 75t-21.5 70t-21.5 59.5l51 11q13 -30 25 -64.5t21 -72t14.5 -75t5.5 -73.5q0 -46 -11 -88t-36 -73.5t-65.5 -50.5t-99.5 -19q-45 0 -82 14t-63.5 40.5t-41.5 64.5t-15 85v300h55v-294q0 -36 11 -65t30 -49t45.5 -30.5t56.5 -10.5
q46 0 77.5 14t51 37.5t28 55t8.5 66.5z" />
    <glyph glyph-name="phi" unicode="&#x3c6;" horiz-adv-x="550" 
d="M248 -151v109q-43 4 -80.5 23.5t-65 51.5t-43 76.5t-15.5 100.5q0 58 15.5 104t42.5 79t64.5 52t81.5 24v108h55v-108q44 -5 81 -24t64 -52t42.5 -79t15.5 -104q0 -56 -15.5 -100t-43 -76.5t-64.5 -51.5t-80 -24v-109h-55zM102 210q0 -45 11 -81t30.5 -62t46.5 -42.5
t58 -21.5v421q-36 -6 -63.5 -25.5t-46 -48.5t-27.5 -65t-9 -75zM448 210q0 39 -9 75t-27.5 65t-45.5 48.5t-63 25.5v-421q31 5 57.5 21.5t46 43t30.5 62.5t11 80z" />
    <glyph glyph-name="chi" unicode="&#x3c7;" horiz-adv-x="550" 
d="M275 62l-175 -295h-61l205 347l-205 345h63l173 -293l174 293h63l-206 -345l206 -347h-61z" />
    <glyph glyph-name="psi" unicode="&#x3c8;" horiz-adv-x="680" 
d="M367 19q39 3 72.5 15.5t59 36.5t40 60t14.5 86v243h57v-230q0 -67 -19.5 -115.5t-53 -80.5t-77.5 -48.5t-93 -19.5v-197h-57v198q-48 4 -91.5 20.5t-76.5 48t-52 79.5t-19 115v230h57v-243q0 -50 14 -85.5t38.5 -59.5t58 -37t71.5 -16v441h57v-441z" />
    <glyph glyph-name="omega" unicode="&#x3c9;" horiz-adv-x="720" 
d="M485 -44q-27 0 -63 16.5t-62 46.5q-27 -31 -63 -47t-63 -16q-44 0 -78.5 18.5t-58.5 49t-36.5 70.5t-12.5 83q0 88 26 161.5t76 128.5l41 -27q-42 -48 -64.5 -117t-22.5 -145q0 -28 6.5 -57t22 -53t40.5 -39t62 -15q19 0 37 7.5t31.5 20t22 29t8.5 33.5v181h51v-181
q0 -17 8.5 -33.5t22 -29t31.5 -20t37 -7.5q37 0 62 15t40.5 39t22 53t6.5 57q0 77 -23 145.5t-65 116.5l41 27q50 -55 76.5 -128.5t26.5 -161.5q0 -43 -12.5 -83t-36.5 -70.5t-58.5 -49t-78.5 -18.5z" />
    <glyph glyph-name="uni0401" unicode="&#x401;" horiz-adv-x="560" 
d="M221 687h-81v81h81v-81zM429 687h-81v81h81v-81zM144 269v-248h356v-53h-413v632h397v-53h-340v-226h324v-52h-324z" />
    <glyph glyph-name="uni0410" unicode="&#x410;" horiz-adv-x="600" 
d="M37 -28l225 681h75l225 -681h-58l-58 179h-293l-57 -179h-59zM299 604l-131 -406h262z" />
    <glyph glyph-name="uni0411" unicode="&#x411;" horiz-adv-x="570" 
d="M297 22q36 0 65.5 8t51.5 25.5t34 45t12 66.5q0 34 -13.5 59.5t-36.5 42.5t-54.5 25.5t-68.5 8.5h-142v-281h152zM264 355q80 0 129 -18.5t76 -47t36.5 -61.5t9.5 -63q0 -99 -53 -147.5t-152 -48.5h-223v691h386v-53h-328v-252h119z" />
    <glyph glyph-name="uni0412" unicode="&#x412;" horiz-adv-x="570" 
d="M281 660q98 0 150 -42.5t52 -127.5q0 -25 -4.5 -47t-16 -42.5t-32 -38.5t-52.5 -34q76 -18 107 -60.5t31 -102.5q0 -99 -50.5 -148t-149.5 -49h-229v692h194zM303 17q72 0 115 36t43 114q0 34 -12.5 59t-35 41t-53 24t-67.5 8h-150v-282h160zM270 351q69 0 113.5 33
t44.5 104q0 32 -11.5 55t-32 38t-47.5 22.5t-58 7.5h-136v-260h127z" />
    <glyph glyph-name="uni0413" unicode="&#x413;" horiz-adv-x="530" 
d="M87 -31v691h397v-53h-339v-638h-58z" />
    <glyph glyph-name="uni0414" unicode="&#x414;" horiz-adv-x="720" 
d="M597 -135v139h-474v-139h-60v158q100 110 151.5 234.5t51.5 264.5v138h332v-602h59v-193h-60zM539 608h-217v-94q0 -55 -11 -114.5t-31.5 -119.5t-49.5 -116.5t-66 -105.5h375v550z" />
    <glyph glyph-name="uni0415" unicode="&#x415;" horiz-adv-x="560" 
d="M144 299v-278h356v-53h-413v692h397v-53h-340v-256h324v-52h-324z" />
    <glyph glyph-name="uni0416" unicode="&#x416;" horiz-adv-x="940" 
d="M499 339h84q4 77 27 136.5t60 100.5t86.5 62.5t106.5 21.5h15v-52h-15q-52 0 -93.5 -23.5t-71 -64.5t-45 -96t-15.5 -118q0 -65 16 -116.5t45 -88t71 -57t93 -23.5h9v-53h-8q-59 3 -109 24t-87.5 61t-60 98t-25.5 136h-83v-319h-59v319h-84q-3 -78 -25.5 -136t-60 -98
t-88 -61t-108.5 -24h-8v53h9q51 3 93 23.5t71 57t45 88t16 116.5q0 63 -15.5 118t-45 96t-71 64.5t-93.5 23.5h-15v52h15q57 0 106.5 -21.5t86.5 -62.5t60 -100.5t27 -136.5h85v321h59v-321z" />
    <glyph glyph-name="uni0417" unicode="&#x417;" horiz-adv-x="540" 
d="M484 170q0 -45 -17.5 -82t-47 -63.5t-68 -40.5t-81.5 -14q-46 0 -85 14t-67.5 40.5t-45 66t-16.5 90.5h59q4 -74 41.5 -116.5t110.5 -42.5q74 0 116 39.5t42 111.5q0 37 -19 67t-50 46q-20 11 -55 16.5t-78 6.5v52q54 0 82.5 6.5t48.5 20.5q23 15 36 39.5t13 57.5
q0 54 -36 88.5t-93 34.5q-34 0 -59 -11t-42 -31t-26.5 -47.5t-11.5 -59.5h-59q1 43 15.5 80t40 64t61.5 42t82 15q37 0 71 -12t60 -34.5t41 -54.5t15 -72q0 -46 -20.5 -82t-65.5 -65q57 -27 82.5 -71.5t25.5 -98.5z" />
    <glyph glyph-name="uni0418" unicode="&#x418;" horiz-adv-x="665" 
d="M580 -32h-51v631l-366 -631h-76v692h51v-634l367 634h75v-692z" />
    <glyph glyph-name="uni0419" unicode="&#x419;" horiz-adv-x="665" 
d="M87 -32h75l367 577v-577h51v633h-76l-366 -575v575h-51v-633zM342 700q26 0 42 17.5t18 48.5h60q-5 -55 -38.5 -83.5t-81.5 -28.5t-81.5 28.5t-38.5 83.5h60q2 -31 18 -48.5t42 -17.5z" />
    <glyph glyph-name="uni041A" unicode="&#x41a;" horiz-adv-x="593" 
d="M144 301l339 353h67l-278 -292l300 -388h-66l-272 349l-90 -95v-254h-57v680h57v-353z" />
    <glyph glyph-name="uni041B" unicode="&#x41b;" horiz-adv-x="690" 
d="M603 660v-692h-59v640h-329v-468q0 -75 -42 -122t-138 -57l-5 46q61 10 93.5 38.5t32.5 94.5v520h447z" />
    <glyph glyph-name="uni041C" unicode="&#x41c;" horiz-adv-x="780" 
d="M642 -32v642l-210 -642h-84l-210 643v-643h-51v692h88l215 -661l215 661h88v-692h-51z" />
    <glyph glyph-name="uni041D" unicode="&#x41d;" horiz-adv-x="660" 
d="M144 351h371v309h57v-692h-57v331h-371v-331h-57v692h57v-309z" />
    <glyph glyph-name="uni041E" unicode="&#x41e;" horiz-adv-x="700" 
d="M350 -44q-63 0 -117 24.5t-93.5 69.5t-62 110t-22.5 146q0 84 22 150.5t61.5 113t93.5 71.5t118 25t118 -25t93.5 -71.5t61.5 -113t22 -150.5q0 -81 -22.5 -146t-62 -110t-93.5 -69.5t-117 -24.5zM350 617q-58 0 -102.5 -25t-74.5 -67.5t-45.5 -99t-15.5 -119.5
t16.5 -118t47.5 -95.5t75 -63.5t99 -23t99 23t75 63.5t47.5 95.5t16.5 118t-15.5 119.5t-45.5 99t-74.5 67.5t-102.5 25z" />
    <glyph glyph-name="uni041F" unicode="&#x41f;" horiz-adv-x="660" 
d="M87 -32v692h485v-692h-59v640h-367v-640h-59z" />
    <glyph glyph-name="uni0420" unicode="&#x420;" horiz-adv-x="557" 
d="M305 660q100 0 150 -55t50 -151q0 -95 -50 -151t-150 -56h-162v-279h-56v692h218zM301 300q68 0 109 38.5t41 113.5t-41 115t-109 40h-158v-307h158z" />
    <glyph glyph-name="uni0421" unicode="&#x421;" horiz-adv-x="600" 
d="M51 311q0 69 19.5 133t58.5 113.5t98 79t138 29.5q61 0 102.5 -14.5t77.5 -39.5l-30 -41q-26 17 -62.5 30t-88.5 13q-64 0 -112 -25.5t-80 -68t-48 -97t-16 -112.5q0 -55 16 -109t48 -97t80 -69.5t112 -26.5q55 0 93.5 13.5t70.5 38.5l31 -36q-38 -32 -86 -50t-108 -18
q-79 0 -138 30.5t-98 80t-58.5 113.5t-19.5 130z" />
    <glyph glyph-name="uni0422" unicode="&#x422;" horiz-adv-x="530" 
d="M30 607v53h470v-53h-210v-639h-57v639h-203z" />
    <glyph glyph-name="uni0423" unicode="&#x423;" horiz-adv-x="500" 
d="M241 153l-204 507h61l168 -430l142 430h59l-199 -601q-9 -26 -23.5 -45.5t-32.5 -32t-39 -18.5t-42 -6q-17 0 -38.5 2.5t-35.5 7.5l8 47q11 -4 26.5 -6t25.5 -2q34 0 60.5 17.5t39.5 57.5z" />
    <glyph glyph-name="uni0424" unicode="&#x424;" horiz-adv-x="640" 
d="M59 306q0 54 18 98.5t49 77.5t73.5 53t91.5 25v96h57v-96q49 -5 91.5 -25t73.5 -53t49 -77.5t18 -98.5t-18 -99t-49 -78t-73.5 -53t-91.5 -24v-80h-57v80q-49 4 -91.5 24t-73.5 53t-49 78t-18 99zM521 306q0 42 -12.5 76.5t-35 61t-54.5 42.5t-71 21v-402q39 4 71 20.5
t54.5 43t35 61t12.5 76.5zM119 307q0 -42 12.5 -77t35 -61.5t54.5 -43t70 -20.5v402q-38 -5 -70 -21t-54.5 -42t-35 -61t-12.5 -76z" />
    <glyph glyph-name="uni0425" unicode="&#x425;" horiz-adv-x="590" 
d="M295 267l-195 -299h-61l225 347l-225 345h63l193 -298l194 298h63l-226 -345l226 -347h-61z" />
    <glyph glyph-name="uni0426" unicode="&#x426;" horiz-adv-x="660" 
d="M146 660v-640h367v640h59v-632h41v-163h-59v103h-467v692h59z" />
    <glyph glyph-name="uni0427" unicode="&#x427;" horiz-adv-x="564" 
d="M493 -24h-59v282q-16 -21 -37 -39t-46 -32t-51.5 -22t-53.5 -8q-40 0 -71.5 13t-53.5 35.5t-33.5 53t-11.5 65.5v336h59v-337q0 -54 30.5 -84.5t90.5 -30.5q26 0 51 9.5t48 25.5t43 38t36 46v333h59v-684z" />
    <glyph glyph-name="uni0428" unicode="&#x428;" horiz-adv-x="880" 
d="M469 20h263v640h59v-692h-704v692h59v-640h264v640h59v-640z" />
    <glyph glyph-name="uni0429" unicode="&#x429;" horiz-adv-x="880" 
d="M469 20h263v640h59v-632h42v-163h-59v103h-687v692h59v-640h264v640h59v-640z" />
    <glyph glyph-name="uni042A" unicode="&#x42a;" horiz-adv-x="620" 
d="M31 660h165v-305h119q80 0 129 -18.5t76 -47t36.5 -61.5t9.5 -63q0 -99 -53 -147.5t-152 -48.5h-223v638h-107v53zM348 22q36 0 65.5 8t51.5 25.5t34 45t12 66.5q0 34 -13.5 59.5t-36.5 42.5t-54.5 25.5t-68.5 8.5h-142v-281h152z" />
    <glyph glyph-name="uni042B" unicode="&#x42b;" horiz-adv-x="780" 
d="M297 22q36 0 65.5 8t51.5 25.5t34 45t12 66.5q0 34 -13.5 59.5t-36.5 42.5t-54.5 25.5t-68.5 8.5h-142v-281h152zM145 355h119q80 0 129 -18.5t76 -47t36.5 -61.5t9.5 -63q0 -99 -53 -147.5t-152 -48.5h-223v691h58v-305zM689 -32h-59v692h59v-692z" />
    <glyph glyph-name="uni042C" unicode="&#x42c;" horiz-adv-x="570" 
d="M297 22q36 0 65.5 8t51.5 25.5t34 45t12 66.5q0 34 -13.5 59.5t-36.5 42.5t-54.5 25.5t-68.5 8.5h-142v-281h152zM145 355h119q80 0 129 -18.5t76 -47t36.5 -61.5t9.5 -63q0 -99 -53 -147.5t-152 -48.5h-223v691h58v-305z" />
    <glyph glyph-name="uni042D" unicode="&#x42d;" horiz-adv-x="600" 
d="M561 311q0 -66 -18 -130t-55.5 -114t-96.5 -80t-141 -30q-55 0 -106 16t-89 51l34 40q34 -28 74.5 -41t87.5 -13q60 0 106 24t77 63t47.5 89t19.5 103h-368v52h368q-4 54 -21 103t-48 87t-76 60.5t-105 22.5q-46 0 -80 -11.5t-66 -33.5l-32 43q36 25 82.5 39.5t94.5 14.5
q79 0 137.5 -29.5t97 -79t57.5 -113.5t19 -133z" />
    <glyph glyph-name="uni042E" unicode="&#x42e;" 
d="M145 351h133q6 73 30 131.5t62.5 99.5t89.5 62.5t110 21.5q64 0 118 -25t93.5 -71.5t61.5 -113t22 -150.5q0 -81 -22.5 -146t-62 -110t-93.5 -69.5t-117 -24.5t-116.5 24t-92.5 68t-61.5 107.5t-23.5 143.5h-131v-331h-59v692h59v-309zM570 614q-58 0 -102 -24.5
t-73.5 -66.5t-44.5 -98t-15 -119t16 -117.5t46.5 -94.5t74 -63t98.5 -23t99 23t74.5 63t46.5 94.5t16 117.5t-15 119t-45 98t-74 66.5t-102 24.5z" />
    <glyph glyph-name="uni042F" unicode="&#x42f;" horiz-adv-x="570" 
d="M423 257h-137l-194 -288h-65l196 292q-50 8 -81 30t-47.5 50.5t-22 59.5t-5.5 58q0 99 53 150t152 51h209v-691h-58v288zM271 607q-72 0 -110.5 -36t-38.5 -114q0 -81 42.5 -114.5t116.5 -33.5h142v298h-152z" />
    <glyph glyph-name="uni0430" unicode="&#x430;" horiz-adv-x="484" 
d="M43 94q0 66 33 102.5t81.5 53.5t103 18.5t98.5 -2.5v28q0 16 -5.5 39t-20.5 43t-42 34.5t-70 14.5q-32 0 -67.5 -13.5t-61.5 -33.5l-22 41q29 21 70 36.5t95 15.5q52 0 86.5 -17.5t54.5 -46t28.5 -64t8.5 -71.5v-304h-51v74q-15 -23 -36.5 -39.5t-46 -27t-50.5 -15
t-50 -4.5q-33 0 -58.5 10.5t-43 29.5t-26 44t-8.5 54zM354 102q3 10 4 18t1 14v86q-32 5 -76 5t-84.5 -11.5t-68.5 -37t-28 -71.5q0 -52 29 -75.5t70 -23.5q27 0 52.5 8.5t46 22t35 30.5t19.5 35z" />
    <glyph glyph-name="uni0431" unicode="&#x431;" horiz-adv-x="550" 
d="M434 581q-36 -1 -74.5 -8t-76 -24.5t-70.5 -46t-58 -72.5q36 26 69.5 33.5t50.5 7.5q47 0 89 -17.5t73.5 -50.5t50 -81.5t18.5 -111.5q0 -60 -19 -107t-50.5 -79.5t-73.5 -50t-88 -17.5t-88 17.5t-73.5 50t-50.5 79.5t-19 107q0 79 21 152.5t67.5 131t120 95t177.5 44.5z
M275 419q-41 0 -73 -15t-54 -43t-34 -66.5t-12 -84.5q0 -49 13.5 -87t37 -63.5t55 -38.5t67.5 -13t67.5 13t54.5 38.5t36.5 63.5t13.5 87q0 43 -10.5 81t-32 66.5t-54 45t-75.5 16.5z" />
    <glyph glyph-name="uni0432" unicode="&#x432;" horiz-adv-x="480" 
d="M270 460q69 0 111 -31t42 -94q0 -31 -11.5 -58.5t-44.5 -50.5q45 -17 62 -46.5t17 -68.5q0 -72 -40.5 -107t-111.5 -35h-218v491h194zM283 20q48 0 77 20.5t29 72.5q0 44 -32.5 64t-81.5 20h-142v-177h150zM260 247q45 0 75.5 20t30.5 67q0 40 -30 58t-71 18h-132v-163
h127z" />
    <glyph glyph-name="uni0433" unicode="&#x433;" horiz-adv-x="470" 
d="M77 -31v491h348v-53h-290v-438h-58z" />
    <glyph glyph-name="uni0434" unicode="&#x434;" horiz-adv-x="620" 
d="M509 -160v129h-402v-129h-58v138q49 55 80.5 106t49.5 104.5t25 112.5t7 128v30h317v-455h39v-164h-58zM471 407h-206v-43q0 -35 -5.5 -76t-18 -85.5t-33 -90t-51.5 -89.5h314v384z" />
    <glyph glyph-name="uni0435" unicode="&#x435;" horiz-adv-x="510" 
d="M412 253q0 27 -7.5 57t-25 55.5t-46.5 42t-72 16.5q-45 0 -75 -18t-48 -44.5t-26.5 -56t-10.5 -52.5h311zM283 6q38 0 79 12t75 34l18 -41q-42 -26 -87.5 -39.5t-93.5 -13.5q-46 0 -87.5 16.5t-72.5 48.5t-49 80.5t-18 111.5q0 56 14.5 103t42.5 81t67.5 53t89.5 19
q57 0 97 -20.5t65 -56.5t35 -84.5t8 -104.5h-364q1 -53 16 -91t39.5 -62t57 -35t68.5 -11z" />
    <glyph glyph-name="uni0436" unicode="&#x436;" horiz-adv-x="740" 
d="M688 -44q-96 5 -156 65.5t-67 165.5h-67v-219h-55v219h-70q-6 -105 -66 -165.5t-156 -65.5v49q45 3 77.5 19.5t53.5 43.5t30.5 63.5t9.5 78.5q0 41 -9.5 78t-29.5 65.5t-52.5 46.5t-77.5 21v50q94 -6 153 -66t67 -168h70v223h55v-223h68q7 108 66.5 168t153.5 66v-50
q-45 -3 -77.5 -21t-52.5 -46.5t-29.5 -65.5t-9.5 -78q0 -42 9.5 -78.5t30.5 -63.5t53.5 -43.5t77.5 -19.5v-49z" />
    <glyph glyph-name="uni0437" unicode="&#x437;" horiz-adv-x="460" 
d="M417 107q0 -41 -17.5 -69.5t-44.5 -46.5t-61 -26.5t-67 -8.5q-37 0 -70 8t-59 26t-42 48t-18 74h57q2 -30 13.5 -50.5t29.5 -33.5t41.5 -19t48.5 -6q24 0 47 5.5t41.5 18.5t29.5 33t11 49t-12 47.5t-32 29t-46.5 14.5t-54.5 4h-18v44h19q20 0 42.5 4t41.5 14t31.5 26.5
t12.5 41.5t-9 42.5t-24.5 28.5t-35.5 16t-41 5q-53 0 -84 -31.5t-36 -81.5h-55q2 39 17 69t39 49.5t54.5 29.5t65.5 10q31 0 61 -8t53.5 -24.5t38 -42.5t14.5 -62q0 -32 -18.5 -60t-58.5 -43q51 -16 73 -47.5t22 -76.5z" />
    <glyph glyph-name="uni0438" unicode="&#x438;" horiz-adv-x="520" 
d="M77 460h53v-441l241 441h80v-492h-53v450l-245 -450h-76v492z" />
    <glyph glyph-name="uni0439" unicode="&#x439;" horiz-adv-x="520" 
d="M77 460h53v-441l241 441h80v-492h-53v450l-245 -450h-76v492zM269 573q32 0 48 20t21 50h50q-9 -56 -39 -82t-80 -26q-49 0 -79.5 25.5t-39.5 82.5h50q5 -32 20.5 -51t48.5 -19z" />
    <glyph glyph-name="uni043A" unicode="&#x43a;" horiz-adv-x="480" 
d="M223 255l236 -286h-68l-208 250l-54 -48v-202h-53v491h53v-225l251 225h73z" />
    <glyph glyph-name="uni043B" unicode="&#x43b;" horiz-adv-x="580" 
d="M445 -31v438h-231v-264q0 -92 -43.5 -133t-139.5 -51l-6 50q30 4 54.5 10.5t41.5 21t26 38.5t9 64v317h347v-491h-58z" />
    <glyph glyph-name="uni043C" unicode="&#x43c;" horiz-adv-x="580" 
d="M324 -32h-65l-130 400v-399h-53v491h76l139 -439l140 439h76v-491h-53v399z" />
    <glyph glyph-name="uni043D" unicode="&#x43d;" horiz-adv-x="550" 
d="M479 460v-491h-58v228h-286v-228h-58v491h58v-210h286v210h58z" />
    <glyph glyph-name="uni043E" unicode="&#x43e;" horiz-adv-x="550" 
d="M275 -44q-47 0 -89 17t-73.5 49.5t-50 80t-18.5 107.5q0 63 18 112t49.5 82t73.5 50t90 17t90 -17t73.5 -50t49.5 -82t18 -112q0 -60 -18.5 -107.5t-50 -80t-73.5 -49.5t-89 -17zM275 427q-44 0 -76.5 -17.5t-54.5 -47.5t-32.5 -69.5t-10.5 -82.5q0 -50 13.5 -89t37 -66
t55.5 -41t68 -14t68 14t55.5 41t37 66t13.5 89q0 43 -10.5 82.5t-32.5 69.5t-54.5 47.5t-76.5 17.5z" />
    <glyph glyph-name="uni043F" unicode="&#x43f;" horiz-adv-x="550" 
d="M421 -31v438h-286v-438h-58v491h402v-491h-58z" />
    <glyph glyph-name="uni0440" unicode="&#x440;" horiz-adv-x="570" 
d="M131 460v-79q20 28 41.5 46t44 27.5t46 13t48.5 3.5q39 0 77.5 -17t68.5 -50t49 -82.5t19 -114.5q0 -55 -16 -101t-43.5 -79.5t-65 -52t-80.5 -18.5q-28 0 -54 4t-50 15.5t-45.5 31t-40.5 51.5v-289h-54v691h55zM130 173q0 -31 14 -61.5t37.5 -54.5t54 -38.5t64.5 -14.5
q43 0 74.5 17t52.5 45.5t31.5 66t10.5 77.5q0 46 -11.5 85t-34.5 67.5t-55.5 44.5t-74.5 16q-35 0 -64.5 -13.5t-51.5 -36t-34.5 -51.5t-12.5 -59v-90z" />
    <glyph glyph-name="uni0441" unicode="&#x441;" horiz-adv-x="460" 
d="M305 7q32 0 61 6t47 13l10 -44q-20 -8 -57 -17t-78 -9q-52 0 -96.5 19t-77 52.5t-51 81t-18.5 104.5t19 104.5t53 81.5t81.5 53t105.5 19q33 0 65.5 -7.5t50.5 -16.5l-14 -46q-17 7 -44 13.5t-58 6.5q-47 0 -84 -15.5t-63 -43t-40 -64.5t-14 -80q0 -57 16 -97t44 -65.5
t64.5 -37t77.5 -11.5z" />
    <glyph glyph-name="uni0442" unicode="&#x442;" horiz-adv-x="489" 
d="M269 407v-438h-58v438h-181v53h429v-53h-190z" />
    <glyph glyph-name="uni0443" unicode="&#x443;" horiz-adv-x="473" 
d="M225 -35l-201 495h59l167 -423l143 423h55l-200 -592q-18 -53 -53 -76t-78 -23q-17 0 -35.5 2.5t-32.5 6.5l7 46q11 -2 28.5 -5t27.5 -3q21 0 34.5 4t23.5 13t16.5 23t13.5 34z" />
    <glyph glyph-name="uni0444" unicode="&#x444;" horiz-adv-x="550" 
d="M302 660v-191q42 -5 79.5 -24t65 -52t43.5 -79t16 -104q0 -56 -16.5 -100t-44 -76.5t-64.5 -51.5t-79 -24v-170h-54v170q-42 5 -79.5 24t-65 51.5t-44 76.5t-16.5 100q0 58 16 104t43.5 79t65 52t80.5 24v191h54zM103 210q0 -45 11 -81t30.5 -62.5t46 -43t57.5 -21.5v423
q-36 -6 -63.5 -25.5t-45.5 -48.5t-27 -65.5t-9 -75.5zM447 210q0 39 -9 75.5t-27 65.5t-45.5 48.5t-63.5 25.5v-423q31 5 57.5 21.5t46 43t30.5 62.5t11 81z" />
    <glyph glyph-name="uni0445" unicode="&#x445;" horiz-adv-x="468" 
d="M234 172l-151 -204h-61l181 246l-181 246h62l150 -204l151 204h62l-182 -246l182 -246h-61z" />
    <glyph glyph-name="uni0446" unicode="&#x446;" horiz-adv-x="570" 
d="M479 460v-456h40v-164h-58v129h-384v491h58v-438h286v438h58z" />
    <glyph glyph-name="uni0447" unicode="&#x447;" horiz-adv-x="564" 
d="M493 -233h-59v286q-16 -20 -37 -38.5t-46 -32.5t-51.5 -22t-53.5 -8q-40 0 -71.5 13t-53.5 35.5t-33.5 53t-11.5 65.5v336h59v-337q0 -54 30.5 -84.5t90.5 -30.5q26 0 51 9.5t48 25.5t43 38t36 46v333h59v-688z" />
    <glyph glyph-name="uni0448" unicode="&#x448;" horiz-adv-x="655" 
d="M581 460v-491h-504v491h58v-438h165v438h58v-438h165v438h58z" />
    <glyph glyph-name="uni0449" unicode="&#x449;" horiz-adv-x="670" 
d="M581 460v-456h38v-164h-58v129h-484v491h58v-438h165v438h58v-438h165v438h58z" />
    <glyph glyph-name="uni044A" unicode="&#x44a;" horiz-adv-x="520" 
d="M316 20q48 0 73 20.5t25 72.5q0 44 -28.5 64t-77.5 20h-140v-177h148zM308 248q84 0 123 -34.5t39 -102.5q0 -142 -143 -142h-215v441h-82v50h138v-212h140z" />
    <glyph glyph-name="uni044B" unicode="&#x44b;" horiz-adv-x="640" 
d="M557 460v-491h-58v491h58zM265 20q48 0 73 20.5t25 72.5q0 44 -28.5 64t-77.5 20h-129v-177h137zM257 248q84 0 123 -34.5t39 -102.5q0 -142 -143 -142h-204v491h56v-212h129z" />
    <glyph glyph-name="uni044C" unicode="&#x44c;" horiz-adv-x="480" 
d="M280 20q48 0 73 20.5t25 72.5q0 44 -28.5 64t-77.5 20h-144v-177h152zM272 248q84 0 123 -34.5t39 -102.5q0 -142 -143 -142h-219v491h56v-212h144z" />
    <glyph glyph-name="uni044D" unicode="&#x44d;" horiz-adv-x="460" 
d="M55 30q18 -7 47.5 -15t61.5 -8q92 0 141.5 49.5t57.5 131.5h-239v52h240q-3 39 -17.5 72t-39.5 57.5t-60.5 38.5t-81.5 14q-31 0 -58.5 -6t-44.5 -15l-14 46q25 10 55 17t62 7q61 0 109 -19t81 -53t50.5 -81.5t17.5 -104.5t-17.5 -104.5t-49.5 -81t-76.5 -52.5t-98.5 -19
q-40 0 -78 9.5t-58 17.5z" />
    <glyph glyph-name="uni044E" unicode="&#x44e;" horiz-adv-x="745" 
d="M135 460v-210h100q6 56 26 97.5t51 69t70 41t83 13.5q47 0 89 -16t73.5 -48t50 -81.5t18.5 -115.5q0 -63 -19 -111t-50.5 -79.5t-73.5 -47.5t-88 -16q-45 0 -86 15t-72.5 45t-51 75.5t-21.5 105.5h-99v-228h-58v491h58zM465 425q-43 0 -75.5 -17.5t-54 -47t-32 -68.5
t-10.5 -82q0 -49 13.5 -87.5t36.5 -65.5t54.5 -41t67.5 -14t67.5 14t54.5 41t36.5 65.5t13.5 87.5q0 43 -10.5 82t-32 68.5t-54 47t-75.5 17.5z" />
    <glyph glyph-name="uni044F" unicode="&#x44f;" horiz-adv-x="430" 
d="M216 167h-3l-125 -199h-65l130 206q-51 14 -75 49.5t-24 89.5q0 72 36 109.5t107 37.5h160v-491h-55v198h-86zM208 409q-48 0 -73 -23t-25 -75q0 -44 28.5 -68.5t77.5 -24.5h86v191h-94z" />
    <glyph glyph-name="uni0451" unicode="&#x451;" horiz-adv-x="510" 
d="M196 557h-81v81h81v-81zM405 557h-81v81h81v-81zM412 253q0 27 -7.5 57t-25 55.5t-46.5 42t-72 16.5q-45 0 -75 -18t-48 -44.5t-26.5 -56t-10.5 -52.5h311zM283 6q38 0 79 12t75 34l18 -41q-42 -26 -87.5 -39.5t-93.5 -13.5q-46 0 -87.5 16.5t-72.5 48.5t-49 80.5
t-18 111.5q0 56 14.5 103t42.5 81t67.5 53t89.5 19q57 0 97 -20.5t65 -56.5t35 -84.5t8 -104.5h-364q1 -53 16 -91t39.5 -62t57 -35t68.5 -11z" />
    <glyph glyph-name="quoteleft" unicode="&#x2018;" horiz-adv-x="180" 
d="M131 742q-21 -8 -32.5 -27.5t-11.5 -55.5v-15h49v-95h-92v94q0 47 15.5 80.5t51.5 46.5z" />
    <glyph glyph-name="quoteright" unicode="&#x2019;" horiz-adv-x="180" 
d="M49 547q21 8 32.5 27.5t11.5 55.5v15h-49v95h92v-94q0 -47 -15.5 -80.5t-51.5 -46.5z" />
    <glyph glyph-name="quotedblleft" unicode="&#x201c;" horiz-adv-x="310" 
d="M131 742q-21 -8 -32.5 -27.5t-11.5 -55.5v-15h49v-95h-92v94q0 47 15.5 80.5t51.5 46.5zM262 742q-21 -8 -32.5 -27.5t-11.5 -55.5v-15h49v-95h-92v94q0 47 15.5 80.5t51.5 46.5z" />
    <glyph glyph-name="quotedblright" unicode="&#x201d;" horiz-adv-x="310" 
d="M180 547q21 8 32.5 27.5t11.5 55.5v15h-49v95h92v-94q0 -47 -15.5 -80.5t-51.5 -46.5zM49 547q21 8 32.5 27.5t11.5 55.5v15h-49v95h92v-94q0 -47 -15.5 -80.5t-51.5 -46.5z" />
    <glyph glyph-name="dagger" unicode="&#x2020;" horiz-adv-x="640" 
d="M342 656v-229h203v-51h-203v-440h-46v440h-201v51h201v229h46z" />
    <glyph glyph-name="daggerdbl" unicode="&#x2021;" horiz-adv-x="640" 
d="M342 273v-337h-46v337h-201v49h201v151h-201v49h201v134h46v-134h203v-49h-203v-151h203v-49h-203z" />
    <glyph glyph-name="twodotenleader" unicode="&#x2025;" horiz-adv-x="800" 
d="M277 253h-97v97h97v-97zM620 253h-97v97h97v-97z" />
    <glyph glyph-name="ellipsis" unicode="&#x2026;" horiz-adv-x="800" 
d="M179 253h-97v97h97v-97zM448 253h-97v97h97v-97zM717 253h-97v97h97v-97z" />
    <glyph glyph-name="perthousand" unicode="&#x2030;" horiz-adv-x="940" 
d="M436 662h48l-258 -696h-48zM158 290q-58 0 -86.5 44.5t-28.5 129.5t28 133.5t87 48.5t87 -48.5t28 -133.5t-28.5 -129.5t-86.5 -44.5zM158 602q-18 0 -29.5 -10.5t-19 -29.5t-10.5 -44t-3 -54q0 -61 13.5 -95.5t49.5 -34.5q34 0 47.5 34.5t13.5 95.5q0 29 -3 54t-10.5 44
t-19 29.5t-29.5 10.5zM500 -13q-58 0 -86.5 44.5t-28.5 129.5t28 133.5t87 48.5t87 -48.5t28 -133.5t-28.5 -129.5t-86.5 -44.5zM500 299q-18 0 -29.5 -10.5t-19 -29.5t-10.5 -44t-3 -54q0 -61 13.5 -95.5t49.5 -34.5q34 0 47.5 34.5t13.5 95.5q0 29 -3 54t-10.5 44
t-19 29.5t-29.5 10.5zM780 -13q-58 0 -86.5 44.5t-28.5 129.5t28 133.5t87 48.5t87 -48.5t28 -133.5t-28.5 -129.5t-86.5 -44.5zM780 299q-18 0 -29.5 -10.5t-19 -29.5t-10.5 -44t-3 -54q0 -61 13.5 -95.5t49.5 -34.5q34 0 47.5 34.5t13.5 95.5q0 29 -3 54t-10.5 44
t-19 29.5t-29.5 10.5z" />
    <glyph glyph-name="minute" unicode="&#x2032;" horiz-adv-x="340" 
d="M134 470h-51l93 234h93z" />
    <glyph glyph-name="second" unicode="&#x2033;" horiz-adv-x="540" 
d="M134 470h-51l93 234h93zM311 470h-51l93 234h93z" />
    <glyph glyph-name="uni203B" unicode="&#x203b;" horiz-adv-x="700" 
d="M134 557l210 -234l210 234l31 -31l-211 -236l211 -234l-33 -32l-208 232l-208 -232l-33 32l211 234l-211 236zM297 533q0 22 14 35.5t35 13.5t35 -13.5t14 -35.5t-14 -36t-35 -14t-35 14t-14 36zM517 301q0 22 14 35.5t35 13.5t35 -13.5t14 -35.5t-14 -36t-35 -14t-35 14
t-14 36zM295 50q0 22 14 35.5t35 13.5t35 -13.5t14 -35.5t-14 -36t-35 -14t-35 14t-14 36zM77 301q0 22 14 35.5t35 13.5t35 -13.5t14 -35.5t-14 -36t-35 -14t-35 14t-14 36z" />
    <glyph glyph-name="uni2074" unicode="&#x2074;" horiz-adv-x="340" 
d="M44 485v33l159 265h50v-262h45v-36h-45v-67h-40v67h-169zM89 521h124v206z" />
    <glyph glyph-name="uni207F" unicode="&#x207f;" horiz-adv-x="400" 
d="M295 656q0 48 -25.5 67t-66.5 19q-24 0 -51.5 -18.5t-47.5 -53.5v-249h-43v353h43v-53q26 35 58.5 48t55.5 13q24 0 46 -7.5t38.5 -22t26 -35t9.5 -47.5v-249h-43v235z" />
    <glyph glyph-name="uni2081" unicode="&#x2081;" horiz-adv-x="340" 
d="M87 139l88 44h35v-362h-43v315l-63 -31z" />
    <glyph glyph-name="uni2082" unicode="&#x2082;" horiz-adv-x="340" 
d="M55 -181v27q49 43 82.5 76t54.5 59.5t31 47.5t12 41q3 30 -15 51t-60 21q-23 0 -43.5 -13.5t-40.5 -33.5l-24 35q25 26 56 40t61 14q26 0 46.5 -9t34.5 -24t21 -34t7 -39q-1 -51 -40 -102t-114 -119h164v-38h-233z" />
    <glyph glyph-name="uni2083" unicode="&#x2083;" horiz-adv-x="340" 
d="M156 -187q-28 0 -54 8.5t-48 20.5l17 32q16 -7 39.5 -15.5t44.5 -8.5q26 0 43.5 7t28.5 18t16 24t5 24q0 18 -9 31t-23.5 21t-33 11.5t-38.5 3.5h-27v36h27q36 0 62 14t26 47q0 22 -15 39.5t-56 17.5q-18 0 -41 -9t-37 -19l-17 31q22 16 47 26t57 10q25 0 44.5 -8t33 -21
t21 -29t7.5 -31q0 -21 -9 -43.5t-35 -39.5q32 -14 44.5 -37t12.5 -52q0 -20 -9 -39.5t-26 -35t-41.5 -25t-56.5 -9.5z" />
    <glyph glyph-name="uni2084" unicode="&#x2084;" horiz-adv-x="340" 
d="M44 -115v33l159 265h50v-262h45v-36h-45v-67h-40v67h-169zM89 -79h124v206z" />
    <glyph glyph-name="uni2103" unicode="&#x2103;" horiz-adv-x="715" 
d="M134 552q-18 0 -33.5 6.5t-27.5 18.5t-19 27.5t-7 33.5t7 33.5t19 27.5t27.5 18.5t33.5 6.5t33.5 -6.5t27.5 -18.5t19 -27.5t7 -33.5t-7 -33.5t-19 -27.5t-27.5 -18.5t-33.5 -6.5zM134 591q20 0 33.5 12.5t13.5 34.5t-13.5 34.5t-33.5 12.5t-33.5 -12.5t-13.5 -34.5
t13.5 -34.5t33.5 -12.5zM189 267q0 71 19 135.5t57.5 114t97.5 78.5t140 29q99 0 171 -48l-26 -42q-27 18 -63.5 29t-82.5 11q-68 0 -116.5 -25.5t-79.5 -68.5t-46 -98t-15 -115q0 -57 15.5 -112.5t47 -99t80 -70t114.5 -26.5q51 0 93 11.5t77 37.5l23 -40
q-40 -30 -89 -44.5t-103 -14.5q-81 0 -140.5 30.5t-98 80.5t-57 114.5t-18.5 132.5z" />
    <glyph glyph-name="uni2109" unicode="&#x2109;" horiz-adv-x="670" 
d="M672 614v-53h-339v-269l318 -1v-52l-318 1v-321h-28l-25 25v670h392zM134 552q-18 0 -33.5 6.5t-27.5 18.5t-19 27.5t-7 33.5t7 33.5t19 27.5t27.5 18.5t33.5 6.5t33.5 -6.5t27.5 -18.5t19 -27.5t7 -33.5t-7 -33.5t-19 -27.5t-27.5 -18.5t-33.5 -6.5zM134 591
q20 0 33.5 12.5t13.5 34.5t-13.5 34.5t-33.5 12.5t-33.5 -12.5t-13.5 -34.5t13.5 -34.5t33.5 -12.5z" />
    <glyph glyph-name="uni2113" unicode="&#x2113;" horiz-adv-x="430" 
d="M36 40q44 31 78 64q-8 38 -11.5 77t-3.5 72q0 95 12.5 172t35 131.5t55 84t71.5 29.5q51 0 79.5 -36.5t28.5 -105.5q0 -44 -14.5 -98t-42.5 -112t-68 -116.5t-92 -109.5q10 -39 26.5 -66.5t43.5 -27.5q30 0 52 23.5t37 59.5l33 -18q-25 -57 -54 -83.5t-77 -26.5
q-36 0 -60 29.5t-38 74.5q-16 -14 -33 -27t-34 -24zM146 249q0 -17 1 -44.5t6 -59.5q45 51 78 104.5t55 103.5t33 92.5t13 70.5q3 56 -17 79.5t-48 23.5q-24 0 -45.5 -28.5t-38.5 -78t-27 -117.5t-10 -146z" />
    <glyph glyph-name="uni2116" unicode="&#x2116;" horiz-adv-x="940" 
d="M610 -45q-45 0 -75.5 21.5t-50 57t-28 81.5t-8.5 96q0 52 8.5 99.5t27.5 83.5t50 57.5t76 21.5q46 0 77 -21.5t50 -57.5t27 -83.5t8 -99.5q0 -50 -8.5 -96t-28 -81.5t-50 -57t-75.5 -21.5zM382 -32h-86l-186 624v-624h-57v692h88l184 -621v621h57v-692zM610 426
q-27 0 -46.5 -16t-31.5 -44.5t-18 -68t-6 -86.5q0 -105 29.5 -157t72.5 -52q44 0 73 52t29 157q0 47 -5.5 86.5t-18 68t-32 44.5t-46.5 16zM891 -32h-81v85h81v-85z" />
    <glyph glyph-name="uni2121" unicode="&#x2121;" horiz-adv-x="940" 
d="M22 612v48h390v-48h-172v-643h-53v643h-165zM654 252q-2 31 -8.5 62t-20.5 56t-36 40.5t-53 15.5q-33 0 -56 -18.5t-38 -45.5t-22.5 -57t-9.5 -53h244zM553 6q30 0 60.5 9.5t71.5 34.5l14 -39q-33 -26 -69 -39.5t-83 -13.5q-38 0 -72.5 15.5t-60.5 47t-42 80t-16 114.5
q0 55 12 101.5t35.5 81t57 54t75.5 19.5q54 0 88.5 -25.5t53.5 -65t25.5 -86.5t3.5 -89h-296q1 -52 12 -89.5t29.5 -62t44.5 -36t56 -11.5zM860 -31h-53v721h53v-721z" />
    <glyph glyph-name="trademark" unicode="&#x2122;" horiz-adv-x="800" 
d="M685 372v230l-97 -230h-34l-100 229v-229h-51v338h52l116 -271l112 271h53v-338h-51zM222 658v-286h-55v286h-115v52h287v-52h-117z" />
    <glyph glyph-name="Omega" unicode="&#x2126;" horiz-adv-x="760" 
d="M380 615q-61 0 -108 -21t-78.5 -58t-48 -86.5t-16.5 -106.5q0 -51 15.5 -101t41 -93.5t57 -78.5t64.5 -57v-44h-246v52h159q-31 28 -58 63.5t-47 76t-31.5 86t-11.5 95.5q0 72 21.5 131.5t62 102t97 65.5t127.5 23q70 0 127 -23t97.5 -65.5t62 -102t21.5 -131.5
q0 -48 -12 -93.5t-32 -86.5t-47 -76.5t-57 -64.5h159v-52h-246v44q33 22 64.5 57t57 78.5t41 93.5t15.5 101q0 57 -16.5 106.5t-48 86.5t-78.5 58t-108 21z" />
    <glyph glyph-name="uni212B" unicode="&#x212b;" horiz-adv-x="600" 
d="M513 -32h58l-234 575h-75l-234 -575h58l63 158h301zM300 503l132 -331h-265zM299 603q-18 0 -33.5 6.5t-27.5 18.5t-19 27.5t-7 33.5t7 33.5t19 27.5t27.5 18.5t33.5 6.5t33.5 -6.5t27.5 -18.5t19 -27.5t7 -33.5t-7 -33.5t-19 -27.5t-27.5 -18.5t-33.5 -6.5zM299 642
q20 0 33.5 12.5t13.5 34.5t-13.5 34.5t-33.5 12.5t-33.5 -12.5t-13.5 -34.5t13.5 -34.5t33.5 -12.5z" />
    <glyph glyph-name="onethird" unicode="&#x2153;" horiz-adv-x="720" 
d="M535 -20q-28 0 -54 8.5t-48 20.5l17 32q16 -7 39.5 -15.5t44.5 -8.5q26 0 43.5 7t28.5 18t16 24t5 24q0 18 -9 31t-23.5 21t-33 11.5t-38.5 3.5h-27v36h27q36 0 62 14t26 47q0 22 -15 39.5t-56 17.5q-18 0 -41 -9t-37 -19l-17 31q22 16 47 26t57 10q25 0 44.5 -8t33 -21
t21 -29t7.5 -31q0 -21 -9 -43.5t-35 -39.5q32 -14 44.5 -37t12.5 -52q0 -20 -9 -39.5t-26 -35t-41.5 -25t-56.5 -9.5zM54 598l88 44h35v-362h-43v315l-63 -31zM128 -36h-43l429 683h43z" />
    <glyph glyph-name="twothirds" unicode="&#x2154;" horiz-adv-x="720" 
d="M540 -20q-28 0 -54 8.5t-48 20.5l17 32q16 -7 39.5 -15.5t44.5 -8.5q26 0 43.5 7t28.5 18t16 24t5 24q0 18 -9 31t-23.5 21t-33 11.5t-38.5 3.5h-27v36h27q36 0 62 14t26 47q0 22 -15 39.5t-56 17.5q-18 0 -41 -9t-37 -19l-17 31q22 16 47 26t57 10q25 0 44.5 -8t33 -21
t21 -29t7.5 -31q0 -21 -9 -43.5t-35 -39.5q32 -14 44.5 -37t12.5 -52q0 -20 -9 -39.5t-26 -35t-41.5 -25t-56.5 -9.5zM182 -36h-43l429 683h43zM51 280v27q49 43 82.5 76t54.5 59.5t31 47.5t12 41q3 30 -15 51t-60 21q-23 0 -43.5 -13.5t-40.5 -33.5l-24 35q25 26 56 40
t61 14q26 0 46.5 -9t34.5 -24t21 -34t7 -39q-1 -51 -40 -102t-114 -119h164v-38h-233z" />
    <glyph glyph-name="oneeighth" unicode="&#x215b;" horiz-adv-x="720" 
d="M54 598l88 44h35v-362h-43v315l-63 -31zM128 -36h-43l429 683h43zM667 87q0 -24 -9.5 -44t-26 -34t-39 -21.5t-47.5 -7.5q-27 0 -49 8t-38 21.5t-24.5 31.5t-8.5 38q0 25 16.5 51t49.5 42q-29 19 -41 40.5t-12 39.5q0 45 32 71.5t79 26.5q25 0 45 -7.5t33 -20.5t20 -29
t7 -34q0 -16 -12.5 -38t-44.5 -43q36 -16 53 -40.5t17 -50.5zM622 81q0 28 -22.5 47.5t-59.5 30.5q-35 -11 -52.5 -32.5t-17.5 -40.5q0 -33 21 -51.5t55 -18.5q32 0 54 16.5t22 48.5zM480 256q0 -43 70 -67q29 13 45.5 30t16.5 36q0 26 -17.5 43t-47.5 17t-48.5 -17
t-18.5 -42z" />
    <glyph glyph-name="threeeighths" unicode="&#x215c;" horiz-adv-x="720" 
d="M131 276q-28 0 -54 8.5t-48 20.5l17 32q16 -7 39.5 -15.5t44.5 -8.5q26 0 43.5 7t28.5 18t16 24t5 24q0 18 -9 31t-23.5 21t-33 11.5t-38.5 3.5h-27v36h27q36 0 62 14t26 47q0 22 -15 39.5t-56 17.5q-18 0 -41 -9t-37 -19l-17 31q22 16 47 26t57 10q25 0 44.5 -8t33 -21
t21 -29t7.5 -31q0 -21 -9 -43.5t-35 -39.5q32 -14 44.5 -37t12.5 -52q0 -20 -9 -39.5t-26 -35t-41.5 -25t-56.5 -9.5zM157 -36h-43l429 683h43zM683 87q0 -24 -9.5 -44t-26 -34t-39 -21.5t-47.5 -7.5q-27 0 -49 8t-38 21.5t-24.5 31.5t-8.5 38q0 25 16.5 51t49.5 42
q-29 19 -41 40.5t-12 39.5q0 45 32 71.5t79 26.5q25 0 45 -7.5t33 -20.5t20 -29t7 -34q0 -16 -12.5 -38t-44.5 -43q36 -16 53 -40.5t17 -50.5zM638 81q0 28 -22.5 47.5t-59.5 30.5q-35 -11 -52.5 -32.5t-17.5 -40.5q0 -33 21 -51.5t55 -18.5q32 0 54 16.5t22 48.5zM496 256
q0 -43 70 -67q29 13 45.5 30t16.5 36q0 26 -17.5 43t-47.5 17t-48.5 -17t-18.5 -42z" />
    <glyph glyph-name="fiveeighths" unicode="&#x215d;" horiz-adv-x="720" 
d="M120 607l-17 -101q10 2 18.5 2h12.5q24 0 47 -6.5t41 -19.5t29.5 -33t11.5 -47q0 -26 -9.5 -49.5t-27 -41t-42 -27.5t-55.5 -10q-24 0 -49 6t-44 19l12 41q15 -12 38.5 -19t42.5 -7q40 0 65.5 22t25.5 60q0 35 -25 54.5t-83 19.5q-12 0 -28.5 -1.5t-27.5 -3.5l25 179h175
v-37h-136zM157 -36h-43l429 683h43zM683 87q0 -24 -9.5 -44t-26 -34t-39 -21.5t-47.5 -7.5q-27 0 -49 8t-38 21.5t-24.5 31.5t-8.5 38q0 25 16.5 51t49.5 42q-29 19 -41 40.5t-12 39.5q0 45 32 71.5t79 26.5q25 0 45 -7.5t33 -20.5t20 -29t7 -34q0 -16 -12.5 -38t-44.5 -43
q36 -16 53 -40.5t17 -50.5zM638 81q0 28 -22.5 47.5t-59.5 30.5q-35 -11 -52.5 -32.5t-17.5 -40.5q0 -33 21 -51.5t55 -18.5q32 0 54 16.5t22 48.5zM496 256q0 -43 70 -67q29 13 45.5 30t16.5 36q0 26 -17.5 43t-47.5 17t-48.5 -17t-18.5 -42z" />
    <glyph glyph-name="seveneighths" unicode="&#x215e;" horiz-adv-x="720" 
d="M293 609l-160 -334h-48l158 327h-180v42h230v-35zM129 -36h-43l429 683h43zM672 87q0 -24 -9.5 -44t-26 -34t-39 -21.5t-47.5 -7.5q-27 0 -49 8t-38 21.5t-24.5 31.5t-8.5 38q0 25 16.5 51t49.5 42q-29 19 -41 40.5t-12 39.5q0 45 32 71.5t79 26.5q25 0 45 -7.5t33 -20.5
t20 -29t7 -34q0 -16 -12.5 -38t-44.5 -43q36 -16 53 -40.5t17 -50.5zM627 81q0 28 -22.5 47.5t-59.5 30.5q-35 -11 -52.5 -32.5t-17.5 -40.5q0 -33 21 -51.5t55 -18.5q32 0 54 16.5t22 48.5zM485 256q0 -43 70 -67q29 13 45.5 30t16.5 36q0 26 -17.5 43t-47.5 17t-48.5 -17
t-18.5 -42z" />
    <glyph glyph-name="uni2160" unicode="&#x2160;" horiz-adv-x="940" 
d="M498 -32h-59v692h59v-692z" />
    <glyph glyph-name="uni2161" unicode="&#x2161;" horiz-adv-x="940" 
d="M378 -32h-59v692h59v-692zM621 -32h-59v692h59v-692z" />
    <glyph glyph-name="uni2162" unicode="&#x2162;" horiz-adv-x="940" 
d="M258 -32h-59v692h59v-692zM499 -32h-59v692h59v-692zM739 -32h-59v692h59v-692z" />
    <glyph glyph-name="uni2163" unicode="&#x2163;" horiz-adv-x="940" 
d="M575 16l211 644h62l-230 -691h-85l-230 691h62zM216 -32h-59v692h59v-692z" />
    <glyph glyph-name="uni2164" unicode="&#x2164;" horiz-adv-x="940" 
d="M470 16l211 644h62l-230 -691h-85l-230 691h62z" />
    <glyph glyph-name="uni2165" unicode="&#x2165;" horiz-adv-x="940" 
d="M364 16l211 644h62l-230 -691h-85l-230 691h62zM782 -32h-59v692h59v-692z" />
    <glyph glyph-name="uni2166" unicode="&#x2166;" horiz-adv-x="940" 
d="M289 27l151 633h62l-170 -691h-85l-170 691h62zM815 -32h-59v692h59v-692zM648 -32h-59v692h59v-692z" />
    <glyph glyph-name="uni2167" unicode="&#x2167;" horiz-adv-x="940" 
d="M216 41l106 619h62l-125 -691h-85l-125 691h62zM823 -32h-59v692h59v-692zM664 -32h-59v692h59v-692zM510 -32h-59v692h59v-692z" />
    <glyph glyph-name="uni2168" unicode="&#x2168;" horiz-adv-x="940" 
d="M575 262l-193 -294h-68l227 347l-227 345h70l191 -293l192 293h70l-227 -345l227 -347h-68zM223 -32h-59v692h59v-692z" />
    <glyph glyph-name="uni2169" unicode="&#x2169;" horiz-adv-x="940" 
d="M468 266l-189 -292h-61l219 340l-219 339h63l187 -291l188 291h63l-220 -339l220 -340h-61z" />
    <glyph glyph-name="uni2170" unicode="&#x2170;" horiz-adv-x="940" 
d="M441 478h58v-509h-58v509zM499 573h-58v87h58v-87z" />
    <glyph glyph-name="uni2171" unicode="&#x2171;" horiz-adv-x="940" 
d="M321 478h58v-509h-58v509zM379 573h-58v87h58v-87zM561 478h58v-509h-58v509zM619 573h-58v87h58v-87z" />
    <glyph glyph-name="uni2172" unicode="&#x2172;" horiz-adv-x="940" 
d="M200 478h58v-509h-58v509zM258 573h-58v87h58v-87zM440 478h58v-509h-58v509zM498 573h-58v87h58v-87zM681 478h58v-509h-58v509zM739 573h-58v87h58v-87z" />
    <glyph glyph-name="uni2173" unicode="&#x2173;" horiz-adv-x="940" 
d="M406 478l180 -470l180 470h60l-195 -509h-90l-195 509h60zM186 478h58v-509h-58v509zM244 573h-58v87h58v-87z" />
    <glyph glyph-name="uni2174" unicode="&#x2174;" horiz-adv-x="940" 
d="M289 478l180 -470l180 470h60l-195 -509h-90l-195 509h60z" />
    <glyph glyph-name="uni2175" unicode="&#x2175;" horiz-adv-x="940" 
d="M176 478l180 -470l180 470h60l-195 -509h-90l-195 509h60zM695 478h58v-509h-58v509zM753 573h-58v87h58v-87z" />
    <glyph glyph-name="uni2176" unicode="&#x2176;" horiz-adv-x="940" 
d="M130 478l160 -468l160 468h60l-175 -509h-90l-175 509h60zM760 478h58v-509h-58v509zM591 478h58v-509h-58v509zM818 573h-58v87h58v-87zM649 573h-58v87h58v-87z" />
    <glyph glyph-name="uni2177" unicode="&#x2177;" horiz-adv-x="940" 
d="M115 478l110 -458l110 458h60l-125 -509h-90l-125 509h60zM770 478h58v-509h-58v509zM454 478h58v-509h-58v509zM611 478h58v-509h-58v509zM669 573h-58v87h58v-87zM512 573h-58v87h58v-87zM828 573h-58v87h58v-87z" />
    <glyph glyph-name="uni2178" unicode="&#x2178;" horiz-adv-x="940" 
d="M542 218l-195 260h66l162 -216l163 216h66l-196 -260l188 -249h-66l-155 205l-154 -205h-66zM189 478h58v-509h-58v509zM247 573h-58v87h58v-87z" />
    <glyph glyph-name="uni2179" unicode="&#x2179;" horiz-adv-x="940" 
d="M436 218l-195 260h66l162 -216l163 216h66l-196 -260l188 -249h-66l-155 205l-154 -205h-66z" />
    <glyph glyph-name="arrowleft" unicode="&#x2190;" horiz-adv-x="940" 
d="M21 300l245 154v-128h647v-52h-647v-128z" />
    <glyph glyph-name="arrowup" unicode="&#x2191;" horiz-adv-x="800" 
d="M399 739l154 -245h-128v-633h-52v633h-128z" />
    <glyph glyph-name="arrowright" unicode="&#x2192;" horiz-adv-x="940" 
d="M668 146v128h-647v52h647v128l245 -154z" />
    <glyph glyph-name="arrowdown" unicode="&#x2193;" horiz-adv-x="800" 
d="M245 106h128v635h52v-635h128l-154 -245z" />
    <glyph glyph-name="arrowboth" unicode="&#x2194;" horiz-adv-x="940" 
d="M284 274v-128l-245 154l245 154v-128h384v128l245 -154l-245 -154v128h-384z" />
    <glyph glyph-name="arrowupdn" unicode="&#x2195;" horiz-adv-x="700" 
d="M500 53l-151 -208l-151 208h124v495h-124l151 208l151 -208h-125v-495h125z" />
    <glyph glyph-name="uni2196" unicode="&#x2196;" horiz-adv-x="940" 
d="M186 645l697 -773l-32 -29l-698 773l-91 -99l-13 238l239 -13z" />
    <glyph glyph-name="uni2197" unicode="&#x2197;" horiz-adv-x="940" 
d="M650 739l239 13l-13 -238l-91 99l-698 -773l-32 29l697 773z" />
    <glyph glyph-name="uni2198" unicode="&#x2198;" horiz-adv-x="940" 
d="M751 -53l-697 773l32 29l698 -773l91 99l13 -238l-239 13z" />
    <glyph glyph-name="uni2199" unicode="&#x2199;" horiz-adv-x="940" 
d="M289 -149l-239 -13l13 238l91 -99l698 773l32 -29l-697 -773z" />
    <glyph glyph-name="arrowdblright" unicode="&#x21d2;" horiz-adv-x="940" 
d="M906 300l-275 -277l-30 34l118 119h-675v48h723l76 76l-77 77h-722v47h676l-119 120l30 33z" />
    <glyph glyph-name="arrowdblboth" unicode="&#x21d4;" horiz-adv-x="940" 
d="M310 577l30 -33l-119 -120h499l-119 120l30 33l275 -277l-275 -277l-30 34l118 119h-498l119 -119l-30 -34l-275 277zM766 377h-592l-76 -77l75 -76h594l76 76z" />
    <glyph glyph-name="universal" unicode="&#x2200;" horiz-adv-x="600" 
d="M96 653l57 -179h293l58 179h58l-225 -681h-75l-225 681h59zM431 427h-263l131 -409z" />
    <glyph glyph-name="partialdiff" unicode="&#x2202;" horiz-adv-x="600" 
d="M124 605q72 28 136 28t113.5 -26.5t83.5 -72t52 -107.5t18 -133q0 -80 -20 -145.5t-55 -112t-84 -72t-106 -25.5q-47 0 -82.5 16.5t-59.5 45t-36 66.5t-12 80q0 57 17 104t46.5 81t70 53t87.5 19q54 0 100 -23.5t72 -64.5q-2 59 -16.5 108t-42 83.5t-67.5 53.5t-93 19
q-26 0 -51 -5.5t-55 -17.5zM268 -9q37 0 70 16t58.5 45t42 68.5t20.5 87.5q1 12 -1 23.5t-5 20.5q-8 21 -22.5 39t-33 32t-40.5 22t-44 8q-75 0 -121.5 -45.5t-54.5 -131.5q-3 -35 2 -68t20 -59t41.5 -42t67.5 -16z" />
    <glyph glyph-name="existential" unicode="&#x2203;" horiz-adv-x="560" 
d="M89 299v52h324v256h-340v53h397v-692h-413v53h356v278h-324z" />
    <glyph glyph-name="gradient" unicode="&#x2207;" horiz-adv-x="940" 
d="M124 587h691l-342 -614zM757 555h-519l260 -466z" />
    <glyph glyph-name="element" unicode="&#x2208;" horiz-adv-x="940" 
d="M376 515q-35 0 -67 -14t-57 -39.5t-41.5 -61.5t-19.5 -80h615v-52h-614q4 -46 20.5 -82t41 -61.5t55 -39t63.5 -13.5h434v-52h-433q-56 0 -100.5 22.5t-75.5 61t-47 89t-16 107.5t18.5 105.5t51 84.5t77 56.5t97.5 20.5h428v-52h-430v0z" />
    <glyph glyph-name="suchthat" unicode="&#x220b;" horiz-adv-x="940" 
d="M564 515h-430v52h428q52 0 97 -20.5t77.5 -56.5t51 -84.5t18.5 -105.5t-16.5 -107.5t-47 -89t-75 -61t-100.5 -22.5h-433v52h434q33 0 63 13.5t54.5 39t40.5 61.5t21 82h-613v52h614q-3 44 -19.5 80t-41.5 61.5t-57 39.5t-66 14z" />
    <glyph glyph-name="product" unicode="&#x220f;" horiz-adv-x="688" 
d="M518 608v-650h-58v650h-243v-650h-55v650h-135v51h624v-51h-133z" />
    <glyph glyph-name="summation" unicode="&#x2211;" horiz-adv-x="700" 
d="M80 -31v21l317 324l-317 306v39h536v-58h-439l298 -281l-280 -292h422v-59h-537z" />
    <glyph glyph-name="radical" unicode="&#x221a;" horiz-adv-x="520" 
d="M362 -175h-14l-213 482l-91 -58l-22 33l142 85l176 -409l142 805h51z" />
    <glyph glyph-name="proportional" unicode="&#x221d;" horiz-adv-x="940" 
d="M817 142q-26 -17 -54 -26t-66 -9q-29 0 -54.5 11t-48.5 30t-43 44.5t-38 54.5q-47 -74 -96 -107t-104 -33q-42 0 -76.5 16t-59 42.5t-38 61.5t-13.5 73q0 40 13.5 75.5t38.5 62.5t59 42.5t76 15.5q58 0 106 -31t93 -107q35 61 83.5 98.5t102.5 37.5q29 0 61.5 -9.5
t56.5 -26.5l-21 -39q-21 11 -48 19t-51 8q-26 0 -48.5 -12t-42 -32t-36 -45t-31.5 -52q12 -23 28.5 -49.5t37 -49t45 -37t51.5 -14.5q23 0 48 4.5t48 19.5zM483 303q-14 29 -31 55.5t-37.5 47t-45.5 32.5t-56 12q-33 0 -58.5 -12.5t-42.5 -33.5t-25.5 -48t-8.5 -56
q0 -26 10.5 -52t29 -47t43 -34t52.5 -13q32 0 56.5 11t44 30.5t36 47t33.5 60.5z" />
    <glyph glyph-name="infinity" unicode="&#x221e;" horiz-adv-x="800" 
d="M723 327q0 -33 -12.5 -62.5t-33.5 -51.5t-49.5 -34.5t-61.5 -12.5q-95 0 -166 113q-32 -55 -70.5 -82.5t-97.5 -27.5q-33 0 -61.5 12.5t-49.5 34.5t-33 51.5t-12 62.5q0 34 12.5 63.5t34.5 51t51.5 33.5t63.5 12q93 0 161 -113q33 59 74 86t92 27q33 0 62 -12.5
t50.5 -34.5t33.5 -52t12 -64zM678 328q0 24 -9 45t-24.5 37.5t-36 26t-42.5 9.5q-27 0 -47.5 -9t-37.5 -25t-31 -37.5t-27 -46.5q12 -24 26.5 -45.5t31.5 -37.5t37.5 -25.5t46.5 -9.5q24 0 45 9t36 25t23.5 37.5t8.5 46.5zM234 213q26 0 46.5 8.5t37.5 24t31 36t28 44.5
q-12 22 -26.5 44t-31.5 38.5t-37.5 27t-45.5 10.5q-24 0 -44.5 -8.5t-36 -24t-24.5 -36.5t-9 -46t8.5 -46.5t23.5 -37.5t35.5 -25t44.5 -9z" />
    <glyph glyph-name="angle" unicode="&#x2220;" horiz-adv-x="800" 
d="M104 -14v39l464 552l40 -32l-425 -507h517v-52h-596z" />
    <glyph glyph-name="logicaland" unicode="&#x2227;" horiz-adv-x="940" 
d="M791 -14h-59l-261 530l-265 -530h-58l323 639z" />
    <glyph glyph-name="logicalor" unicode="&#x2228;" horiz-adv-x="940" 
d="M472 -21l-323 639h58l265 -530l261 530h59z" />
    <glyph glyph-name="intersection" unicode="&#x2229;" horiz-adv-x="800" 
d="M663 -33h-54v406q0 47 -14 87t-40.5 68.5t-65.5 44.5t-89 16t-89 -15.5t-66 -44t-41 -67.5t-14 -87v-408h-54v420q0 56 19.5 103t55 80.5t84 52.5t105.5 19q54 0 101.5 -18.5t83.5 -52.5t57 -80.5t21 -101.5v-422z" />
    <glyph glyph-name="union" unicode="&#x222a;" horiz-adv-x="800" 
d="M663 220q0 -56 -21 -102t-57 -80t-83.5 -52.5t-101.5 -18.5q-57 0 -105.5 19t-84 52.5t-55 80.5t-19.5 103v420h54v-408q0 -48 14 -87t41 -67.5t66 -44t89 -15.5t89 16t65.5 44.5t40.5 68.5t14 87v406h54v-422z" />
    <glyph glyph-name="integral" unicode="&#x222b;" horiz-adv-x="440" 
d="M261 13q1 -30 -3.5 -55.5t-17.5 -44t-35.5 -29t-56.5 -10.5q-32 0 -71 10v49q15 -5 28.5 -6.5t24.5 -1.5q40 0 59 22.5t17 57.5l-27 582q-2 30 3 55.5t18 44t35.5 29t56.5 10.5q30 0 71 -10v-49q-17 5 -29.5 6.5t-23.5 1.5q-41 0 -59.5 -22.5t-16.5 -57.5z" />
    <glyph glyph-name="uni222C" unicode="&#x222c;" horiz-adv-x="680" 
d="M255 13q1 -30 -3.5 -55.5t-17.5 -44t-35.5 -29t-56.5 -10.5q-32 0 -71 10v49q15 -5 28.5 -6.5t24.5 -1.5q40 0 59 22.5t17 57.5l-27 582q-2 30 3 55.5t18 44t35.5 29t56.5 10.5q30 0 71 -10v-49q-17 5 -29.5 6.5t-23.5 1.5q-41 0 -59.5 -22.5t-16.5 -57.5zM505 13
q1 -30 -3.5 -55.5t-17.5 -44t-35.5 -29t-56.5 -10.5q-32 0 -71 10v49q15 -5 28.5 -6.5t24.5 -1.5q40 0 59 22.5t17 57.5l-27 582q-2 30 3 55.5t18 44t35.5 29t56.5 10.5q30 0 71 -10v-49q-17 5 -29.5 6.5t-23.5 1.5q-41 0 -59.5 -22.5t-16.5 -57.5z" />
    <glyph glyph-name="uni222E" unicode="&#x222e;" horiz-adv-x="600" 
d="M344 467q63 -11 103.5 -53.5t40.5 -111.5q0 -39 -13.5 -70t-37.5 -52.5t-56.5 -33.5t-69.5 -13l-12 -119q-3 -30 -11.5 -56t-24.5 -44.5t-40.5 -29t-58.5 -10.5q-15 0 -32.5 2.5t-36.5 7.5l9 51q14 -5 27.5 -6.5t24.5 -1.5q39 0 60 20t26 65l12 125q-61 12 -100 54
t-39 111q0 38 13 68.5t36.5 52t55 33.5t68.5 14l12 116q3 30 11.5 56t24.5 44.5t40 29t59 10.5q29 0 69 -10l-7 -51q-30 8 -54 8q-40 0 -60.5 -19t-25.5 -66zM432 302q0 44 -24.5 74t-68.5 40l-23 -231q54 4 85 35.5t31 81.5zM171 303q0 -44 23.5 -73.5t64.5 -40.5l24 230
q-51 -5 -81.5 -36.5t-30.5 -79.5z" />
    <glyph glyph-name="therefore" unicode="&#x2234;" horiz-adv-x="940" 
d="M525 516q0 -26 -16 -42.5t-41 -16.5t-41 16.5t-16 42.5q0 25 16 41.5t41 16.5t41 -16.5t16 -41.5zM292 116q0 -26 -16 -42.5t-41 -16.5t-41 16.5t-16 42.5q0 25 16 41.5t41 16.5t41 -16.5t16 -41.5zM761 117q0 -26 -16 -42.5t-41 -16.5t-41 16.5t-16 42.5q0 25 16 41.5
t41 16.5t41 -16.5t16 -41.5z" />
    <glyph glyph-name="uni2235" unicode="&#x2235;" horiz-adv-x="940" 
d="M519 116q0 -23 -15 -39t-36 -16t-36 16t-15 39t15 39.5t36 16.5t36 -16.5t15 -39.5zM755 515q0 -22 -15 -38t-36 -16t-36.5 16t-15.5 38q0 23 15.5 39.5t36.5 16.5t36 -16t15 -40zM287 515q0 -22 -15.5 -38t-35.5 -16q-21 0 -36.5 16t-15.5 38q0 23 14.5 39.5t37.5 16.5
q20 0 35.5 -16.5t15.5 -39.5z" />
    <glyph glyph-name="similar" unicode="&#x223c;" horiz-adv-x="940" 
d="M594 294q53 0 101 14t87 37l17 -19q-99 -79 -205 -79q-64 0 -137 44q-60 36 -117 36q-54 0 -98 -15t-84 -44l-18 19q51 43 101.5 64t98.5 21q30 0 63 -10t65 -27q33 -18 67 -29.5t59 -11.5z" />
    <glyph glyph-name="uni223D" unicode="&#x223d;" horiz-adv-x="940" 
d="M858 299q0 -41 -14.5 -76t-40 -61.5t-60.5 -41.5t-76 -15q-22 0 -49 7t-56 26l24 36q20 -11 42 -16.5t39 -5.5q33 0 59 12.5t43.5 32.5t27 46.5t9.5 55.5q0 26 -10 51.5t-28.5 45t-44 31.5t-56.5 12t-55.5 -12t-45 -32.5t-38.5 -47.5t-34 -58q-22 -40 -43 -73.5t-46 -58
t-57 -38.5t-75 -15t-78.5 12.5t-60.5 39t-39 62t-14 81.5q0 42 15 77t40.5 59.5t60.5 38t76 13.5q25 0 53.5 -6.5t54.5 -18.5l-25 -43q-25 13 -47 16.5t-37 3.5q-29 0 -54 -10t-44.5 -28t-30.5 -44t-11 -57q0 -32 10 -59t28 -46.5t44 -30t58 -9.5q35 1 60.5 13.5t45.5 33.5
t36.5 49t33.5 60q20 39 41.5 71.5t47.5 55.5t57.5 36t72.5 13q42 0 77 -14.5t60.5 -40t39.5 -59.5t14 -74z" />
    <glyph glyph-name="uni2252" unicode="&#x2252;" horiz-adv-x="740" 
d="M95 191v46h553v-46h-553zM95 364v46h553v-46h-553zM259 552q0 -24 -15.5 -39t-38.5 -15t-38 15t-15 39t15 39.5t38 15.5t38.5 -15.5t15.5 -39.5zM588 48q0 -24 -15.5 -39t-38.5 -15t-38 15t-15 39t15 39.5t38 15.5t38.5 -15.5t15.5 -39.5z" />
    <glyph glyph-name="notequal" unicode="&#x2260;" horiz-adv-x="740" 
d="M403 419h243v-44h-254l-37 -150h291v-43h-302l-36 -146h-43l37 146h-208v43h219l37 150h-256v44h267l34 133h42z" />
    <glyph glyph-name="equivalence" unicode="&#x2261;" horiz-adv-x="840" 
d="M143 119v46h553v-46h-553zM143 280v46h553v-46h-553zM143 440v46h553v-46h-553z" />
    <glyph glyph-name="lessequal" unicode="&#x2264;" horiz-adv-x="700" 
d="M99 25v46h502v-46h-502zM96 373v42l506 208v-52l-434 -177l434 -177v-52z" />
    <glyph glyph-name="greaterequal" unicode="&#x2265;" horiz-adv-x="700" 
d="M97 25v46h502v-46h-502zM96 165v52l434 177l-434 177v52l506 -208v-42z" />
    <glyph glyph-name="uni226A" unicode="&#x226a;" horiz-adv-x="940" 
d="M617 6l-26 -36l-479 330l473 341l26 -36l-419 -305zM827 6l-26 -36l-479 330l473 341l26 -36l-419 -305z" />
    <glyph glyph-name="uni226B" unicode="&#x226b;" horiz-adv-x="940" 
d="M747 300l-419 305l26 36l473 -341l-479 -330l-26 36zM537 300l-419 305l26 36l473 -341l-479 -330l-26 36z" />
    <glyph glyph-name="propersubset" unicode="&#x2282;" horiz-adv-x="940" 
d="M191 299q0 -53 15 -95t40 -71t58 -45t68 -16h434v-52h-433q-56 0 -100.5 22.5t-75.5 61t-47 89t-16 107.5t18.5 105.5t51 84.5t77 56.5t97.5 20.5h428v-52h-430q-37 0 -70.5 -15.5t-59 -44t-40.5 -68t-15 -88.5z" />
    <glyph glyph-name="propersuperset" unicode="&#x2283;" horiz-adv-x="940" 
d="M749 299q0 49 -15 88.5t-40.5 68t-59 44t-70.5 15.5h-430v52h428q52 0 97 -20.5t77.5 -56.5t51 -84.5t18.5 -105.5t-16.5 -107.5t-47 -89t-75 -61t-100.5 -22.5h-433v52h434q35 0 68 16t58 45t40 71t15 95z" />
    <glyph glyph-name="reflexsubset" unicode="&#x2286;" horiz-adv-x="940" 
d="M334 155q-46 0 -83.5 16t-64.5 44t-42 66.5t-15 83.5t16.5 82t45.5 64t67.5 41.5t82.5 14.5h459v-54h-458q-71 0 -113.5 -41t-42.5 -111q0 -33 11 -61t31 -48.5t47.5 -32t61.5 -11.5h463v-53h-466zM139 -11v48h662v-48h-662z" />
    <glyph glyph-name="reflexsuperset" unicode="&#x2287;" horiz-adv-x="940" 
d="M130 155v53h463q34 0 61.5 11.5t47.5 32t31 48.5t11 61q0 70 -42.5 111t-113.5 41h-458v54h459q44 0 82.5 -14.5t67.5 -41.5t45.5 -64t16.5 -82t-15 -83.5t-42 -66.5t-64.5 -44t-83.5 -16h-466zM129 -11v48h662v-48h-662z" />
    <glyph glyph-name="uni2299" unicode="&#x2299;" horiz-adv-x="940" 
d="M862 300q0 -82 -30.5 -153t-83.5 -124t-124.5 -83.5t-153.5 -30.5q-78 0 -148.5 29t-124 81t-85.5 123.5t-32 157.5q0 81 30.5 152.5t83 124t123.5 83t153 30.5q78 0 149 -29t125 -80.5t86 -123.5t32 -157zM821 300q0 74 -27.5 138t-74.5 111.5t-111.5 74.5t-137.5 27
q-70 0 -133.5 -25.5t-111.5 -72t-76 -111t-28 -142.5q0 -74 27 -138t74 -111.5t110.5 -74.5t137.5 -27q70 0 133.5 25.5t112 71.5t77 111t28.5 143zM581 300q0 -24 -9 -44.5t-24 -36t-35.5 -24.5t-43.5 -9t-43.5 9t-35.5 24.5t-24 36t-9 44.5q0 51 32.5 82.5t79.5 31.5
q23 0 43.5 -8.5t35.5 -23.5t24 -36t9 -46z" />
    <glyph glyph-name="perpendicular" unicode="&#x22a5;" horiz-adv-x="800" 
d="M82 -12v49h291v516h53v-516h291v-49h-635z" />
    <glyph glyph-name="uni2312" unicode="&#x2312;" horiz-adv-x="540" 
d="M270 693q-101 0 -135 -91h-62q21 67 73 105.5t124 38.5t124 -38.5t73 -105.5h-62q-34 91 -135 91z" />
    <glyph glyph-name="uni2460" unicode="&#x2460;" horiz-adv-x="940" 
d="M358 452l-20 40l124 61h44v-500h-51v445zM910 300q0 -91 -34.5 -171t-94 -139.5t-140 -94t-171.5 -34.5q-86 0 -165.5 33t-140 91.5t-96.5 139t-36 175.5q0 90 34.5 170t93.5 139t139 93.5t171 34.5q87 0 166.5 -32.5t140 -90.5t97 -138.5t36.5 -175.5zM867 300
q0 81 -31 153.5t-84.5 127t-126 86t-155.5 31.5q-79 0 -150.5 -30t-126 -83.5t-86.5 -126.5t-32 -158q0 -81 30.5 -153.5t84 -127t125.5 -86t155 -31.5q79 0 151 30t126.5 83t87 126t32.5 159z" />
    <glyph glyph-name="uni2461" unicode="&#x2461;" horiz-adv-x="940" 
d="M322 92q65 63 112 109t77 82t44.5 64.5t14.5 55.5q0 21 -6 39.5t-19 33t-33.5 23t-48.5 8.5q-34 0 -66.5 -17.5t-56.5 -43.5l-28 36q34 35 74.5 54.5t88.5 19.5q36 0 64 -12t47 -32t28.5 -46t8.5 -54q-1 -35 -16.5 -69t-44 -71t-70 -78.5t-94.5 -90.5h236v-50h-312v39z
M910 300q0 -91 -34.5 -171t-94 -139.5t-140 -94t-171.5 -34.5q-86 0 -165.5 33t-140 91.5t-96.5 139t-36 175.5q0 90 34.5 170t93.5 139t139 93.5t171 34.5q87 0 166.5 -32.5t140 -90.5t97 -138.5t36.5 -175.5zM867 300q0 81 -31 153.5t-84.5 127t-126 86t-155.5 31.5
q-79 0 -150.5 -30t-126 -83.5t-86.5 -126.5t-32 -158q0 -81 30.5 -153.5t84 -127t125.5 -86t155 -31.5q79 0 151 30t126.5 83t87 126t32.5 159z" />
    <glyph glyph-name="uni2462" unicode="&#x2462;" horiz-adv-x="940" 
d="M457 43q-38 0 -75 11.5t-68 28.5l22 42q10 -6 24 -12t30 -11t32.5 -8t32.5 -3q38 0 63.5 9t41 24t22 33t6.5 36q0 26 -14.5 44.5t-37 30.5t-50 18t-54.5 6h-21v43h21q22 0 46.5 5.5t45 17t33.5 28t13 39.5q0 35 -25 59t-81 24q-13 0 -27.5 -3.5t-29 -9t-28 -12.5
t-23.5 -14l-23 38q32 22 70 35t73 13q36 0 62.5 -10t44.5 -26.5t27 -38.5t9 -45q0 -15 -3 -30.5t-11.5 -30.5t-23.5 -30t-40 -29q50 -19 74 -48.5t24 -74.5q0 -29 -12 -56t-35.5 -47.5t-57.5 -33t-77 -12.5zM910 300q0 -91 -34.5 -171t-94 -139.5t-140 -94t-171.5 -34.5
q-86 0 -165.5 33t-140 91.5t-96.5 139t-36 175.5q0 90 34.5 170t93.5 139t139 93.5t171 34.5q87 0 166.5 -32.5t140 -90.5t97 -138.5t36.5 -175.5zM867 300q0 81 -31 153.5t-84.5 127t-126 86t-155.5 31.5q-79 0 -150.5 -30t-126 -83.5t-86.5 -126.5t-32 -158
q0 -81 30.5 -153.5t84 -127t125.5 -86t155 -31.5q79 0 151 30t126.5 83t87 126t32.5 159z" />
    <glyph glyph-name="uni2463" unicode="&#x2463;" horiz-adv-x="940" 
d="M504 147h-231v49l211 360h68v-361h63v-48h-63v-94h-48v94zM504 500l-178 -305h178v305zM910 300q0 -91 -34.5 -171t-94 -139.5t-140 -94t-171.5 -34.5q-86 0 -165.5 33t-140 91.5t-96.5 139t-36 175.5q0 90 34.5 170t93.5 139t139 93.5t171 34.5q87 0 166.5 -32.5
t140 -90.5t97 -138.5t36.5 -175.5zM867 300q0 81 -31 153.5t-84.5 127t-126 86t-155.5 31.5q-79 0 -150.5 -30t-126 -83.5t-86.5 -126.5t-32 -158q0 -81 30.5 -153.5t84 -127t125.5 -86t155 -31.5q79 0 151 30t126.5 83t87 126t32.5 159z" />
    <glyph glyph-name="uni2464" unicode="&#x2464;" horiz-adv-x="940" 
d="M424 501l-17 -137q15 2 26 2h15q33 0 65 -9.5t56.5 -28t39.5 -47t15 -66.5q0 -40 -14.5 -71.5t-39 -54t-58 -34.5t-71.5 -12q-35 0 -68.5 7.5t-58.5 24.5l16 47q23 -14 53.5 -21.5t57.5 -7.5t51 8t41 23t27 36t10 47q0 24 -9.5 45t-29 36t-50 23t-72.5 7q-11 -1 -23.5 -1
t-23.5 -2l-14 -2l29 238h237v-50h-190zM910 300q0 -91 -34.5 -171t-94 -139.5t-140 -94t-171.5 -34.5q-86 0 -165.5 33t-140 91.5t-96.5 139t-36 175.5q0 90 34.5 170t93.5 139t139 93.5t171 34.5q87 0 166.5 -32.5t140 -90.5t97 -138.5t36.5 -175.5zM867 300
q0 81 -31 153.5t-84.5 127t-126 86t-155.5 31.5q-79 0 -150.5 -30t-126 -83.5t-86.5 -126.5t-32 -158q0 -81 30.5 -153.5t84 -127t125.5 -86t155 -31.5q79 0 151 30t126.5 83t87 126t32.5 159z" />
    <glyph glyph-name="uni2465" unicode="&#x2465;" horiz-adv-x="940" 
d="M587 513q-47 -2 -93.5 -17t-75.5 -48q-9 -10 -16.5 -20.5t-15 -24.5t-14.5 -32.5t-13 -43.5q33 38 66 47t59 9q33 0 60 -12t46 -33.5t29 -51t10 -65.5q0 -34 -10.5 -66t-30.5 -56.5t-50 -39.5t-69 -15t-70.5 15.5t-53.5 43.5t-33.5 67t-11.5 87q0 74 23 131.5t59 94.5
q36 38 85.5 56.5t114.5 22.5zM470 91q49 0 78 35t29 90q0 54 -30 88t-82 34q-32 0 -60 -20.5t-43 -48.5q-3 -6 -5 -13t-2 -16q0 -31 8 -58t23 -47.5t36 -32t48 -11.5zM910 300q0 -91 -34.5 -171t-94 -139.5t-140 -94t-171.5 -34.5q-86 0 -165.5 33t-140 91.5t-96.5 139
t-36 175.5q0 90 34.5 170t93.5 139t139 93.5t171 34.5q87 0 166.5 -32.5t140 -90.5t97 -138.5t36.5 -175.5zM867 300q0 81 -31 153.5t-84.5 127t-126 86t-155.5 31.5q-79 0 -150.5 -30t-126 -83.5t-86.5 -126.5t-32 -158q0 -81 30.5 -153.5t84 -127t125.5 -86t155 -31.5
q79 0 151 30t126.5 83t87 126t32.5 159z" />
    <glyph glyph-name="uni2466" unicode="&#x2466;" horiz-adv-x="940" 
d="M630 496l-214 -458h-57l212 451h-242v50h301v-43zM910 300q0 -91 -34.5 -171t-94 -139.5t-140 -94t-171.5 -34.5q-86 0 -165.5 33t-140 91.5t-96.5 139t-36 175.5q0 90 34.5 170t93.5 139t139 93.5t171 34.5q87 0 166.5 -32.5t140 -90.5t97 -138.5t36.5 -175.5zM867 300
q0 81 -31 153.5t-84.5 127t-126 86t-155.5 31.5q-79 0 -150.5 -30t-126 -83.5t-86.5 -126.5t-32 -158q0 -81 30.5 -153.5t84 -127t125.5 -86t155 -31.5q79 0 151 30t126.5 83t87 126t32.5 159z" />
    <glyph glyph-name="uni2467" unicode="&#x2467;" horiz-adv-x="940" 
d="M635 189q0 -32 -13.5 -59t-36 -46t-52.5 -29.5t-63 -10.5q-36 0 -66.5 11t-52.5 29.5t-34 43t-12 50.5q0 35 21.5 69.5t75.5 62.5q-47 26 -63 56.5t-16 56.5q0 30 12 54.5t33 42t48.5 27.5t58.5 10q34 0 60.5 -11t45 -28.5t28.5 -39.5t10 -45q0 -25 -16 -56.5t-65 -60.5
q52 -28 74.5 -60t22.5 -67zM586 181q0 41 -33.5 68t-90.5 47q-54 -20 -80.5 -49.5t-26.5 -58.5q0 -20 8.5 -38t24 -31.5t36.5 -21.5t47 -8q24 0 44.5 7.5t36.5 20t25 29.5t9 35zM372 428q0 -35 26.5 -57.5t82.5 -41.5q43 17 65 43.5t22 53.5q0 16 -6 32t-18 28.5t-30 20
t-42 7.5q-23 0 -41.5 -7.5t-31.5 -19.5t-20 -27.5t-7 -31.5zM910 300q0 -91 -34.5 -171t-94 -139.5t-140 -94t-171.5 -34.5q-86 0 -165.5 33t-140 91.5t-96.5 139t-36 175.5q0 90 34.5 170t93.5 139t139 93.5t171 34.5q87 0 166.5 -32.5t140 -90.5t97 -138.5t36.5 -175.5z
M867 300q0 81 -31 153.5t-84.5 127t-126 86t-155.5 31.5q-79 0 -150.5 -30t-126 -83.5t-86.5 -126.5t-32 -158q0 -81 30.5 -153.5t84 -127t125.5 -86t155 -31.5q79 0 151 30t126.5 83t87 126t32.5 159z" />
    <glyph glyph-name="uni2468" unicode="&#x2468;" horiz-adv-x="940" 
d="M635 345q0 -80 -21 -136.5t-57.5 -92.5t-86 -53.5t-106.5 -19.5v50q53 1 90.5 13.5t63.5 37t42 60.5t27 83q-23 -34 -58.5 -47.5t-69.5 -13.5q-33 0 -60 12.5t-46.5 34t-30.5 50.5t-12 62q-2 34 8.5 64.5t31.5 54t51.5 37.5t69.5 14q34 0 63.5 -15t52 -42.5t35.5 -66.5
t13 -86zM467 508q-54 0 -80 -34t-26 -85q0 -52 29.5 -84.5t78.5 -32.5q16 0 35.5 5.5t37 16t29 26t11.5 34.5q0 31 -8.5 59t-23.5 49t-36.5 33.5t-46.5 12.5zM910 300q0 -91 -34.5 -171t-94 -139.5t-140 -94t-171.5 -34.5q-86 0 -165.5 33t-140 91.5t-96.5 139t-36 175.5
q0 90 34.5 170t93.5 139t139 93.5t171 34.5q87 0 166.5 -32.5t140 -90.5t97 -138.5t36.5 -175.5zM867 300q0 81 -31 153.5t-84.5 127t-126 86t-155.5 31.5q-79 0 -150.5 -30t-126 -83.5t-86.5 -126.5t-32 -158q0 -81 30.5 -153.5t84 -127t125.5 -86t155 -31.5q79 0 151 30
t126.5 83t87 126t32.5 159z" />
    <glyph glyph-name="uni2469" unicode="&#x2469;" horiz-adv-x="940" 
d="M484 304q0 -109 27 -160t69 -51t69 51t27 160t-27 159.5t-69 50.5t-69 -50.5t-27 -159.5zM432 304q0 133 40.5 194.5t107.5 61.5t107.5 -61.5t40.5 -194.5t-40.5 -194.5t-107.5 -61.5t-107.5 61.5t-40.5 194.5zM910 300q0 -91 -34.5 -171t-94 -139.5t-140 -94
t-171.5 -34.5q-86 0 -165.5 33t-140 91.5t-96.5 139t-36 175.5q0 90 34.5 170t93.5 139t139 93.5t171 34.5q87 0 166.5 -32.5t140 -90.5t97 -138.5t36.5 -175.5zM867 300q0 81 -31 153.5t-84.5 127t-126 86t-155.5 31.5q-79 0 -150.5 -30t-126 -83.5t-86.5 -126.5t-32 -158
q0 -81 30.5 -153.5t84 -127t125.5 -86t155 -31.5q79 0 151 30t126.5 83t87 126t32.5 159zM228 460l-20 40l102 53h44v-500h-51v445z" />
    <glyph glyph-name="uni246A" unicode="&#x246a;" horiz-adv-x="940" 
d="M910 300q0 -91 -34.5 -171t-94 -139.5t-140 -94t-171.5 -34.5q-86 0 -165.5 33t-140 91.5t-96.5 139t-36 175.5q0 90 34.5 170t93.5 139t139 93.5t171 34.5q87 0 166.5 -32.5t140 -90.5t97 -138.5t36.5 -175.5zM867 300q0 81 -31 153.5t-84.5 127t-126 86t-155.5 31.5
q-79 0 -150.5 -30t-126 -83.5t-86.5 -126.5t-32 -158q0 -81 30.5 -153.5t84 -127t125.5 -86t155 -31.5q79 0 151 30t126.5 83t87 126t32.5 159zM258 460l-20 40l102 53h44v-500h-51v445zM519 460l-20 40l102 53h44v-500h-51v445z" />
    <glyph glyph-name="uni246B" unicode="&#x246b;" horiz-adv-x="940" 
d="M433 92q54 63 93 109t64.5 82t38 64.5t13.5 55.5q2 44 -19 73.5t-70 29.5q-25 0 -52 -19.5t-48 -42.5l-24 40q28 34 63 53.5t71 19.5q37 0 62.5 -13t41.5 -33.5t23 -46.5t6 -52q-1 -35 -14.5 -69.5t-38 -72t-59.5 -79.5t-79 -91h193v-48h-265v40zM910 300
q0 -91 -34.5 -171t-94 -139.5t-140 -94t-171.5 -34.5q-86 0 -165.5 33t-140 91.5t-96.5 139t-36 175.5q0 90 34.5 170t93.5 139t139 93.5t171 34.5q87 0 166.5 -32.5t140 -90.5t97 -138.5t36.5 -175.5zM867 300q0 81 -31 153.5t-84.5 127t-126 86t-155.5 31.5
q-79 0 -150.5 -30t-126 -83.5t-86.5 -126.5t-32 -158q0 -81 30.5 -153.5t84 -127t125.5 -86t155 -31.5q79 0 151 30t126.5 83t87 126t32.5 159zM228 460l-20 40l102 53h44v-500h-51v445z" />
    <glyph glyph-name="uni246C" unicode="&#x246c;" horiz-adv-x="940" 
d="M910 300q0 -91 -34.5 -171t-94 -139.5t-140 -94t-171.5 -34.5q-86 0 -165.5 33t-140 91.5t-96.5 139t-36 175.5q0 90 34.5 170t93.5 139t139 93.5t171 34.5q87 0 166.5 -32.5t140 -90.5t97 -138.5t36.5 -175.5zM867 300q0 81 -31 153.5t-84.5 127t-126 86t-155.5 31.5
q-79 0 -150.5 -30t-126 -83.5t-86.5 -126.5t-32 -158q0 -81 30.5 -153.5t84 -127t125.5 -86t155 -31.5q79 0 151 30t126.5 83t87 126t32.5 159zM228 460l-20 40l102 53h44v-500h-51v445zM543 43q-38 0 -70 11.5t-63 28.5l22 42q20 -12 48.5 -23t60.5 -11q38 0 62.5 9t39 24
t20.5 33t6 36q0 26 -13.5 44.5t-35 30.5t-48.5 18t-54 6h-21v43h21q22 0 45.5 5.5t42 17t30.5 28t12 39.5q0 17 -5 32t-16.5 26.5t-30 18t-46.5 6.5q-26 0 -52 -12.5t-46 -26.5l-23 38q32 22 65 35t68 13q36 0 61.5 -10t42 -26.5t24 -38.5t7.5 -45q0 -15 -3 -30.5
t-11.5 -30.5t-23.5 -30t-40 -29q50 -19 75.5 -48.5t25.5 -74.5q0 -29 -11.5 -56t-34 -47.5t-55.5 -33t-76 -12.5z" />
    <glyph glyph-name="uni246D" unicode="&#x246d;" horiz-adv-x="940" 
d="M910 300q0 -91 -34.5 -171t-94 -139.5t-140 -94t-171.5 -34.5q-86 0 -165.5 33t-140 91.5t-96.5 139t-36 175.5q0 90 34.5 170t93.5 139t139 93.5t171 34.5q87 0 166.5 -32.5t140 -90.5t97 -138.5t36.5 -175.5zM867 300q0 81 -31 153.5t-84.5 127t-126 86t-155.5 31.5
q-79 0 -150.5 -30t-126 -83.5t-86.5 -126.5t-32 -158q0 -81 30.5 -153.5t84 -127t125.5 -86t155 -31.5q79 0 151 30t126.5 83t87 126t32.5 159zM228 460l-20 40l102 53h44v-500h-51v445zM627 147h-202v49l182 360h68v-361h53v-48h-53v-94h-48v94zM627 500l-149 -305h149v305
z" />
    <glyph glyph-name="uni246E" unicode="&#x246e;" horiz-adv-x="940" 
d="M910 300q0 -91 -34.5 -171t-94 -139.5t-140 -94t-171.5 -34.5q-86 0 -165.5 33t-140 91.5t-96.5 139t-36 175.5q0 90 34.5 170t93.5 139t139 93.5t171 34.5q87 0 166.5 -32.5t140 -90.5t97 -138.5t36.5 -175.5zM867 300q0 81 -31 153.5t-84.5 127t-126 86t-155.5 31.5
q-79 0 -150.5 -30t-126 -83.5t-86.5 -126.5t-32 -158q0 -81 30.5 -153.5t84 -127t125.5 -86t155 -31.5q79 0 151 30t126.5 83t87 126t32.5 159zM228 460l-20 40l102 53h44v-500h-51v445zM518 501l-15 -137q15 2 26 2h15q33 0 64.5 -9.5t55.5 -28t38.5 -47t14.5 -66.5
q0 -40 -14.5 -71.5t-39 -54t-58 -34.5t-71.5 -12q-35 0 -65.5 7.5t-55.5 24.5l22 46q47 -28 99 -28q27 0 51 8t41 23t27 36t10 47q0 24 -9 45t-28 36t-49 23t-72 7q-11 -1 -23.5 -1t-23.5 -2l-14 -2l27 238h236v-50h-189z" />
    <glyph glyph-name="uni2474" unicode="&#x2474;" horiz-adv-x="940" 
d="M358 452l-20 40l124 61h44v-500h-51v445zM34 300q0 113 35.5 221t110.5 194h45q-73 -85 -106 -194.5t-33 -220.5q0 -54 7.5 -110.5t24 -111.5t43 -106.5t63.5 -95.5h-46q-36 40 -63 90.5t-45 106.5t-27 114t-9 113zM908 300q0 -55 -9 -113t-27 -114t-45 -106.5t-63 -90.5
h-46q37 44 63.5 95.5t43 106.5t24 111.5t7.5 110.5q0 111 -33 220.5t-106 194.5h45q75 -86 110.5 -194t35.5 -221z" />
    <glyph glyph-name="uni2475" unicode="&#x2475;" horiz-adv-x="940" 
d="M322 92q65 63 112 109t77 82t44.5 64.5t14.5 55.5q0 21 -6 39.5t-19 33t-33.5 23t-48.5 8.5q-34 0 -66.5 -17.5t-56.5 -43.5l-28 36q34 35 74.5 54.5t88.5 19.5q36 0 64 -12t47 -32t28.5 -46t8.5 -54q-1 -35 -16.5 -69t-44 -71t-70 -78.5t-94.5 -90.5h236v-50h-312v39z
M34 300q0 113 35.5 221t110.5 194h45q-73 -85 -106 -194.5t-33 -220.5q0 -54 7.5 -110.5t24 -111.5t43 -106.5t63.5 -95.5h-46q-36 40 -63 90.5t-45 106.5t-27 114t-9 113zM908 300q0 -55 -9 -113t-27 -114t-45 -106.5t-63 -90.5h-46q37 44 63.5 95.5t43 106.5t24 111.5
t7.5 110.5q0 111 -33 220.5t-106 194.5h45q75 -86 110.5 -194t35.5 -221z" />
    <glyph glyph-name="uni2476" unicode="&#x2476;" horiz-adv-x="940" 
d="M457 43q-38 0 -75 11.5t-68 28.5l22 42q10 -6 24 -12t30 -11t32.5 -8t32.5 -3q38 0 63.5 9t41 24t22 33t6.5 36q0 26 -14.5 44.5t-37 30.5t-50 18t-54.5 6h-21v43h21q22 0 46.5 5.5t45 17t33.5 28t13 39.5q0 35 -25 59t-81 24q-13 0 -27.5 -3.5t-29 -9t-28 -12.5
t-23.5 -14l-23 38q32 22 70 35t73 13q36 0 62.5 -10t44.5 -26.5t27 -38.5t9 -45q0 -15 -3 -30.5t-11.5 -30.5t-23.5 -30t-40 -29q50 -19 74 -48.5t24 -74.5q0 -29 -12 -56t-35.5 -47.5t-57.5 -33t-77 -12.5zM34 300q0 113 35.5 221t110.5 194h45q-73 -85 -106 -194.5
t-33 -220.5q0 -54 7.5 -110.5t24 -111.5t43 -106.5t63.5 -95.5h-46q-36 40 -63 90.5t-45 106.5t-27 114t-9 113zM908 300q0 -55 -9 -113t-27 -114t-45 -106.5t-63 -90.5h-46q37 44 63.5 95.5t43 106.5t24 111.5t7.5 110.5q0 111 -33 220.5t-106 194.5h45q75 -86 110.5 -194
t35.5 -221z" />
    <glyph glyph-name="uni2477" unicode="&#x2477;" horiz-adv-x="940" 
d="M504 147h-231v49l211 360h68v-361h63v-48h-63v-94h-48v94zM504 500l-178 -305h178v305zM34 300q0 113 35.5 221t110.5 194h45q-73 -85 -106 -194.5t-33 -220.5q0 -54 7.5 -110.5t24 -111.5t43 -106.5t63.5 -95.5h-46q-36 40 -63 90.5t-45 106.5t-27 114t-9 113zM908 300
q0 -55 -9 -113t-27 -114t-45 -106.5t-63 -90.5h-46q37 44 63.5 95.5t43 106.5t24 111.5t7.5 110.5q0 111 -33 220.5t-106 194.5h45q75 -86 110.5 -194t35.5 -221z" />
    <glyph glyph-name="uni2478" unicode="&#x2478;" horiz-adv-x="940" 
d="M424 501l-17 -137q15 2 26 2h15q33 0 65 -9.5t56.5 -28t39.5 -47t15 -66.5q0 -40 -14.5 -71.5t-39 -54t-58 -34.5t-71.5 -12q-35 0 -68.5 7.5t-58.5 24.5l16 47q23 -14 53.5 -21.5t57.5 -7.5t51 8t41 23t27 36t10 47q0 24 -9.5 45t-29 36t-50 23t-72.5 7q-11 -1 -23.5 -1
t-23.5 -2l-14 -2l29 238h237v-50h-190zM34 300q0 113 35.5 221t110.5 194h45q-73 -85 -106 -194.5t-33 -220.5q0 -54 7.5 -110.5t24 -111.5t43 -106.5t63.5 -95.5h-46q-36 40 -63 90.5t-45 106.5t-27 114t-9 113zM908 300q0 -55 -9 -113t-27 -114t-45 -106.5t-63 -90.5h-46
q37 44 63.5 95.5t43 106.5t24 111.5t7.5 110.5q0 111 -33 220.5t-106 194.5h45q75 -86 110.5 -194t35.5 -221z" />
    <glyph glyph-name="uni2479" unicode="&#x2479;" horiz-adv-x="940" 
d="M587 513q-47 -2 -93.5 -17t-75.5 -48q-9 -10 -16.5 -20.5t-15 -24.5t-14.5 -32.5t-13 -43.5q33 38 66 47t59 9q33 0 60 -12t46 -33.5t29 -51t10 -65.5q0 -34 -10.5 -66t-30.5 -56.5t-50 -39.5t-69 -15t-70.5 15.5t-53.5 43.5t-33.5 67t-11.5 87q0 74 23 131.5t59 94.5
q36 38 85.5 56.5t114.5 22.5zM470 91q49 0 78 35t29 90q0 54 -30 88t-82 34q-32 0 -60 -20.5t-43 -48.5q-3 -6 -5 -13t-2 -16q0 -31 8 -58t23 -47.5t36 -32t48 -11.5zM34 300q0 113 35.5 221t110.5 194h45q-73 -85 -106 -194.5t-33 -220.5q0 -54 7.5 -110.5t24 -111.5
t43 -106.5t63.5 -95.5h-46q-36 40 -63 90.5t-45 106.5t-27 114t-9 113zM908 300q0 -55 -9 -113t-27 -114t-45 -106.5t-63 -90.5h-46q37 44 63.5 95.5t43 106.5t24 111.5t7.5 110.5q0 111 -33 220.5t-106 194.5h45q75 -86 110.5 -194t35.5 -221z" />
    <glyph glyph-name="uni247A" unicode="&#x247a;" horiz-adv-x="940" 
d="M630 496l-214 -458h-57l212 451h-242v50h301v-43zM34 300q0 113 35.5 221t110.5 194h45q-73 -85 -106 -194.5t-33 -220.5q0 -54 7.5 -110.5t24 -111.5t43 -106.5t63.5 -95.5h-46q-36 40 -63 90.5t-45 106.5t-27 114t-9 113zM908 300q0 -55 -9 -113t-27 -114t-45 -106.5
t-63 -90.5h-46q37 44 63.5 95.5t43 106.5t24 111.5t7.5 110.5q0 111 -33 220.5t-106 194.5h45q75 -86 110.5 -194t35.5 -221z" />
    <glyph glyph-name="uni247B" unicode="&#x247b;" horiz-adv-x="940" 
d="M635 189q0 -32 -13.5 -59t-36 -46t-52.5 -29.5t-63 -10.5q-36 0 -66.5 11t-52.5 29.5t-34 43t-12 50.5q0 35 21.5 69.5t75.5 62.5q-47 26 -63 56.5t-16 56.5q0 30 12 54.5t33 42t48.5 27.5t58.5 10q34 0 60.5 -11t45 -28.5t28.5 -39.5t10 -45q0 -25 -16 -56.5t-65 -60.5
q52 -28 74.5 -60t22.5 -67zM586 181q0 41 -33.5 68t-90.5 47q-54 -20 -80.5 -49.5t-26.5 -58.5q0 -20 8.5 -38t24 -31.5t36.5 -21.5t47 -8q24 0 44.5 7.5t36.5 20t25 29.5t9 35zM372 428q0 -35 26.5 -57.5t82.5 -41.5q43 17 65 43.5t22 53.5q0 16 -6 32t-18 28.5t-30 20
t-42 7.5q-23 0 -41.5 -7.5t-31.5 -19.5t-20 -27.5t-7 -31.5zM34 300q0 113 35.5 221t110.5 194h45q-73 -85 -106 -194.5t-33 -220.5q0 -54 7.5 -110.5t24 -111.5t43 -106.5t63.5 -95.5h-46q-36 40 -63 90.5t-45 106.5t-27 114t-9 113zM908 300q0 -55 -9 -113t-27 -114
t-45 -106.5t-63 -90.5h-46q37 44 63.5 95.5t43 106.5t24 111.5t7.5 110.5q0 111 -33 220.5t-106 194.5h45q75 -86 110.5 -194t35.5 -221z" />
    <glyph glyph-name="uni247C" unicode="&#x247c;" horiz-adv-x="940" 
d="M635 345q0 -80 -21 -136.5t-57.5 -92.5t-86 -53.5t-106.5 -19.5v50q53 1 90.5 13.5t63.5 37t42 60.5t27 83q-23 -34 -58.5 -47.5t-69.5 -13.5q-33 0 -60 12.5t-46.5 34t-30.5 50.5t-12 62q-2 34 8.5 64.5t31.5 54t51.5 37.5t69.5 14q34 0 63.5 -15t52 -42.5t35.5 -66.5
t13 -86zM467 508q-54 0 -80 -34t-26 -85q0 -52 29.5 -84.5t78.5 -32.5q16 0 35.5 5.5t37 16t29 26t11.5 34.5q0 31 -8.5 59t-23.5 49t-36.5 33.5t-46.5 12.5zM34 300q0 113 35.5 221t110.5 194h45q-73 -85 -106 -194.5t-33 -220.5q0 -54 7.5 -110.5t24 -111.5t43 -106.5
t63.5 -95.5h-46q-36 40 -63 90.5t-45 106.5t-27 114t-9 113zM908 300q0 -55 -9 -113t-27 -114t-45 -106.5t-63 -90.5h-46q37 44 63.5 95.5t43 106.5t24 111.5t7.5 110.5q0 111 -33 220.5t-106 194.5h45q75 -86 110.5 -194t35.5 -221z" />
    <glyph glyph-name="uni247D" unicode="&#x247d;" horiz-adv-x="940" 
d="M484 304q0 -109 27 -160t69 -51t69 51t27 160t-27 159.5t-69 50.5t-69 -50.5t-27 -159.5zM432 304q0 133 40.5 194.5t107.5 61.5t107.5 -61.5t40.5 -194.5t-40.5 -194.5t-107.5 -61.5t-107.5 61.5t-40.5 194.5zM228 460l-20 40l102 53h44v-500h-51v445zM34 300
q0 113 35.5 221t110.5 194h45q-73 -85 -106 -194.5t-33 -220.5q0 -54 7.5 -110.5t24 -111.5t43 -106.5t63.5 -95.5h-46q-36 40 -63 90.5t-45 106.5t-27 114t-9 113zM908 300q0 -55 -9 -113t-27 -114t-45 -106.5t-63 -90.5h-46q37 44 63.5 95.5t43 106.5t24 111.5t7.5 110.5
q0 111 -33 220.5t-106 194.5h45q75 -86 110.5 -194t35.5 -221z" />
    <glyph glyph-name="uni247E" unicode="&#x247e;" horiz-adv-x="940" 
d="M258 460l-20 40l102 53h44v-500h-51v445zM519 460l-20 40l102 53h44v-500h-51v445zM34 300q0 113 35.5 221t110.5 194h45q-73 -85 -106 -194.5t-33 -220.5q0 -54 7.5 -110.5t24 -111.5t43 -106.5t63.5 -95.5h-46q-36 40 -63 90.5t-45 106.5t-27 114t-9 113zM908 300
q0 -55 -9 -113t-27 -114t-45 -106.5t-63 -90.5h-46q37 44 63.5 95.5t43 106.5t24 111.5t7.5 110.5q0 111 -33 220.5t-106 194.5h45q75 -86 110.5 -194t35.5 -221z" />
    <glyph glyph-name="uni247F" unicode="&#x247f;" horiz-adv-x="940" 
d="M433 92q54 63 93 109t64.5 82t38 64.5t13.5 55.5q2 44 -19 73.5t-70 29.5q-25 0 -52 -19.5t-48 -42.5l-24 40q28 34 63 53.5t71 19.5q37 0 62.5 -13t41.5 -33.5t23 -46.5t6 -52q-1 -35 -14.5 -69.5t-38 -72t-59.5 -79.5t-79 -91h193v-48h-265v40zM228 460l-20 40l102 53
h44v-500h-51v445zM34 300q0 113 35.5 221t110.5 194h45q-73 -85 -106 -194.5t-33 -220.5q0 -54 7.5 -110.5t24 -111.5t43 -106.5t63.5 -95.5h-46q-36 40 -63 90.5t-45 106.5t-27 114t-9 113zM908 300q0 -55 -9 -113t-27 -114t-45 -106.5t-63 -90.5h-46q37 44 63.5 95.5
t43 106.5t24 111.5t7.5 110.5q0 111 -33 220.5t-106 194.5h45q75 -86 110.5 -194t35.5 -221z" />
    <glyph glyph-name="uni2480" unicode="&#x2480;" horiz-adv-x="940" 
d="M228 460l-20 40l102 53h44v-500h-51v445zM543 43q-38 0 -70 11.5t-63 28.5l22 42q20 -12 48.5 -23t60.5 -11q38 0 62.5 9t39 24t20.5 33t6 36q0 26 -13.5 44.5t-35 30.5t-48.5 18t-54 6h-21v43h21q22 0 45.5 5.5t42 17t30.5 28t12 39.5q0 17 -5 32t-16.5 26.5t-30 18
t-46.5 6.5q-26 0 -52 -12.5t-46 -26.5l-23 38q32 22 65 35t68 13q36 0 61.5 -10t42 -26.5t24 -38.5t7.5 -45q0 -15 -3 -30.5t-11.5 -30.5t-23.5 -30t-40 -29q50 -19 75.5 -48.5t25.5 -74.5q0 -29 -11.5 -56t-34 -47.5t-55.5 -33t-76 -12.5zM34 300q0 113 35.5 221t110.5 194
h45q-73 -85 -106 -194.5t-33 -220.5q0 -54 7.5 -110.5t24 -111.5t43 -106.5t63.5 -95.5h-46q-36 40 -63 90.5t-45 106.5t-27 114t-9 113zM908 300q0 -55 -9 -113t-27 -114t-45 -106.5t-63 -90.5h-46q37 44 63.5 95.5t43 106.5t24 111.5t7.5 110.5q0 111 -33 220.5
t-106 194.5h45q75 -86 110.5 -194t35.5 -221z" />
    <glyph glyph-name="uni2481" unicode="&#x2481;" horiz-adv-x="940" 
d="M228 460l-20 40l102 53h44v-500h-51v445zM627 147h-202v49l182 360h68v-361h53v-48h-53v-94h-48v94zM627 500l-149 -305h149v305zM34 300q0 113 35.5 221t110.5 194h45q-73 -85 -106 -194.5t-33 -220.5q0 -54 7.5 -110.5t24 -111.5t43 -106.5t63.5 -95.5h-46
q-36 40 -63 90.5t-45 106.5t-27 114t-9 113zM908 300q0 -55 -9 -113t-27 -114t-45 -106.5t-63 -90.5h-46q37 44 63.5 95.5t43 106.5t24 111.5t7.5 110.5q0 111 -33 220.5t-106 194.5h45q75 -86 110.5 -194t35.5 -221z" />
    <glyph glyph-name="uni2482" unicode="&#x2482;" horiz-adv-x="940" 
d="M228 460l-20 40l102 53h44v-500h-51v445zM518 501l-15 -137q15 2 26 2h15q33 0 64.5 -9.5t55.5 -28t38.5 -47t14.5 -66.5q0 -40 -14.5 -71.5t-39 -54t-58 -34.5t-71.5 -12q-35 0 -65.5 7.5t-55.5 24.5l22 46q47 -28 99 -28q27 0 51 8t41 23t27 36t10 47q0 24 -9 45
t-28 36t-49 23t-72 7q-11 -1 -23.5 -1t-23.5 -2l-14 -2l27 238h236v-50h-189zM34 300q0 113 35.5 221t110.5 194h45q-73 -85 -106 -194.5t-33 -220.5q0 -54 7.5 -110.5t24 -111.5t43 -106.5t63.5 -95.5h-46q-36 40 -63 90.5t-45 106.5t-27 114t-9 113zM908 300
q0 -55 -9 -113t-27 -114t-45 -106.5t-63 -90.5h-46q37 44 63.5 95.5t43 106.5t24 111.5t7.5 110.5q0 111 -33 220.5t-106 194.5h45q75 -86 110.5 -194t35.5 -221z" />
    <glyph glyph-name="uni249C" unicode="&#x249c;" horiz-adv-x="940" 
d="M498 348q11 0 23.5 -0.5t21.5 -0.5v13q0 13 -4 28t-14 28t-28.5 21.5t-46.5 8.5q-19 0 -44.5 -8t-51.5 -28l-17 38q32 24 62 33t61 9q40 0 65.5 -13t40 -34t20 -47.5t5.5 -52.5v-220h-46v40q-29 -26 -61.5 -37t-63.5 -11q-50 0 -76 31t-26 73q0 57 43.5 93t136.5 36z
M539 226q4 9 4 20v55q-14 2 -28 3.5t-22 1.5q-53 0 -88 -19.5t-35 -59.5q0 -35 18 -50.5t50 -15.5q18 0 34.5 6t29.5 15t22.5 20.5t14.5 23.5zM34 300q0 113 35.5 221t110.5 194h45q-73 -85 -106 -194.5t-33 -220.5q0 -54 7.5 -110.5t24 -111.5t43 -106.5t63.5 -95.5h-46
q-36 40 -63 90.5t-45 106.5t-27 114t-9 113zM908 300q0 -55 -9 -113t-27 -114t-45 -106.5t-63 -90.5h-46q37 44 63.5 95.5t43 106.5t24 111.5t7.5 110.5q0 111 -33 220.5t-106 194.5h45q75 -86 110.5 -194t35.5 -221z" />
    <glyph glyph-name="uni249D" unicode="&#x249d;" horiz-adv-x="940" 
d="M390 580v-214q26 34 62.5 47t68.5 13q31 0 58.5 -13.5t48 -38t32 -58t11.5 -73.5q0 -47 -14.5 -83t-37.5 -60t-51.5 -36.5t-56.5 -12.5q-15 0 -29.5 1.5t-29.5 7t-30.5 16.5t-31.5 29v-46h-51v521h51zM388 204q0 -20 8.5 -39t23.5 -34t35.5 -24t43.5 -9q27 0 49 11t38 30
t25 45t9 57q0 27 -8.5 52t-24.5 44t-38 30.5t-49 11.5q-23 0 -43 -10t-35.5 -25.5t-24.5 -35.5t-9 -41v-63zM34 300q0 113 35.5 221t110.5 194h45q-73 -85 -106 -194.5t-33 -220.5q0 -54 7.5 -110.5t24 -111.5t43 -106.5t63.5 -95.5h-46q-36 40 -63 90.5t-45 106.5t-27 114
t-9 113zM908 300q0 -55 -9 -113t-27 -114t-45 -106.5t-63 -90.5h-46q37 44 63.5 95.5t43 106.5t24 111.5t7.5 110.5q0 111 -33 220.5t-106 194.5h45q75 -86 110.5 -194t35.5 -221z" />
    <glyph glyph-name="uni249E" unicode="&#x249e;" horiz-adv-x="940" 
d="M489 162q20 0 41.5 5t39.5 12l11 -45q-17 -8 -46 -15t-58 -7q-38 0 -70.5 13.5t-56 38.5t-37 59.5t-13.5 75.5t14 75.5t38.5 59.5t59 39t76.5 14q24 0 49.5 -6.5t41.5 -14.5l-13 -46q-14 5 -36 11t-42 6q-31 0 -55.5 -10.5t-42 -28.5t-26.5 -42.5t-9 -52.5
q0 -32 10.5 -58t28.5 -44.5t42.5 -28.5t52.5 -10zM34 300q0 113 35.5 221t110.5 194h45q-73 -85 -106 -194.5t-33 -220.5q0 -54 7.5 -110.5t24 -111.5t43 -106.5t63.5 -95.5h-46q-36 40 -63 90.5t-45 106.5t-27 114t-9 113zM908 300q0 -55 -9 -113t-27 -114t-45 -106.5
t-63 -90.5h-46q37 44 63.5 95.5t43 106.5t24 111.5t7.5 110.5q0 111 -33 220.5t-106 194.5h45q75 -86 110.5 -194t35.5 -221z" />
    <glyph glyph-name="uni249F" unicode="&#x249f;" horiz-adv-x="940" 
d="M609 580v-521h-51v46q-17 -18 -32 -29t-30 -16.5t-29.5 -7t-29.5 -1.5q-28 0 -56.5 12.5t-51.5 36.5t-37.5 60t-14.5 83q0 40 11.5 73.5t32 58t47.5 38t59 13.5t68.5 -13t62.5 -47v214h51zM560 267q0 21 -9 41t-24.5 35.5t-36 25.5t-42.5 10q-27 0 -49 -11.5t-38 -30.5
t-24.5 -44t-8.5 -52q0 -31 9 -57t25 -45t38 -30t49 -11q23 0 43.5 9t35.5 24t23.5 34t8.5 39v63zM34 300q0 113 35.5 221t110.5 194h45q-73 -85 -106 -194.5t-33 -220.5q0 -54 7.5 -110.5t24 -111.5t43 -106.5t63.5 -95.5h-46q-36 40 -63 90.5t-45 106.5t-27 114t-9 113z
M908 300q0 -55 -9 -113t-27 -114t-45 -106.5t-63 -90.5h-46q37 44 63.5 95.5t43 106.5t24 111.5t7.5 110.5q0 111 -33 220.5t-106 194.5h45q75 -86 110.5 -194t35.5 -221z" />
    <glyph glyph-name="uni24A0" unicode="&#x24a0;" horiz-adv-x="940" 
d="M470 444q-27 0 -46.5 -10.5t-32.5 -26.5t-19.5 -35.5t-7.5 -37.5h206q-1 19 -7.5 38.5t-18.5 35.5t-30.5 26t-43.5 10zM484 161q32 0 59 8.5t55 24.5l17 -37q-35 -22 -69.5 -32.5t-66.5 -10.5t-62.5 12.5t-53.5 36.5t-37 59t-14 80q0 40 11 74t31 59t49.5 39t66.5 14
q41 0 70 -16t47.5 -43t26.5 -63.5t8 -77.5h-258q2 -33 12.5 -57t27 -39.5t37 -23t43.5 -7.5zM34 300q0 113 35.5 221t110.5 194h45q-73 -85 -106 -194.5t-33 -220.5q0 -54 7.5 -110.5t24 -111.5t43 -106.5t63.5 -95.5h-46q-36 40 -63 90.5t-45 106.5t-27 114t-9 113z
M908 300q0 -55 -9 -113t-27 -114t-45 -106.5t-63 -90.5h-46q37 44 63.5 95.5t43 106.5t24 111.5t7.5 110.5q0 111 -33 220.5t-106 194.5h45q75 -86 110.5 -194t35.5 -221z" />
    <glyph glyph-name="uni24A1" unicode="&#x24a1;" horiz-adv-x="940" 
d="M525 514q-33 0 -44 -14.5t-11 -45.5v-71h88v-45h-88v-311h-54v311h-61v45h61v71q0 47 23 76t70 29h46v-45h-30zM34 300q0 113 35.5 221t110.5 194h45q-73 -85 -106 -194.5t-33 -220.5q0 -54 7.5 -110.5t24 -111.5t43 -106.5t63.5 -95.5h-46q-36 40 -63 90.5t-45 106.5
t-27 114t-9 113zM908 300q0 -55 -9 -113t-27 -114t-45 -106.5t-63 -90.5h-46q37 44 63.5 95.5t43 106.5t24 111.5t7.5 110.5q0 111 -33 220.5t-106 194.5h45q75 -86 110.5 -194t35.5 -221z" />
    <glyph glyph-name="uni24A2" unicode="&#x24a2;" horiz-adv-x="940" 
d="M625 233q0 -48 -9 -86.5t-29.5 -65.5t-53.5 -41.5t-82 -14.5q-27 0 -61.5 8.5t-60.5 23.5l17 42q22 -12 50 -20t57 -8q24 0 46 7t38 24.5t25.5 46t9.5 71.5q-17 -21 -33.5 -33t-32.5 -18t-32 -7.5t-32 -1.5q-32 0 -59 12.5t-47.5 36.5t-32 57.5t-11.5 75.5
q0 48 14.5 83.5t37 59t51 35.5t57.5 12q30 0 59.5 -9.5t64.5 -47.5v50h49v-292zM570 383q0 20 -8 38.5t-22 33t-33.5 23.5t-42.5 9q-51 0 -84 -38.5t-33 -104.5q0 -70 31.5 -103.5t84.5 -33.5q21 0 40.5 10t34 25.5t23.5 35.5t9 41v64zM34 300q0 113 35.5 221t110.5 194h45
q-73 -85 -106 -194.5t-33 -220.5q0 -54 7.5 -110.5t24 -111.5t43 -106.5t63.5 -95.5h-46q-36 40 -63 90.5t-45 106.5t-27 114t-9 113zM908 300q0 -55 -9 -113t-27 -114t-45 -106.5t-63 -90.5h-46q37 44 63.5 95.5t43 106.5t24 111.5t7.5 110.5q0 111 -33 220.5t-106 194.5
h45q75 -86 110.5 -194t35.5 -221z" />
    <glyph glyph-name="uni24A3" unicode="&#x24a3;" horiz-adv-x="940" 
d="M583 303q0 32 -21.5 53t-60.5 21q-41 0 -72 -24.5t-49 -59.5v-235h-51v521h51v-216q32 35 66 48.5t62 13.5q58 0 92 -32t34 -88v-247h-51v245zM34 300q0 113 35.5 221t110.5 194h45q-73 -85 -106 -194.5t-33 -220.5q0 -54 7.5 -110.5t24 -111.5t43 -106.5t63.5 -95.5h-46
q-36 40 -63 90.5t-45 106.5t-27 114t-9 113zM908 300q0 -55 -9 -113t-27 -114t-45 -106.5t-63 -90.5h-46q37 44 63.5 95.5t43 106.5t24 111.5t7.5 110.5q0 111 -33 220.5t-106 194.5h45q75 -86 110.5 -194t35.5 -221z" />
    <glyph glyph-name="uni24A4" unicode="&#x24a4;" horiz-adv-x="940" 
d="M443 426h51v-368h-51v368zM494 494h-51v64h51v-64zM34 300q0 113 35.5 221t110.5 194h45q-73 -85 -106 -194.5t-33 -220.5q0 -54 7.5 -110.5t24 -111.5t43 -106.5t63.5 -95.5h-46q-36 40 -63 90.5t-45 106.5t-27 114t-9 113zM908 300q0 -55 -9 -113t-27 -114t-45 -106.5
t-63 -90.5h-46q37 44 63.5 95.5t43 106.5t24 111.5t7.5 110.5q0 111 -33 220.5t-106 194.5h45q75 -86 110.5 -194t35.5 -221z" />
    <glyph glyph-name="uni24A5" unicode="&#x24a5;" horiz-adv-x="940" 
d="M514 520h-51v64h51v-64zM514 452v-324q0 -63 -33.5 -94t-105.5 -39l-5 49q47 7 70 23.5t23 60.5v324h51zM34 300q0 113 35.5 221t110.5 194h45q-73 -85 -106 -194.5t-33 -220.5q0 -54 7.5 -110.5t24 -111.5t43 -106.5t63.5 -95.5h-46q-36 40 -63 90.5t-45 106.5t-27 114
t-9 113zM908 300q0 -55 -9 -113t-27 -114t-45 -106.5t-63 -90.5h-46q37 44 63.5 95.5t43 106.5t24 111.5t7.5 110.5q0 111 -33 220.5t-106 194.5h45q75 -86 110.5 -194t35.5 -221z" />
    <glyph glyph-name="uni24A6" unicode="&#x24a6;" horiz-adv-x="940" 
d="M354 68h51v145l31 28l152 -173h61l-177 205l173 155h-68l-172 -150v311h-51v-521zM908 300q0 -55 -9 -113t-27 -114t-45 -106.5t-63 -90.5h-46q37 44 63.5 95.5t43 106.5t24 111.5t7.5 110.5q0 111 -33 220.5t-106 194.5h45q75 -86 110.5 -194t35.5 -221zM34 300
q0 -55 9 -113t27 -114t45 -106.5t63 -90.5h46q-37 44 -63.5 95.5t-43 106.5t-24 111.5t-7.5 110.5q0 111 33 220.5t106 194.5h-45q-75 -86 -110.5 -194t-35.5 -221z" />
    <glyph glyph-name="uni24A7" unicode="&#x24a7;" horiz-adv-x="940" 
d="M443 558h51v-500h-51v500zM34 300q0 113 35.5 221t110.5 194h45q-73 -85 -106 -194.5t-33 -220.5q0 -54 7.5 -110.5t24 -111.5t43 -106.5t63.5 -95.5h-46q-36 40 -63 90.5t-45 106.5t-27 114t-9 113zM908 300q0 -55 -9 -113t-27 -114t-45 -106.5t-63 -90.5h-46
q37 44 63.5 95.5t43 106.5t24 111.5t7.5 110.5q0 111 -33 220.5t-106 194.5h45q75 -86 110.5 -194t35.5 -221z" />
    <glyph glyph-name="uni24A8" unicode="&#x24a8;" horiz-adv-x="940" 
d="M667 380q0 35 -21.5 50.5t-56.5 15.5q-23 0 -46 -15t-40 -41v-267h-48v257q0 37 -19 51.5t-54 14.5q-25 0 -50 -17.5t-40 -43.5v-262h-48v360h48v-48q29 35 57.5 45t47.5 10q30 0 56 -12t45 -41q27 32 55 42.5t50 10.5q51 0 81.5 -29t30.5 -80v-258h-48v257zM34 300
q0 113 35.5 221t110.5 194h45q-73 -85 -106 -194.5t-33 -220.5q0 -54 7.5 -110.5t24 -111.5t43 -106.5t63.5 -95.5h-46q-36 40 -63 90.5t-45 106.5t-27 114t-9 113zM908 300q0 -55 -9 -113t-27 -114t-45 -106.5t-63 -90.5h-46q37 44 63.5 95.5t43 106.5t24 111.5t7.5 110.5
q0 111 -33 220.5t-106 194.5h45q75 -86 110.5 -194t35.5 -221z" />
    <glyph glyph-name="uni24A9" unicode="&#x24a9;" horiz-adv-x="940" 
d="M569 371q0 32 -22 53t-61 21q-33 0 -60 -18.5t-45 -53.5v-247h-51v357h51v-46q50 56 112 56q58 0 92.5 -32t34.5 -88v-247h-51v245zM34 300q0 113 35.5 221t110.5 194h45q-73 -85 -106 -194.5t-33 -220.5q0 -54 7.5 -110.5t24 -111.5t43 -106.5t63.5 -95.5h-46
q-36 40 -63 90.5t-45 106.5t-27 114t-9 113zM908 300q0 -55 -9 -113t-27 -114t-45 -106.5t-63 -90.5h-46q37 44 63.5 95.5t43 106.5t24 111.5t7.5 110.5q0 111 -33 220.5t-106 194.5h45q75 -86 110.5 -194t35.5 -221z" />
    <glyph glyph-name="uni24AA" unicode="&#x24aa;" horiz-adv-x="940" 
d="M470 115q-35 0 -66 12.5t-54 36.5t-36.5 58.5t-13.5 77.5q0 45 13 80.5t36 59.5t54 37t67 13t66.5 -13t53.5 -37t36 -59.5t13 -80.5q0 -43 -13.5 -77.5t-36.5 -58.5t-53.5 -36.5t-65.5 -12.5zM470 446q-29 0 -50.5 -12t-36 -32t-22 -46.5t-7.5 -55.5q0 -66 34 -103.5
t82 -37.5q24 0 44.5 9.5t36.5 28t25 44.5t9 59q0 29 -7.5 55.5t-21.5 46.5t-36 32t-50 12zM34 300q0 113 35.5 221t110.5 194h45q-73 -85 -106 -194.5t-33 -220.5q0 -54 7.5 -110.5t24 -111.5t43 -106.5t63.5 -95.5h-46q-36 40 -63 90.5t-45 106.5t-27 114t-9 113zM908 300
q0 -55 -9 -113t-27 -114t-45 -106.5t-63 -90.5h-46q37 44 63.5 95.5t43 106.5t24 111.5t7.5 110.5q0 111 -33 220.5t-106 194.5h45q75 -86 110.5 -194t35.5 -221z" />
    <glyph glyph-name="uni24AB" unicode="&#x24ab;" horiz-adv-x="940" 
d="M335 32v499h51v-46q16 18 31.5 29t30.5 16.5t29.5 7t29.5 1.5q28 0 56.5 -12.5t51.5 -36.5t37.5 -60t14.5 -83q0 -40 -11.5 -73.5t-32 -58t-48 -38t-58.5 -13.5q-32 0 -68.5 13t-62.5 47v-192h-51zM384 323q0 -21 9 -41t24.5 -35.5t35.5 -25.5t43 -10q27 0 49 11.5
t38 30.5t24.5 44t8.5 52q0 31 -9 57t-25 45t-38 30t-49 11q-23 0 -43.5 -9t-35.5 -24t-23.5 -34t-8.5 -39v-63zM34 300q0 113 35.5 221t110.5 194h45q-73 -85 -106 -194.5t-33 -220.5q0 -54 7.5 -110.5t24 -111.5t43 -106.5t63.5 -95.5h-46q-36 40 -63 90.5t-45 106.5
t-27 114t-9 113zM908 300q0 -55 -9 -113t-27 -114t-45 -106.5t-63 -90.5h-46q37 44 63.5 95.5t43 106.5t24 111.5t7.5 110.5q0 111 -33 220.5t-106 194.5h45q75 -86 110.5 -194t35.5 -221z" />
    <glyph glyph-name="uni24AC" unicode="&#x24ac;" horiz-adv-x="940" 
d="M564 32v192q-26 -34 -62.5 -47t-68.5 -13t-59 13.5t-47.5 38t-32 58t-11.5 73.5q0 47 14.5 83t37.5 60t51.5 36.5t56.5 12.5q15 0 29.5 -1.5t29.5 -7t30 -16.5t32 -29v46h51v-499h-51zM566 386q0 20 -8.5 39t-23.5 34t-35.5 24t-43.5 9q-27 0 -49 -11t-38 -30t-25 -45
t-9 -57q0 -27 8.5 -52t24.5 -44t38 -30.5t49 -11.5q22 0 42.5 10t36 25.5t24.5 35.5t9 41v63zM34 300q0 113 35.5 221t110.5 194h45q-73 -85 -106 -194.5t-33 -220.5q0 -54 7.5 -110.5t24 -111.5t43 -106.5t63.5 -95.5h-46q-36 40 -63 90.5t-45 106.5t-27 114t-9 113z
M908 300q0 -55 -9 -113t-27 -114t-45 -106.5t-63 -90.5h-46q37 44 63.5 95.5t43 106.5t24 111.5t7.5 110.5q0 111 -33 220.5t-106 194.5h45q75 -86 110.5 -194t35.5 -221z" />
    <glyph glyph-name="uni24AD" unicode="&#x24ad;" horiz-adv-x="940" 
d="M441 426q26 33 51.5 43.5t46.5 10.5q9 0 23.5 -2t26.5 -6v-48q-10 4 -21.5 5.5t-22.5 1.5q-42 0 -69 -29.5t-32 -68.5v-220h-51v360h48v-47zM34 300q0 113 35.5 221t110.5 194h45q-73 -85 -106 -194.5t-33 -220.5q0 -54 7.5 -110.5t24 -111.5t43 -106.5t63.5 -95.5h-46
q-36 40 -63 90.5t-45 106.5t-27 114t-9 113zM908 300q0 -55 -9 -113t-27 -114t-45 -106.5t-63 -90.5h-46q37 44 63.5 95.5t43 106.5t24 111.5t7.5 110.5q0 111 -33 220.5t-106 194.5h45q75 -86 110.5 -194t35.5 -221z" />
    <glyph glyph-name="uni24AE" unicode="&#x24ae;" horiz-adv-x="940" 
d="M451 115q-26 0 -55 7.5t-50 20.5l14 41q20 -10 46 -17t47 -7q37 0 60 15.5t23 40.5t-21 39.5t-58 31.5q-19 8 -37 17t-32 21t-22.5 28t-8.5 38q0 52 36 75.5t90 23.5q20 0 46.5 -7.5t44.5 -17.5l-15 -44q-13 8 -36 15t-43 7q-31 0 -50.5 -13t-19.5 -36q0 -26 20 -38
t58 -29q42 -18 71 -43t29 -65q0 -55 -38.5 -79.5t-98.5 -24.5zM34 300q0 113 35.5 221t110.5 194h45q-73 -85 -106 -194.5t-33 -220.5q0 -54 7.5 -110.5t24 -111.5t43 -106.5t63.5 -95.5h-46q-36 40 -63 90.5t-45 106.5t-27 114t-9 113zM908 300q0 -55 -9 -113t-27 -114
t-45 -106.5t-63 -90.5h-46q37 44 63.5 95.5t43 106.5t24 111.5t7.5 110.5q0 111 -33 220.5t-106 194.5h45q75 -86 110.5 -194t35.5 -221z" />
    <glyph glyph-name="uni24AF" unicode="&#x24af;" horiz-adv-x="940" 
d="M471 520v-97h82v-45h-82v-216q0 -14 1 -25t6 -18.5t15 -11t27 -3.5q7 0 18 1.5t21 3.5l4 -40q-17 -5 -34 -8t-32 -2q-46 2 -63 29.5t-17 73.5v216h-63v45h63v97h54zM34 300q0 113 35.5 221t110.5 194h45q-73 -85 -106 -194.5t-33 -220.5q0 -54 7.5 -110.5t24 -111.5
t43 -106.5t63.5 -95.5h-46q-36 40 -63 90.5t-45 106.5t-27 114t-9 113zM908 300q0 -55 -9 -113t-27 -114t-45 -106.5t-63 -90.5h-46q37 44 63.5 95.5t43 106.5t24 111.5t7.5 110.5q0 111 -33 220.5t-106 194.5h45q75 -86 110.5 -194t35.5 -221z" />
    <glyph glyph-name="uni24B0" unicode="&#x24b0;" horiz-adv-x="940" 
d="M371 229q0 -32 22 -52.5t61 -20.5q68 0 105 71v249h51v-359h-51v46q-26 -29 -54 -42t-58 -13q-58 0 -92.5 31.5t-34.5 87.5v249h51v-247zM34 300q0 113 35.5 221t110.5 194h45q-73 -85 -106 -194.5t-33 -220.5q0 -54 7.5 -110.5t24 -111.5t43 -106.5t63.5 -95.5h-46
q-36 40 -63 90.5t-45 106.5t-27 114t-9 113zM908 300q0 -55 -9 -113t-27 -114t-45 -106.5t-63 -90.5h-46q37 44 63.5 95.5t43 106.5t24 111.5t7.5 110.5q0 111 -33 220.5t-106 194.5h45q75 -86 110.5 -194t35.5 -221z" />
    <glyph glyph-name="uni24B1" unicode="&#x24b1;" horiz-adv-x="940" 
d="M591 460h50l-140 -359h-62l-141 359h54l118 -315zM34 300q0 113 35.5 221t110.5 194h45q-73 -85 -106 -194.5t-33 -220.5q0 -54 7.5 -110.5t24 -111.5t43 -106.5t63.5 -95.5h-46q-36 40 -63 90.5t-45 106.5t-27 114t-9 113zM908 300q0 -55 -9 -113t-27 -114t-45 -106.5
t-63 -90.5h-46q37 44 63.5 95.5t43 106.5t24 111.5t7.5 110.5q0 111 -33 220.5t-106 194.5h45q75 -86 110.5 -194t35.5 -221z" />
    <glyph glyph-name="uni24B2" unicode="&#x24b2;" horiz-adv-x="940" 
d="M229 483l105 -360h58l77 281l78 -281h57l105 360h-47l-85 -302l-85 302h-44l-84 -303l-86 303h-49zM908 300q0 -55 -9 -113t-27 -114t-45 -106.5t-63 -90.5h-46q37 44 63.5 95.5t43 106.5t24 111.5t7.5 110.5q0 111 -33 220.5t-106 194.5h45q75 -86 110.5 -194t35.5 -221
zM34 300q0 -55 9 -113t27 -114t45 -106.5t63 -90.5h46q-37 44 -63.5 95.5t-43 106.5t-24 111.5t-7.5 110.5q0 111 33 220.5t106 194.5h-45q-75 -86 -110.5 -194t-35.5 -221z" />
    <glyph glyph-name="uni24B3" unicode="&#x24b3;" horiz-adv-x="940" 
d="M908 300q0 -55 -9 -113t-27 -114t-45 -106.5t-63 -90.5h-46q37 44 63.5 95.5t43 106.5t24 111.5t7.5 110.5q0 111 -33 220.5t-106 194.5h45q75 -86 110.5 -194t35.5 -221zM34 300q0 -55 9 -113t27 -114t45 -106.5t63 -90.5h46q-37 44 -63.5 95.5t-43 106.5t-24 111.5
t-7.5 110.5q0 111 33 220.5t106 194.5h-45q-75 -86 -110.5 -194t-35.5 -221zM634 480h-55l-107 -143l-106 143h-58l134 -182l-134 -178h56l106 141l105 -141h59l-135 180z" />
    <glyph glyph-name="uni24B4" unicode="&#x24b4;" horiz-adv-x="940" 
d="M452 112q-8 -25 -24 -38.5t-49 -13.5q-8 0 -19.5 2t-20.5 5l-7 -42q13 -4 29.5 -7t27.5 -3q42 0 66.5 20t37.5 58l140 421h-49l-100 -304l-123 304h-52l154 -368zM908 300q0 -55 -9 -113t-27 -114t-45 -106.5t-63 -90.5h-46q37 44 63.5 95.5t43 106.5t24 111.5t7.5 110.5
q0 111 -33 220.5t-106 194.5h45q75 -86 110.5 -194t35.5 -221zM34 300q0 -55 9 -113t27 -114t45 -106.5t63 -90.5h46q-37 44 -63.5 95.5t-43 106.5t-24 111.5t-7.5 110.5q0 111 33 220.5t106 194.5h-45q-75 -86 -110.5 -194t-35.5 -221z" />
    <glyph glyph-name="uni24B5" unicode="&#x24b5;" horiz-adv-x="940" 
d="M334 483h265v-46l-215 -269h221v-45h-277v46l215 269h-209v45zM34 300q0 113 35.5 221t110.5 194h45q-73 -85 -106 -194.5t-33 -220.5q0 -54 7.5 -110.5t24 -111.5t43 -106.5t63.5 -95.5h-46q-36 40 -63 90.5t-45 106.5t-27 114t-9 113zM908 300q0 -55 -9 -113t-27 -114
t-45 -106.5t-63 -90.5h-46q37 44 63.5 95.5t43 106.5t24 111.5t7.5 110.5q0 111 -33 220.5t-106 194.5h45q75 -86 110.5 -194t35.5 -221z" />
    <glyph glyph-name="uni24D0" unicode="&#x24d0;" horiz-adv-x="940" 
d="M498 348q11 0 23.5 -0.5t21.5 -0.5v13q0 13 -4 28t-14 28t-28.5 21.5t-46.5 8.5q-19 0 -44.5 -8t-51.5 -28l-17 38q32 24 62 33t61 9q40 0 65.5 -13t40 -34t20 -47.5t5.5 -52.5v-220h-46v40q-29 -26 -61.5 -37t-63.5 -11q-50 0 -76 31t-26 73q0 57 43.5 93t136.5 36z
M539 226q4 9 4 20v55q-14 2 -28 3.5t-22 1.5q-53 0 -88 -19.5t-35 -59.5q0 -35 18 -50.5t50 -15.5q18 0 34.5 6t29.5 15t22.5 20.5t14.5 23.5zM910 300q0 -91 -34.5 -171t-94 -139.5t-140 -94t-171.5 -34.5q-86 0 -165.5 33t-140 91.5t-96.5 139t-36 175.5q0 90 34.5 170
t93.5 139t139 93.5t171 34.5q87 0 166.5 -32.5t140 -90.5t97 -138.5t36.5 -175.5zM867 300q0 81 -31 153.5t-84.5 127t-126 86t-155.5 31.5q-79 0 -150.5 -30t-126 -83.5t-86.5 -126.5t-32 -158q0 -81 30.5 -153.5t84 -127t125.5 -86t155 -31.5q79 0 151 30t126.5 83t87 126
t32.5 159z" />
    <glyph glyph-name="uni24D1" unicode="&#x24d1;" horiz-adv-x="940" 
d="M910 300q0 -91 -34.5 -171t-94 -139.5t-140 -94t-171.5 -34.5q-86 0 -165.5 33t-140 91.5t-96.5 139t-36 175.5q0 90 34.5 170t93.5 139t139 93.5t171 34.5q87 0 166.5 -32.5t140 -90.5t97 -138.5t36.5 -175.5zM867 300q0 81 -31 153.5t-84.5 127t-126 86t-155.5 31.5
q-79 0 -150.5 -30t-126 -83.5t-86.5 -126.5t-32 -158q0 -81 30.5 -153.5t84 -127t125.5 -86t155 -31.5q79 0 151 30t126.5 83t87 126t32.5 159zM390 580v-214q26 34 62.5 47t68.5 13q31 0 58.5 -13.5t48 -38t32 -58t11.5 -73.5q0 -47 -14.5 -83t-37.5 -60t-51.5 -36.5
t-56.5 -12.5q-15 0 -29.5 1.5t-29.5 7t-30.5 16.5t-31.5 29v-46h-51v521h51zM388 204q0 -20 8.5 -39t23.5 -34t35.5 -24t43.5 -9q27 0 49 11t38 30t25 45t9 57q0 27 -8.5 52t-24.5 44t-38 30.5t-49 11.5q-23 0 -43 -10t-35.5 -25.5t-24.5 -35.5t-9 -41v-63z" />
    <glyph glyph-name="uni24D2" unicode="&#x24d2;" horiz-adv-x="940" 
d="M489 162q20 0 41.5 5t39.5 12l11 -45q-17 -8 -46 -15t-58 -7q-38 0 -70.5 13.5t-56 38.5t-37 59.5t-13.5 75.5t14 75.5t38.5 59.5t59 39t76.5 14q24 0 49.5 -6.5t41.5 -14.5l-13 -46q-14 5 -36 11t-42 6q-31 0 -55.5 -10.5t-42 -28.5t-26.5 -42.5t-9 -52.5
q0 -32 10.5 -58t28.5 -44.5t42.5 -28.5t52.5 -10zM910 300q0 -91 -34.5 -171t-94 -139.5t-140 -94t-171.5 -34.5q-86 0 -165.5 33t-140 91.5t-96.5 139t-36 175.5q0 90 34.5 170t93.5 139t139 93.5t171 34.5q87 0 166.5 -32.5t140 -90.5t97 -138.5t36.5 -175.5zM867 300
q0 81 -31 153.5t-84.5 127t-126 86t-155.5 31.5q-79 0 -150.5 -30t-126 -83.5t-86.5 -126.5t-32 -158q0 -81 30.5 -153.5t84 -127t125.5 -86t155 -31.5q79 0 151 30t126.5 83t87 126t32.5 159z" />
    <glyph glyph-name="uni24D3" unicode="&#x24d3;" horiz-adv-x="940" 
d="M910 300q0 -91 -34.5 -171t-94 -139.5t-140 -94t-171.5 -34.5q-86 0 -165.5 33t-140 91.5t-96.5 139t-36 175.5q0 90 34.5 170t93.5 139t139 93.5t171 34.5q87 0 166.5 -32.5t140 -90.5t97 -138.5t36.5 -175.5zM867 300q0 81 -31 153.5t-84.5 127t-126 86t-155.5 31.5
q-79 0 -150.5 -30t-126 -83.5t-86.5 -126.5t-32 -158q0 -81 30.5 -153.5t84 -127t125.5 -86t155 -31.5q79 0 151 30t126.5 83t87 126t32.5 159zM609 580v-521h-51v46q-17 -18 -32 -29t-30 -16.5t-29.5 -7t-29.5 -1.5q-28 0 -56.5 12.5t-51.5 36.5t-37.5 60t-14.5 83
q0 40 11.5 73.5t32 58t47.5 38t59 13.5t68.5 -13t62.5 -47v214h51zM560 267q0 21 -9 41t-24.5 35.5t-36 25.5t-42.5 10q-27 0 -49 -11.5t-38 -30.5t-24.5 -44t-8.5 -52q0 -31 9 -57t25 -45t38 -30t49 -11q23 0 43.5 9t35.5 24t23.5 34t8.5 39v63z" />
    <glyph glyph-name="uni24D4" unicode="&#x24d4;" horiz-adv-x="940" 
d="M470 444q-27 0 -46.5 -10.5t-32.5 -26.5t-19.5 -35.5t-7.5 -37.5h206q-1 19 -7.5 38.5t-18.5 35.5t-30.5 26t-43.5 10zM484 161q32 0 59 8.5t55 24.5l17 -37q-35 -22 -69.5 -32.5t-66.5 -10.5t-62.5 12.5t-53.5 36.5t-37 59t-14 80q0 40 11 74t31 59t49.5 39t66.5 14
q41 0 70 -16t47.5 -43t26.5 -63.5t8 -77.5h-258q2 -33 12.5 -57t27 -39.5t37 -23t43.5 -7.5zM910 300q0 -91 -34.5 -171t-94 -139.5t-140 -94t-171.5 -34.5q-86 0 -165.5 33t-140 91.5t-96.5 139t-36 175.5q0 90 34.5 170t93.5 139t139 93.5t171 34.5q87 0 166.5 -32.5
t140 -90.5t97 -138.5t36.5 -175.5zM867 300q0 81 -31 153.5t-84.5 127t-126 86t-155.5 31.5q-79 0 -150.5 -30t-126 -83.5t-86.5 -126.5t-32 -158q0 -81 30.5 -153.5t84 -127t125.5 -86t155 -31.5q79 0 151 30t126.5 83t87 126t32.5 159z" />
    <glyph glyph-name="uni24D5" unicode="&#x24d5;" horiz-adv-x="940" 
d="M525 514q-33 0 -44 -14.5t-11 -45.5v-71h88v-45h-88v-311h-54v311h-61v45h61v71q0 47 23 76t70 29h46v-45h-30zM910 300q0 -91 -34.5 -171t-94 -139.5t-140 -94t-171.5 -34.5q-86 0 -165.5 33t-140 91.5t-96.5 139t-36 175.5q0 90 34.5 170t93.5 139t139 93.5t171 34.5
q87 0 166.5 -32.5t140 -90.5t97 -138.5t36.5 -175.5zM867 300q0 81 -31 153.5t-84.5 127t-126 86t-155.5 31.5q-79 0 -150.5 -30t-126 -83.5t-86.5 -126.5t-32 -158q0 -81 30.5 -153.5t84 -127t125.5 -86t155 -31.5q79 0 151 30t126.5 83t87 126t32.5 159z" />
    <glyph glyph-name="uni24D6" unicode="&#x24d6;" horiz-adv-x="940" 
d="M625 233q0 -48 -9 -86.5t-29.5 -65.5t-53.5 -41.5t-82 -14.5q-27 0 -61.5 8.5t-60.5 23.5l17 42q22 -12 50 -20t57 -8q24 0 46 7t38 24.5t25.5 46t9.5 71.5q-17 -21 -33.5 -33t-32.5 -18t-32 -7.5t-32 -1.5q-32 0 -59 12.5t-47.5 36.5t-32 57.5t-11.5 75.5
q0 48 14.5 83.5t37 59t51 35.5t57.5 12q30 0 59.5 -9.5t64.5 -47.5v50h49v-292zM570 383q0 20 -8 38.5t-22 33t-33.5 23.5t-42.5 9q-51 0 -84 -38.5t-33 -104.5q0 -70 31.5 -103.5t84.5 -33.5q21 0 40.5 10t34 25.5t23.5 35.5t9 41v64zM910 300q0 -91 -34.5 -171t-94 -139.5
t-140 -94t-171.5 -34.5q-86 0 -165.5 33t-140 91.5t-96.5 139t-36 175.5q0 90 34.5 170t93.5 139t139 93.5t171 34.5q87 0 166.5 -32.5t140 -90.5t97 -138.5t36.5 -175.5zM867 300q0 81 -31 153.5t-84.5 127t-126 86t-155.5 31.5q-79 0 -150.5 -30t-126 -83.5t-86.5 -126.5
t-32 -158q0 -81 30.5 -153.5t84 -127t125.5 -86t155 -31.5q79 0 151 30t126.5 83t87 126t32.5 159z" />
    <glyph glyph-name="uni24D7" unicode="&#x24d7;" horiz-adv-x="940" 
d="M583 303q0 32 -21.5 53t-60.5 21q-41 0 -72 -24.5t-49 -59.5v-235h-51v521h51v-216q32 35 66 48.5t62 13.5q58 0 92 -32t34 -88v-247h-51v245zM910 300q0 -91 -34.5 -171t-94 -139.5t-140 -94t-171.5 -34.5q-86 0 -165.5 33t-140 91.5t-96.5 139t-36 175.5q0 90 34.5 170
t93.5 139t139 93.5t171 34.5q87 0 166.5 -32.5t140 -90.5t97 -138.5t36.5 -175.5zM867 300q0 81 -31 153.5t-84.5 127t-126 86t-155.5 31.5q-79 0 -150.5 -30t-126 -83.5t-86.5 -126.5t-32 -158q0 -81 30.5 -153.5t84 -127t125.5 -86t155 -31.5q79 0 151 30t126.5 83t87 126
t32.5 159z" />
    <glyph glyph-name="uni24D8" unicode="&#x24d8;" horiz-adv-x="940" 
d="M443 426h51v-368h-51v368zM494 494h-51v64h51v-64zM910 300q0 -91 -34.5 -171t-94 -139.5t-140 -94t-171.5 -34.5q-86 0 -165.5 33t-140 91.5t-96.5 139t-36 175.5q0 90 34.5 170t93.5 139t139 93.5t171 34.5q87 0 166.5 -32.5t140 -90.5t97 -138.5t36.5 -175.5zM867 300
q0 81 -31 153.5t-84.5 127t-126 86t-155.5 31.5q-79 0 -150.5 -30t-126 -83.5t-86.5 -126.5t-32 -158q0 -81 30.5 -153.5t84 -127t125.5 -86t155 -31.5q79 0 151 30t126.5 83t87 126t32.5 159z" />
    <glyph glyph-name="uni24D9" unicode="&#x24d9;" horiz-adv-x="940" 
d="M910 300q0 -91 -34.5 -171t-94 -139.5t-140 -94t-171.5 -34.5q-86 0 -165.5 33t-140 91.5t-96.5 139t-36 175.5q0 90 34.5 170t93.5 139t139 93.5t171 34.5q87 0 166.5 -32.5t140 -90.5t97 -138.5t36.5 -175.5zM867 300q0 81 -31 153.5t-84.5 127t-126 86t-155.5 31.5
q-79 0 -150.5 -30t-126 -83.5t-86.5 -126.5t-32 -158q0 -81 30.5 -153.5t84 -127t125.5 -86t155 -31.5q79 0 151 30t126.5 83t87 126t32.5 159zM514 520h-51v64h51v-64zM514 452v-324q0 -63 -33.5 -94t-105.5 -39l-5 49q47 7 70 23.5t23 60.5v324h51z" />
    <glyph glyph-name="uni24DA" unicode="&#x24da;" horiz-adv-x="940" 
d="M910 300q0 -91 -34.5 -171t-94 -139.5t-140 -94t-171.5 -34.5q-86 0 -165.5 33t-140 91.5t-96.5 139t-36 175.5q0 90 34.5 170t93.5 139t139 93.5t171 34.5q87 0 166.5 -32.5t140 -90.5t97 -138.5t36.5 -175.5zM867 300q0 81 -31 153.5t-84.5 127t-126 86t-155.5 31.5
q-79 0 -150.5 -30t-126 -83.5t-86.5 -126.5t-32 -158q0 -81 30.5 -153.5t84 -127t125.5 -86t155 -31.5q79 0 151 30t126.5 83t87 126t32.5 159zM354 589h51v-311l172 150h68l-173 -155l177 -205h-61l-152 173l-31 -28v-145h-51v521z" />
    <glyph glyph-name="uni24DB" unicode="&#x24db;" horiz-adv-x="940" 
d="M910 300q0 -91 -34.5 -171t-94 -139.5t-140 -94t-171.5 -34.5q-86 0 -165.5 33t-140 91.5t-96.5 139t-36 175.5q0 90 34.5 170t93.5 139t139 93.5t171 34.5q87 0 166.5 -32.5t140 -90.5t97 -138.5t36.5 -175.5zM867 300q0 81 -31 153.5t-84.5 127t-126 86t-155.5 31.5
q-79 0 -150.5 -30t-126 -83.5t-86.5 -126.5t-32 -158q0 -81 30.5 -153.5t84 -127t125.5 -86t155 -31.5q79 0 151 30t126.5 83t87 126t32.5 159zM443 558h51v-500h-51v500z" />
    <glyph glyph-name="uni24DC" unicode="&#x24dc;" horiz-adv-x="940" 
d="M910 300q0 -91 -34.5 -171t-94 -139.5t-140 -94t-171.5 -34.5q-86 0 -165.5 33t-140 91.5t-96.5 139t-36 175.5q0 90 34.5 170t93.5 139t139 93.5t171 34.5q87 0 166.5 -32.5t140 -90.5t97 -138.5t36.5 -175.5zM867 300q0 81 -31 153.5t-84.5 127t-126 86t-155.5 31.5
q-79 0 -150.5 -30t-126 -83.5t-86.5 -126.5t-32 -158q0 -81 30.5 -153.5t84 -127t125.5 -86t155 -31.5q79 0 151 30t126.5 83t87 126t32.5 159zM667 380q0 35 -21.5 50.5t-56.5 15.5q-23 0 -46 -15t-40 -41v-267h-48v257q0 37 -19 51.5t-54 14.5q-25 0 -50 -17.5t-40 -43.5
v-262h-48v360h48v-48q29 35 57.5 45t47.5 10q30 0 56 -12t45 -41q27 32 55 42.5t50 10.5q51 0 81.5 -29t30.5 -80v-258h-48v257z" />
    <glyph glyph-name="uni24DD" unicode="&#x24dd;" horiz-adv-x="940" 
d="M569 371q0 32 -22 53t-61 21q-33 0 -60 -18.5t-45 -53.5v-247h-51v357h51v-46q50 56 112 56q58 0 92.5 -32t34.5 -88v-247h-51v245zM910 300q0 -91 -34.5 -171t-94 -139.5t-140 -94t-171.5 -34.5q-86 0 -165.5 33t-140 91.5t-96.5 139t-36 175.5q0 90 34.5 170t93.5 139
t139 93.5t171 34.5q87 0 166.5 -32.5t140 -90.5t97 -138.5t36.5 -175.5zM867 300q0 81 -31 153.5t-84.5 127t-126 86t-155.5 31.5q-79 0 -150.5 -30t-126 -83.5t-86.5 -126.5t-32 -158q0 -81 30.5 -153.5t84 -127t125.5 -86t155 -31.5q79 0 151 30t126.5 83t87 126t32.5 159
z" />
    <glyph glyph-name="uni24DE" unicode="&#x24de;" horiz-adv-x="940" 
d="M470 115q-35 0 -66 12.5t-54 36.5t-36.5 58.5t-13.5 77.5q0 45 13 80.5t36 59.5t54 37t67 13t66.5 -13t53.5 -37t36 -59.5t13 -80.5q0 -43 -13.5 -77.5t-36.5 -58.5t-53.5 -36.5t-65.5 -12.5zM470 446q-29 0 -50.5 -12t-36 -32t-22 -46.5t-7.5 -55.5q0 -66 34 -103.5
t82 -37.5q24 0 44.5 9.5t36.5 28t25 44.5t9 59q0 29 -7.5 55.5t-21.5 46.5t-36 32t-50 12zM910 300q0 -91 -34.5 -171t-94 -139.5t-140 -94t-171.5 -34.5q-86 0 -165.5 33t-140 91.5t-96.5 139t-36 175.5q0 90 34.5 170t93.5 139t139 93.5t171 34.5q87 0 166.5 -32.5
t140 -90.5t97 -138.5t36.5 -175.5zM867 300q0 81 -31 153.5t-84.5 127t-126 86t-155.5 31.5q-79 0 -150.5 -30t-126 -83.5t-86.5 -126.5t-32 -158q0 -81 30.5 -153.5t84 -127t125.5 -86t155 -31.5q79 0 151 30t126.5 83t87 126t32.5 159z" />
    <glyph glyph-name="uni24DF" unicode="&#x24df;" horiz-adv-x="940" 
d="M910 300q0 -91 -34.5 -171t-94 -139.5t-140 -94t-171.5 -34.5q-86 0 -165.5 33t-140 91.5t-96.5 139t-36 175.5q0 90 34.5 170t93.5 139t139 93.5t171 34.5q87 0 166.5 -32.5t140 -90.5t97 -138.5t36.5 -175.5zM867 300q0 81 -31 153.5t-84.5 127t-126 86t-155.5 31.5
q-79 0 -150.5 -30t-126 -83.5t-86.5 -126.5t-32 -158q0 -81 30.5 -153.5t84 -127t125.5 -86t155 -31.5q79 0 151 30t126.5 83t87 126t32.5 159zM335 32v499h51v-46q16 18 31.5 29t30.5 16.5t29.5 7t29.5 1.5q28 0 56.5 -12.5t51.5 -36.5t37.5 -60t14.5 -83
q0 -40 -11.5 -73.5t-32 -58t-48 -38t-58.5 -13.5q-32 0 -68.5 13t-62.5 47v-192h-51zM384 323q0 -21 9 -41t24.5 -35.5t35.5 -25.5t43 -10q27 0 49 11.5t38 30.5t24.5 44t8.5 52q0 31 -9 57t-25 45t-38 30t-49 11q-23 0 -43.5 -9t-35.5 -24t-23.5 -34t-8.5 -39v-63z" />
    <glyph glyph-name="uni24E0" unicode="&#x24e0;" horiz-adv-x="940" 
d="M910 300q0 -91 -34.5 -171t-94 -139.5t-140 -94t-171.5 -34.5q-86 0 -165.5 33t-140 91.5t-96.5 139t-36 175.5q0 90 34.5 170t93.5 139t139 93.5t171 34.5q87 0 166.5 -32.5t140 -90.5t97 -138.5t36.5 -175.5zM867 300q0 81 -31 153.5t-84.5 127t-126 86t-155.5 31.5
q-79 0 -150.5 -30t-126 -83.5t-86.5 -126.5t-32 -158q0 -81 30.5 -153.5t84 -127t125.5 -86t155 -31.5q79 0 151 30t126.5 83t87 126t32.5 159zM564 32v192q-26 -34 -62.5 -47t-68.5 -13t-59 13.5t-47.5 38t-32 58t-11.5 73.5q0 47 14.5 83t37.5 60t51.5 36.5t56.5 12.5
q15 0 29.5 -1.5t29.5 -7t30 -16.5t32 -29v46h51v-499h-51zM566 386q0 20 -8.5 39t-23.5 34t-35.5 24t-43.5 9q-27 0 -49 -11t-38 -30t-25 -45t-9 -57q0 -27 8.5 -52t24.5 -44t38 -30.5t49 -11.5q22 0 42.5 10t36 25.5t24.5 35.5t9 41v63z" />
    <glyph glyph-name="uni24E1" unicode="&#x24e1;" horiz-adv-x="940" 
d="M441 426q26 33 51.5 43.5t46.5 10.5q9 0 23.5 -2t26.5 -6v-48q-10 4 -21.5 5.5t-22.5 1.5q-42 0 -69 -29.5t-32 -68.5v-220h-51v360h48v-47zM910 300q0 -91 -34.5 -171t-94 -139.5t-140 -94t-171.5 -34.5q-86 0 -165.5 33t-140 91.5t-96.5 139t-36 175.5q0 90 34.5 170
t93.5 139t139 93.5t171 34.5q87 0 166.5 -32.5t140 -90.5t97 -138.5t36.5 -175.5zM867 300q0 81 -31 153.5t-84.5 127t-126 86t-155.5 31.5q-79 0 -150.5 -30t-126 -83.5t-86.5 -126.5t-32 -158q0 -81 30.5 -153.5t84 -127t125.5 -86t155 -31.5q79 0 151 30t126.5 83t87 126
t32.5 159z" />
    <glyph glyph-name="uni24E2" unicode="&#x24e2;" horiz-adv-x="940" 
d="M451 115q-26 0 -55 7.5t-50 20.5l14 41q20 -10 46 -17t47 -7q37 0 60 15.5t23 40.5t-21 39.5t-58 31.5q-19 8 -37 17t-32 21t-22.5 28t-8.5 38q0 52 36 75.5t90 23.5q20 0 46.5 -7.5t44.5 -17.5l-15 -44q-13 8 -36 15t-43 7q-31 0 -50.5 -13t-19.5 -36q0 -26 20 -38
t58 -29q42 -18 71 -43t29 -65q0 -55 -38.5 -79.5t-98.5 -24.5zM910 300q0 -91 -34.5 -171t-94 -139.5t-140 -94t-171.5 -34.5q-86 0 -165.5 33t-140 91.5t-96.5 139t-36 175.5q0 90 34.5 170t93.5 139t139 93.5t171 34.5q87 0 166.5 -32.5t140 -90.5t97 -138.5t36.5 -175.5z
M867 300q0 81 -31 153.5t-84.5 127t-126 86t-155.5 31.5q-79 0 -150.5 -30t-126 -83.5t-86.5 -126.5t-32 -158q0 -81 30.5 -153.5t84 -127t125.5 -86t155 -31.5q79 0 151 30t126.5 83t87 126t32.5 159z" />
    <glyph glyph-name="uni24E3" unicode="&#x24e3;" horiz-adv-x="940" 
d="M471 520v-97h82v-45h-82v-216q0 -14 1 -25t6 -18.5t15 -11t27 -3.5q7 0 18 1.5t21 3.5l4 -40q-17 -5 -34 -8t-32 -2q-46 2 -63 29.5t-17 73.5v216h-63v45h63v97h54zM910 300q0 -91 -34.5 -171t-94 -139.5t-140 -94t-171.5 -34.5q-86 0 -165.5 33t-140 91.5t-96.5 139
t-36 175.5q0 90 34.5 170t93.5 139t139 93.5t171 34.5q87 0 166.5 -32.5t140 -90.5t97 -138.5t36.5 -175.5zM867 300q0 81 -31 153.5t-84.5 127t-126 86t-155.5 31.5q-79 0 -150.5 -30t-126 -83.5t-86.5 -126.5t-32 -158q0 -81 30.5 -153.5t84 -127t125.5 -86t155 -31.5
q79 0 151 30t126.5 83t87 126t32.5 159z" />
    <glyph glyph-name="uni24E4" unicode="&#x24e4;" horiz-adv-x="940" 
d="M910 300q0 -91 -34.5 -171t-94 -139.5t-140 -94t-171.5 -34.5q-86 0 -165.5 33t-140 91.5t-96.5 139t-36 175.5q0 90 34.5 170t93.5 139t139 93.5t171 34.5q87 0 166.5 -32.5t140 -90.5t97 -138.5t36.5 -175.5zM867 300q0 81 -31 153.5t-84.5 127t-126 86t-155.5 31.5
q-79 0 -150.5 -30t-126 -83.5t-86.5 -126.5t-32 -158q0 -81 30.5 -153.5t84 -127t125.5 -86t155 -31.5q79 0 151 30t126.5 83t87 126t32.5 159zM371 229q0 -32 22 -52.5t61 -20.5q68 0 105 71v249h51v-359h-51v46q-26 -29 -54 -42t-58 -13q-58 0 -92.5 31.5t-34.5 87.5v249
h51v-247z" />
    <glyph glyph-name="uni24E5" unicode="&#x24e5;" horiz-adv-x="940" 
d="M591 460h50l-140 -359h-62l-141 359h54l118 -315zM910 300q0 -91 -34.5 -171t-94 -139.5t-140 -94t-171.5 -34.5q-86 0 -165.5 33t-140 91.5t-96.5 139t-36 175.5q0 90 34.5 170t93.5 139t139 93.5t171 34.5q87 0 166.5 -32.5t140 -90.5t97 -138.5t36.5 -175.5zM867 300
q0 81 -31 153.5t-84.5 127t-126 86t-155.5 31.5q-79 0 -150.5 -30t-126 -83.5t-86.5 -126.5t-32 -158q0 -81 30.5 -153.5t84 -127t125.5 -86t155 -31.5q79 0 151 30t126.5 83t87 126t32.5 159z" />
    <glyph glyph-name="uni24E6" unicode="&#x24e6;" horiz-adv-x="940" 
d="M910 300q0 -91 -34.5 -171t-94 -139.5t-140 -94t-171.5 -34.5q-86 0 -165.5 33t-140 91.5t-96.5 139t-36 175.5q0 90 34.5 170t93.5 139t139 93.5t171 34.5q87 0 166.5 -32.5t140 -90.5t97 -138.5t36.5 -175.5zM867 300q0 81 -31 153.5t-84.5 127t-126 86t-155.5 31.5
q-79 0 -150.5 -30t-126 -83.5t-86.5 -126.5t-32 -158q0 -81 30.5 -153.5t84 -127t125.5 -86t155 -31.5q79 0 151 30t126.5 83t87 126t32.5 159zM278 483l86 -303l84 303h44l85 -302l85 302h47l-105 -360h-57l-78 281l-77 -281h-58l-105 360h49z" />
    <glyph glyph-name="uni24E7" unicode="&#x24e7;" horiz-adv-x="940" 
d="M910 300q0 -91 -34.5 -171t-94 -139.5t-140 -94t-171.5 -34.5q-86 0 -165.5 33t-140 91.5t-96.5 139t-36 175.5q0 90 34.5 170t93.5 139t139 93.5t171 34.5q87 0 166.5 -32.5t140 -90.5t97 -138.5t36.5 -175.5zM867 300q0 81 -31 153.5t-84.5 127t-126 86t-155.5 31.5
q-79 0 -150.5 -30t-126 -83.5t-86.5 -126.5t-32 -158q0 -81 30.5 -153.5t84 -127t125.5 -86t155 -31.5q79 0 151 30t126.5 83t87 126t32.5 159zM499 300l135 -180h-59l-105 141l-106 -141h-56l134 178l-134 182h58l106 -143l107 143h55z" />
    <glyph glyph-name="uni24E8" unicode="&#x24e8;" horiz-adv-x="940" 
d="M910 300q0 -91 -34.5 -171t-94 -139.5t-140 -94t-171.5 -34.5q-86 0 -165.5 33t-140 91.5t-96.5 139t-36 175.5q0 90 34.5 170t93.5 139t139 93.5t171 34.5q87 0 166.5 -32.5t140 -90.5t97 -138.5t36.5 -175.5zM867 300q0 81 -31 153.5t-84.5 127t-126 86t-155.5 31.5
q-79 0 -150.5 -30t-126 -83.5t-86.5 -126.5t-32 -158q0 -81 30.5 -153.5t84 -127t125.5 -86t155 -31.5q79 0 151 30t126.5 83t87 126t32.5 159zM463 146l-154 368h52l123 -304l100 304h49l-140 -421q-13 -38 -37.5 -58t-66.5 -20q-11 0 -27.5 3t-29.5 7l7 42q9 -3 20.5 -5
t19.5 -2q33 0 49 13.5t24 38.5z" />
    <glyph glyph-name="uni24E9" unicode="&#x24e9;" horiz-adv-x="940" 
d="M334 483h265v-46l-215 -269h221v-45h-277v46l215 269h-209v45zM910 300q0 -91 -34.5 -171t-94 -139.5t-140 -94t-171.5 -34.5q-86 0 -165.5 33t-140 91.5t-96.5 139t-36 175.5q0 90 34.5 170t93.5 139t139 93.5t171 34.5q87 0 166.5 -32.5t140 -90.5t97 -138.5
t36.5 -175.5zM867 300q0 81 -31 153.5t-84.5 127t-126 86t-155.5 31.5q-79 0 -150.5 -30t-126 -83.5t-86.5 -126.5t-32 -158q0 -81 30.5 -153.5t84 -127t125.5 -86t155 -31.5q79 0 151 30t126.5 83t87 126t32.5 159z" />
    <glyph glyph-name="SF100000" unicode="&#x2500;" horiz-adv-x="940" 
d="M0 286v29h940v-29h-940z" />
    <glyph glyph-name="uni2501" unicode="&#x2501;" horiz-adv-x="940" 
d="M0 271v54h920v-54h-920z" />
    <glyph glyph-name="SF110000" unicode="&#x2502;" horiz-adv-x="940" 
d="M455 -200v1000h29v-1000h-29z" />
    <glyph glyph-name="uni2503" unicode="&#x2503;" horiz-adv-x="940" 
d="M442 -200v1000h54v-1000h-54z" />
    <glyph glyph-name="SF010000" unicode="&#x250c;" horiz-adv-x="940" 
d="M484 286v-486h-29v515h485v-29h-456z" />
    <glyph glyph-name="uni250D" unicode="&#x250d;" horiz-adv-x="940" 
d="M488 264v-464h-38v536h490v-72h-452z" />
    <glyph glyph-name="uni250E" unicode="&#x250e;" horiz-adv-x="940" 
d="M507 282v-482h-76v518h509v-36h-433z" />
    <glyph glyph-name="uni250F" unicode="&#x250f;" horiz-adv-x="940" 
d="M496 271v-471h-54v525h498v-54h-444z" />
    <glyph glyph-name="SF030000" unicode="&#x2510;" horiz-adv-x="940" 
d="M455 -200v486h-455v29h484v-515h-29z" />
    <glyph glyph-name="uni2511" unicode="&#x2511;" horiz-adv-x="940" 
d="M450 -200v464h-450v72h488v-536h-38z" />
    <glyph glyph-name="uni2512" unicode="&#x2512;" horiz-adv-x="940" 
d="M431 -200v482h-431v36h507v-518h-76z" />
    <glyph glyph-name="uni2513" unicode="&#x2513;" horiz-adv-x="940" 
d="M442 -200v471h-442v54h496v-525h-54z" />
    <glyph glyph-name="SF020000" unicode="&#x2514;" horiz-adv-x="940" 
d="M455 286v514h29v-485h426v-29h-455z" />
    <glyph glyph-name="uni2515" unicode="&#x2515;" horiz-adv-x="940" 
d="M450 264v536h38v-464h452v-72h-490z" />
    <glyph glyph-name="uni2516" unicode="&#x2516;" horiz-adv-x="940" 
d="M431 282v518h76v-482h433v-36h-509z" />
    <glyph glyph-name="uni2517" unicode="&#x2517;" horiz-adv-x="940" 
d="M442 271v529h54v-475h444v-54h-498z" />
    <glyph glyph-name="SF040000" unicode="&#x2518;" horiz-adv-x="940" 
d="M0 286v29h455v485h29v-514h-484z" />
    <glyph glyph-name="uni2519" unicode="&#x2519;" horiz-adv-x="940" 
d="M0 264v72h450v464h38v-536h-488z" />
    <glyph glyph-name="uni251A" unicode="&#x251a;" horiz-adv-x="940" 
d="M0 282v36h431v482h76v-518h-507z" />
    <glyph glyph-name="uni251B" unicode="&#x251b;" horiz-adv-x="940" 
d="M0 271v54h442v475h54v-529h-496z" />
    <glyph glyph-name="SF080000" unicode="&#x251c;" horiz-adv-x="940" 
d="M484 286v-486h-29v1000h29v-485h436v-29h-436z" />
    <glyph glyph-name="uni251D" unicode="&#x251d;" horiz-adv-x="940" 
d="M488 264v-464h-38v1000h38v-464h452v-72h-452z" />
    <glyph glyph-name="uni251E" unicode="&#x251e;" horiz-adv-x="940" 
d="M487 282v-482h-37v500h-19v500h76v-482h433v-36h-453z" />
    <glyph glyph-name="uni251F" unicode="&#x251f;" horiz-adv-x="940" 
d="M507 282v-482h-76v500h19v500h38v-482h452v-36h-433z" />
    <glyph glyph-name="uni2520" unicode="&#x2520;" horiz-adv-x="940" 
d="M507 282v-482h-76v1000h76v-482h433v-36h-433z" />
    <glyph glyph-name="uni2521" unicode="&#x2521;" horiz-adv-x="940" 
d="M488 264v-464h-38v500h-19v500h76v-464h433v-72h-452z" />
    <glyph glyph-name="uni2522" unicode="&#x2522;" horiz-adv-x="940" 
d="M507 264v-464h-76v500h19v500h38v-464h452v-72h-433z" />
    <glyph glyph-name="uni2523" unicode="&#x2523;" horiz-adv-x="940" 
d="M496 271v-471h-54v1000h54v-475h444v-54h-444z" />
    <glyph glyph-name="SF090000" unicode="&#x2524;" horiz-adv-x="940" 
d="M455 -200v486h-455v29h455v485h29v-1000h-29z" />
    <glyph glyph-name="uni2525" unicode="&#x2525;" horiz-adv-x="940" 
d="M450 -200v464h-450v72h450v464h38v-1000h-38z" />
    <glyph glyph-name="uni2526" unicode="&#x2526;" horiz-adv-x="940" 
d="M488 300v-500h-38v482h-450v36h431v482h76v-500h-19z" />
    <glyph glyph-name="uni2527" unicode="&#x2527;" horiz-adv-x="940" 
d="M431 -200v482h-431v36h450v482h38v-500h19v-500h-76z" />
    <glyph glyph-name="uni2528" unicode="&#x2528;" horiz-adv-x="940" 
d="M431 -200v482h-431v36h431v482h76v-1000h-76z" />
    <glyph glyph-name="uni2529" unicode="&#x2529;" horiz-adv-x="940" 
d="M488 300v-500h-38v464h-450v72h431v464h76v-500h-19z" />
    <glyph glyph-name="uni252A" unicode="&#x252a;" horiz-adv-x="940" 
d="M431 -200v464h-431v72h450v464h38v-500h19v-500h-76z" />
    <glyph glyph-name="uni252B" unicode="&#x252b;" horiz-adv-x="940" 
d="M442 -200v471h-442v54h442v475h54v-1000h-54z" />
    <glyph glyph-name="SF060000" unicode="&#x252c;" horiz-adv-x="940" 
d="M484 286v-486h-29v486h-455v29h940v-29h-456z" />
    <glyph glyph-name="uni252D" unicode="&#x252d;" horiz-adv-x="940" 
d="M488 282v-482h-38v464h-450v72h469v-18h471v-36h-452z" />
    <glyph glyph-name="uni252E" unicode="&#x252e;" horiz-adv-x="940" 
d="M488 264v-464h-38v482h-450v36h469v18h471v-72h-452z" />
    <glyph glyph-name="uni252F" unicode="&#x252f;" horiz-adv-x="940" 
d="M488 264v-464h-38v464h-450v72h940v-72h-452z" />
    <glyph glyph-name="uni2530" unicode="&#x2530;" horiz-adv-x="940" 
d="M507 282v-482h-76v482h-431v36h940v-36h-433z" />
    <glyph glyph-name="uni2531" unicode="&#x2531;" horiz-adv-x="940" 
d="M507 282v-482h-76v464h-431v72h469v-18h471v-36h-433z" />
    <glyph glyph-name="uni2532" unicode="&#x2532;" horiz-adv-x="940" 
d="M507 264v-464h-76v482h-431v36h469v18h471v-72h-433z" />
    <glyph glyph-name="uni2533" unicode="&#x2533;" horiz-adv-x="940" 
d="M496 271v-471h-54v471h-442v54h920v-54h-424z" />
    <glyph glyph-name="SF070000" unicode="&#x2534;" horiz-adv-x="940" 
d="M0 286v29h455v485h29v-485h436v-29h-920z" />
    <glyph glyph-name="uni2535" unicode="&#x2535;" horiz-adv-x="940" 
d="M469 282v-18h-469v72h450v464h38v-482h452v-36h-471z" />
    <glyph glyph-name="uni2536" unicode="&#x2536;" horiz-adv-x="940" 
d="M469 264v18h-469v36h450v482h38v-464h452v-72h-471z" />
    <glyph glyph-name="uni2537" unicode="&#x2537;" horiz-adv-x="940" 
d="M0 264v72h450v464h38v-464h452v-72h-940z" />
    <glyph glyph-name="uni2538" unicode="&#x2538;" horiz-adv-x="940" 
d="M0 282v36h431v482h76v-482h433v-36h-940z" />
    <glyph glyph-name="uni2539" unicode="&#x2539;" horiz-adv-x="940" 
d="M469 282v-18h-469v72h431v464h76v-482h433v-36h-471z" />
    <glyph glyph-name="uni253A" unicode="&#x253a;" horiz-adv-x="940" 
d="M469 264v18h-469v36h431v482h76v-464h433v-72h-471z" />
    <glyph glyph-name="uni253B" unicode="&#x253b;" horiz-adv-x="940" 
d="M0 271v54h442v475h54v-475h444v-54h-940z" />
    <glyph glyph-name="SF050000" unicode="&#x253c;" horiz-adv-x="940" 
d="M484 285v-485h-29v485h-455v29h455v486h29v-486h436v-29h-436z" />
    <glyph glyph-name="uni253D" unicode="&#x253d;" horiz-adv-x="940" 
d="M488 282v-482h-38v464h-450v76h450v460h38v-482h452v-36h-452z" />
    <glyph glyph-name="uni253E" unicode="&#x253e;" horiz-adv-x="940" 
d="M488 264v-464h-38v482h-450v36h450v482h38v-464h452v-72h-452z" />
    <glyph glyph-name="uni253F" unicode="&#x253f;" horiz-adv-x="940" 
d="M488 264v-464h-38v464h-450v72h450v464h38v-464h452v-72h-452z" />
    <glyph glyph-name="uni2540" unicode="&#x2540;" horiz-adv-x="940" 
d="M488 282v-482h-38v482h-450v36h431v482h76v-482h433v-36h-452z" />
    <glyph glyph-name="uni2541" unicode="&#x2541;" horiz-adv-x="940" 
d="M507 282v-482h-76v482h-431v36h450v482h38v-482h452v-36h-433z" />
    <glyph glyph-name="uni2542" unicode="&#x2542;" horiz-adv-x="940" 
d="M507 282v-482h-76v482h-431v36h431v482h76v-482h433v-36h-433z" />
    <glyph glyph-name="uni2543" unicode="&#x2543;" horiz-adv-x="940" 
d="M488 282v-482h-38v464h-450v72h431v464h76v-482h433v-36h-452z" />
    <glyph glyph-name="uni2544" unicode="&#x2544;" horiz-adv-x="940" 
d="M488 264v-464h-38v482h-450v36h431v482h76v-464h433v-72h-452z" />
    <glyph glyph-name="uni2545" unicode="&#x2545;" horiz-adv-x="940" 
d="M507 282v-482h-76v464h-431v72h450v464h38v-482h452v-36h-433z" />
    <glyph glyph-name="uni2546" unicode="&#x2546;" horiz-adv-x="940" 
d="M507 264v-464h-76v482h-431v36h450v482h38v-464h452v-72h-433z" />
    <glyph glyph-name="uni2547" unicode="&#x2547;" horiz-adv-x="940" 
d="M488 264v-464h-38v464h-450v72h431v464h76v-464h433v-72h-452z" />
    <glyph glyph-name="uni2548" unicode="&#x2548;" horiz-adv-x="940" 
d="M507 264v-464h-76v464h-431v72h450v464h38v-464h452v-72h-433z" />
    <glyph glyph-name="uni2549" unicode="&#x2549;" horiz-adv-x="940" 
d="M507 282v-482h-76v464h-431v72h431v464h76v-482h433v-36h-433z" />
    <glyph glyph-name="uni254A" unicode="&#x254a;" horiz-adv-x="940" 
d="M507 264v-464h-76v482h-431v36h431v482h76v-464h433v-72h-433z" />
    <glyph glyph-name="uni254B" unicode="&#x254b;" horiz-adv-x="940" 
d="M496 271v-471h-54v471h-442v54h442v475h54v-475h444v-54h-444z" />
    <glyph glyph-name="shade" unicode="&#x2592;" horiz-adv-x="940" 
d="M886 680q0 -15 -10 -24t-23 -9q-15 0 -25.5 9t-10.5 24t10.5 24.5t25.5 9.5q13 0 23 -9.5t10 -24.5zM759 680q0 -15 -10 -24t-25 -9t-25 9t-10 24t10 25t25 10t25 -10t10 -25zM886 553q0 -15 -10 -25t-23 -10q-15 0 -25.5 9.5t-10.5 25.5q0 15 10.5 24.5t25.5 9.5
q13 0 23 -9.5t10 -24.5zM632 680q0 -15 -9.5 -24t-24.5 -9t-25 9t-10 24t10 25t25 10t24.5 -10t9.5 -25zM759 554q0 -16 -10 -26t-25 -10t-25 10t-10 26q0 15 10 24.5t25 9.5t25 -9.5t10 -24.5zM886 425q0 -15 -10 -24.5t-23 -9.5q-15 0 -25.5 9.5t-10.5 24.5t10.5 25
t25.5 10q13 0 23 -10t10 -25zM632 554q0 -16 -9.5 -26t-24.5 -10t-25 10t-10 26q0 15 10 24.5t25 9.5t24.5 -9.5t9.5 -24.5zM504 680q0 -15 -9.5 -24t-25.5 -9q-14 0 -23.5 9t-9.5 24t9.5 24.5t23.5 9.5q16 0 25.5 -9.5t9.5 -24.5zM759 426q0 -16 -10 -25.5t-25 -9.5t-25 10
t-10 25t10 24.5t25 9.5t25 -9.5t10 -24.5zM886 297q0 -13 -10 -23t-23 -10q-15 0 -25.5 10t-10.5 23q0 15 10.5 25t25.5 10q13 0 23 -10t10 -25zM632 426q0 -15 -9.5 -25t-24.5 -10t-25 10t-10 25t10 24.5t25 9.5t24.5 -9.5t9.5 -24.5zM504 553q0 -16 -9.5 -25.5t-25.5 -9.5
q-14 0 -23.5 10t-9.5 25t9.5 24.5t23.5 9.5q16 0 25.5 -9.5t9.5 -24.5zM886 171q0 -14 -10 -24.5t-23 -10.5q-15 0 -25.5 10.5t-10.5 24.5t10.5 24t25.5 10q13 0 23 -10t10 -24zM376 680q0 -15 -9.5 -24t-25.5 -9q-15 0 -24.5 9t-9.5 24t9.5 24.5t24.5 9.5q16 0 25.5 -9.5
t9.5 -24.5zM758 297q0 -13 -9.5 -23t-24.5 -10t-25 10t-10 23q0 15 10 25t25 10t24.5 -10t9.5 -25zM504 425q0 -15 -9.5 -24.5t-25.5 -9.5q-14 0 -23.5 9.5t-9.5 24.5t9.5 25t23.5 10q16 0 25.5 -10t9.5 -25zM631 297q0 -13 -9 -23t-24 -10t-25 10t-10 23q0 15 10 25t25 10
t24 -10t9 -25zM887 43q0 -14 -10 -24.5t-23 -10.5q-17 0 -27 10.5t-10 24.5q0 16 10 26t27 10q13 0 23 -10.5t10 -25.5zM250 680q0 -15 -10.5 -24t-25.5 -9t-25 9t-10 24t10 25t25 10t25.5 -10t10.5 -25zM376 553q0 -16 -9.5 -25.5t-25.5 -9.5q-15 0 -24.5 10t-9.5 25
t9.5 24.5t24.5 9.5q16 0 25.5 -9.5t9.5 -24.5zM758 171q0 -14 -9.5 -24.5t-24.5 -10.5t-25 10.5t-10 24.5t10 24t25 10t24.5 -10t9.5 -24zM504 297q0 -13 -9.5 -23t-25.5 -10q-14 0 -23.5 10t-9.5 23q0 15 9.5 25t23.5 10q16 0 25.5 -10t9.5 -25zM631 171q0 -14 -9 -24.5
t-24 -10.5t-25 10.5t-10 24.5t10 24t25 10t24 -10t9 -24zM887 -84q0 -15 -10 -25t-23 -10q-17 0 -27 10t-10 25q0 14 10 24t27 10q13 0 23 -10t10 -24zM250 554q0 -16 -10.5 -26t-25.5 -10t-25 10t-10 26q0 15 10 24.5t25 9.5t25.5 -9.5t10.5 -24.5zM376 425
q0 -15 -9.5 -24.5t-25.5 -9.5q-15 0 -24.5 9.5t-9.5 24.5t9.5 25t24.5 10q16 0 25.5 -10t9.5 -25zM759 43q0 -14 -10 -24.5t-25 -10.5q-14 0 -24.5 10.5t-10.5 24.5q0 15 10 25.5t25 10.5t25 -10.5t10 -25.5zM121 680q0 -15 -10.5 -24t-25.5 -9q-13 0 -23 9t-10 24t10 24.5
t23 9.5q15 0 25.5 -9.5t10.5 -24.5zM504 171q0 -14 -9.5 -24.5t-25.5 -10.5q-14 0 -23.5 10.5t-9.5 24.5t9.5 24t23.5 10q16 0 25.5 -10t9.5 -24zM632 43q0 -14 -9.5 -24.5t-24.5 -10.5t-25 10.5t-10 24.5q0 15 10 25.5t25 10.5t24.5 -10.5t9.5 -25.5zM250 426
q0 -15 -10.5 -25t-25.5 -10t-25 9.5t-10 25.5q0 15 10 24.5t25 9.5t25.5 -9.5t10.5 -24.5zM376 297q0 -13 -9.5 -23t-25.5 -10q-15 0 -24.5 10t-9.5 23q0 15 9.5 25t24.5 10q16 0 25.5 -10t9.5 -25zM759 -84q0 -15 -10 -25t-25 -10q-14 0 -24.5 10.5t-10.5 24.5t10 24t25 10
t25 -10t10 -24zM121 553q0 -15 -10.5 -25t-25.5 -10q-13 0 -23 10t-10 25t10 24.5t23 9.5q15 0 25.5 -9.5t10.5 -24.5zM505 43q0 -14 -9.5 -24.5t-26.5 -10.5q-14 0 -23.5 10.5t-9.5 24.5q0 15 9.5 25.5t23.5 10.5q17 0 26.5 -10t9.5 -26zM632 -84q0 -14 -9.5 -24.5
t-24.5 -10.5t-25 10.5t-10 24.5t10 24t25 10t24.5 -10t9.5 -24zM376 171q0 -14 -9.5 -24.5t-25.5 -10.5q-15 0 -24.5 10.5t-9.5 24.5t9.5 24t24.5 10q16 0 25.5 -10t9.5 -24zM121 424q0 -14 -10.5 -23.5t-25.5 -9.5q-13 0 -23 9.5t-10 23.5q0 17 10 26.5t23 9.5
q15 0 25.5 -9.5t10.5 -26.5zM249 297q0 -13 -10.5 -23t-24.5 -10q-15 0 -25 10t-10 23q0 15 10 25t25 10t25 -10t10 -25zM505 -84q0 -15 -9.5 -25t-26.5 -10q-14 0 -23.5 10t-9.5 25q0 14 9.5 24t23.5 10q17 0 26.5 -10t9.5 -24zM377 43q0 -14 -9.5 -24.5t-25.5 -10.5
q-15 0 -25 10.5t-10 24.5q0 15 10 25.5t25 10.5q16 0 25.5 -10.5t9.5 -25.5zM249 171q0 -14 -10.5 -24.5t-24.5 -10.5q-15 0 -25 10.5t-10 24.5t10 24t25 10t25 -10t10 -24zM121 296q0 -14 -10.5 -23.5t-25.5 -9.5q-13 0 -23 9.5t-10 23.5q0 15 10 24.5t23 9.5
q15 0 25.5 -9.5t10.5 -24.5zM377 -84q0 -15 -9.5 -25t-25.5 -10q-15 0 -25 10t-10 25q0 14 10 24t25 10q16 0 25.5 -10t9.5 -24zM250 43q0 -14 -10.5 -24.5t-25.5 -10.5t-25 10.5t-10 24.5q0 15 10 25.5t25 10.5t25.5 -10.5t10.5 -25.5zM121 171q0 -14 -10.5 -24.5
t-25.5 -10.5q-13 0 -23 10.5t-10 24.5t10 23.5t23 9.5q36 0 36 -33zM250 -84q0 -14 -10.5 -24.5t-25.5 -10.5t-25 10t-10 25q0 14 10 24t25 10t25.5 -10t10.5 -24zM121 43q0 -14 -10.5 -24.5t-25.5 -10.5q-13 0 -23 10.5t-10 24.5t10 24t23 10q15 0 25.5 -10t10.5 -24z
M121 -84q0 -15 -10.5 -25t-25.5 -10q-13 0 -23 10t-10 25q0 14 10 24t23 10q15 0 25.5 -10t10.5 -24z" />
    <glyph glyph-name="filledbox" unicode="&#x25a0;" horiz-adv-x="940" 
d="M100 -68v740h740v-740h-740z" />
    <glyph glyph-name="H22073" unicode="&#x25a1;" horiz-adv-x="940" 
d="M100 -68v740h740v-740h-740zM803 636h-667v-668h667v668z" />
    <glyph glyph-name="uni25A3" unicode="&#x25a3;" horiz-adv-x="940" 
d="M647 123h-355v358h355v-358zM100 -68v740h740v-740h-740zM803 636h-667v-668h666z" />
    <glyph glyph-name="uni25A4" unicode="&#x25a4;" horiz-adv-x="940" 
d="M52 -118v829h835v-829h-835zM851 676h-764v-78h764v78zM851 562h-764v-83h764v83zM851 445h-764v-74h764v74zM851 334h-764v-79h764v79zM851 219h-764v-81h764v81zM851 103h-764v-75h764v75zM851 -8h-764v-74h764v74z" />
    <glyph glyph-name="uni25A5" unicode="&#x25a5;" horiz-adv-x="940" 
d="M52 -118v828h835v-828h-835zM852 674h-77v-756h77v756zM740 674h-74v-756h74v756zM629 674h-80v-756h80v756zM513 674h-80v-756h80v756zM396 674h-76v-756h76v756zM285 674h-83v-756h83v756zM166 674h-79v-756h79v756z" />
    <glyph glyph-name="uni25A6" unicode="&#x25a6;" horiz-adv-x="940" 
d="M52 -118v829h835v-829h-835zM851 676h-81v-79h81v79zM737 676h-78v-79h78v79zM851 564h-81v-86h81v86zM626 676h-83v-79h83v79zM737 564h-78v-86h78v86zM851 446h-81v-78h81v78zM626 564h-83v-86h83v86zM511 676h-86v-79h86v79zM737 446h-78v-78h78v78zM851 335h-81v-81
h81v81zM737 335h-78v-81h78v81zM393 676h-76v-79h76v79zM626 446h-83v-78h83v78zM511 564h-86v-86h86v86zM851 221h-81v-84h81v84zM285 676h-85v-79h85v79zM626 335h-83v-81h83v81zM737 221h-78v-84h78v84zM851 105h-81v-78h81v78zM393 564h-76v-86h76v86zM511 446h-86v-78
h86v78zM851 -5h-81v-77h81v77zM737 105h-78v-78h78v78zM167 676h-80v-79h80v79zM626 221h-83v-84h83v84zM285 564h-85v-86h85v86zM511 335h-86v-81h86v81zM393 446h-76v-78h76v78zM737 -5h-78v-77h78v77zM626 105h-83v-78h83v78zM393 335h-76v-81h76v81zM285 446h-85v-78h85
v78zM167 564h-80v-86h80v86zM511 221h-86v-84h86v84zM626 -5h-83v-77h83v77zM285 335h-85v-81h85v81zM511 105h-86v-78h86v78zM393 221h-76v-84h76v84zM167 446h-80v-78h80v78zM511 -5h-86v-77h86v77zM167 335h-80v-81h80v81zM285 221h-85v-84h85v84zM393 105h-76v-78h76v78
zM393 -5h-76v-77h76v77zM285 105h-85v-78h85v78zM167 221h-80v-84h80v84zM285 -5h-85v-77h85v77zM167 105h-80v-78h80v78zM167 -5h-80v-77h80v77z" />
    <glyph glyph-name="uni25A7" unicode="&#x25a7;" horiz-adv-x="940" 
d="M52 -119v830h835v-830h-835zM664 675q48 -48 92.5 -92t91.5 -91v183h-184zM478 675q94 -94 185 -185.5t185 -185.5v142q-57 57 -114 114.5t-114 114.5h-142zM289 675q141 -140 279 -278.5t280 -279.5v142q-106 104 -209.5 207.5t-210.5 208.5h-139zM112 675
q186 -186 368 -366.5t368 -365.5v125q-154 153 -304.5 303.5t-305.5 303.5h-126zM822 -82q-186 185 -368 366.5t-368 367.5v-125q155 -154 306 -305t306 -304h124zM650 -82q-141 142 -281.5 282t-282.5 281v-143q107 -107 211 -210.5t210 -209.5h143zM456 -82
q-94 94 -185 185.5t-185 185.5v-146q59 -57 115.5 -113t113.5 -112h141zM264 -82q-45 46 -89 90.5t-89 91.5v-182h178z" />
    <glyph glyph-name="uni25A8" unicode="&#x25a8;" horiz-adv-x="940" 
d="M52 710h835v-828h-835v828zM478 -82h142l228 227v141zM289 -82h139l420 415v142zM664 -82h184v181zM112 -82h126l610 604v127zM86 64v-123l736 733h-124zM86 254v-144l564 564h-143zM86 448v-146l370 372h-141zM86 491l178 183h-178v-183z" />
    <glyph glyph-name="uni25A9" unicode="&#x25a9;" horiz-adv-x="940" 
d="M53 -119v829h834v-829h-834zM360 208q-18 19 -36.5 37.5l-36.5 36.5q-18 -18 -36 -36.5t-37 -36.5q19 -18 37.5 -36.5l36.5 -36.5zM554 408q18 18 36 35t36 35l-72 72l-72 -72q18 -18 36 -35t36 -35zM650 503q18 18 35 36t35 36l-70 71q-18 -18 -36 -35.5t-36 -35.5z
M189 42q18 18 35.5 36t35.5 37l-69 69l-71 -72zM382 42l35.5 35.5t36.5 35.5l-70 70l-71 -71q18 -18 34.5 -35t34.5 -35zM816 478l-69 70q-18 -18 -36 -35.5t-36 -35.5l71 -69zM286 -52q18 18 36 35l36 34l-70 70l-72 -72q18 -18 35 -33.5t35 -33.5zM456 505q18 18 35.5 36
t35.5 36q-17 18 -32.5 34t-32.5 33l-36 -36t-37 -36l34 -34zM652 314q18 18 34 34.5t34 33.5q-18 18 -34 35t-34 35q-18 -18 -34 -34.5t-34 -33.5zM473 -50q19 18 37 35.5t36 35.5l-66 65l-70 -71q15 -16 31 -32t32 -33zM258 308q-17 16 -32.5 32t-32.5 33
q-18 -18 -35.5 -35t-35.5 -35q16 -16 32 -32.5t33 -33.5zM744 219q17 18 35 35t36 35l-33 33t-34 32l-69 -69l33 -33t32 -33zM269 646q-17 -16 -32.5 -31.5l-31.5 -31.5q18 -18 36 -35.5t36 -35.5l62 63zM189 425q16 16 32 31.5t32 31.5q-18 17 -36.5 34.5t-36.5 35.5
l-62 -62zM564 224q30 32 62 62q-18 18 -35 36t-35 36q-15 -17 -31 -32.5t-32 -32.5zM468 322q16 16 30.5 31.5t30.5 31.5l-69 69q-16 -16 -31.5 -31t-30.5 -31zM380 234q15 16 30.5 31t30.5 31q-18 18 -35 35.5t-35 35.5l-60 -63q18 -17 34.5 -34.5t34.5 -35.5zM537 199
q-17 18 -33.5 35t-33.5 35q-17 -16 -32.5 -31t-30.5 -31q17 -18 34.5 -34.5t35.5 -34.5zM750 38q17 16 32 32t31 32q-17 17 -32.5 33t-33.5 33q-16 -16 -31.5 -31t-31.5 -32l33 -33t33 -34zM433 481l-33 33t-33 32q-33 -32 -63 -63q16 -16 32 -31.5t34 -32.5zM281 330
q16 17 31 32.5t31 31.5q-16 17 -32 33l-32 32q-16 -15 -31.5 -31t-31.5 -32q17 -17 32.5 -33t32.5 -33zM657 132q16 17 31 32l31 31l-65 66q-16 -16 -31.5 -32t-30.5 -32zM725 13l-66 66l-62 -62q18 -17 34 -32.5t32 -33.5zM570 47q16 14 30.5 29.5t29.5 30.5
q-16 17 -31.5 33t-31.5 33q-16 -15 -31.5 -30.5t-30.5 -32.5q17 -16 32.5 -32t32.5 -31zM849 647q-22 -20 -40.5 -39t-38.5 -39l79 -78v156zM87 -60l39 39t40 39q-21 20 -40 40t-39 40v-158zM87 322l39 39t40 39l-79 78v-156zM652 -82q-21 19 -39.5 38t-39.5 38
q-20 -19 -39 -38t-39 -38h157zM849 269q-20 -19 -39 -38l-38 -38l77 -77v153zM87 136q19 20 38 39l39 39q-20 19 -39 37t-38 37v-152zM740 599q20 19 39 38t38 37h-154q20 -18 39 -37zM774 380q18 -20 37 -38.5t38 -37.5v150q-19 -19 -38 -37t-37 -37zM364 600l37.5 37.5
t37.5 36.5h-150zM192 -10q-19 -18 -37 -36t-37 -36h149zM458 -82q-19 18 -37.5 35.5t-36.5 35.5l-72 -71h146zM551 602q18 18 35.5 36t35.5 36h-143zM849 80l-70 -69l70 -69v138zM753 -15q-18 -18 -34.5 -33.5t-34.5 -33.5h136zM153 585l-66 66v-132zM176 609
q18 17 33.5 32.5l32.5 32.5h-131z" />
    <glyph glyph-name="triagup" unicode="&#x25b2;" horiz-adv-x="940" 
d="M473 626l386 -624h-779z" />
    <glyph glyph-name="uni25B3" unicode="&#x25b3;" horiz-adv-x="940" 
d="M473 626l386 -624h-779zM473 553l-328 -515h647z" />
    <glyph glyph-name="uni25B6" unicode="&#x25b6;" horiz-adv-x="940" 
d="M166 -73v754l609 -379z" />
    <glyph glyph-name="uni25B7" unicode="&#x25b7;" horiz-adv-x="940" 
d="M166 -73v754l609 -379zM205 610v-614l497 305z" />
    <glyph glyph-name="triagdn" unicode="&#x25bc;" horiz-adv-x="940" 
d="M80 586h779l-386 -624z" />
    <glyph glyph-name="uni25BD" unicode="&#x25bd;" horiz-adv-x="940" 
d="M80 586h779l-386 -624zM792 550h-647l328 -515z" />
    <glyph glyph-name="uni25C0" unicode="&#x25c0;" horiz-adv-x="940" 
d="M166 302l609 379v-754z" />
    <glyph glyph-name="uni25C1" unicode="&#x25c1;" horiz-adv-x="940" 
d="M166 302l609 379v-754zM239 301l497 -305v614z" />
    <glyph glyph-name="uni25C6" unicode="&#x25c6;" horiz-adv-x="940" 
d="M469 -131l-437 435l437 435l438 -435z" />
    <glyph glyph-name="uni25C7" unicode="&#x25c7;" horiz-adv-x="940" 
d="M469 -131l-437 435l437 435l438 -435zM854 304l-385 385l-384 -385l384 -384z" />
    <glyph glyph-name="uni25C8" unicode="&#x25c8;" horiz-adv-x="940" 
d="M469 82l-222 222l222 222l221 -222zM469 -131l-437 435l437 435l438 -435zM853 304l-384 384l-383 -384l383 -383z" />
    <glyph glyph-name="circle" unicode="&#x25cb;" horiz-adv-x="940" 
d="M862 300q0 -82 -30.5 -153t-83.5 -124t-124.5 -83.5t-153.5 -30.5q-78 0 -148.5 29t-124 81t-85.5 123.5t-32 157.5q0 81 30.5 152.5t83 124t123.5 83t153 30.5q78 0 149 -29t125 -80.5t86 -123.5t32 -157zM821 300q0 74 -27.5 138t-74.5 111.5t-111.5 74.5t-137.5 27
q-70 0 -133.5 -25.5t-111.5 -72t-76 -111t-28 -142.5q0 -74 27 -138t74 -111.5t110.5 -74.5t137.5 -27q70 0 133.5 25.5t112 71.5t77 111t28.5 143z" />
    <glyph glyph-name="uni25CE" unicode="&#x25ce;" horiz-adv-x="940" 
d="M862 300q0 -82 -30.5 -153t-83.5 -124t-124.5 -83.5t-153.5 -30.5q-78 0 -148.5 29t-124 81t-85.5 123.5t-32 157.5q0 81 30.5 152.5t83 124t123.5 83t153 30.5q78 0 149 -29t125 -80.5t86 -123.5t32 -157zM821 300q0 74 -27.5 138t-74.5 111.5t-111.5 74.5t-137.5 27
q-70 0 -133.5 -25.5t-111.5 -72t-76 -111t-28 -142.5q0 -74 27 -138t74 -111.5t110.5 -74.5t137.5 -27q70 0 133.5 25.5t112 71.5t77 111t28.5 143zM716 300q0 -51 -19 -96t-52.5 -78t-78.5 -52t-96 -19q-48 0 -92.5 18t-78 50.5t-53.5 77.5t-20 99q0 51 19 95.5t52 77.5
t77.5 52t95.5 19q49 0 93.5 -18t78.5 -50.5t54 -77.5t20 -98zM678 300q0 43 -16 80.5t-44 65.5t-66 44.5t-82 16.5q-42 0 -79 -15.5t-65.5 -43t-45 -65.5t-16.5 -83q0 -43 15.5 -81t43 -66t65.5 -44t82 -16q42 0 79.5 15t66 42.5t45.5 65.5t17 84z" />
    <glyph glyph-name="H18533" unicode="&#x25cf;" horiz-adv-x="940" 
d="M862 300q0 -82 -30.5 -153t-83.5 -124t-124.5 -83.5t-153.5 -30.5q-78 0 -148.5 29t-124 81t-85.5 123.5t-32 157.5q0 81 30.5 152.5t83 124t123.5 83t153 30.5q78 0 149 -29t125 -80.5t86 -123.5t32 -157z" />
    <glyph glyph-name="uni25D0" unicode="&#x25d0;" horiz-adv-x="940" 
d="M862 302q0 -83 -31 -155t-85 -125t-126.5 -83.5t-154.5 -30.5q-80 0 -150.5 31t-123.5 84.5t-83.5 125.5t-30.5 153t31 152.5t83.5 124t123 83t150.5 30.5q82 0 154.5 -30t126.5 -82.5t85 -124t31 -153.5zM829 301q0 74 -28 139.5t-77 115t-116 78.5t-145 29v-726
q77 0 143.5 29t116 78.5t78 116t28.5 140.5z" />
    <glyph glyph-name="uni25D1" unicode="&#x25d1;" horiz-adv-x="940" 
d="M77 302q0 82 31 153.5t85 124t126.5 82.5t154.5 30q79 0 150 -30.5t123.5 -83t83.5 -124t31 -152.5t-30.5 -153t-83.5 -125.5t-123.5 -84.5t-150.5 -31q-82 0 -154.5 30.5t-126.5 83.5t-85 125t-31 155zM110 301q0 -74 28.5 -140.5t78 -116t116 -78.5t143.5 -29v726
q-78 0 -145 -29t-116 -78.5t-77 -115t-28 -139.5z" />
    <glyph glyph-name="uni2605" unicode="&#x2605;" horiz-adv-x="940" 
d="M468 149l-243 -171l89 281l-230 174h290l94 263l94 -263h290l-230 -174l89 -281z" />
    <glyph glyph-name="uni2606" unicode="&#x2606;" horiz-adv-x="940" 
d="M468 149l-243 -171l89 281l-230 174h290l94 263l94 -263h290l-230 -174l89 -281zM666 39l-81 226l192 143h-238l-71 216l-71 -216h-238l192 -143l-81 -226l198 145z" />
    <glyph glyph-name="uni260E" unicode="&#x260e;" horiz-adv-x="940" 
d="M913 391q0 -64 -50 -64q-45 0 -103 19q-74 23 -74 55q0 13 9 36q10 21 10 33q0 11 -16.5 20t-33.5 9q-13 0 -13 -14v-29q0 -68 30 -119q7 -12 23 -31.5t41 -46.5q22 -23 36.5 -45.5t22.5 -43.5q8 -17 12 -46q3 -17 5.5 -29t4.5 -17q1 -7 12 -25q8 -14 8 -25
q0 -23 -20.5 -38t-51.5 -15h-632q-39 0 -39 45q0 17 9 32q5 8 8.5 15t4.5 12q2 14 5 27t6 27q5 19 10.5 34t12.5 26q12 19 60 70q22 22 37 41t23 35q28 49 28 115v42q0 9 -8 9q-16 0 -33 -13t-17 -29q0 -8 7.5 -26.5t7.5 -33.5q0 -37 -75 -62q-60 -21 -106 -21q-47 0 -47 61
q0 134 167 191q112 39 276 39q152 0 271 -38q172 -57 172 -182zM587 523q-34 -4 -62.5 -6t-53.5 -2q-26 0 -55.5 2.5t-63.5 7.5v-87q0 -39 58 -39h110q67 0 67 41v83zM633 203q0 35 -12.5 65.5t-35 52.5t-52.5 34.5t-66 12.5q-35 0 -65.5 -12.5t-53 -34.5t-35 -52.5
t-12.5 -65.5t13 -65t35.5 -51.5t52.5 -34t65 -12.5t65 12t52.5 34t35.5 52t13 65z" />
    <glyph glyph-name="uni260F" unicode="&#x260f;" horiz-adv-x="940" 
d="M911 391q0 -29 -13.5 -45.5t-34.5 -16.5q-44 0 -102 19q-34 11 -53.5 24t-18.5 29q0 14 8 33q11 23 11 36q0 12 -16.5 22t-36.5 10q-10 0 -13 -3.5t-3 -13.5v-29q0 -68 30 -120q8 -12 24.5 -32t41.5 -47q22 -23 36 -46t22 -43q3 -7 5.5 -18t5.5 -27q2 -15 5 -26.5
t6 -19.5q2 -4 5 -11t8 -16q7 -14 7 -22q0 -20 -18 -35.5t-52 -15.5h-632q-16 0 -26 10t-10 33q0 16 8 29q5 9 9 16t5 13q2 11 4 19.5t4 18.5q1 4 1.5 8t1.5 7q11 41 22 59q8 11 22.5 29t36.5 41q23 23 38.5 42.5t23.5 35.5q28 52 28 116v39q0 8 -1.5 11.5t-9.5 3.5
q-9 0 -18.5 -4t-17 -11t-12.5 -15t-5 -15q0 -6 2 -11.5t4 -12.5q3 -9 6 -19t3 -17q0 -20 -20 -34t-55 -26q-30 -11 -55.5 -15.5t-47.5 -4.5q-45 0 -45 58q0 69 43 115t124 74q112 39 274 39q77 0 144 -10t125 -29q85 -28 128.5 -74t43.5 -105zM890 386q0 59 -38.5 100.5
t-124.5 71.5q-54 19 -118 27.5t-138 8.5q-145 0 -261 -38q-78 -26 -120 -69.5t-42 -103.5q0 -25 8 -35.5t26 -10.5q15 0 37 5t49 13q68 22 68 48q0 6 -3.5 12t-7.5 16q-8 20 -8 34q0 22 27 41q14 9 29 14t27 5q8 0 14.5 -8t6.5 -36q0 -57 -12.5 -103.5t-40.5 -81.5
q-12 -16 -25 -30.5t-26 -28.5q-11 -11 -21 -23t-21 -24q-18 -22 -27 -59q-2 -8 -3 -14.5t-3 -14.5t-3 -15t-3 -14q-2 -9 -11 -26q-8 -16 -8 -29q0 -14 8 -19t23 -5h605q60 0 60 35q0 13 -8 30q-3 7 -7.5 14.5t-6.5 17.5q-5 24 -8.5 43.5t-11.5 39.5q-9 23 -25 43.5t-38 43.5
q-47 52 -61 78q-28 53 -28 133q0 29 7 37.5t18 9.5q14 1 25.5 -2t25.5 -9q34 -15 34 -37q0 -14 -9 -33q-11 -21 -11 -34t14.5 -23t48.5 -20q52 -15 82 -15q20 0 28 9t8 31zM411 402q-30 0 -42.5 9t-12.5 29v83q32 -5 61 -7.5t53 -2.5t52.5 1.5t60.5 6.5v-81
q0 -19 -14.5 -28.5t-48.5 -9.5h-109zM521 417q23 0 33 6t10 23v59q-22 -5 -44 -6.5t-50 -1.5t-51.5 2.5t-45.5 7.5v-61q0 -18 11.5 -23.5t34.5 -5.5h102zM465 60q30 0 56.5 11.5t45.5 31t30 45.5t11 56t-11 56t-29.5 46t-44 31.5t-55.5 11.5q-32 0 -58 -11.5t-45 -31.5
t-29.5 -46t-10.5 -56t10 -56t28.5 -45.5t44 -31t57.5 -11.5zM467 43q-34 0 -63.5 12t-51.5 33.5t-35 51t-13 63.5t13 63.5t35 51.5t51.5 34.5t63.5 12.5q36 0 66 -12.5t51.5 -34t33.5 -51t12 -63.5q0 -35 -12 -64t-33.5 -51t-51.5 -34t-66 -12z" />
    <glyph glyph-name="uni261C" unicode="&#x261c;" horiz-adv-x="940" 
d="M780 187v21h-26q-13 -6 -25.5 -12t-25.5 -11q-26 -11 -54.5 -19t-60.5 -13q-31 -4 -112 -3q-74 2 -77 3q-20 0 -36 9q-19 10 -19 29q0 20 16 26q-22 0 -32 16q-6 9 -6 18q0 14 11 28q-12 0 -23.5 10t-12.5 22q0 36 81 39l-3 8q-23 1 -65 3t-103 5q-74 3 -75 4
q-49 7 -46 40q2 27 50 32q17 2 33 2t32 1q46 2 115.5 3.5t166.5 1.5q89 0 116 -3q75 -11 124 -55q2 -3 59 -5v31h73v-231h-75zM782 370q-1 0 -6.5 0.5l-16.5 1.5q-6 1 -11 1h-10q4 -9 4 -16q0 -3 -2 -3t-20 19q-22 21 -44 35q-43 28 -159 28q-18 0 -21 -1q-42 -9 -65 -24
q-11 -6 -21 -25q-11 -20 -20 -26q-1 -1 2.5 -4t10.5 -3t18 3q9 4 25 18q16 15 19 15q2 0 3 -1q3 -6 -4 -15q0 -2 17 -4q16 -2 24 0q5 2 11.5 4t13.5 6q13 7 14 7q2 0 2 -1q2 -10 -14 -23q5 -5 10.5 -10t11.5 -10q24 -21 55 -31q25 -7 65 -12q26 -5 26 -9q0 -6 -31 -5
q-30 2 -55 9q-41 12 -72 39l-26 26q-17 -3 -22 -3q-24 0 -42 7l-14 -13q8 -2 15.5 -3.5t14.5 -3.5q31 -9 33 -17q3 -8 3 -13q0 -14 -14 -28q9 0 20.5 -11.5t11.5 -20.5q0 -14 -16 -26q11 -3 16 -7q15 -9 16 -22q1 -18 -13 -32h4t8 -1h12t10 1q36 2 72 11.5t73 25.5
q55 22 58 27v-11q1 -1 20 0v151zM445 435q-61 0 -121.5 -1t-121.5 -3q-28 -1 -46.5 -2t-26.5 -3q-26 -5 -27 -19q0 -15 23 -21q17 -3 77 -6q39 -2 84.5 -3.5t99.5 -3.5q3 4 8 11.5t12 18.5q10 18 39 32zM839 401h-43v-198h43v198zM480 293q9 7 9 17q0 19 -28 23q-36 7 -87 3
q-34 1 -53 -12q-6 -5 -6 -12q0 -20 23 -20q2 -2 56 -2q78 0 86 3zM506 253q0 23 -44 23h-96q-10 0 -18.5 -7.5t-8.5 -15.5q0 -12 14 -20q2 -1 15.5 -2t36.5 -2q43 -2 48 0q17 0 30 4q22 6 23 16v4zM522 197q-3 17 -31 17h-48h-26.5t-35.5 -1q-19 -1 -19 -20q0 -16 13 -20
q16 -5 63 -6q45 0 47 2q11 0 23 6q17 9 14 22z" />
    <glyph glyph-name="uni261E" unicode="&#x261e;" horiz-adv-x="940" 
d="M158 418v-31q55 1 59 5q49 44 124 55q27 3 116 3q97 0 166.5 -1.5t115.5 -3.5q16 -1 32 -1t33 -2q48 -5 50 -32q3 -33 -46 -40q-1 -1 -75 -4q-61 -3 -103 -5t-65 -3l-3 -8q81 -3 81 -39q-1 -12 -12.5 -22t-23.5 -10q11 -14 11 -28q0 -9 -6 -18q-10 -16 -32 -16
q16 -6 16 -26q0 -19 -19 -29q-17 -9 -36 -9q-3 -1 -77 -3q-81 -1 -112 3q-59 9 -115 32q-13 5 -25.5 11t-25.5 12h-26v-21h-75v231h73zM158 219q19 -1 20 0v11q2 -5 58 -27q37 -16 73 -25.5t72 -11.5q5 -1 10 -1h12q5 1 8 1h4q-14 14 -13 32q1 13 16 22q5 4 16 7
q-16 12 -16 26q0 9 11.5 20.5t20.5 11.5q-14 14 -14 28q0 5 3 13q2 8 33 17q7 2 14.5 3.5t15.5 3.5l-14 13q-18 -7 -42 -7q-6 0 -22 3l-26 -26q-32 -27 -72 -39q-25 -7 -55 -9q-31 -1 -31 5q0 4 26 9q40 5 65 12q31 10 55 31q6 5 11.5 10t10.5 10q-16 13 -14 23q0 1 2 1
q1 0 14 -7q7 -4 13.5 -6t11.5 -4q7 -2 24 0t17 4q-7 9 -4 15q1 1 3 1t19 -15q16 -14 25 -18q10 -3 18 -3q7 0 10.5 3t2.5 4q-9 6 -20 26q-10 19 -21 25q-23 15 -65 24q-3 1 -21 1q-116 0 -159 -28q-23 -14 -44 -35q-18 -19 -20 -19t-2 3q0 7 4 16h-10t-11 -1l-16.5 -1.5
t-6.5 -0.5v-151zM495 435q29 -14 39 -32q7 -11 12 -18.5t8 -11.5q54 2 99.5 3.5t84.5 3.5q60 3 77 6q23 6 23 21q-1 14 -27 19q-8 2 -26.5 3t-46.5 2q-61 2 -121.5 3t-121.5 1zM144 401h-43v-198h43v198zM460 293q7 -3 86 -3q54 0 56 2q23 0 23 20q0 7 -6 12q-19 13 -53 12
q-51 4 -87 -3q-28 -4 -28 -23q0 -10 9 -17zM434 249q1 -10 23 -16q13 -4 30 -4q4 -2 48 0q23 1 36.5 2t15.5 2q14 8 14 20q0 8 -8.5 15.5t-18.5 7.5h-96q-44 0 -44 -23v-4zM418 197q-3 -13 14 -22q12 -6 23 -6q2 -2 47 -2q46 1 63 6q13 4 13 20q0 19 -19 20q-20 1 -35.5 1
h-26.5h-48q-28 0 -31 -17z" />
    <glyph glyph-name="female" unicode="&#x2640;" horiz-adv-x="630" 
d="M289 -111v203h-185v48h185v143q-40 6 -74.5 25t-60 47.5t-40 64.5t-14.5 77q0 44 17.5 83.5t47 69t68 46.5t81.5 17t82.5 -17t69 -46.5t47 -68.5t17.5 -84q0 -42 -15 -78.5t-41 -65t-60.5 -47t-73.5 -24.5v-142h186v-48h-186v-203h-51zM478 496q0 33 -13 62.5t-35 52
t-51.5 35.5t-63.5 13q-33 0 -63 -12.5t-52 -34.5t-35 -52t-13 -64q0 -33 13 -62.5t35 -51t52 -34.5t63 -13q34 0 63.5 13t51.5 35t35 51t13 62z" />
    <glyph glyph-name="male" unicode="&#x2642;" horiz-adv-x="630" 
d="M530 102q0 -45 -17.5 -84t-47 -68.5t-69 -46.5t-82.5 -17t-81.5 17t-68 46.5t-47 69t-17.5 83.5q0 40 14.5 76.5t39.5 65t59.5 47.5t73.5 25v303l-152 -173l-34 31l212 239l199 -242l-36 -35l-138 177v-299q39 -6 74 -24.5t61.5 -47t41.5 -65t15 -78.5zM478 103
q0 33 -13 62t-35 51t-51.5 35t-63.5 13q-33 0 -63 -13t-52 -34.5t-35 -51t-13 -62.5q0 -34 13 -64t35 -52t52 -34.5t63 -12.5q34 0 63.5 13t51.5 35.5t35 52t13 62.5z" />
    <glyph glyph-name="spade" unicode="&#x2660;" horiz-adv-x="940" 
d="M349 -116v29q9 16 17.5 38t16 46t13 48t7.5 45q-45 -25 -76 -36t-53 -11q-29 0 -53.5 11t-42 30.5t-27 46t-9.5 58.5q0 41 21.5 96t63 122t102.5 144t141 163q79 -86 140.5 -163t103 -144t63 -122t21.5 -96q0 -32 -9.5 -58.5t-27 -46t-42 -30.5t-53.5 -11q-22 0 -53 11
t-76 36q2 -21 7.5 -45t13 -48t16 -46t17.5 -38v-29h-242z" />
    <glyph glyph-name="uni2661" unicode="&#x2661;" horiz-adv-x="940" 
d="M843 475q0 -62 -25.5 -133t-73.5 -143.5t-118 -141.5t-159 -126q-86 54 -155.5 122.5t-118.5 141.5t-75.5 145.5t-26.5 134.5q0 43 12.5 80t36 63.5t57.5 41.5t78 15q67 0 117.5 -42t73.5 -130q23 88 74 130t119 42q43 0 77.5 -15t58 -41.5t36 -63.5t12.5 -80zM139 471
q0 -70 32.5 -145t82 -142.5t106.5 -121t107 -80.5q33 18 70 48.5t73.5 69t70 84t59 94t40.5 97.5t15 96q0 75 -36 120t-104 45q-27 0 -49.5 -10.5t-40.5 -28t-31 -40.5t-21 -48q-7 -22 -17 -35t-28 -13q-20 0 -30 13t-17 35q-8 25 -21 48t-31 40.5t-40.5 28t-49.5 10.5
q-68 0 -104 -45t-36 -120z" />
    <glyph glyph-name="club" unicode="&#x2663;" horiz-adv-x="940" 
d="M350 -105v29q15 29 30 63t19 66q2 14 0 19t-9 7q-8 2 -16.5 -4t-16.5 -13q-27 -22 -55 -34t-65 -12q-38 0 -69.5 15t-54 40.5t-35 59t-12.5 71.5t13 71t35.5 57t52.5 37.5t65 13.5q26 0 56.5 -8t62.5 -25q8 -5 18 -6t16 10q5 9 -0.5 17t-11.5 14q-21 19 -37.5 36
t-27 35.5t-16 40.5t-5.5 52q0 37 15 68t40.5 53t58.5 34t69 12t69 -12t58.5 -34t40.5 -53t15 -68q0 -30 -5.5 -52t-16 -40.5t-27 -35.5t-37.5 -36q-6 -6 -12 -13.5t-1 -16.5q6 -11 16.5 -10.5t18.5 5.5q32 17 62.5 25t56.5 8q35 0 65 -13.5t52.5 -37.5t35.5 -57t13 -71
t-12.5 -71.5t-35 -59t-54 -40.5t-69.5 -15q-37 0 -65 12t-55 34q-8 7 -16.5 13t-16.5 4q-7 -2 -9 -7t0 -19q4 -32 19 -66t30 -63v-29h-240z" />
    <glyph glyph-name="uni2664" unicode="&#x2664;" horiz-adv-x="940" 
d="M349 -116v29q9 16 17.5 38t16 46t13 48t7.5 45q-45 -25 -76 -36t-53 -11q-29 0 -53.5 11t-42 30.5t-27 46t-9.5 58.5q0 41 21.5 96t63 122t102.5 144t141 163q79 -86 140.5 -163t103 -144t63 -122t21.5 -96q0 -32 -9.5 -58.5t-27 -46t-42 -30.5t-53.5 -11q-22 0 -53 11
t-76 36q2 -21 7.5 -45t13 -48t16 -46t17.5 -38v-29h-242zM530 -78v23q-8 18 -14 38t-10.5 41t-7 41t-2.5 37q0 24 7.5 30.5t17.5 6.5q8 0 17 -3.5t18 -8.5q44 -26 67.5 -34.5t42.5 -8.5q44 0 65 31t21 75q0 32 -15 73t-39.5 86t-55.5 90.5t-62.5 86.5t-60 74t-49.5 53
q-21 -20 -50 -53t-60 -74t-62 -86.5t-55.5 -90.5t-39.5 -86t-15 -73q0 -44 21 -75t65 -31q19 0 42.5 8.5t67.5 34.5q9 5 18 8.5t17 3.5q10 0 17.5 -6.5t7.5 -30.5q0 -17 -2.5 -37t-7 -41t-11 -41t-13.5 -38v-23h120z" />
    <glyph glyph-name="heart" unicode="&#x2665;" horiz-adv-x="940" 
d="M843 475q0 -62 -25.5 -133t-73.5 -143.5t-118 -141.5t-159 -126q-86 54 -155.5 122.5t-118.5 141.5t-75.5 145.5t-26.5 134.5q0 43 12.5 80t36 63.5t57.5 41.5t78 15q67 0 117.5 -42t73.5 -130q23 88 74 130t119 42q43 0 77.5 -15t58 -41.5t36 -63.5t12.5 -80z" />
    <glyph glyph-name="uni2667" unicode="&#x2667;" horiz-adv-x="940" 
d="M350 -105v29q15 29 30 63t19 66q2 14 0 19t-9 7q-8 2 -16.5 -4t-16.5 -13q-27 -22 -55 -34t-65 -12q-38 0 -69.5 15t-54 40.5t-35 59t-12.5 71.5t13 71t35.5 57t52.5 37.5t65 13.5q26 0 56.5 -8t62.5 -25q8 -5 18 -6t16 10q5 9 -0.5 17t-11.5 14q-21 19 -37.5 36
t-27 35.5t-16 40.5t-5.5 52q0 37 15 68t40.5 53t58.5 34t69 12t69 -12t58.5 -34t40.5 -53t15 -68q0 -30 -5.5 -52t-16 -40.5t-27 -35.5t-37.5 -36q-6 -6 -12 -13.5t-1 -16.5q6 -11 16.5 -10.5t18.5 5.5q32 17 62.5 25t56.5 8q35 0 65 -13.5t52.5 -37.5t35.5 -57t13 -71
t-12.5 -71.5t-35 -59t-54 -40.5t-69.5 -15q-37 0 -65 12t-55 34q-8 7 -16.5 13t-16.5 4q-7 -2 -9 -7t0 -19q4 -32 19 -66t30 -63v-29h-240zM530 -70v25q-8 18 -14 38t-10 41t-6.5 41t-2.5 37q0 32 20 35.5t40 -15.5q32 -29 65 -50.5t80 -21.5q30 0 54 12t40.5 32t25.5 45.5
t9 53.5q0 27 -8.5 52t-25 44.5t-39.5 31.5t-51 12q-44 0 -91 -25q-13 -7 -30.5 -15t-34.5 -9q-12 -1 -23 4t-19 16q-15 23 -7.5 45t25.5 39q22 20 37.5 37t25.5 34t14.5 35.5t4.5 42.5q0 57 -39 92t-100 35t-100 -35t-39 -92q0 -24 4.5 -42.5t14.5 -35.5t25.5 -34t37.5 -37
q18 -17 25.5 -39t-7.5 -45q-8 -11 -19 -16t-23 -4q-17 1 -34.5 9t-30.5 15q-47 25 -91 25q-29 0 -51.5 -12t-39 -31.5t-25 -44.5t-8.5 -52q0 -28 9 -53.5t25.5 -45.5t40.5 -32t54 -12q47 0 80 21.5t65 50.5q20 19 40 15.5t20 -35.5q0 -17 -2.5 -37t-6.5 -41t-10.5 -41
t-13.5 -38v-25h120z" />
    <glyph glyph-name="uni2668" unicode="&#x2668;" horiz-adv-x="940" 
d="M665 248q0 -45 -36 -114q-20 -39 -32 -67t-14 -45h-13q-8 32 -8 55q0 17 3 40t10 51q7 31 10.5 53.5t3.5 38.5q0 43 -22 109t-22 106q0 22 33 91q17 38 27.5 63t13.5 37h11q7 -14 7 -47q0 -12 -2 -30t-6 -42q-4 -23 -6 -41t-2 -31q0 -48 22 -115t22 -112zM538 260
q0 -51 -38 -125q-25 -48 -39.5 -77.5t-18.5 -43.5h-15q-2 10 -3.5 21.5t-1.5 25.5q0 38 19 95q19 58 19 97t-24 113q-24 73 -24 111q0 48 33 119q36 73 39 116h13q18 -38 18 -75q0 -27 -15 -79q-15 -51 -15 -76q0 -29 26 -109q27 -74 27 -113zM397 248q0 -44 -36 -113
q-20 -38 -32 -66.5t-14 -45.5h-12q-9 19 -9 56q0 39 13 90q7 28 10 51t3 41q0 38 -21 109q-20 78 -20 107q0 21 32 90q17 35 27.5 60t12.5 40h11q6 -20 6 -47q0 -13 -2 -31.5t-6 -43.5t-6 -43t-2 -31q0 -46 22 -113q23 -80 23 -110zM872 90q0 -42 -20.5 -73t-54.5 -54
t-77 -37.5t-89 -23.5t-90.5 -12.5t-80.5 -3.5q-33 0 -74.5 3.5t-85 12t-85.5 22.5t-74.5 35.5t-52.5 50.5t-20 68q0 34 22 62.5t54 50.5t69.5 36.5t69.5 20.5l4 -13q-19 -6 -44.5 -20t-49 -32.5t-39.5 -39.5t-16 -41q0 -27 17.5 -46.5t45 -33t63 -21.5t71 -12t68.5 -5.5
t57 -1.5q25 0 60.5 1.5t74 6t76.5 13t68.5 23t49.5 35.5t19 51q0 28 -29 58.5t-92 56.5l7 12q26 -5 57 -18.5t58 -33t45 -44.5t18 -53z" />
    <glyph glyph-name="uni2669" unicode="&#x2669;" horiz-adv-x="400" 
d="M284 73q0 -27 -13 -53.5t-34 -48.5t-47.5 -35.5t-53.5 -13.5q-57 0 -57 52q0 18 10 35t26.5 30.5t37.5 22t43 8.5q9 0 15 -0.5t9 -0.5q14 0 24.5 6t10.5 28v605h29v-635z" />
    <glyph glyph-name="musicalnote" unicode="&#x266a;" horiz-adv-x="600" 
d="M250 703q28 -51 66 -88t93 -78q30 -23 53.5 -45t39.5 -46.5t24.5 -52.5t7.5 -62q-1 -36 -12 -69t-30 -62.5t-44.5 -55.5t-53.5 -47l-4 4q53 60 79 114.5t26 91.5q0 23 -10 45t-27 41q-14 16 -36.5 33t-48.5 35q-27 19 -51.5 37t-49.5 48v-473q0 -27 -13 -53.5t-34 -48.5
t-47.5 -35.5t-53.5 -13.5q-57 0 -57 52q0 18 10 35t26.5 30.5t37.5 22t43 8.5q9 0 14.5 -0.5t8.5 -0.5q14 0 25 6t11 28v600h7z" />
    <glyph glyph-name="uni266C" unicode="&#x266c;" horiz-adv-x="840" 
d="M279 371v-298q0 -27 -13 -53.5t-34 -48.5t-47.5 -35.5t-53.5 -13.5q-57 0 -57 52q0 18 10 35t26.5 30.5t37.5 22t44 8.5q8 0 14 -0.5t9 -0.5q14 0 24.5 6t10.5 28v517l475 105v-544q0 -27 -13 -53.5t-34 -48.5t-47.5 -35.5t-53.5 -13.5q-57 0 -57 52q0 18 10 35
t26.5 30.5t37.5 22t44 8.5q8 0 14.5 -0.5t9.5 -0.5q14 0 24 6.5t10 27.5v252zM696 629l-417 -94v-82l417 99v77z" />
    <glyph glyph-name="uni266D" unicode="&#x266d;" horiz-adv-x="580" 
d="M469 302q0 -71 -30.5 -130t-81 -101.5t-115 -67.5t-132.5 -28v705h59v-335q35 44 80.5 67t87.5 23q63 0 97.5 -34.5t34.5 -98.5zM410 271q0 24 -4.5 44.5t-15.5 34.5t-29.5 22t-47.5 8q-23 0 -45 -9.5t-41.5 -26t-35 -38.5t-25.5 -48v-226q52 8 97 31.5t77.5 56t51 72
t18.5 79.5z" />
    <glyph glyph-name="uni3001" unicode="&#x3001;" horiz-adv-x="940" 
d="M73 41v61l215 -93v-104z" />
    <glyph glyph-name="uni3002" unicode="&#x3002;" horiz-adv-x="940" 
d="M280 0q0 38 -24.5 63.5t-62.5 25.5t-62.5 -25.5t-24.5 -63.5t24.5 -63.5t62.5 -25.5t62.5 25.5t24.5 63.5zM301 0q0 -23 -8.5 -43t-23.5 -34.5t-34.5 -23t-41.5 -8.5t-41.5 8t-34.5 22.5t-23.5 34.5t-8.5 44t8.5 44t23.5 34.5t34.5 22.5t41.5 8t41.5 -8.5t34.5 -23
t23.5 -34.5t8.5 -43z" />
    <glyph glyph-name="uni3003" unicode="&#x3003;" horiz-adv-x="940" 
d="M335 134h-37l87 312h81zM508 134h-37l87 312h81z" />
    <glyph glyph-name="uni3008" unicode="&#x3008;" horiz-adv-x="550" 
d="M469 -78l-38 -31l-337 409l337 408l35 -30l-308 -378z" />
    <glyph glyph-name="uni3009" unicode="&#x3009;" horiz-adv-x="550" 
d="M78 -78l310 378l-307 378l35 30l337 -408l-337 -409z" />
    <glyph glyph-name="uni300A" unicode="&#x300a;" horiz-adv-x="600" 
d="M145 300l254 -388l-35 -22l-271 410l271 410l34 -21zM285 300l254 -388l-35 -22l-271 410l271 410l34 -21z" />
    <glyph glyph-name="uni300B" unicode="&#x300b;" horiz-adv-x="600" 
d="M210 689l34 21l271 -410l-271 -410l-35 22l253 388zM70 689l34 21l271 -410l-271 -410l-35 22l253 388z" />
    <glyph glyph-name="uni300C" unicode="&#x300c;" horiz-adv-x="450" 
d="M390 685h-226v-362h-56v411h282v-49z" />
    <glyph glyph-name="uni300D" unicode="&#x300d;" horiz-adv-x="450" 
d="M60 -82h226v371h56v-420h-282v49z" />
    <glyph glyph-name="uni300E" unicode="&#x300e;" horiz-adv-x="450" 
d="M394 614h-158v-293h-130v412h288v-119zM354 649v48h-210v-341h53v293h157z" />
    <glyph glyph-name="uni300F" unicode="&#x300f;" horiz-adv-x="450" 
d="M56 -12h158v301h130v-420h-288v119zM96 -47v-48h210v349h-53v-301h-157z" />
    <glyph glyph-name="uni3010" unicode="&#x3010;" horiz-adv-x="460" 
d="M121 -117v835h266q-38 -35 -68 -82t-51 -101t-32 -113.5t-11 -119.5t11 -120t31.5 -114.5t50.5 -102t69 -82.5h-266z" />
    <glyph glyph-name="uni3011" unicode="&#x3011;" horiz-adv-x="460" 
d="M73 -117q39 35 69 82.5t50.5 102t31.5 114.5t11 120t-11 119.5t-32 113.5t-51 101t-68 82h266v-835h-266z" />
    <glyph glyph-name="uni3013" unicode="&#x3013;" horiz-adv-x="940" 
d="M63 151v46h814v-46h-814zM63 391v46h814v-46h-814z" />
    <glyph glyph-name="uni3014" unicode="&#x3014;" horiz-adv-x="500" 
d="M194 -27l183 -85l-19 -41l-217 98v712l218 98l18 -42l-183 -82v-658z" />
    <glyph glyph-name="uni3015" unicode="&#x3015;" horiz-adv-x="500" 
d="M316 631l-183 82l18 42l218 -98v-712l-217 -98l-19 41l183 85v658z" />
    <glyph glyph-name="uni3041" unicode="&#x3041;" horiz-adv-x="760" 
d="M105 435q38 -2 76 -2.5t78 1.5q1 29 2.5 58.5t4.5 58.5h48q-3 -29 -5.5 -57.5t-3.5 -57.5q63 3 127 8.5t128 13.5v-48q-63 -8 -127 -13t-129 -8q-1 -29 -0.5 -56.5t2.5 -56.5q69 20 134 20q49 0 95.5 -11t82.5 -34.5t58 -61t22 -91.5q0 -47 -19.5 -83t-51 -61.5
t-71.5 -41.5t-82 -24l-11 46q29 7 62.5 20t62 33t47.5 47.5t19 63.5q0 27 -9 49.5t-24.5 40.5t-36.5 31t-44 21q-14 -31 -34.5 -65t-45 -67t-53 -64t-59.5 -55q4 -15 7.5 -30t8.5 -30l-43 -16q-4 12 -7 23.5t-6 23.5q-29 -18 -58 -28t-58 -10q-20 0 -40 6.5t-36.5 21
t-27 37.5t-10.5 56q0 38 14.5 71t39.5 60t58 49t71 37q-2 32 -3 63.5t0 63.5q-39 -1 -77 -1.5t-76 1.5v48zM196 -28q25 0 50 10t50 27q-11 50 -19 101t-13 103q-61 -28 -101.5 -70.5t-40.5 -96.5q0 -38 22.5 -56t51.5 -18zM336 40q26 23 50 50.5t44.5 56t36.5 55.5t27 50
q-26 3 -50 3q-33 -1 -67.5 -7t-67.5 -17q7 -94 27 -191z" />
    <glyph glyph-name="uni3042" unicode="&#x3042;" 
d="M129 558q44 -2 89 -2.5t91 0.5q3 76 12 154h52q-5 -38 -8 -76t-5 -77q78 3 157 9t157 15v-49q-77 -9 -156 -14.5t-160 -7.5q-2 -68 0 -135q42 12 83.5 18t82.5 6q55 0 112 -13t103.5 -41.5t76.5 -74t30 -111.5q0 -56 -21.5 -98.5t-58 -73t-84 -50.5t-99.5 -30l-17 55
q39 8 80 21t74 35.5t54.5 56.5t21.5 84q0 36 -14 64.5t-37.5 50.5t-54 37.5t-64.5 24.5q-16 -41 -39.5 -85.5t-52.5 -87.5t-62.5 -82.5t-70.5 -70.5q5 -23 10.5 -46.5t11.5 -46.5l-49 -12q-5 18 -9 36l-8 36q-32 -21 -66 -33.5t-68 -12.5q-66 0 -105.5 43.5t-39.5 119.5
q0 47 18 87.5t49.5 74t73.5 59.5t90 44q-2 37 -2.5 74.5t0.5 75.5q-45 -1 -89.5 -1t-88.5 2v48zM229 -13q29 0 59 11t59 31q-14 69 -22 137.5t-13 139.5q-38 -16 -71.5 -37t-58.5 -47.5t-39 -58.5t-14 -68q0 -22 6 -41.5t18.5 -34.5t31.5 -23.5t44 -8.5zM391 64
q56 51 104 124.5t82 157.5q-14 2 -26.5 3t-25.5 1q-39 0 -81 -6.5t-83 -19.5q4 -65 11 -129.5t19 -130.5z" />
    <glyph glyph-name="uni3043" unicode="&#x3043;" horiz-adv-x="720" 
d="M230 -9q35 0 61 34.5t52 91.5l40 -22q-38 -90 -75.5 -126t-77.5 -36q-42 0 -69.5 22.5t-44 61.5t-23 92t-6.5 114q0 29 1.5 58t4 56t5 49.5t5.5 39.5l51 -5q-5 -33 -10.5 -91.5t-5.5 -122.5q0 -47 5 -86.5t16.5 -68.5t29 -45t41.5 -16zM594 19q-6 38 -14.5 81t-21 87.5
t-29.5 89.5t-39 87l47 23q22 -41 40 -85t31.5 -89t22.5 -90t13 -86z" />
    <glyph glyph-name="uni3044" unicode="&#x3044;" horiz-adv-x="800" 
d="M248 0q18 0 34.5 14t32 39t29 58t24.5 71l54 -18q-36 -111 -81.5 -167.5t-91.5 -56.5q-51 0 -82.5 36t-49.5 93.5t-24 129t-6 142.5q0 72 4.5 141.5t9.5 128.5l58 -5q-2 -17 -4.5 -47t-5 -67.5t-4 -80t-1.5 -85.5q0 -57 5.5 -115t18 -105t32 -76.5t48.5 -29.5zM669 63
q-9 119 -35.5 238t-85.5 233l49 21q31 -56 54 -116t38.5 -121t24 -122t11.5 -118z" />
    <glyph glyph-name="uni3045" unicode="&#x3045;" horiz-adv-x="600" 
d="M210 -59q43 11 89 28.5t84 44t62.5 63t24.5 85.5q0 37 -12 63.5t-32 43t-47.5 24t-57.5 7.5q-29 0 -60 -5t-62 -13.5t-59 -18.5t-50 -19l-17 50q25 11 55 21.5t62.5 19t66 13.5t63.5 5q40 0 76.5 -9t64.5 -31t45 -59t17 -92q0 -62 -26 -106.5t-68 -76t-95 -52.5t-107 -34
zM427 450q-33 4 -70 9.5t-73.5 11.5t-71 13.5t-63.5 16.5l15 51q31 -10 65 -18t69 -14t69.5 -10.5t66.5 -6.5z" />
    <glyph glyph-name="uni3046" unicode="&#x3046;" horiz-adv-x="700" 
d="M236 -68q55 10 113 28t106 51t78.5 84t30.5 126q0 45 -15 77.5t-40.5 54t-60 32t-73.5 10.5q-36 0 -73.5 -5t-74.5 -13.5t-70.5 -19t-60.5 -20.5l-19 52q30 12 65.5 22.5t73 18.5t76 13t76.5 5q53 0 99.5 -11.5t81.5 -38t55.5 -70t20.5 -107.5q0 -85 -30.5 -144t-82 -99
t-119.5 -63t-143 -35zM512 564q-39 4 -83.5 10.5t-89 14.5t-86 17.5t-75.5 19.5l18 56q32 -10 74 -19t86 -17t87 -14t78 -9z" />
    <glyph glyph-name="uni3047" unicode="&#x3047;" horiz-adv-x="670" 
d="M86 -44q91 76 176.5 169t164.5 187q-76 -12 -154 -18t-148 -8l-1 52q70 2 155.5 6.5t169.5 12.5l45 -49q-39 -48 -81.5 -96t-87.5 -96q36 11 61 11q51 0 58 -71q2 -23 4.5 -40.5t9.5 -29t21 -17t38 -5.5q29 0 59 2t56 5v-53q-25 -2 -56.5 -3.5t-60.5 -1.5q-37 0 -59 7
t-34.5 21.5t-18.5 37t-10 53.5q-3 23 -13 37.5t-36 12.5q-11 -1 -29.5 -5t-38.5 -12q-38 -40 -76.5 -77t-76.5 -72zM452 450q-33 4 -70 9.5t-73.5 11.5t-71 13.5t-63.5 16.5l15 51q31 -10 65 -18t69 -14t69.5 -10.5t66.5 -6.5z" />
    <glyph glyph-name="uni3048" unicode="&#x3048;" horiz-adv-x="820" 
d="M597 416q-47 -63 -96 -123.5t-101 -120.5q17 5 32.5 7.5t26.5 2.5q34 0 52 -25.5t23 -72.5q3 -29 7.5 -52t14.5 -38.5t28.5 -23.5t50.5 -8q38 0 78.5 2t75.5 6v-57q-34 -3 -77.5 -4.5t-82.5 -1.5q-49 0 -76.5 10.5t-42.5 31t-21.5 51t-13.5 69.5q-6 33 -20.5 47.5
t-47.5 14.5q-14 0 -26.5 -2.5t-25.5 -7.5q-53 -58 -108 -113.5t-112 -109.5l-37 39q59 53 117.5 112.5t113.5 121.5t106.5 125.5t97.5 125.5q-51 -7 -104 -12.5t-104 -9.5t-98 -6.5t-86 -2.5v53q93 1 195.5 9t214.5 22zM537 564q-39 4 -83.5 10.5t-89 14.5t-86 17.5
t-75.5 19.5l18 56q32 -10 74 -19t86 -17t87 -14t78 -9z" />
    <glyph glyph-name="uni3049" unicode="&#x3049;" horiz-adv-x="760" 
d="M105 411q83 -3 167 0v132h49v-130q36 2 72 4.5t73 6.5v-48q-36 -5 -72 -7t-73 -4v-119q31 8 63 11.5t64 3.5q42 0 82 -11t71 -33.5t50 -57t19 -80.5q0 -34 -10 -64t-29 -52.5t-46.5 -35.5t-62.5 -13q-24 0 -54.5 8.5t-53.5 19.5l18 44q20 -12 46.5 -19t46.5 -7
q22 0 40.5 10t31 26.5t19.5 38.5t7 45q0 34 -14.5 59.5t-38.5 42.5t-56 25.5t-66 8.5q-62 0 -127 -17v-196q0 -26 -9 -46t-25.5 -33.5t-39 -20t-47.5 -6.5q-27 0 -49.5 10t-38.5 27.5t-25 42t-9 53.5q0 36 15 67t41.5 56.5t61.5 45t76 33.5v131q-83 -3 -167 0v48zM200 -51
q36 0 54 17t18 55v162q-30 -12 -56 -27.5t-45 -34.5t-30 -41.5t-11 -47.5q0 -36 16 -59.5t54 -23.5zM662 282q-8 18 -20 42t-26 48t-28 45.5t-25 35.5l40 26q13 -16 27 -37t27.5 -44.5t26 -46t21.5 -41.5z" />
    </font>
</defs>
</svg>
